<svg width="25" height="25" viewBox="0 0 25 25" fill="none" xmlns="http://www.w3.org/2000/svg">
<path d="M25.0001 20.6221V21.9941C25.0001 22.186 24.8234 22.3372 24.614 22.3372H16.8915C16.6755 22.3372 16.5054 22.1802 16.5054 21.9941V20.6221C16.5054 20.4302 16.6821 20.279 16.8915 20.279H24.614C24.83 20.2732 25.0001 20.4302 25.0001 20.6221Z" fill="black"/>
<path d="M25.0001 23.2791V24.6512C25.0001 24.843 24.8234 24.9942 24.614 24.9942H16.8915C16.6755 24.9942 16.5054 24.8372 16.5054 24.6512V23.2791C16.5054 23.0872 16.6821 22.936 16.8915 22.936H24.614C24.83 22.936 25.0001 23.0872 25.0001 23.2791Z" fill="black"/>
<path d="M18.3505 19.6805H16.8976C16.3152 19.6805 15.8374 20.1049 15.8374 20.6224V21.9945C15.8374 22.2445 15.9487 22.4712 16.1254 22.634C15.9487 22.8026 15.8374 23.0293 15.8374 23.2735V24.6514C15.8374 24.7735 15.8636 24.8898 15.9094 24.9945H13.9395V17.57C13.9395 17.4072 13.789 17.2735 13.6057 17.2735H13.2393L15.1044 14.4072L15.111 14.4014H16.5246C16.2497 14.9305 16.0927 15.5177 16.0927 16.1398C16.0927 17.6398 16.9958 18.9538 18.3505 19.6805Z" fill="black"/>
<path d="M9.07764 21.0698H12.0358V21.7965H9.07764V21.0698Z" fill="black"/>
<path d="M0 17.872V24.9999H13.2723V17.872H0ZM12.7029 24.1976C12.7029 24.3604 12.5524 24.4941 12.3691 24.4941H0.903141C0.719895 24.4941 0.569372 24.3604 0.569372 24.1976V18.6743C0.569372 18.5115 0.719895 18.3778 0.903141 18.3778H12.3626C12.5458 18.3778 12.6963 18.5115 12.6963 18.6743V24.1976H12.7029Z" fill="black"/>
<path d="M1.23682 21.0698H4.19493V21.7965H1.23682V21.0698Z" fill="black"/>
<path d="M8.74336 20.4768H12.0352V18.9709H1.23682V20.4768H4.5287C4.71195 20.4768 4.86247 20.6105 4.86247 20.7733V22.093C4.86247 22.2558 4.71195 22.3896 4.5287 22.3896H1.23682V23.8954H12.0287V22.3896H8.73682C8.55357 22.3896 8.40305 22.2558 8.40305 22.093V20.7733C8.40305 20.6105 8.55357 20.4768 8.74336 20.4768ZM6.70148 21.1337C7.37556 21.3489 7.72896 21.7616 7.66352 22.2326C7.62425 22.5872 7.30357 22.843 6.93708 22.9477V23.1512C6.93708 23.314 6.78655 23.4477 6.60331 23.4477C6.42006 23.4477 6.26954 23.314 6.26954 23.1512V22.9651C5.90305 22.8721 5.56928 22.5989 5.57582 22.0523C5.57582 21.8896 5.72635 21.7558 5.90959 21.7558H5.91614C6.09938 21.7558 6.24991 21.8896 6.24991 22.0582C6.24991 22.2849 6.34153 22.3954 6.54441 22.4012H6.60985C6.80619 22.3896 6.99598 22.2791 7.00907 22.1686C7.00907 22.1628 7.00907 22.1628 7.00907 22.157C7.04834 21.8896 6.57713 21.7209 6.47896 21.6919C5.59546 21.407 5.52347 20.9593 5.61509 20.6337C5.73289 20.2384 6.02085 20.0116 6.33498 19.9186V19.7209C6.33498 19.5582 6.48551 19.4244 6.66875 19.4244C6.852 19.4244 7.00252 19.5582 7.00252 19.7209V19.9244C7.43446 20.0523 7.71587 20.407 7.69624 20.843C7.6897 21.0058 7.53263 21.1337 7.34938 21.1279C7.16614 21.1221 7.02216 20.9826 7.0287 20.8198C7.03525 20.593 6.87818 20.4942 6.72111 20.4768C6.70148 20.4768 6.68839 20.4709 6.66875 20.4709C6.51169 20.4709 6.33498 20.5465 6.26299 20.7849C6.24336 20.8489 6.20409 20.9709 6.70148 21.1337Z" fill="black"/>
<path d="M11.165 17.2735H2.95166C3.76318 15.5351 5.66108 14.4014 7.80114 14.4014H9.29328L11.165 17.2735Z" fill="black"/>
<path d="M14.5806 12.6046V14.0174L12.4667 17.2674H11.9366L9.82275 14.0174V12.5291C10.5885 12.9477 11.4392 13.1511 12.2639 13.157H12.2704C13.0492 13.157 13.8476 12.9767 14.5806 12.6046Z" fill="black"/>
<path d="M20.7529 12.5931C19.3196 12.5931 18.0566 13.2675 17.3563 14.2791C16.9833 14.8198 16.7607 15.4535 16.7607 16.1338C16.7607 18.0873 18.5539 19.6803 20.7529 19.6803C22.9518 19.6803 24.745 18.0873 24.745 16.1338C24.745 14.1803 22.9518 12.5931 20.7529 12.5931ZM20.7987 15.8198C21.1521 15.9303 22.2778 16.378 22.1469 17.3198C22.0945 17.814 21.6233 18.1628 21.0867 18.2966V18.7326C21.0867 18.8954 20.9361 19.0291 20.7529 19.0291C20.5696 19.0291 20.4191 18.8954 20.4191 18.7326V18.3314C19.8759 18.2559 19.3066 17.8954 19.3131 17.0698C19.3131 16.907 19.4702 16.7733 19.6534 16.7733C19.8367 16.7733 19.9872 16.907 19.9872 17.0756C19.9806 17.6105 20.321 17.7384 20.6024 17.7501H20.7202C21.0997 17.7268 21.4597 17.5059 21.4793 17.2617C21.4793 17.2559 21.4793 17.2559 21.4793 17.2501C21.5513 16.7384 20.7987 16.4535 20.5696 16.378C19.588 16.0582 19.1888 15.5873 19.372 14.9594C19.5422 14.3896 19.9675 14.0756 20.4191 13.9652V13.5349C20.4191 13.3721 20.5696 13.2384 20.7529 13.2384C20.9361 13.2384 21.0867 13.3721 21.0867 13.5349V13.9477C21.7673 14.0698 22.2123 14.5873 22.1861 15.221C22.1796 15.3838 22.0225 15.5117 21.8393 15.5059C21.656 15.5001 21.5121 15.3605 21.5186 15.1977C21.5382 14.7559 21.1979 14.5582 20.9034 14.5175C20.8511 14.5117 20.8052 14.5117 20.7529 14.5117C20.4649 14.5233 20.1442 14.6803 20.0199 15.1047C19.9545 15.3256 20.0068 15.564 20.7987 15.8198Z" fill="white"/>
<path d="M17.2707 6.47674C16.9435 4.22674 16.0076 3.69767 15.8898 3.63372C15.7851 3.5814 15.6542 3.5814 15.5495 3.63953C13.3964 4.84302 11.6817 4.26744 10.4317 3.84884C9.51548 3.5407 8.65161 3.25 8.1215 3.97093C8.08224 4.01744 8.0626 4.0814 8.06915 4.13953C8.09533 5.31395 7.7092 6.43605 7.44742 7.05814C6.54428 5.67442 6.57046 4.18605 7.51941 2.81395C8.67779 1.14535 10.9618 0 12.9775 0C13.2197 0 13.4553 0.0174418 13.6909 0.0523256C14.7053 0.203488 16.0142 0.767442 16.4854 2.59884C16.505 2.6686 16.5508 2.73256 16.6163 2.77326C17.9972 3.66279 17.6896 5.35465 17.2707 6.47674Z" fill="black"/>
<path d="M16.7083 7.72675C16.6494 9.67443 15.851 11 14.7777 11.7616C14.7253 11.7791 14.6861 11.814 14.6534 11.8488C13.9269 12.3314 13.0827 12.564 12.2712 12.564H12.2646C11.4073 12.564 10.5172 12.3023 9.75807 11.7616C9.72535 11.7209 9.67953 11.6861 9.62063 11.6628C8.62587 10.8895 7.89288 9.60466 7.83398 7.76164C8.00414 7.42443 8.73058 5.91861 8.72404 4.23838C8.94655 4.02327 9.31304 4.11629 10.1835 4.4128C11.4531 4.83722 13.351 5.47675 15.6808 4.26745C15.9753 4.54071 16.6233 5.42443 16.7083 7.72675Z" fill="black"/>
</svg>
