<svg width="25" height="25" viewBox="0 0 25 25" fill="none" xmlns="http://www.w3.org/2000/svg">
<path d="M14.9778 7.20178H13.7641C13.5778 7.20682 13.4317 7.35287 13.4317 7.53921V8.78317C13.4367 8.96447 13.5828 9.11053 13.7641 9.11556H14.9778C15.1642 9.11556 15.3102 8.96951 15.3153 8.78317V7.53921C15.3153 7.35287 15.1642 7.20178 14.9778 7.20178Z" fill="black"/>
<path d="M14.9778 15.0886H13.7641C13.5778 15.0936 13.4317 15.2396 13.4317 15.426V16.6699C13.4317 16.8563 13.5778 17.0023 13.7641 17.0074H14.9778C15.1642 17.0074 15.3153 16.8563 15.3153 16.6699V15.426C15.3153 15.2396 15.1642 15.0886 14.9778 15.0886Z" fill="black"/>
<path d="M22.8544 12.4647H21.4996C21.3486 12.5 21.2378 12.641 21.2378 12.7971V16.67C21.2428 16.8513 21.3889 16.9974 21.5702 17.0024H22.7839C22.9702 17.0024 23.1163 16.8563 23.1213 16.67V12.7971C23.1213 12.636 23.0105 12.5 22.8544 12.4647Z" fill="black"/>
<path d="M20.1854 7.1969H18.9717C18.7854 7.1969 18.6343 7.34799 18.6343 7.53433V8.77325C18.6343 8.95959 18.7854 9.11068 18.9717 9.11068H20.1854C20.3718 9.10564 20.5178 8.95959 20.5178 8.77325V7.53937C20.5229 7.35302 20.3718 7.20194 20.1854 7.1969Z" fill="black"/>
<path d="M17.5816 7.20178H16.3679C16.1815 7.20178 16.0305 7.35287 16.0305 7.53921V8.78317C16.0305 8.96951 16.1815 9.1206 16.3679 9.1206H17.5816C17.768 9.1206 17.9191 8.96951 17.9191 8.78317V7.53921C17.9191 7.35287 17.768 7.20178 17.5816 7.20178Z" fill="black"/>
<path d="M20.1854 15.0886H18.9717C18.7854 15.0886 18.6393 15.2346 18.6343 15.421V16.6649C18.6393 16.8513 18.7854 16.9973 18.9717 16.9973H20.1854C20.3668 16.9923 20.5128 16.8462 20.5178 16.6649V15.421C20.5128 15.2396 20.3668 15.0936 20.1854 15.0886Z" fill="black"/>
<path d="M20.256 12.4597H18.9012C18.7451 12.4949 18.6393 12.6309 18.6343 12.787V14.036C18.6393 14.2223 18.7854 14.3684 18.9717 14.3684H20.1854C20.3668 14.3634 20.5128 14.2173 20.5178 14.036V12.787C20.5178 12.6309 20.407 12.4949 20.256 12.4597Z" fill="black"/>
<path d="M11.6187 5.76648V17.7377C11.6137 18.0398 11.8604 18.2866 12.1626 18.2917H24.3453C24.6475 18.2866 24.8943 18.0398 24.8892 17.7377V5.76648H11.6187ZM23.8367 8.7832C23.8367 9.04005 23.741 9.28683 23.5748 9.4782C23.741 9.66958 23.8367 9.91636 23.8367 10.1732V11.4172C23.8367 11.669 23.746 11.9158 23.5798 12.1071C23.746 12.2985 23.8367 12.5453 23.8367 12.7971V16.67C23.8316 17.2492 23.3633 17.7175 22.7841 17.7226H21.5703C21.3135 17.7226 21.0667 17.6269 20.8753 17.4556C20.684 17.6269 20.4422 17.7226 20.1854 17.7226H18.9716C18.7148 17.7226 18.468 17.6269 18.2766 17.4607C18.0853 17.6319 17.8385 17.7276 17.5816 17.7276H16.3679C16.111 17.7276 15.8643 17.6319 15.6729 17.4607C15.4815 17.6269 15.2347 17.7226 14.9779 17.7226H13.7641C13.185 17.7175 12.7166 17.2492 12.7116 16.67V15.426C12.7116 15.1692 12.8073 14.9224 12.9785 14.731C12.8073 14.5396 12.7116 14.2929 12.7116 14.036V12.7921C12.7116 12.5403 12.8073 12.2935 12.9735 12.1021C12.8073 11.9158 12.7116 11.669 12.7116 11.4172V10.1682C12.7116 9.91132 12.8073 9.66958 12.9785 9.4782C12.8073 9.28683 12.7116 9.04005 12.7116 8.7832V7.53924C12.7116 6.95504 13.1799 6.48667 13.7641 6.48163H14.9779C15.2347 6.48163 15.4815 6.57732 15.6729 6.74855C15.8643 6.58235 16.111 6.48666 16.3679 6.48666H17.5816C17.8334 6.48666 18.0802 6.58235 18.2716 6.74855C18.463 6.57732 18.7148 6.48163 18.9716 6.48163H20.1854C20.4422 6.48163 20.689 6.57732 20.8804 6.74855C21.0718 6.58235 21.3185 6.48666 21.5703 6.48666H22.7841C23.3633 6.4917 23.8316 6.96007 23.8367 7.53924V8.7832Z" fill="black"/>
<path d="M17.5816 15.0936H16.3679C16.1815 15.0936 16.0355 15.2397 16.0305 15.426V16.67C16.0355 16.8563 16.1815 17.0024 16.3679 17.0024H17.5816C17.768 17.0024 17.914 16.8563 17.9191 16.67V15.426C17.914 15.2397 17.768 15.0936 17.5816 15.0936Z" fill="black"/>
<path d="M22.7839 9.83582H21.5702C21.3838 9.84085 21.2378 9.9869 21.2378 10.1732V11.4122C21.2378 11.5683 21.3435 11.7043 21.4996 11.7395H22.8544C23.0105 11.7043 23.1213 11.5683 23.1213 11.4122V10.1732C23.1213 9.9869 22.9702 9.83582 22.7839 9.83582Z" fill="black"/>
<path d="M22.7839 7.20178H21.5702C21.3838 7.20682 21.2378 7.35287 21.2378 7.53921V8.77813C21.2378 8.96447 21.3838 9.11053 21.5702 9.11556H22.7839C22.9702 9.11556 23.1213 8.96447 23.1213 8.77813V7.53921C23.1213 7.35287 22.9702 7.20178 22.7839 7.20178Z" fill="black"/>
<path d="M17.6521 12.4647H16.2974C16.1413 12.5 16.0305 12.636 16.0305 12.7971V14.036C16.0305 14.2173 16.1815 14.3684 16.3629 14.3684H16.3679H17.5816C17.7629 14.3735 17.914 14.2224 17.9191 14.0411V14.036V12.7971C17.9191 12.636 17.8083 12.5 17.6521 12.4647Z" fill="black"/>
<path d="M8.17382 0.483481C8.17886 0.352538 8.13857 0.226632 8.05799 0.12087C8.00259 0.0503626 7.91697 0.00503626 7.82632 0H7.12628C7.03563 0.00503626 6.95001 0.0503626 6.89461 0.12087C6.81403 0.221595 6.76871 0.347502 6.76871 0.478445V0.851128L8.17382 0.861201V0.483481Z" fill="black"/>
<path d="M15.0483 12.4647H13.6936C13.5375 12.5 13.4317 12.636 13.4317 12.7921V14.036C13.4317 14.2224 13.5778 14.3684 13.7641 14.3735H14.9778C15.1642 14.3735 15.3153 14.2224 15.3153 14.036V12.7971C15.3153 12.636 15.2045 12.5 15.0483 12.4647Z" fill="black"/>
<path d="M17.5816 9.83582H16.3679C16.1815 9.83582 16.0305 9.9869 16.0305 10.1732V11.4172C16.0305 11.5733 16.1413 11.7093 16.2974 11.7446H17.6521C17.8083 11.7093 17.9191 11.5733 17.9191 11.4172V10.1732C17.9191 9.9869 17.768 9.83582 17.5816 9.83582Z" fill="black"/>
<path d="M20.1854 9.83075H18.9717C18.7854 9.83075 18.6343 9.98184 18.6343 10.1682V11.4071C18.6343 11.5632 18.7451 11.6992 18.9012 11.7345H20.256C20.4121 11.6992 20.5178 11.5632 20.5178 11.4071V10.1732C20.5229 9.98687 20.3718 9.83579 20.1854 9.83075Z" fill="black"/>
<path d="M14.9778 9.83582H13.7641C13.5828 9.84085 13.4367 9.9869 13.4317 10.1682V11.4172C13.4317 11.5733 13.5375 11.7093 13.6936 11.7446H15.0483C15.2045 11.7093 15.3153 11.5733 15.3153 11.4172V10.1732C15.3153 9.9869 15.1642 9.83582 14.9778 9.83582Z" fill="black"/>
<path d="M13.4317 3.61609H22.7689V1.98938H13.4317V3.61609ZM21.3487 2.5333H22.0135V3.24845H21.3487V2.5333ZM20.1551 2.5333H20.8249V3.24845H20.1551V2.5333ZM19.0673 2.52322H19.7371V3.23837H19.0673V2.52322ZM17.8787 2.52322H18.5485V3.23837H17.8787V2.52322Z" fill="black"/>
<path d="M24.8892 0.861116C24.8892 0.840971 24.8892 0.825862 24.8841 0.805717C24.859 0.569013 24.6877 0.372599 24.456 0.3172H12.1625C11.8604 0.322236 11.6186 0.569013 11.6186 0.871188V5.06136H24.8892V0.861116ZM23.4891 3.97353C23.4891 4.04403 23.4689 4.11454 23.4287 4.16994V4.2757H23.3229C23.2625 4.31599 23.197 4.33614 23.1265 4.33614H13.0741C13.0036 4.33614 12.9381 4.31599 12.8777 4.2757H12.7719V4.16994C12.7316 4.11454 12.7115 4.04403 12.7115 3.97353V1.63166C12.7115 1.56116 12.7316 1.49568 12.7719 1.44029V1.32949H12.8777C12.9381 1.29423 13.0036 1.27409 13.0741 1.27409H23.1265C23.197 1.27409 23.2625 1.29423 23.3229 1.32949H23.4287V1.44029C23.4689 1.49568 23.4891 1.56116 23.4891 1.63166V3.97353Z" fill="black"/>
<path d="M8.16885 1.46558L7.47385 1.46054L6.76374 1.45551L6.74359 4.18012H8.14871L8.16885 1.46558Z" fill="black"/>
<path d="M8.08831 13.4015L8.14875 4.78448H6.7386L6.67816 13.3915L7.3228 13.3965L8.08831 13.4015Z" fill="black"/>
<path d="M7.36817 15.4311L7.97252 14.0008L6.78397 13.9957L7.36817 15.4311Z" fill="black"/>
<path d="M15.2196 19.0069H12.1625C11.4625 19.0019 10.8984 18.4378 10.9035 17.7377V5.76656V4.78448H9.87105V6.51696C9.87105 6.68316 9.73507 6.81913 9.56888 6.81913C9.40268 6.81913 9.2667 6.68316 9.2667 6.51696V4.78448H8.753L8.71271 10.4855H10.9035V11.0899H8.70768L8.6976 12.5605H10.9035V13.1648H8.69257V13.7037V13.7994V13.8598H8.68753C8.68249 13.8749 8.67746 13.8951 8.66739 13.9102L7.90187 15.7283C7.81122 15.9398 7.60473 16.0808 7.37307 16.0808H7.36299C7.13133 16.0758 6.92484 15.9348 6.83419 15.7182L6.09386 13.8951C6.07875 13.8598 6.07371 13.8195 6.07371 13.7792V13.1648H1.36481V12.5605H6.07875L6.13415 4.78448H0.871254C0.453245 4.78448 0.110779 5.14206 0.110779 5.58021V24.2043C0.110779 24.6425 0.453245 25 0.871254 25H1.92887C2.34688 25 2.68934 24.6425 2.68934 24.2043V22.8445H15.2196V19.0069ZM1.36481 10.4855H4.38153V11.0899H1.36481V10.4855ZM1.36481 14.9275H5.43411V15.411H1.36481V14.9275ZM6.47158 17.6572H1.36481V17.0528H6.47158V17.6572ZM10.9035 17.6572H8.88898V17.0528H10.9035V17.6572ZM10.9035 15.6376H8.5163V15.1088H10.9035V15.6376Z" fill="black"/>
<path d="M15.2196 23.4489H3.29374V24.2043C3.29374 24.4863 3.20813 24.7633 3.052 25H17.7428C18.1608 25 18.5033 24.6424 18.5033 24.2043V23.4489H15.2196Z" fill="black"/>
<path d="M9.26662 4.18004H9.87098V1.18346C9.87098 1.01727 9.735 0.881287 9.5688 0.881287H8.77811V1.48564H9.27166L9.26662 4.18004Z" fill="black"/>
</svg>
