<svg width="807" height="807" viewBox="0 0 807 807" fill="none" xmlns="http://www.w3.org/2000/svg">
<path d="M796.789 10.2021L796.788 10.2015C787.349 0.730059 773.172 -2.05427 760.814 2.9476C760.814 2.94776 760.813 2.94793 760.813 2.9481L21.0591 305.574L796.789 10.2021ZM796.789 10.2021C806.23 19.643 809.079 33.8197 804.047 46.1431L501.419 785.896C496.284 798.45 484.06 806.5 470.744 806.5C469.62 806.5 468.461 806.434 467.294 806.334M796.789 10.2021L467.294 806.334M0.686584 339.692L0.686706 339.693C2.2099 354.333 13.2075 366.193 27.684 368.842C27.6842 368.842 27.6844 368.842 27.6845 368.842M0.686584 339.692L27.5945 369.334L27.6845 368.842M0.686584 339.692C-0.870682 325.052 7.4432 311.172 21.0583 305.574L0.686584 339.692ZM27.6845 368.842L374.664 431.923L375.005 431.984L375.067 432.325L438.182 779.304L438.182 779.304C440.798 793.778 452.655 804.774 467.294 806.334M27.6845 368.842L467.294 806.334" stroke="#07A6A2"/>
</svg>
