<svg width="91" height="78" viewBox="0 0 91 78" fill="none" xmlns="http://www.w3.org/2000/svg">
<path d="M89.5744 39.0669L89.5744 39.0686C89.5744 40.1878 88.9028 41.1964 87.8754 41.6281L5.11909 76.3323L5.50582 77.2545L5.11904 76.3323C4.07149 76.7717 2.86917 76.5245 2.08042 75.7357C2.01819 75.6735 1.95215 75.6002 1.88011 75.5149C1.11035 74.5543 1.06274 73.2053 1.76244 72.1969L1.76308 72.196L24.2997 39.6377L24.6937 39.0685L24.2996 38.4993L1.76092 5.94479C1.05964 4.92937 1.11127 3.57539 1.88801 2.61827L1.88946 2.61647C2.66302 1.65875 3.97668 1.32756 5.11673 1.80271C5.1171 1.80286 5.11747 1.80302 5.11784 1.80317L87.8697 36.5055C87.8703 36.5058 87.8708 36.506 87.8714 36.5062C88.9044 36.9447 89.5763 37.9512 89.5744 39.0669Z" stroke="white" stroke-width="2"/>
</svg>
