<svg width="801" height="801" viewBox="0 0 801 801" fill="none" xmlns="http://www.w3.org/2000/svg">
<path d="M790.64 10.8822L790.639 10.8816C781.284 1.49356 767.231 -1.26627 754.982 3.69152C754.982 3.6917 754.981 3.69187 754.981 3.69205L21.6437 303.693C8.14801 309.241 -0.0930178 322.999 1.45057 337.51L1.45069 337.511C2.96047 352.023 13.8612 363.778 28.2102 366.404C28.2104 366.404 28.2106 366.404 28.2108 366.404M790.64 10.8822L28.1208 366.896L28.2108 366.404M790.64 10.8822C799.998 20.2399 802.822 34.2918 797.834 46.5067L497.831 779.843C492.741 792.286 480.625 800.266 467.426 800.266C466.313 800.266 465.164 800.2 464.007 800.101M790.64 10.8822L464.007 800.101M28.2108 366.404L372.181 428.937L372.521 428.999L372.583 429.34L435.151 773.309L435.151 773.309C437.744 787.656 449.496 798.555 464.007 800.101M28.2108 366.404L464.007 800.101" stroke="#07A6A2"/>
</svg>
