<svg width="118" height="120" viewBox="0 0 118 120" fill="none" xmlns="http://www.w3.org/2000/svg">
<path d="M111.881 20.339V0H103.745V20.339H97.6436L107.813 36.6102L117.983 20.339H111.881Z" fill="black"/>
<path d="M101.712 71.1864H105.78V75.2542H101.712V71.1864Z" fill="#07A6A2"/>
<path d="M93.5762 71.1864H97.644V75.2542H93.5762V71.1864Z" fill="#07A6A2"/>
<path d="M77.3047 71.1864H81.3725V75.2542H77.3047V71.1864Z" fill="#07A6A2"/>
<path d="M109.847 71.1864H113.914V75.2542H109.847V71.1864Z" fill="#07A6A2"/>
<path d="M85.4404 71.1864H89.5082V75.2542H85.4404V71.1864Z" fill="#07A6A2"/>
<path d="M16.2875 87.4577H20.3553V91.5255H24.4231V83.3899H12.2197V91.5255H16.2875V87.4577Z" fill="#07A6A2"/>
<path d="M34.5929 83.3899H28.4912V95.5933H8.15219V83.3899H2.0505C0.927788 83.3899 0.0166016 84.3011 0.0166016 85.4238V117.966C0.0166016 119.089 0.927788 120 2.0505 120H34.5929C35.7156 120 36.6268 119.089 36.6268 117.966V85.4238C36.6268 84.3011 35.7156 83.3899 34.5929 83.3899ZM24.4234 115.932H20.3556V111.864H24.4234V115.932ZM32.559 115.932H28.4912V111.864H32.559V115.932Z" fill="#07A6A2"/>
<path d="M99.6779 16.2711V10.1694H16.2881V79.322H34.5932C37.9572 79.322 40.6949 82.0596 40.6949 85.4237V111.864H105.78V81.3559H71.2033V65.0847H105.78V41.0298L90.3057 16.2711H99.6779ZM56.9661 16.2711H63.0677V24.4067H56.9661V16.2711ZM48.8305 16.2711H52.8983V24.4067H48.8305V16.2711ZM40.6949 16.2711H44.7627V24.4067H40.6949V16.2711ZM32.5593 16.2711H36.6271V24.4067H32.5593V16.2711ZM22.3898 16.2711H28.4915V24.4067H22.3898V16.2711ZM20.3559 30.5084H69.1694V34.5762H20.3559V30.5084ZM20.3559 38.644H24.4237V42.7118H20.3559V38.644ZM20.3559 54.9152H28.4915V58.983H20.3559V54.9152ZM20.3559 63.0508H61.0338V67.1186H20.3559V63.0508ZM20.3559 75.2542V71.1864H61.0338V75.2542H20.3559ZM73.2372 89.4915V99.661H77.305V89.4915H81.3728V99.661H85.4406V89.4915H89.5084V99.661H93.5762V89.4915H99.6779V105.763H59V89.4915H65.1016V99.661H69.1694V89.4915H73.2372ZM77.305 58.983H32.5593V54.9152H77.305V58.983ZM101.712 58.983H81.3728V54.9152H101.712V58.983ZM101.712 50.8474H20.3559V46.7796H101.712V50.8474ZM101.712 38.644V42.7118H28.4915V38.644H101.712Z" fill="#07A6A2"/>
</svg>
