<svg width="110" height="114" viewBox="0 0 110 114" fill="none" xmlns="http://www.w3.org/2000/svg">
<path d="M92.931 7.58619V56.8964H96.7241V7.58619C96.7218 5.5749 95.9218 3.64664 94.4996 2.22444C93.0774 0.802241 91.1492 0.00225889 89.1379 0H24.6553V3.79309H89.1379C90.1435 3.79429 91.1076 4.1943 91.8187 4.90538C92.5298 5.61647 92.9298 6.58056 92.931 7.58619Z" fill="#03D8D4"/>
<path d="M13.2758 7.58619C13.277 6.58056 13.677 5.61647 14.388 4.90538C15.0991 4.1943 16.0632 3.79429 17.0689 3.79309H20.8619V0H17.0689C15.0576 0.00225889 13.1293 0.802241 11.7071 2.22444C10.2849 3.64664 9.48492 5.5749 9.48267 7.58619V73.9653H13.2758V7.58619Z" fill="#03D8D4"/>
<path d="M17.0688 7.58594H20.8619V11.379H17.0688V7.58594Z" fill="#03D8D4"/>
<path d="M24.6553 7.58594H28.4484V11.379H24.6553V7.58594Z" fill="#03D8D4"/>
<path d="M32.2415 7.58594H36.0345V11.379H32.2415V7.58594Z" fill="#03D8D4"/>
<path d="M89.1376 15.1721H73.8043C73.3565 12.5207 71.9842 10.1136 69.9306 8.37773C67.877 6.64186 65.2749 5.68945 62.586 5.68945C59.897 5.68945 57.295 6.64186 55.2414 8.37773C53.1878 10.1136 51.8154 12.5207 51.3677 15.1721H17.0688V18.9652H51.339C51.6414 21.1605 52.474 23.2492 53.7647 25.0505L61.0427 35.2397C61.2181 35.4854 61.4497 35.6856 61.7181 35.8238C61.9866 35.9619 62.2841 36.034 62.586 36.034C62.8879 36.034 63.1854 35.9619 63.4538 35.8238C63.7223 35.6856 63.9538 35.4854 64.1293 35.2397L71.4073 25.0505C72.6979 23.2491 73.5304 21.1605 73.833 18.9652H89.1376V15.1721ZM68.3207 22.8458L62.586 30.8746L56.8513 22.8458C55.6437 21.1619 54.996 19.1409 54.9998 17.0687C54.9998 15.0567 55.799 13.1271 57.2217 11.7044C58.6444 10.2818 60.574 9.4825 62.586 9.4825C64.598 9.4825 66.5275 10.2818 67.9502 11.7044C69.3729 13.1271 70.1722 15.0567 70.1722 17.0687C70.176 19.1409 69.5283 21.1619 68.3207 22.8458Z" fill="#03D8D4"/>
<path d="M48.984 47.4138H57.2226C57.6152 48.5226 58.3416 49.4824 59.3021 50.1613C60.2626 50.8401 61.4099 51.2046 62.5861 51.2046C63.7622 51.2046 64.9095 50.8401 65.87 50.1613C66.8305 49.4824 67.557 48.5226 67.9495 47.4138H78.0846C78.532 48.6792 79.4123 49.7457 80.57 50.4249C81.7277 51.104 83.0882 51.352 84.411 51.125C85.7338 50.898 86.9339 50.2107 87.799 49.1846C88.664 48.1584 89.1385 46.8595 89.1385 45.5173C89.1385 44.1751 88.664 42.8762 87.799 41.85C86.9339 40.8238 85.7338 40.1365 84.411 39.9096C83.0882 39.6826 81.7277 39.9306 80.57 40.6097C79.4123 41.2888 78.532 42.3553 78.0846 43.6207H67.9495C67.557 42.512 66.8305 41.5522 65.87 40.8733C64.9095 40.1944 63.7622 39.8299 62.5861 39.8299C61.4099 39.8299 60.2626 40.1944 59.3021 40.8733C58.3416 41.5522 57.6152 42.512 57.2226 43.6207H48.984C48.5915 42.512 47.865 41.5522 46.9045 40.8733C45.944 40.1944 44.7968 39.8299 43.6206 39.8299C42.4444 39.8299 41.2971 40.1944 40.3367 40.8733C39.3762 41.5522 38.6497 42.512 38.2572 43.6207H28.122C27.6746 42.3553 26.7943 41.2888 25.6366 40.6097C24.4789 39.9306 23.1185 39.6826 21.7956 39.9096C20.4728 40.1365 19.2728 40.8238 18.4077 41.85C17.5426 42.8762 17.0681 44.1751 17.0681 45.5173C17.0681 46.8595 17.5426 48.1584 18.4077 49.1846C19.2728 50.2107 20.4728 50.898 21.7956 51.125C23.1185 51.352 24.4789 51.104 25.6366 50.4249C26.7943 49.7457 27.6746 48.6792 28.122 47.4138H38.2572C38.6497 48.5226 39.3762 49.4824 40.3367 50.1613C41.2971 50.8401 42.4444 51.2046 43.6206 51.2046C44.7968 51.2046 45.944 50.8401 46.9045 50.1613C47.865 49.4824 48.5915 48.5226 48.984 47.4138ZM83.4481 43.6207C83.8232 43.6207 84.1898 43.732 84.5017 43.9404C84.8136 44.1488 85.0567 44.445 85.2002 44.7915C85.3438 45.1381 85.3814 45.5194 85.3082 45.8873C85.235 46.2552 85.0544 46.5931 84.7891 46.8584C84.5239 47.1236 84.186 47.3042 83.8181 47.3774C83.4502 47.4506 83.0688 47.413 82.7223 47.2695C82.3757 47.1259 82.0795 46.8828 81.8711 46.571C81.6628 46.2591 81.5515 45.8924 81.5515 45.5173C81.5521 45.0145 81.7521 44.5324 82.1076 44.1769C82.4632 43.8213 82.9453 43.6213 83.4481 43.6207ZM62.5861 43.6207C62.9612 43.6207 63.3278 43.732 63.6397 43.9404C63.9516 44.1488 64.1947 44.445 64.3382 44.7915C64.4818 45.1381 64.5193 45.5194 64.4462 45.8873C64.373 46.2552 64.1924 46.5931 63.9271 46.8584C63.6619 47.1236 63.3239 47.3042 62.9561 47.3774C62.5882 47.4506 62.2068 47.413 61.8603 47.2695C61.5137 47.1259 61.2175 46.8828 61.0091 46.571C60.8007 46.2591 60.6895 45.8924 60.6895 45.5173C60.6901 45.0145 60.8901 44.5324 61.2456 44.1769C61.6012 43.8213 62.0832 43.6213 62.5861 43.6207ZM22.7586 47.4138C22.3835 47.4138 22.0168 47.3026 21.7049 47.0942C21.393 46.8858 21.1499 46.5896 21.0064 46.2431C20.8628 45.8965 20.8253 45.5152 20.8985 45.1473C20.9716 44.7794 21.1523 44.4415 21.4175 44.1762C21.6827 43.911 22.0207 43.7304 22.3886 43.6572C22.7565 43.584 23.1378 43.6216 23.4843 43.7651C23.8309 43.9087 24.1271 44.1517 24.3355 44.4636C24.5439 44.7755 24.6551 45.1422 24.6551 45.5173C24.6545 46.0201 24.4546 46.5022 24.099 46.8577C23.7435 47.2133 23.2614 47.4133 22.7586 47.4138ZM43.6206 47.4138C43.2455 47.4138 42.8788 47.3026 42.5669 47.0942C42.255 46.8858 42.0119 46.5896 41.8684 46.2431C41.7249 45.8965 41.6873 45.5152 41.7605 45.1473C41.8337 44.7794 42.0143 44.4415 42.2795 44.1762C42.5448 43.911 42.8827 43.7304 43.2506 43.6572C43.6185 43.584 43.9998 43.6216 44.3464 43.7651C44.6929 43.9087 44.9891 44.1517 45.1975 44.4636C45.4059 44.7755 45.5171 45.1422 45.5171 45.5173C45.5166 46.0201 45.3166 46.5022 44.961 46.8577C44.6055 47.2133 44.1234 47.4133 43.6206 47.4138Z" fill="#03D8D4"/>
<path d="M18.9656 55H26.5518V58.7931H18.9656V55Z" fill="#03D8D4"/>
<path d="M39.8276 55H47.4138V58.7931H39.8276V55Z" fill="#03D8D4"/>
<path d="M18.9656 64.4829H45.5172V68.276H18.9656V64.4829Z" fill="#03D8D4"/>
<path d="M17.0688 22.7588H34.1378V26.5519H17.0688V22.7588Z" fill="#03D8D4"/>
<path d="M17.0688 30.3447H30.3447V34.1378H17.0688V30.3447Z" fill="#03D8D4"/>
<path d="M77.7583 22.7588H89.1376V26.5519H77.7583V22.7588Z" fill="#03D8D4"/>
<path d="M77.7583 30.3447H89.1376V34.1378H77.7583V30.3447Z" fill="#03D8D4"/>
<path d="M62.5863 20.8621C64.6812 20.8621 66.3794 19.1638 66.3794 17.069C66.3794 14.9741 64.6812 13.2759 62.5863 13.2759C60.4914 13.2759 58.7932 14.9741 58.7932 17.069C58.7932 19.1638 60.4914 20.8621 62.5863 20.8621Z" fill="#03D8D4"/>
<path d="M108.266 103.687L94.3264 89.7478C96.0295 87.2619 97.2601 84.4836 97.9567 81.5519H102.414V87.2415C102.413 87.7751 102.3 88.3027 102.082 88.7897C101.864 89.2768 101.546 89.7125 101.149 90.0684L103.679 92.8947C104.473 92.1827 105.109 91.3114 105.545 90.3374C105.98 89.3633 106.206 88.3085 106.207 87.2415V24.6555C106.205 23.087 105.718 21.5574 104.812 20.2767C103.907 18.9959 102.627 18.0267 101.149 17.502L99.8847 21.0779C100.624 21.3404 101.264 21.8252 101.716 22.4657C102.169 23.1062 102.413 23.8711 102.414 24.6555V77.7588H98.5493C98.5967 77.1326 98.6208 76.5005 98.6216 75.8623C98.6217 71.1027 97.2441 66.4449 94.6552 62.451C92.0663 58.4571 88.3767 55.298 84.0319 53.3549C79.687 51.4119 74.8726 50.768 70.1698 51.5009C65.467 52.2338 61.0769 54.3123 57.5294 57.4854L60.0589 60.3118C64.0338 56.7595 69.2187 54.8654 74.5474 55.0187C79.876 55.172 84.9434 57.3613 88.7075 61.1362C92.4715 64.9111 94.6461 69.9848 94.7841 75.3139C94.9221 80.6429 93.013 85.8223 89.4493 89.787C85.8856 93.7517 80.9383 96.2002 75.6248 96.6291C70.3112 97.058 65.0352 95.4346 60.8818 92.0929C56.7284 88.7511 54.0132 83.945 53.2947 78.6628C52.5762 73.3806 53.9089 68.0238 57.0187 63.694L53.9395 61.4789C50.9185 65.6654 49.2983 70.6996 49.3102 75.8623C49.3102 76.5001 49.3343 77.1323 49.3825 77.7588H3.79309V24.6555C3.79394 23.8711 4.03744 23.1062 4.49019 22.4657C4.94294 21.8252 5.58276 21.3404 6.3219 21.0779L5.05738 17.502C3.57925 18.0267 2.29969 18.9959 1.39423 20.2767C0.488762 21.5574 0.00174975 23.087 0 24.6555V87.2415C0.00225889 89.2528 0.802241 91.1811 2.22444 92.6033C3.64664 94.0255 5.5749 94.8255 7.58619 94.8277H41.0714L36.5197 110H32.2413V113.793H73.9653V110H69.6865L67.816 103.765L64.1829 104.856L65.7265 110H40.4799L45.0316 94.8277H58.229C61.9804 97.9484 66.5749 99.8832 71.4286 100.386C76.2823 100.889 81.1761 99.9382 85.4878 97.6534L99.8937 112.06C101.004 113.17 102.51 113.793 104.08 113.793C105.65 113.793 107.156 113.17 108.266 112.06C109.376 110.949 110 109.444 110 107.873C110 106.303 109.376 104.798 108.266 103.687H108.266ZM3.79309 87.2415V81.5519H49.974C50.795 85.0058 52.3543 88.2408 54.5447 91.0346H7.58619C6.58056 91.0334 5.61647 90.6334 4.90538 89.9223C4.1943 89.2113 3.79429 88.2472 3.79309 87.2415ZM91.9365 92.7226L94.0417 94.8277L91.0343 97.8352L88.7667 95.5676C89.9027 94.7116 90.9632 93.7598 91.9365 92.7226ZM104.08 110C103.801 110.001 103.524 109.946 103.266 109.839C103.008 109.732 102.773 109.575 102.576 109.377L93.7162 100.517L96.7239 97.5097L105.584 106.37C105.881 106.667 106.084 107.046 106.166 107.459C106.248 107.871 106.206 108.299 106.045 108.687C105.884 109.076 105.611 109.408 105.261 109.642C104.912 109.875 104.501 110 104.08 110Z" fill="#03D8D4"/>
<path d="M73.9652 92.9308C77.3411 92.9308 80.6412 91.9297 83.4482 90.0542C86.2551 88.1786 88.4429 85.5128 89.7348 82.3939C91.0267 79.275 91.3647 75.843 90.7061 72.5319C90.0475 69.2209 88.4218 66.1795 86.0347 63.7924C83.6476 61.4052 80.6062 59.7796 77.2951 59.121C73.9841 58.4623 70.5521 58.8004 67.4332 60.0923C64.3142 61.3842 61.6484 63.5719 59.7729 66.3789C57.8973 69.1859 56.8962 72.486 56.8962 75.8619C56.9013 80.3873 58.7013 84.7259 61.9012 87.9258C65.1012 91.1258 69.4398 92.9257 73.9652 92.9308ZM73.9652 62.5861C76.5909 62.5861 79.1576 63.3647 81.3408 64.8235C83.524 66.2822 85.2256 68.3556 86.2304 70.7815C87.2352 73.2073 87.4982 75.8766 86.9859 78.4519C86.4737 81.0271 85.2093 83.3927 83.3526 85.2493C81.4959 87.106 79.1304 88.3704 76.5551 88.8826C73.9799 89.3949 71.3106 89.132 68.8847 88.1272C66.4589 87.1224 64.3855 85.4208 62.9267 83.2376C61.468 81.0544 60.6893 78.4876 60.6893 75.8619C60.6933 72.3421 62.0933 68.9677 64.5821 66.4788C67.0709 63.99 70.4454 62.59 73.9652 62.5861Z" fill="#03D8D4"/>
<path d="M73.9654 70.1725V66.3794C71.4513 66.3822 69.041 67.3822 67.2632 69.1599C65.4855 70.9377 64.4855 73.348 64.4827 75.8621H68.2758C68.2775 74.3537 68.8775 72.9075 69.9442 71.8409C71.0108 70.7743 72.457 70.1742 73.9654 70.1725Z" fill="#03D8D4"/>
</svg>
