<svg width="33" height="38" viewBox="0 0 33 38" fill="none" xmlns="http://www.w3.org/2000/svg">
<path d="M32.4495 32.2875C32.4495 32.2875 28.2318 25.0387 27.4753 23.7386C28.336 23.4761 29.253 23.2442 29.634 22.5863C30.2689 21.4902 29.1387 19.6921 29.4355 18.5172C29.7412 17.308 31.5459 16.2617 31.5459 15.0325C31.5459 13.835 29.6801 12.4361 29.3742 11.234C29.0753 10.0593 30.2022 8.25919 29.5652 7.16439C28.9282 6.06949 26.8064 6.15945 25.9331 5.31902C25.0344 4.45415 25.0372 2.33809 23.9533 1.75849C22.8649 1.17674 21.0962 2.35246 19.8878 2.07396C18.6932 1.79865 17.6259 0 16.3781 0C15.1118 0 13.0977 2.04028 12.7818 2.1137C11.5741 2.39446 9.80305 1.22162 8.71586 1.80583C7.63297 2.38738 7.63965 4.50365 6.74263 5.36996C5.87068 6.21193 3.74886 6.12587 3.11382 7.222C2.47887 8.31793 3.6091 10.1157 3.31242 11.2912C3.01492 12.4697 1.14737 13.6638 1.14737 15.0267C1.14737 16.2559 2.9566 17.2989 3.26416 18.5075C3.56309 19.6822 2.43626 21.4821 3.07325 22.5773C3.42004 23.1734 4.20687 23.4181 4.99266 23.6534C5.08437 23.6808 5.25781 23.7834 5.14034 23.9546C4.60274 24.8825 0.275828 32.3502 0.275828 32.3502C-0.0683951 32.9441 0.211132 33.4533 0.896805 33.4821L4.25308 33.6221C4.93875 33.651 5.7989 34.1492 6.16489 34.7297L7.95584 37.5716C8.32183 38.1521 8.90255 38.1413 9.24667 37.5474C9.24667 37.5474 14.2577 28.896 14.2598 28.8936C14.3603 28.7761 14.4614 28.8002 14.5097 28.8413C15.058 29.3081 15.8223 29.7738 16.4603 29.7738C17.0859 29.7738 17.6651 29.3354 18.2382 28.8465C18.2848 28.8068 18.3983 28.7253 18.4812 28.8944C18.4826 28.897 23.4881 37.5011 23.4881 37.5011C23.8331 38.0942 24.4139 38.1043 24.7788 37.5231L26.5647 34.6778C26.9297 34.0968 27.7889 33.5966 28.4746 33.5667L31.8305 33.4205C32.5159 33.3904 32.7945 32.8806 32.4495 32.2875ZM21.9248 24.5054C18.2139 26.6643 13.7597 26.433 10.3575 24.287C5.37232 21.0938 3.73202 14.4883 6.72887 9.31579C9.75992 4.08364 16.4229 2.23745 21.7022 5.11271C21.7299 5.12781 21.7573 5.14342 21.7848 5.15882C21.8239 5.18049 21.863 5.20247 21.9019 5.22465C23.5306 6.16366 24.9429 7.52648 25.9542 9.26475C29.045 14.5776 27.2375 21.4146 21.9248 24.5054Z" fill="white"/>
<path d="M21.0761 6.78813C21.0607 6.7792 21.0451 6.77088 21.0297 6.76205C18.2096 5.12987 14.6152 5.01054 11.6027 6.76318C7.13233 9.36395 5.61116 15.1166 8.21193 19.5869C9.00553 20.9511 10.093 22.04 11.3477 22.8215C11.4544 22.8891 11.5624 22.9555 11.6726 23.0194C16.1478 25.612 21.8975 24.0805 24.49 19.6055C27.0825 15.1303 25.5513 9.38079 21.0761 6.78813ZM22.1957 14.104L20.6287 15.6313C20.1434 16.1043 19.84 17.038 19.9547 17.706L20.3246 19.8626C20.4392 20.5307 20.0422 20.8191 19.4423 20.5037L17.5054 19.4855C16.9055 19.1701 15.9239 19.1701 15.324 19.4855L13.3872 20.5037C12.7873 20.8191 12.3902 20.5307 12.5048 19.8626L12.8747 17.706C12.9893 17.038 12.6859 16.1043 12.2006 15.6313L10.6337 14.104C10.1483 13.631 10.3001 13.1642 10.9707 13.0666L13.1361 12.752C13.8068 12.6545 14.601 12.0775 14.901 11.4697L15.8693 9.50762C16.1693 8.89989 16.6602 8.89989 16.96 9.50762L17.9285 11.4697C18.2285 12.0775 19.0226 12.6545 19.6934 12.752L21.8587 13.0666C22.5293 13.1642 22.681 13.631 22.1957 14.104Z" fill="white"/>
</svg>
