<svg width="179" height="531" viewBox="0 0 179 531" fill="none" xmlns="http://www.w3.org/2000/svg">
<path d="M135.568 62.6837C136.12 63.1374 136.615 63.5997 136.854 64.2925C137.095 64.9914 137.081 65.9336 137.032 66.9343L135.519 64.6368L135.565 62.6837H135.568ZM128.888 59.2342C129.801 60.9568 130.64 62.6569 131.12 64.2863C131.6 65.9183 131.722 67.4828 131.775 69.0453L128.886 59.2342H128.888ZM74.0715 62.9006C75.0944 64.9134 76.1269 66.9326 77.4097 68.7555C78.6871 70.5709 80.2106 72.1887 81.732 73.794H81.7299L76.6834 77.5534C76.975 76.2427 77.2024 74.8893 76.4936 73.6478C76.1016 72.9613 75.4257 72.3157 74.7317 71.6512C74.0593 71.0073 73.3629 70.3398 72.8394 69.5768C71.7681 68.0155 71.4219 66.0565 71.764 64.8813C72.0866 63.7732 73.0294 63.336 74.0695 62.9006H74.0715ZM133.005 83.6481C135.944 86.3611 138.729 88.9939 140.093 90.9425C141.458 92.8931 141.387 94.1426 141.193 95.3522L133.003 83.6481H133.005ZM11.2387 184.834C11.2382 184.834 11.2392 184.834 11.2387 184.834V184.834ZM126.207 143.841C127.43 145.109 128.699 146.466 131.212 150.256C133.819 154.189 137.761 160.735 141.709 167.291H141.706C141.512 168.613 141.321 169.984 142.213 171.465C143.088 172.919 145.006 174.472 146.911 176.004H146.908C146.454 176.587 145.998 177.202 145.774 178.024C145.547 178.856 145.56 179.892 145.581 180.911H145.578C143.328 182.668 141.074 184.433 138.796 186.558C136.506 188.695 134.194 191.195 131.886 193.691L131.856 193.724C131.815 193.769 131.807 193.834 131.836 193.887L132.321 194.774L109.165 210.362L109.164 210.314H109.162C109.18 210.289 109.19 210.257 109.188 210.224L109.137 209.395L109.133 209.256C109.133 209.246 109.132 209.236 109.129 209.226H109.127L109.038 207.777C109.036 207.74 109.019 207.705 108.991 207.681L102.556 202.011L97.8198 192.724H97.8184C99.465 191.777 101.108 190.81 101.993 185.867C102.861 181.015 103.005 172.296 103.14 163.545H103.138C103.144 163.543 103.15 163.541 103.156 163.539C106.059 162.45 108.976 161.357 112.844 158.045C116.675 154.764 121.442 149.304 126.204 143.841H126.207ZM93.8954 0C89.6232 0 85.6561 1.17498 81.7117 2.35765C81.6988 2.35392 81.6857 2.35209 81.6727 2.35209C81.6318 2.35209 81.592 2.36998 81.565 2.40224H81.563C81.5626 2.40236 81.5621 2.40252 81.5617 2.40263C81.4874 2.42489 81.4453 2.50314 81.4676 2.57739C80.6502 4.09917 79.7918 5.58869 77.2537 6.80021C76.8991 6.96948 76.5118 7.1333 76.0955 7.30937C73.4043 8.44761 69.6563 10.0356 67.0229 16.396C63.9992 23.6991 62.441 37.3164 60.8875 50.9058L60.8811 50.9615H60.8795C59.4272 56.3218 57.97 61.7032 57.8562 66.7091C57.7423 71.7188 58.9731 76.3699 61.109 78.988C63.0273 81.3395 65.6621 82.0327 68.3281 82.5467H68.3262L61.1207 83.2918C61.0986 83.2398 61.0473 83.2065 60.9917 83.2065C60.9798 83.2065 60.9678 83.208 60.9557 83.2112C56.5482 84.3759 52.0819 85.5515 49.0966 90.244C46.3056 94.6311 44.8163 102.09 43.4105 109.696L43.3229 99.1148C43.3225 99.0531 43.2817 98.999 43.2226 98.9814L18.748 91.7094C18.735 91.7055 18.7214 91.7036 18.7078 91.7036H18.7064L9.12331 91.8192C9.04579 91.8202 8.98371 91.8838 8.98464 91.9613C8.98525 92.0118 9.01246 92.0557 9.05278 92.08H9.05147L10.266 154.917H10.2647C9.38428 154.968 8.50164 155.024 7.72239 155.147C6.86752 155.282 6.11156 155.502 5.61833 155.909C4.66124 156.701 4.7571 158.145 4.84749 159.483H4.84622C3.11349 161.551 1.36454 163.641 0.744929 165.022C0.109661 166.439 0.643557 167.145 1.16831 167.793H1.16706L1.15355 170.609H1.15231C0.541606 171.327 -0.145993 172.133 0.0271691 172.878C0.195329 173.602 1.17233 174.211 2.07787 174.77H2.07662C1.86972 175.872 1.66704 177.015 2.01309 178.054C2.36586 179.113 3.28414 180.047 4.17139 180.951H4.17012C4.81998 182.409 5.49414 183.923 6.68657 184.664C7.5957 185.229 8.7934 185.336 10.0328 185.336C10.3849 185.336 10.7404 185.328 11.0937 185.318H11.095L10.9731 192.836C10.972 192.907 11.0235 192.967 11.0934 192.977L32.0912 196.007H32.0897C31.2712 196.948 30.4608 197.954 30.1538 200.171C29.8374 202.456 30.0555 206.041 30.2719 209.603H30.2704C29.0994 216.036 27.925 222.492 28.178 227.515C28.4307 232.533 30.1075 236.117 31.7787 239.673H31.7772C31.551 240.552 31.3227 241.46 31.4267 242.42C31.5311 243.385 31.9703 244.395 32.4005 245.38H32.399C32.0616 248.261 31.7247 251.153 31.7615 254.105C31.7984 257.062 32.2101 260.076 32.6214 263.08H32.6199C32.0866 264.797 31.5443 266.545 31.5315 267.623C31.5182 268.75 32.08 269.168 32.6018 269.553L32.6056 269.556C32.6127 269.561 32.6202 269.566 32.6279 269.569H32.6264C32.7286 274.721 32.8738 280.158 35.3061 300.963C37.7846 322.163 42.6377 359.318 47.491 396.476C47.4999 396.544 47.5571 396.596 47.6259 396.598L70.4249 397.279H70.4229C71.8016 416.689 73.1725 436.069 72.4953 450.269C71.8163 464.507 69.0779 473.536 65.9185 482.68C62.7576 491.829 59.1785 501.084 57.0125 505.892C54.9602 510.447 54.1881 510.982 53.5104 511.319H53.5086C53.4865 511.324 53.4653 511.334 53.447 511.35C53.4458 511.351 53.4446 511.352 53.4434 511.353H53.4417C53.4268 511.36 53.412 511.368 53.3972 511.375C53.3622 511.392 53.3375 511.422 53.3259 511.456H53.3241C52.6419 512.04 51.8962 512.63 49.9616 513.378C47.8993 514.175 44.4959 515.146 41.0817 516.121C41.0244 516.137 40.9837 516.188 40.9801 516.247L40.9794 516.259C40.9003 517.576 40.8211 518.909 41.0994 520.557C41.3777 522.206 42.0131 524.168 42.6439 526.117C42.6568 526.157 42.6869 526.189 42.726 526.205L42.7571 526.217C45.0238 527.11 47.2998 528.005 50.1358 528.784C52.9843 529.566 56.3988 530.23 59.9365 530.437C60.8489 530.49 61.7693 530.512 62.6955 530.512C65.0636 530.512 67.4693 530.364 69.8748 530.2H69.8767C69.9026 530.23 69.9408 530.249 69.983 530.249C69.9858 530.249 69.9886 530.249 69.9914 530.249C72.7091 530.09 75.5261 529.935 77.1185 527.282C77.3303 526.929 77.5193 526.534 77.6925 526.104C78.1961 524.854 78.5732 523.291 78.9848 521.586C79.4897 519.495 80.0486 517.181 80.9583 514.924C82.8191 510.304 86.1517 505.908 89.5365 501.499H89.5386L89.9475 526.497C89.9481 526.534 89.9636 526.57 89.9904 526.596C90.0166 526.621 90.0515 526.635 90.0877 526.635H90.0907L92.7016 526.583C92.7737 526.582 92.833 526.526 92.8388 526.454C93.5532 517.639 94.2673 508.828 94.8918 503.618C95.4884 498.641 96.0024 496.959 96.5119 495.42H96.5097C96.532 495.408 96.5513 495.39 96.5648 495.366C98.314 492.307 100.103 489.191 99.4759 485.744C98.8521 482.313 95.8342 478.576 92.8565 474.882C92.8527 474.877 92.8486 474.873 92.8443 474.869H92.8421C92.2577 471.519 91.7165 468.112 92.3466 462.74C93.0008 457.163 94.9176 449.469 96.1796 444.66C97.3617 440.155 97.9662 438.194 98.5345 436.391H98.5367C104.015 446.932 109.469 457.434 113.033 464.728C116.639 472.107 118.304 476.195 119.314 480.079C119.703 481.579 119.996 483.049 120.289 484.525C120.756 486.874 121.226 489.236 122.094 491.731C122.244 492.16 122.405 492.593 122.575 493.027C123.377 495.076 124.374 497.152 125.254 498.982C125.952 500.434 126.573 501.728 126.968 502.737C127.915 505.156 127.547 505.901 127.14 506.578H127.138C127.096 506.593 127.063 506.628 127.05 506.674C126.577 508.436 126.11 510.179 124.095 512.397C123.581 512.963 122.966 513.56 122.325 514.183C120.46 515.992 118.341 518.039 118.078 520.053C117.723 522.764 120.724 525.34 123.605 527.831L123.612 527.838C123.638 527.861 123.671 527.872 123.704 527.872C123.742 527.872 123.78 527.856 123.808 527.826H123.805C129.207 527.777 134.643 527.729 138.982 526.124C143.325 524.517 146.558 521.354 149.767 518.217C149.823 518.163 149.824 518.074 149.769 518.019C149.765 518.014 149.761 518.01 149.756 518.007H149.753C148.799 509.858 147.855 501.74 148.269 495.638C148.676 489.646 150.395 485.597 152.149 481.574H152.152L163.886 502.813C163.911 502.859 163.959 502.885 164.009 502.885C164.032 502.885 164.055 502.879 164.076 502.868C164.111 502.848 164.134 502.817 164.144 502.782H164.141L165.962 501.802C166.024 501.769 166.051 501.695 166.027 501.63C162.896 493.193 159.768 484.763 158.107 479.185C156.449 473.615 156.255 470.895 156.06 468.171C156.058 468.147 156.051 468.124 156.038 468.105C154.449 465.634 152.84 463.128 150.348 461.56C147.86 459.993 144.501 459.368 141.179 458.747C141.17 458.746 141.162 458.745 141.153 458.745C141.131 458.745 141.109 458.75 141.09 458.76C137.944 456.49 134.828 454.216 132.427 450.162C130.679 447.209 129.307 443.309 127.51 438.197C126.809 436.203 126.044 434.026 125.167 431.653C122.045 423.202 117.508 412.262 114.429 405.029C111.376 397.856 109.755 394.327 108.145 390.826H108.143C111.082 390.027 113.987 389.232 115.821 388.59C117.735 387.919 118.488 387.412 119.237 386.907C119.301 386.864 119.318 386.777 119.275 386.713C119.261 386.692 119.243 386.676 119.222 386.666H119.219L113.231 272.995L113.312 272.96H113.314C113.322 272.961 113.329 272.962 113.336 272.962C113.351 272.962 113.366 272.959 113.38 272.955C114.374 272.63 115.343 272.273 115.586 269.104C115.826 265.974 115.366 260.032 114.908 254.11L114.908 254.106C114.493 250.215 114.08 246.332 113.971 243.486C113.934 242.519 113.932 241.672 113.931 240.906C113.93 240.28 113.928 239.706 113.908 239.17C113.88 238.435 113.815 237.764 113.663 237.11C113.45 236.197 113.068 235.324 112.673 234.422C112.326 233.63 111.969 232.813 111.695 231.911C111.108 229.974 110.906 227.633 110.702 225.273C110.698 225.218 110.662 225.173 110.614 225.154H110.612L110.595 225.02H110.592C119.193 221.245 127.783 217.473 133.995 214.49C140.191 211.516 144.021 209.327 147.828 207.147H147.831L150.169 209.469H150.166C150.162 209.504 150.172 209.541 150.195 209.57C150.223 209.605 150.264 209.624 150.306 209.624C150.322 209.624 150.339 209.621 150.355 209.615H150.358C150.363 209.615 150.368 209.616 150.374 209.616C150.41 209.616 150.446 209.602 150.473 209.574C150.494 209.554 150.507 209.528 150.512 209.502H150.509C153.004 207.531 155.497 205.556 157.012 203.922C158.53 202.285 159.068 200.988 159.583 199.712H159.58C160.943 199.503 162.323 199.285 163.937 198.67C165.577 198.045 167.467 197.007 168.783 195.701C170.086 194.408 170.818 192.859 171.533 191.332H171.53C172.711 190.85 173.911 190.354 175.091 189.345C176.281 188.327 177.446 186.788 178.599 185.267C178.633 185.222 178.636 185.162 178.61 185.115H178.607C178.612 185.096 178.614 185.075 178.61 185.054C177.322 177.802 176.031 170.535 172.606 162.566C170.3 157.201 167.028 151.52 163.467 145.612C162.611 144.191 161.737 142.756 160.857 141.31C159.961 139.838 159.057 138.354 158.155 136.857C152.701 127.807 147.319 118.328 141.936 108.845L141.899 108.78L142.119 105.09H142.116C142.132 105.071 142.143 105.048 142.148 105.022C142.892 100.782 143.644 96.508 142.454 91.9228C141.28 87.3962 138.215 82.575 135.147 77.7762H135.144C136.145 76.4049 137.145 75.0135 137.796 73.4472C138.47 71.8271 138.769 70.0254 139.065 68.2435C139.072 68.2021 139.06 68.1619 139.036 68.1317H139.033C139.285 65.2843 139.522 62.3981 138.584 60.4124C138.434 60.0944 138.253 59.7986 138.037 59.529C137.586 58.9666 136.985 58.5254 136.312 58.0297C135.382 57.345 134.288 56.54 133.162 55.1348C132.451 54.248 131.726 53.1205 131.023 51.6315C130.782 51.1229 130.544 50.5703 130.31 49.9724C129.25 47.2617 128.273 43.5897 127.192 39.5243C125.862 34.5235 124.376 28.9343 122.387 23.8478C121.9 22.6014 121.382 21.385 120.829 20.214C120.636 19.806 120.439 19.4035 120.238 19.0072C115.177 9.06143 107.275 3.06769 100.345 0.958088C98.1025 0.275253 95.9632 0 93.8954 0Z" fill="url(#paint0_linear_23_723)"/>
<defs>
<linearGradient id="paint0_linear_23_723" x1="111.047" y1="141.513" x2="23.2512" y2="505.983" gradientUnits="userSpaceOnUse">
<stop stop-color="#12B1AD"/>
<stop offset="1" stop-color="#03D8D4"/>
</linearGradient>
</defs>
</svg>
