<svg height="512" viewBox="0 0 32 32" width="512" xmlns="http://www.w3.org/2000/svg"><g id="calendar"><path d="m27 6v1h-26v-1c0-1.654 1.346-3 3-3h1v-1c0-.553.448-1 1-1s1 .447 1 1v1h6v-1c0-.553.448-1 1-1s1 .447 1 1v1h6v-1c0-.553.448-1 1-1s1 .447 1 1v1h1c1.654 0 3 1.346 3 3zm4 18c0 3.865-3.134 7-7 7s-7-3.135-7-7 3.134-7 7-7 7 3.135 7 7zm-3 0c0-.553-.448-1-1-1h-2v-2c0-.553-.448-1-1-1s-1 .447-1 1v3c0 .553.448 1 1 1h3c.552 0 1-.447 1-1zm-1-15v6.52c-.94-.34-1.95-.52-3-.52-4.96 0-9 4.04-9 9 0 1.05.18 2.06.52 3h-11.52c-1.65 0-3-1.35-3-3v-15zm-17 13c0-.553-.448-1-1-1h-2c-.552 0-1 .447-1 1s.448 1 1 1h2c.552 0 1-.447 1-1zm0-4c0-.553-.448-1-1-1h-2c-.552 0-1 .447-1 1s.448 1 1 1h2c.552 0 1-.447 1-1zm0-4c0-.553-.448-1-1-1h-2c-.552 0-1 .447-1 1s.448 1 1 1h2c.552 0 1-.447 1-1zm6 0c0-.553-.448-1-1-1h-2c-.552 0-1 .447-1 1s.448 1 1 1h2c.552 0 1-.447 1-1z"/></g></svg>