<svg width="25" height="25" viewBox="0 0 25 25" fill="none" xmlns="http://www.w3.org/2000/svg">
<path d="M24.3711 16.2529H23.7463V13.6452C23.7996 13.6156 23.8506 13.5818 23.8987 13.5443C24.3862 13.056 24.3862 12.2652 23.8987 11.7772L21.2479 9.12619C20.7599 8.63814 19.9686 8.63814 19.4806 9.12619C18.9925 9.61424 18.9925 10.4055 19.4806 10.8935L22.1313 13.5443C22.2377 13.6463 22.3615 13.7284 22.4967 13.7866V16.2529H19.9975V15.628C19.9904 13.5255 18.8077 11.6037 16.934 10.6501C19.3609 8.20524 19.3513 4.25761 16.9127 1.82469C14.4738 -0.60823 10.5259 -0.60823 8.08731 1.82469C5.64844 4.25761 5.63906 8.20524 8.06603 10.6501C6.19232 11.6037 5.00961 13.5255 5.00229 15.628V16.2529H2.50324V13.7866C2.63847 13.7284 2.76225 13.6463 2.86842 13.5443L5.51939 10.8935C6.00721 10.4055 6.00721 9.61424 5.51916 9.12619C5.03134 8.63814 4.24012 8.63814 3.75208 9.12619L1.10133 11.7772C0.613742 12.2652 0.613742 13.056 1.10133 13.5443C1.14938 13.5818 1.20018 13.6156 1.25349 13.6452V16.2529H0.628843C0.462957 16.2527 0.303935 16.3186 0.186785 16.4357C0.0696353 16.5529 0.00396729 16.7119 0.00396729 16.8775V18.1273C0.00396729 18.2929 0.0696353 18.452 0.186785 18.5691C0.303935 18.6863 0.462957 18.7522 0.628843 18.7519H24.3711C24.5368 18.7522 24.6958 18.6863 24.813 18.5691C24.9301 18.452 24.996 18.2929 24.996 18.1273V16.8775C24.996 16.7119 24.9301 16.5529 24.813 16.4357C24.6958 16.3186 24.5368 16.2527 24.3711 16.2529Z" fill="black"/>
<path d="M1.25349 24.3752C1.25349 24.7202 1.53333 25 1.87837 25H23.1216C23.4667 25 23.7463 24.7202 23.7463 24.3752V20.0017H1.25349V24.3752Z" fill="black"/>
</svg>
