<svg width="25" height="25" viewBox="0 0 25 25" fill="none" xmlns="http://www.w3.org/2000/svg">
<path d="M25 3.66211H0V2.19727C0 0.98374 0.98374 0 2.19727 0H22.8027C24.0163 0 25 0.98374 25 2.19727V3.66211Z" fill="black"/>
<path d="M0.732422 20.6055H0V24.2676C0 24.6721 0.32793 25 0.732422 25H4.39453V24.2676C4.39453 22.2483 2.75171 20.6055 0.732422 20.6055Z" fill="black"/>
<path d="M20.6055 24.2676V25H24.2676C24.6721 25 25 24.6721 25 24.2676V20.6055H24.2676C22.2483 20.6055 20.6055 22.2483 20.6055 24.2676Z" fill="black"/>
<path d="M14.6973 17.1875V12.793H10.3027V17.1875H14.6973ZM12.5 14.2578C12.9045 14.2578 13.2324 14.5857 13.2324 14.9902C13.2324 15.3947 12.9045 15.7227 12.5 15.7227C12.0955 15.7227 11.7676 15.3947 11.7676 14.9902C11.7676 14.5857 12.0955 14.2578 12.5 14.2578Z" fill="black"/>
<path d="M2.17759 11.3281H22.8224L25 5.12695H0L2.17759 11.3281Z" fill="black"/>
<path d="M16.1621 17.9199C16.1621 18.3244 15.8342 18.6523 15.4297 18.6523H9.57031C9.16582 18.6523 8.83789 18.3244 8.83789 17.9199V12.793H0.732422C0.32793 12.793 0 13.1209 0 13.5254V19.1406H0.732422C3.56396 19.1406 5.85938 21.436 5.85938 24.2676V25H19.1406V24.2676C19.1406 21.436 21.436 19.1406 24.2676 19.1406H25V13.5254C25 13.1209 24.6721 12.793 24.2676 12.793H16.1621V17.9199Z" fill="black"/>
</svg>
