<svg width="311" height="422" viewBox="0 0 311 422" fill="none" xmlns="http://www.w3.org/2000/svg">
<path d="M304.345 5.99123L304.346 5.9924C309.174 10.4498 310.853 17.365 308.62 23.5227L168.203 410.047L169.143 410.388L168.203 410.047C165.925 416.32 160.072 420.519 153.524 420.78C152.977 420.802 152.405 420.792 151.818 420.766C144.591 420.283 138.55 415.109 136.98 408.047L136.98 408.046L97.4169 230.953L97.2659 230.277L96.5804 230.18L-83.0995 204.865C-90.2706 203.846 -95.9105 198.23 -96.9465 191.061L-96.9469 191.059C-97.9994 183.893 -94.1851 176.905 -87.5993 173.884C-87.5988 173.884 -87.5984 173.884 -87.5979 173.883L286.511 3.13178C286.512 3.13141 286.513 3.13104 286.514 3.13068C292.496 0.427982 299.521 1.5218 304.345 5.99123Z" stroke="white" stroke-opacity="0.25" stroke-width="2"/>
</svg>
