<svg width="348" height="417" viewBox="0 0 348 417" fill="none" xmlns="http://www.w3.org/2000/svg">
<path d="M5.99801 410.434L5.99682 410.433C1.42021 405.6 0.192706 398.498 2.86646 392.426L170.862 11.6034L169.947 11.1998L170.862 11.6034C173.59 5.41814 179.79 1.57183 186.425 1.75195C186.979 1.767 187.557 1.81539 188.147 1.88199C195.419 2.86001 201.174 8.49845 202.281 15.7421L202.281 15.7432L230.234 197.265L230.339 197.949L231.016 198.092L410.754 235.833C417.932 237.349 423.251 243.408 423.812 250.722L423.812 250.725C424.39 258.038 420.061 264.842 413.2 267.448C413.2 267.448 413.199 267.448 413.199 267.448L23.8268 414.533C23.8259 414.533 23.8251 414.534 23.8243 414.534C17.5953 416.86 10.5702 415.278 5.99801 410.434Z" stroke="white" stroke-opacity="0.25" stroke-width="2"/>
</svg>
