<svg width="125" height="120" viewBox="0 0 125 120" fill="none" xmlns="http://www.w3.org/2000/svg">
<path d="M36.3152 21.171C35.8982 20.0055 35.0222 19.0895 33.8127 18.6733L32.9785 18.3819H24.9704C22.3844 18.3819 20.007 19.6307 18.547 21.7955L1.5298 47.1479C0.987555 47.9805 0.612065 48.8549 0.445312 49.7289H30.4343L37.5249 24.5846L36.3152 21.171ZM16.5868 43.318C15.7943 44.6919 14.2928 45.3162 13.2501 44.6919C12.2074 44.109 11.9986 42.4854 12.7911 41.1118C13.5836 39.7379 15.0853 39.1134 16.128 39.7379C17.1708 40.3208 17.3793 41.9442 16.5868 43.318ZM25.1371 34.0347C23.3854 36.7404 20.5075 38.031 18.714 36.8654C16.9205 35.6997 16.9205 32.5775 18.714 29.83C20.4657 27.124 23.3437 25.8335 25.1371 26.9992C26.9306 28.1647 26.9306 31.287 25.1371 34.0347ZM30.5175 53.8919L52.1231 120C51.4139 119.5 50.7467 118.918 50.2044 118.21L1.82153 56.2648C1.27954 55.5155 0.862301 54.7245 0.612046 53.8919H30.5175ZM77.6907 53.8919L56.3773 119.126H56.2106L34.8972 53.8919H77.6907ZM77.7742 49.7289H34.7719L40.8616 28.0816C41.4871 28.3314 42.1546 28.4562 42.8636 28.4562C45.241 28.4562 47.3682 26.9576 48.1607 24.7097L49.4119 21.171C49.8289 20.0055 50.7467 19.0895 51.9144 18.6733L52.7486 18.3819H68.9318L77.7742 49.7289ZM82.0704 53.8919H112.018C111.767 54.7245 111.35 55.5155 110.766 56.2648L62.4252 118.21C61.883 118.918 61.2157 119.5 60.5065 119.959L82.0704 53.8919ZM82.1119 49.7289L73.3113 18.3819H87.576C90.162 18.3819 92.5392 19.6307 94.0409 21.7955L111.1 47.1479C111.642 47.9805 111.976 48.8549 112.184 49.7289H82.1119ZM17.2704 93.3809L18.514 96.9155C19.3451 99.2777 21.2063 101.135 23.5731 101.965L27.1144 103.206C28.4007 103.657 28.4007 105.473 27.1144 105.924L23.5731 107.165C21.2063 107.994 19.3451 109.852 18.514 112.214L17.2704 115.749C16.8187 117.033 14.9995 117.033 14.5478 115.749L13.3042 112.214C12.4731 109.852 10.6119 107.994 8.24513 107.165L4.70386 105.924C3.41754 105.473 3.41754 103.657 4.70386 103.206L8.24513 101.965C10.6119 101.135 12.4731 99.2777 13.3042 96.9155L14.5478 93.3809C14.9996 92.0971 16.8187 92.0971 17.2704 93.3809ZM44.2308 0.9629L45.4744 4.49742C46.3055 6.8597 48.1667 8.71733 50.5335 9.5469L54.0748 10.7881C55.3611 11.239 55.3611 13.0546 54.0748 13.5055L50.5335 14.7467C48.1667 15.5763 46.3055 17.4339 45.4744 19.7962L44.2308 23.3307C43.7791 24.6146 41.96 24.6146 41.5083 23.3307L40.2647 19.7962C39.4335 17.4339 37.5723 15.5763 35.2056 14.7467L31.6643 13.5055C30.378 13.0546 30.378 11.239 31.6643 10.7881L35.2056 9.5469C37.5723 8.71733 39.4335 6.8597 40.2647 4.49742L41.5083 0.9629C41.96 -0.320967 43.7791 -0.320967 44.2308 0.9629ZM113.746 67.7584L114.99 71.2929C115.821 73.6552 117.682 75.5128 120.049 76.3424L123.59 77.5836C124.876 78.0345 124.876 79.8501 123.59 80.301L120.049 81.5422C117.682 82.3718 115.821 84.2294 114.99 86.5917L113.746 90.1262C113.294 91.4101 111.475 91.4101 111.024 90.1262L109.78 86.5916C108.949 84.2294 107.088 82.3717 104.721 81.5422L101.18 80.301C99.8933 79.8501 99.8933 78.0345 101.18 77.5836L104.721 76.3424C107.088 75.5128 108.949 73.6552 109.78 71.2929L111.024 67.7584C111.475 66.4745 113.294 66.4745 113.746 67.7584Z" fill="#07A6A2"/>
</svg>
