<svg width="53" height="52" viewBox="0 0 53 52" fill="none" xmlns="http://www.w3.org/2000/svg">
<path d="M15.3179 9.49766C15.1399 9.00232 14.7658 8.61303 14.2493 8.43614L13.893 8.31229H10.4732C9.36892 8.31229 8.35364 8.84304 7.73017 9.7631L0.463121 20.5379C0.23156 20.8917 0.0712105 21.2633 0 21.6348H12.8065L15.8345 10.9485L15.3179 9.49766ZM6.89308 18.9102C6.55466 19.494 5.91347 19.7594 5.46818 19.4941C5.02288 19.2463 4.93374 18.5563 5.27217 17.9725C5.61059 17.3886 6.25189 17.1232 6.69718 17.3886C7.14247 17.6363 7.23151 18.3263 6.89308 18.9102ZM10.5444 14.9647C9.79639 16.1147 8.56738 16.6632 7.80149 16.1678C7.03561 15.6724 7.03561 14.3454 7.80149 13.1778C8.54955 12.0277 9.77856 11.4792 10.5444 11.9747C11.3103 12.47 11.3103 13.797 10.5444 14.9647ZM12.8421 23.4041L22.0686 51.5C21.7657 51.2877 21.4808 51.0401 21.2492 50.7392L0.587704 24.4125C0.356251 24.0941 0.178072 23.7579 0.0712022 23.4041H12.8421ZM32.987 23.4041L23.8853 51.1285H23.8141L14.7124 23.4041H32.987ZM33.0227 21.6348H14.6589L17.2595 12.4347C17.5266 12.5408 17.8116 12.5939 18.1144 12.5939C19.1296 12.5939 20.0381 11.957 20.3765 11.0016L20.9108 9.49766C21.0889 9.00232 21.4808 8.61303 21.9795 8.43614L22.3357 8.31229H29.2466L33.0227 21.6348ZM34.8573 23.4041H47.646C47.5392 23.7579 47.361 24.0941 47.1117 24.4125L26.468 50.7392C26.2365 51.0401 25.9515 51.2877 25.6486 51.4824L34.8573 23.4041ZM34.875 21.6348L31.1168 8.31229H37.2085C38.3128 8.31229 39.3279 8.84304 39.9692 9.7631L47.2541 20.5379C47.4857 20.8917 47.6282 21.2633 47.7173 21.6348H34.875ZM7.18502 40.1869L7.71608 41.6891C8.07101 42.693 8.86582 43.4825 9.87653 43.8351L11.3888 44.3626C11.9381 44.5542 11.9381 45.3259 11.3888 45.5175L9.87653 46.045C8.86582 46.3976 8.07101 47.1871 7.71608 48.191L7.18502 49.6932C6.99212 50.2388 6.21527 50.2388 6.02237 49.6932L5.49131 48.191C5.13637 47.1871 4.34157 46.3976 3.33085 46.045L1.81858 45.5175C1.26927 45.3259 1.26927 44.5542 1.81858 44.3626L3.33085 43.8351C4.34157 43.4825 5.13637 42.693 5.49131 41.6891L6.02237 40.1869C6.21528 39.6413 6.99213 39.6413 7.18502 40.1869ZM18.6982 0.909232L19.2293 2.41141C19.5842 3.41537 20.379 4.20487 21.3898 4.55743L22.902 5.08494C23.4513 5.27656 23.4513 6.04822 22.902 6.23983L21.3898 6.76735C20.379 7.11991 19.5842 7.9094 19.2293 8.91337L18.6982 10.4155C18.5053 10.9612 17.7285 10.9612 17.5356 10.4155L17.0045 8.91337C16.6496 7.9094 15.8548 7.11991 14.8441 6.76735L13.3318 6.23983C12.7825 6.04822 12.7825 5.27656 13.3318 5.08494L14.8441 4.55743C15.8548 4.20487 16.6496 3.41537 17.0045 2.41141L17.5356 0.909232C17.7285 0.363589 18.5053 0.363589 18.6982 0.909232ZM48.3842 29.2973L48.9153 30.7995C49.2702 31.8035 50.065 32.593 51.0757 32.9455L52.588 33.473C53.1373 33.6646 53.1373 34.4363 52.588 34.6279L51.0757 35.1554C50.065 35.508 49.2702 36.2975 48.9153 37.3015L48.3842 38.8036C48.1913 39.3493 47.4145 39.3493 47.2216 38.8036L46.6905 37.3014C46.3356 36.2975 45.5408 35.508 44.5301 35.1554L43.0178 34.6279C42.4685 34.4363 42.4685 33.6646 43.0178 33.473L44.5301 32.9455C45.5408 32.5929 46.3356 31.8035 46.6905 30.7995L47.2216 29.2973C47.4145 28.7517 48.1913 28.7517 48.3842 29.2973Z" fill="white"/>
</svg>
