<svg width="53" height="51" viewBox="0 0 53 51" fill="none" xmlns="http://www.w3.org/2000/svg">
<path d="M15.3179 8.99766C15.1399 8.50232 14.7658 8.11303 14.2493 7.93614L13.893 7.81229H10.4732C9.36892 7.81229 8.35364 8.34304 7.73017 9.2631L0.463121 20.0379C0.23156 20.3917 0.0712105 20.7633 0 21.1348H12.8065L15.8345 10.4485L15.3179 8.99766ZM6.89308 18.4102C6.55466 18.994 5.91347 19.2594 5.46818 18.9941C5.02288 18.7463 4.93374 18.0563 5.27217 17.4725C5.61059 16.8886 6.25189 16.6232 6.69718 16.8886C7.14247 17.1363 7.23151 17.8263 6.89308 18.4102ZM10.5444 14.4647C9.79639 15.6147 8.56738 16.1632 7.80149 15.6678C7.03561 15.1724 7.03561 13.8454 7.80149 12.6778C8.54955 11.5277 9.77856 10.9792 10.5444 11.4747C11.3103 11.97 11.3103 13.297 10.5444 14.4647ZM12.8421 22.9041L22.0686 51C21.7657 50.7877 21.4808 50.5401 21.2492 50.2392L0.587704 23.9125C0.356251 23.5941 0.178072 23.2579 0.0712022 22.9041H12.8421ZM32.987 22.9041L23.8853 50.6285H23.8141L14.7124 22.9041H32.987ZM33.0227 21.1348H14.6589L17.2595 11.9347C17.5266 12.0408 17.8116 12.0939 18.1144 12.0939C19.1296 12.0939 20.0381 11.457 20.3765 10.5016L20.9108 8.99766C21.0889 8.50232 21.4808 8.11303 21.9795 7.93614L22.3357 7.81229H29.2466L33.0227 21.1348ZM34.8573 22.9041H47.646C47.5392 23.2579 47.361 23.5941 47.1117 23.9125L26.468 50.2392C26.2365 50.5401 25.9515 50.7877 25.6486 50.9824L34.8573 22.9041ZM34.875 21.1348L31.1168 7.81229H37.2085C38.3128 7.81229 39.3279 8.34304 39.9692 9.2631L47.2541 20.0379C47.4857 20.3917 47.6282 20.7633 47.7173 21.1348H34.875ZM7.18502 39.6869L7.71608 41.1891C8.07101 42.193 8.86582 42.9825 9.87653 43.3351L11.3888 43.8626C11.9381 44.0542 11.9381 44.8259 11.3888 45.0175L9.87653 45.545C8.86582 45.8976 8.07101 46.6871 7.71608 47.691L7.18502 49.1932C6.99212 49.7388 6.21527 49.7388 6.02237 49.1932L5.49131 47.691C5.13637 46.6871 4.34157 45.8976 3.33085 45.545L1.81858 45.0175C1.26927 44.8259 1.26927 44.0542 1.81858 43.8626L3.33085 43.3351C4.34157 42.9825 5.13637 42.193 5.49131 41.1891L6.02237 39.6869C6.21528 39.1413 6.99213 39.1413 7.18502 39.6869ZM18.6982 0.409232L19.2293 1.91141C19.5842 2.91537 20.379 3.70487 21.3898 4.05743L22.902 4.58494C23.4513 4.77656 23.4513 5.54822 22.902 5.73983L21.3898 6.26735C20.379 6.61991 19.5842 7.4094 19.2293 8.41337L18.6982 9.91555C18.5053 10.4612 17.7285 10.4612 17.5356 9.91555L17.0045 8.41337C16.6496 7.4094 15.8548 6.61991 14.8441 6.26735L13.3318 5.73983C12.7825 5.54822 12.7825 4.77656 13.3318 4.58494L14.8441 4.05743C15.8548 3.70487 16.6496 2.91537 17.0045 1.91141L17.5356 0.409232C17.7285 -0.136411 18.5053 -0.136411 18.6982 0.409232ZM48.3842 28.7973L48.9153 30.2995C49.2702 31.3035 50.065 32.093 51.0757 32.4455L52.588 32.973C53.1373 33.1646 53.1373 33.9363 52.588 34.1279L51.0757 34.6554C50.065 35.008 49.2702 35.7975 48.9153 36.8015L48.3842 38.3036C48.1913 38.8493 47.4145 38.8493 47.2216 38.3036L46.6905 36.8014C46.3356 35.7975 45.5408 35.008 44.5301 34.6554L43.0178 34.1279C42.4685 33.9363 42.4685 33.1646 43.0178 32.973L44.5301 32.4455C45.5408 32.0929 46.3356 31.3035 46.6905 30.2995L47.2216 28.7973C47.4145 28.2517 48.1913 28.2517 48.3842 28.7973Z" fill="#1DDDD9"/>
</svg>
