<svg width="33" height="32" viewBox="0 0 33 32" fill="none" xmlns="http://www.w3.org/2000/svg">
<path d="M9.53758 5.64559C9.42671 5.33479 9.19379 5.09053 8.87219 4.97954L8.65038 4.90183H6.52107C5.83348 4.90183 5.20133 5.23485 4.81313 5.81214L0.288358 12.5728C0.144179 12.7948 0.0443386 13.028 0 13.261H7.97389L9.85925 6.5559L9.53758 5.64559ZM4.29192 11.5515C4.0812 11.9178 3.68197 12.0843 3.40471 11.9178C3.12746 11.7624 3.07195 11.3294 3.28267 10.9631C3.49339 10.5968 3.89269 10.4302 4.16994 10.5968C4.4472 10.7522 4.50264 11.1851 4.29192 11.5515ZM6.56541 9.07591C6.09964 9.79745 5.3344 10.1416 4.85753 9.83079C4.38066 9.51992 4.38066 8.68732 4.85753 7.95467C5.3233 7.23306 6.08854 6.88892 6.56541 7.19979C7.04228 7.51059 7.04228 8.34319 6.56541 9.07591ZM7.99602 14.3712L13.7408 32C13.5522 31.8668 13.3748 31.7114 13.2307 31.5227L0.365929 15.004C0.221817 14.8041 0.110875 14.5932 0.0443334 14.3712H7.99602ZM20.5391 14.3712L14.872 31.7669H14.8276L9.16055 14.3712H20.5391ZM20.5613 13.261H9.12725L10.7465 7.48844C10.9128 7.55504 11.0902 7.58831 11.2788 7.58831C11.9109 7.58831 12.4765 7.18868 12.6872 6.58924L13.0199 5.64559C13.1308 5.33479 13.3748 5.09053 13.6853 4.97954L13.9071 4.90183H18.2102L20.5613 13.261ZM21.7036 14.3712H29.6664C29.5999 14.5932 29.4889 14.8041 29.3337 15.004L16.4801 31.5227C16.3359 31.7114 16.1585 31.8668 15.9699 31.989L21.7036 14.3712ZM21.7146 13.261L19.3746 4.90183H23.1675C23.8551 4.90183 24.4872 5.23485 24.8865 5.81214L29.4224 12.5728C29.5666 12.7948 29.6553 13.028 29.7107 13.261H21.7146ZM4.47369 24.9016L4.80435 25.8441C5.02535 26.4741 5.52022 26.9694 6.14954 27.1906L7.09114 27.5216C7.43317 27.6419 7.43317 28.126 7.09114 28.2463L6.14954 28.5773C5.52022 28.7985 5.02535 29.2938 4.80435 29.9238L4.47369 30.8663C4.35358 31.2087 3.86988 31.2087 3.74977 30.8663L3.41911 29.9238C3.19812 29.2938 2.70324 28.7985 2.07393 28.5773L1.13232 28.2463C0.790298 28.126 0.790298 27.6419 1.13232 27.5216L2.07393 27.1906C2.70324 26.9694 3.19812 26.4741 3.41911 25.8441L3.74977 24.9016C3.86989 24.5592 4.35359 24.5592 4.47369 24.9016ZM11.6423 0.256773L11.973 1.19931C12.194 1.82925 12.6888 2.32462 13.3182 2.54584L14.2598 2.87683C14.6018 2.99706 14.6018 3.48124 14.2598 3.60146L13.3182 3.93245C12.6888 4.15367 12.194 4.64904 11.973 5.27898L11.6423 6.22152C11.5222 6.56388 11.0385 6.56388 10.9184 6.22152L10.5877 5.27898C10.3667 4.64904 9.87186 4.15367 9.24254 3.93245L8.30094 3.60146C7.95891 3.48124 7.95891 2.99706 8.30094 2.87683L9.24254 2.54584C9.87186 2.32462 10.3667 1.82925 10.5877 1.19931L10.9184 0.256773C11.0385 -0.0855911 11.5222 -0.0855911 11.6423 0.256773ZM30.126 18.0689L30.4567 19.0114C30.6777 19.6414 31.1726 20.1368 31.8019 20.358L32.7435 20.689C33.0855 20.8092 33.0855 21.2934 32.7435 21.4136L31.8019 21.7446C31.1726 21.9658 30.6777 22.4612 30.4567 23.0911L30.126 24.0337C30.0059 24.376 29.5222 24.376 29.4021 24.0337L29.0715 23.0911C28.8505 22.4612 28.3556 21.9658 27.7263 21.7446L26.7847 21.4136C26.4426 21.2934 26.4426 20.8092 26.7847 20.689L27.7263 20.358C28.3556 20.1368 28.8505 19.6414 29.0715 19.0114L29.4021 18.0689C29.5222 17.7265 30.0059 17.7265 30.126 18.0689Z" fill="#262626"/>
</svg>
