<svg width="148" height="146" viewBox="0 0 148 146" fill="none" xmlns="http://www.w3.org/2000/svg">
<path d="M137.723 113.811H132.435C131.055 113.811 130.135 112.891 130.135 111.512C130.135 110.132 131.055 109.213 132.435 109.213H137.723C140.252 109.213 142.551 106.913 142.551 104.384V9.42677C142.551 6.89764 140.252 4.59843 137.723 4.59843H9.42677C6.89764 4.59843 4.59843 6.89764 4.59843 9.42677V104.384C4.59843 106.913 6.89764 109.213 9.42677 109.213H115.88C117.26 109.213 118.18 110.132 118.18 111.512C118.18 112.891 117.26 113.811 115.88 113.811H9.42677C4.13858 113.811 0 109.672 0 104.384V9.42677C0 4.13858 4.13858 0 9.42677 0H137.723C143.011 0 147.15 4.13858 147.15 9.42677V104.384C147.15 109.672 143.011 113.811 137.723 113.811Z" fill="#11B0AC"/>
<path d="M144.85 96.7969H128.986C127.606 96.7969 126.687 95.8772 126.687 94.4977C126.687 93.1182 127.606 92.1985 128.986 92.1985H144.85C146.23 92.1985 147.15 93.1182 147.15 94.4977C147.15 95.8772 146.23 96.7969 144.85 96.7969Z" fill="#11B0AC"/>
<path d="M88.2898 96.7969H2.29921C0.919685 96.7969 0 95.8772 0 94.4977C0 93.1182 0.919685 92.1985 2.29921 92.1985H88.2898C89.6693 92.1985 90.589 93.1182 90.589 94.4977C90.589 95.8772 89.6693 96.7969 88.2898 96.7969Z" fill="#11B0AC"/>
<path d="M61.1591 127.836C59.7796 127.836 58.8599 126.917 58.8599 125.537V111.512C58.8599 110.132 59.7796 109.213 61.1591 109.213C62.5386 109.213 63.4583 110.132 63.4583 111.512V125.537C63.4583 126.917 62.5386 127.836 61.1591 127.836Z" fill="#11B0AC"/>
<path d="M85.9905 127.836C84.611 127.836 83.6913 126.917 83.6913 125.537V111.512C83.6913 110.132 84.611 109.213 85.9905 109.213C87.3701 109.213 88.2897 110.132 88.2897 111.512V125.537C88.2897 126.917 87.3701 127.836 85.9905 127.836Z" fill="#11B0AC"/>
<path d="M73.5748 105.534H71.5055C70.126 105.534 69.2063 104.614 69.2063 103.235C69.2063 101.855 70.126 100.935 71.5055 100.935H73.5748C74.9544 100.935 75.874 101.855 75.874 103.235C75.874 104.614 74.9544 105.534 73.5748 105.534Z" fill="#11B0AC"/>
<path d="M98.6362 143.241H48.5134C45.0645 143.241 42.3055 140.482 42.3055 137.033V129.216C42.3055 125.767 45.0645 123.008 48.5134 123.008H98.8661C102.315 123.008 105.074 125.767 105.074 129.216V137.033V137.263C104.614 140.712 102.085 143.241 98.6362 143.241ZM48.5134 127.606C47.3638 127.606 46.9039 128.526 46.9039 129.216V137.033C46.9039 138.183 47.8236 138.642 48.5134 138.642H98.6362C100.016 138.642 100.476 137.493 100.476 136.803V129.216C100.476 128.066 99.5559 127.606 98.8661 127.606H48.5134Z" fill="#11B0AC"/>
<path d="M36.7874 32.419H22.5323C21.1528 32.419 20.2331 31.4993 20.2331 30.1198V15.8646C20.2331 14.4851 21.1528 13.5654 22.5323 13.5654H36.7874C38.167 13.5654 39.0866 14.4851 39.0866 15.8646V30.1198C39.0866 31.4993 38.167 32.419 36.7874 32.419ZM24.8315 27.8205H34.4882V18.1639H24.8315V27.8205Z" fill="#11B0AC"/>
<path d="M36.7874 58.8599H22.5323C21.1528 58.8599 20.2331 57.9402 20.2331 56.5607V42.3056C20.2331 40.926 21.1528 40.0063 22.5323 40.0063H36.7874C38.167 40.0063 39.0866 40.926 39.0866 42.3056V56.5607C39.0866 57.9402 38.167 58.8599 36.7874 58.8599ZM24.8315 54.2615H34.4882V44.6048H24.8315V54.2615Z" fill="#11B0AC"/>
<path d="M36.7874 85.3008H22.5323C21.1528 85.3008 20.2331 84.3811 20.2331 83.0016V68.7465C20.2331 67.367 21.1528 66.4473 22.5323 66.4473H36.7874C38.167 66.4473 39.0866 67.367 39.0866 68.7465V83.0016C39.0866 84.3811 38.167 85.3008 36.7874 85.3008ZM24.8315 80.7024H34.4882V71.0457H24.8315V80.7024Z" fill="#11B0AC"/>
<path d="M105.994 20.0032H51.0425C49.663 20.0032 48.7433 19.0835 48.7433 17.704C48.7433 16.3245 49.663 15.4048 51.0425 15.4048H105.994C107.373 15.4048 108.293 16.3245 108.293 17.704C108.293 19.0835 107.373 20.0032 105.994 20.0032Z" fill="#11B0AC"/>
<path d="M124.617 30.5795H51.0425C49.663 30.5795 48.7433 29.6598 48.7433 28.2803C48.7433 26.9008 49.663 25.9811 51.0425 25.9811H124.617C125.997 25.9811 126.917 26.9008 126.917 28.2803C126.917 29.6598 125.997 30.5795 124.617 30.5795Z" fill="#11B0AC"/>
<path d="M74.7244 46.674H51.0425C49.663 46.674 48.7433 45.7543 48.7433 44.3748C48.7433 42.9952 49.663 42.0756 51.0425 42.0756H74.7244C76.1039 42.0756 77.0236 42.9952 77.0236 44.3748C77.0236 45.7543 76.1039 46.674 74.7244 46.674Z" fill="#11B0AC"/>
<path d="M71.2756 57.0205H51.0425C49.663 57.0205 48.7433 56.1009 48.7433 54.7213C48.7433 53.3418 49.663 52.4221 51.0425 52.4221H71.2756C72.6551 52.4221 73.5748 53.3418 73.5748 54.7213C73.5748 56.1009 72.6551 57.0205 71.2756 57.0205Z" fill="#11B0AC"/>
<path d="M65.2976 73.115H51.0425C49.663 73.115 48.7433 72.1953 48.7433 70.8158C48.7433 69.4363 49.663 68.5166 51.0425 68.5166H65.2976C66.6771 68.5166 67.5968 69.4363 67.5968 70.8158C67.5968 72.1953 66.6771 73.115 65.2976 73.115Z" fill="#11B0AC"/>
<path d="M69.2063 83.4615H51.0425C49.663 83.4615 48.7433 82.5418 48.7433 81.1622C48.7433 79.7827 49.663 78.863 51.0425 78.863H69.2063C70.5858 78.863 71.5055 79.7827 71.5055 81.1622C71.5055 82.5418 70.5858 83.4615 69.2063 83.4615Z" fill="#11B0AC"/>
<path d="M108.753 105.074C91.2787 105.074 77.0236 90.8189 77.0236 73.3449C77.0236 55.8708 91.2787 41.6157 108.753 41.6157C126.227 41.6157 140.482 55.8708 140.482 73.3449C140.482 90.8189 126.227 105.074 108.753 105.074ZM108.753 46.2141C93.8078 46.2141 81.622 58.4 81.622 73.3449C81.622 88.2897 93.8078 100.476 108.753 100.476C123.698 100.476 135.883 88.2897 135.883 73.3449C135.883 58.4 123.698 46.2141 108.753 46.2141Z" fill="#11B0AC"/>
<path d="M133.814 146C129.676 146 125.997 143.241 124.617 139.332L112.202 102.775C111.742 101.625 112.432 100.246 113.581 99.7857C114.731 99.3259 116.11 100.016 116.57 101.165L128.986 137.723C129.676 139.792 131.515 141.172 133.814 141.172C134.734 141.172 135.194 141.172 135.654 140.942C137.033 140.252 138.183 139.332 138.643 137.953C139.102 136.573 139.102 135.194 138.413 133.814L122.548 98.6361C122.088 97.4865 122.548 96.107 123.698 95.6472C124.847 95.1873 126.227 95.6472 126.687 96.7968L142.551 132.205C143.701 134.734 143.701 137.263 142.781 139.792C141.861 142.321 139.792 144.39 137.493 145.31C136.113 146 134.964 146 133.814 146Z" fill="#11B0AC"/>
<path d="M108.753 78.8631C103.695 78.8631 99.7859 73.345 99.7859 68.5166C99.7859 63.6883 103.695 59.5497 108.523 59.5497C113.581 59.5497 117.49 63.4583 117.49 68.5166C117.49 73.345 113.811 78.8631 108.753 78.8631ZM108.523 64.1481C106.224 64.1481 104.384 66.2174 104.384 68.5166C104.384 71.0457 106.454 74.2646 108.753 74.2646C111.052 74.2646 112.891 71.0457 112.891 68.5166C112.891 66.2174 110.822 64.1481 108.523 64.1481Z" fill="black"/>
<path d="M96.567 92.1986C95.1874 92.1986 94.2678 91.2789 94.2678 89.8994V88.06C94.2678 85.3009 95.8772 82.7718 98.1764 81.3923L102.545 78.8631C102.545 78.8631 102.775 78.8631 102.775 78.6332C103.235 78.4033 103.235 77.9435 103.235 77.7135V75.4143C103.235 74.0348 104.154 73.1151 105.534 73.1151C106.913 73.1151 107.833 74.0348 107.833 75.4143V77.9435C107.833 80.2427 106.684 82.082 104.614 83.0017L100.476 85.5309C99.556 85.9907 98.8662 87.1403 98.8662 88.06V89.8994C98.8662 91.2789 97.9465 92.1986 96.567 92.1986Z" fill="black"/>
<path d="M120.939 91.7387C119.559 91.7387 118.639 90.819 118.639 89.4395V87.8301C118.639 86.9104 117.95 85.7608 117.03 85.3009L112.891 83.0017C111.052 82.082 109.672 80.2427 109.672 77.9435V75.4143C109.672 74.0348 110.592 73.1151 111.972 73.1151C113.351 73.1151 114.271 74.0348 114.271 75.4143V77.9435C114.271 78.1734 114.271 78.6332 114.731 78.8631H114.961L119.329 81.1624C121.858 82.5419 123.238 85.071 123.238 87.8301V89.4395C123.238 90.819 122.318 91.7387 120.939 91.7387Z" fill="black"/>
<path d="M108.753 96.1071C96.1071 96.1071 85.9906 85.9906 85.9906 73.5748C85.9906 60.9291 96.1071 50.8126 108.523 50.8126C114.501 50.5827 120.249 52.8819 124.387 57.2504C128.756 61.6189 131.285 67.3669 131.285 73.3449C131.285 85.9905 121.169 96.1071 108.753 96.1071ZM108.983 55.411C108.753 55.411 108.753 55.411 108.523 55.411C98.6362 55.411 90.589 63.4583 90.589 73.5748C90.589 83.4614 98.6362 91.5087 108.753 91.5087C118.639 91.5087 126.687 83.4614 126.687 73.3449C126.687 68.5165 124.847 63.9181 121.169 60.4693C117.95 57.2504 113.581 55.411 108.983 55.411Z" fill="#11B0AC"/>
</svg>
