<svg width="85" height="684" viewBox="0 0 85 684" fill="none" xmlns="http://www.w3.org/2000/svg">
<path d="M64.0721 125.574L64.0703 125.574C62.9511 125.574 61.9425 124.903 61.5109 123.875L26.8066 41.1191L25.8844 41.5058L26.8066 41.119C26.3673 40.0715 26.6144 38.8692 27.4032 38.0804C27.4654 38.0182 27.5387 37.9521 27.624 37.8801C28.5846 37.1103 29.9336 37.0627 30.942 37.7624L30.9429 37.7631L63.5012 60.2997L64.0704 60.6937L64.6396 60.2996L97.1941 37.7609C98.2095 37.0596 99.5635 37.1113 100.521 37.888L100.522 37.8895C101.48 38.663 101.811 39.9767 101.336 41.1167C101.336 41.1171 101.336 41.1175 101.336 41.1178L66.6334 123.87C66.6331 123.87 66.6329 123.871 66.6327 123.871C66.1942 124.904 65.1877 125.576 64.0721 125.574Z" stroke="#11B0AC" stroke-width="2"/>
<path d="M64.0721 238.575L64.0703 238.575C62.9511 238.575 61.9425 237.903 61.5109 236.876L26.8066 154.119L25.8844 154.506L26.8066 154.119C26.3673 153.072 26.6144 151.869 27.4032 151.081C27.4654 151.018 27.5387 150.952 27.624 150.88C28.5846 150.111 29.9336 150.063 30.942 150.763L30.9429 150.763L63.5012 173.3L64.0704 173.694L64.6396 173.3L97.1941 150.761C98.2095 150.06 99.5635 150.112 100.521 150.888L100.522 150.89C101.48 151.663 101.811 152.977 101.336 154.117C101.336 154.117 101.336 154.118 101.336 154.118L66.6334 236.87C66.6331 236.871 66.6329 236.871 66.6327 236.872C66.1942 237.905 65.1877 238.577 64.0721 238.575Z" stroke="#11B0AC" stroke-width="2"/>
<path d="M64.0721 346.575L64.0703 346.575C62.9511 346.575 61.9425 345.903 61.5109 344.876L26.8066 262.12L25.8844 262.506L26.8066 262.12C26.3673 261.072 26.6144 259.87 27.4032 259.081C27.4654 259.019 27.5387 258.953 27.624 258.881C28.5846 258.111 29.9336 258.063 30.942 258.763L30.9429 258.764L63.5012 281.3L64.0704 281.694L64.6396 281.3L97.1941 258.761C98.2095 258.06 99.5635 258.112 100.521 258.888L100.522 258.89C101.48 259.664 101.811 260.977 101.336 262.117C101.336 262.118 101.336 262.118 101.336 262.118L66.6334 344.87C66.6331 344.871 66.6329 344.871 66.6327 344.872C66.1942 345.905 65.1877 346.577 64.0721 346.575Z" stroke="#11B0AC" stroke-width="2"/>
<path d="M64.0721 459.577L64.0703 459.577C62.9511 459.577 61.9425 458.905 61.5109 457.878L26.8066 375.122L25.8844 375.508L26.8066 375.121C26.3673 374.074 26.6144 372.872 27.4032 372.083C27.4654 372.021 27.5387 371.955 27.624 371.883C28.5846 371.113 29.9336 371.065 30.942 371.765L30.9429 371.766L63.5012 394.302L64.0704 394.696L64.6396 394.302L97.1941 371.763C98.2095 371.062 99.5635 371.114 100.521 371.89L100.522 371.892C101.48 372.665 101.811 373.979 101.336 375.119C101.336 375.12 101.336 375.12 101.336 375.12L66.6334 457.872C66.6331 457.873 66.6329 457.873 66.6327 457.874C66.1942 458.907 65.1877 459.579 64.0721 459.577Z" stroke="#11B0AC" stroke-width="2"/>
<path d="M64.0721 567.577L64.0703 567.577C62.9511 567.577 61.9425 566.905 61.5109 565.878L26.8066 483.122L25.8844 483.509L26.8066 483.122C26.3673 482.074 26.6144 480.872 27.4032 480.083C27.4654 480.021 27.5387 479.955 27.624 479.883C28.5846 479.113 29.9336 479.065 30.942 479.765L30.9429 479.766L63.5012 502.302L64.0704 502.696L64.6396 502.302L97.1941 479.764C98.2095 479.062 99.5635 479.114 100.521 479.891L100.522 479.892C101.48 480.666 101.811 481.979 101.336 483.119C101.336 483.12 101.336 483.12 101.336 483.121L66.6334 565.872C66.6331 565.873 66.6329 565.873 66.6327 565.874C66.1942 566.907 65.1877 567.579 64.0721 567.577Z" stroke="#11B0AC" stroke-width="2"/>
<path d="M64.0721 680.577L64.0703 680.577C62.9511 680.577 61.9425 679.905 61.5109 678.878L26.8066 596.122L25.8844 596.509L26.8066 596.122C26.3673 595.074 26.6144 593.872 27.4032 593.083C27.4654 593.021 27.5387 592.955 27.624 592.883C28.5846 592.113 29.9336 592.065 30.942 592.765L30.9429 592.766L63.5012 615.302L64.0704 615.696L64.6396 615.302L97.1941 592.764C98.2095 592.062 99.5635 592.114 100.521 592.891L100.522 592.892C101.48 593.666 101.811 594.979 101.336 596.119C101.336 596.12 101.336 596.12 101.336 596.121L66.6334 678.872C66.6331 678.873 66.6329 678.873 66.6327 678.874C66.1942 679.907 65.1877 680.579 64.0721 680.577Z" stroke="#11B0AC" stroke-width="2"/>
</svg>
