<svg width="61" height="61" viewBox="0 0 61 61" fill="none" xmlns="http://www.w3.org/2000/svg">
<path d="M61 30.5C61 13.6553 47.3447 0 30.5 0C13.6553 0 0 13.6553 0 30.5C0 47.3447 13.6553 61 30.5 61C47.3447 61 61 47.3447 61 30.5Z" fill="#11B0AC"/>
<path d="M44.22 18.2225H16.7844C16.3175 18.2227 15.8578 18.3367 15.4449 18.5546C15.0321 18.7726 14.6786 19.0879 14.415 19.4732L28.1314 29.199C28.8244 29.6888 29.6522 29.9517 30.5008 29.9517C31.3494 29.9517 32.1771 29.6888 32.8701 29.199L46.5851 19.4732C46.3219 19.0885 45.9691 18.7735 45.5571 18.5556C45.145 18.3377 44.6861 18.2234 44.22 18.2225Z" fill="white"/>
<path d="M34.0564 30.8705C33.0166 31.6066 31.7741 32.0019 30.5002 32.0019C29.2263 32.0019 27.9837 31.6066 26.944 30.8705L13.9111 21.63V39.9042C13.9111 40.6658 14.2137 41.3963 14.7523 41.9349C15.2909 42.4735 16.0214 42.7761 16.7831 42.7761H44.2187C44.9804 42.7761 45.7109 42.4735 46.2495 41.9349C46.7881 41.3963 47.0906 40.6658 47.0906 39.9042V21.63L34.0564 30.8705Z" fill="white"/>
</svg>
