<svg width="186" height="400" viewBox="0 0 186 400" fill="none" xmlns="http://www.w3.org/2000/svg">
<path d="M104.286 0.0111248C104.451 -0.0403835 106.805 0.10339 106.894 0.10864C108.81 0.255414 110.669 1.70965 111.008 1.84942C113.099 3.52894 112.02 2.86958 112.917 3.82224C113.302 4.39708 113.962 4.8104 114.089 5.53276C114.299 5.69154 114.538 5.80281 114.765 5.93658C114.89 6.0861 115.459 7.39931 115.493 7.70236C115.598 7.77387 115.706 7.84563 115.814 7.91815C116.626 8.04967 118.33 8.95656 119.028 9.34463C120.367 9.97498 121.665 11.8503 122.487 13.1272C122.67 13.3775 123.447 13.9699 124.085 15.5024C124.572 16.6143 125.715 20.5164 125.715 20.5164C125.705 20.7665 126.414 24.9086 125.73 27.2463C125.417 28.6432 125.114 29.4284 125.002 31.7962C125.091 31.9335 125.176 32.0758 125.263 32.2173C125.421 33.2675 125.082 33.0212 124.996 33.6768C124.554 36.1392 124.128 35.9789 124.387 36.543C124.291 36.9313 124.4 37.3689 124.147 37.7089C123.144 43.4149 122.11 48.818 118.422 53.7518C116.877 55.7834 115.539 56.611 115.373 57.2833C115.194 58.2412 114.857 59.2311 115.088 60.2098C115.308 60.3066 115.414 60.5161 115.46 60.7441C116.149 61.7276 116.915 62.4649 118.044 63.0528C118.268 63.3031 120.294 64.25 120.652 64.6348C121.242 64.7013 121.49 65.1916 122.031 65.1604C122.234 64.9196 122.477 64.7143 122.735 64.5355C124.357 64.3602 124.34 64.9071 124.814 64.9868C125.543 65.1544 126.3 65.1699 127.022 65.3744C130.493 66.2953 129.334 65.6917 131.792 66.0648C132.602 66.1348 133.378 66.4048 134.184 66.4998C134.513 66.4481 134.861 66.2143 135.182 66.4308C135.583 66.6086 135.451 67.1229 135.561 67.4605C135.577 67.4687 137.655 67.9696 138.629 68.4321C138.668 68.4409 138.746 68.4581 138.785 68.4666C139.386 68.8067 140.055 69.0337 140.6 69.4703C140.639 69.4781 140.718 69.4946 140.758 69.5023C142.496 70.582 147.534 75.071 147.985 75.5003C148.013 75.5115 148.067 75.533 148.095 75.5443C148.262 75.7191 149.794 77.1543 150.029 77.2946C150.033 77.3143 150.04 77.3533 150.044 77.3731C150.044 77.3731 154.722 81.5835 154.724 81.5848C154.725 81.5855 158.035 84.8858 158.035 84.8858C158.043 84.9055 158.057 84.9453 158.065 84.9653C159.491 86.4588 163.363 90.9503 164.331 91.4431C164.333 91.4611 164.338 91.4973 164.34 91.5156C168.44 95.0597 171.376 97.9006 173.281 99.8239C173.531 99.9382 183.048 108.932 184.597 113.221C184.624 113.259 184.68 113.336 184.707 113.375C184.755 113.647 186.782 117.721 184.564 122.233C182.829 125.059 173.188 136.373 172.865 136.679C172.857 136.721 172.841 136.805 172.832 136.848C172.69 136.933 172.584 137.061 172.493 137.197C172.494 137.24 172.495 137.326 172.495 137.369C168.262 142.68 158.515 155.288 152.371 157.663C152.342 157.697 152.283 157.763 152.254 157.797C149.518 158.48 149.227 157.248 146.233 156.664C145.492 157.984 155.628 184.054 157.696 190.999C158.364 193.176 168.843 229.666 168.843 229.666C167.711 232.199 145.4 235.221 144.562 235.892C144.677 238.437 145.11 238.796 144.508 238.988C142.601 239.683 139.354 239.992 138.5 240.492C138.491 241.358 138.439 240.91 138.395 241.542C138.343 241.627 138.294 241.716 138.246 241.808C138.186 242.556 138.164 242.257 138.05 242.92C138.001 243.006 137.953 243.095 137.908 243.187C137.832 244.002 136.869 247.525 136.85 248.114C136.813 248.15 136.743 248.224 136.707 248.261C136.707 248.261 135.374 254.084 133.494 265.466C133.283 265.846 133.318 266.284 133.341 266.704C134.151 274.448 132.96 273.023 133.904 286.14C136.517 305.278 138.226 295.789 138.451 321.758C137.688 339.203 140.185 348.102 140.272 349.184L140.323 349.151C140.358 349.357 140.401 349.566 140.443 349.777L140.487 349.771C140.575 350.187 140.56 349.969 140.593 350.287L140.693 350.27C140.688 350.338 140.68 350.476 140.676 350.545C140.703 350.546 140.759 350.548 140.787 350.55C140.782 350.614 140.773 350.742 140.768 350.806C140.825 350.866 140.884 350.931 140.944 351C140.952 351.237 140.974 351.416 141.249 351.775C141.279 351.945 141.347 352.108 141.382 352.284H141.473C141.466 352.326 141.451 352.411 141.443 352.452L141.574 352.447C141.561 352.49 141.536 352.576 141.523 352.619L141.66 352.626C141.647 352.668 141.622 352.751 141.61 352.793L141.734 352.809C141.726 352.848 141.71 352.926 141.703 352.964L141.815 352.977C141.808 353.018 141.793 353.101 141.786 353.143L141.911 353.15C141.902 353.191 141.884 353.272 141.875 353.313L142.006 353.327C141.99 353.369 141.958 353.453 141.942 353.494L142.083 353.479C142.072 353.523 142.049 353.614 142.037 353.66L142.164 353.659C142.154 353.705 142.135 353.796 142.124 353.842L142.271 353.822C142.255 353.866 142.225 353.955 142.209 353.999L142.334 354.018C142.326 354.059 142.308 354.14 142.3 354.18H142.374C142.524 354.461 142.696 354.735 142.772 355.051L142.824 355.034C144.349 359.57 143.501 358.177 143.988 360.498C144.442 363.19 145.177 364.377 146.337 368.716C149.674 383.268 152.801 386.454 152.898 386.707C153.165 386.681 153.217 386.975 153.257 387.177C154.548 396.575 155.549 393.164 153.663 399.481C153.017 401.647 135.075 396.469 133.379 394.268C132.475 393.095 132.342 391.296 132.363 385.537C132.399 380.724 130.245 372.15 129.039 368.681C126.599 361.776 128.492 359.587 128.953 358.281C129.05 354.799 127.935 353.296 125.388 345.514C125.353 345.408 121.818 333.562 120.518 329.634C120.409 329.628 120.301 329.629 120.195 329.634C118.357 335.922 114.908 345.423 114.187 347.708C113.065 351.701 113.987 354.321 113.207 356.829C113.125 357.101 112.996 357.371 113.026 357.666C113.633 364.302 111.753 373.47 111.566 375.18C111.632 382.96 111.808 385.316 108.556 386.988C103.602 389.536 96.7975 390.657 93.5348 386.243C90.5132 382.155 93.1117 378.761 95.3548 369.911C95.4004 369.661 98.8138 356.196 99.3054 355.109L99.3743 355.135C99.3743 355.076 99.3735 354.96 99.3735 354.902C100.543 352.178 99.6386 351.67 101.026 347.875L101.101 347.876C101.101 347.832 101.1 347.746 101.099 347.702C101.124 347.642 101.174 347.52 101.199 347.459L101.234 347.439C102.735 343.858 103.284 340.802 104.192 331.161C106.299 319.94 103.746 306.444 105.018 300.972C106 291.906 109.383 285.811 109.473 278.438C110.04 274.835 108.503 273.027 108.298 270.789L108.246 270.813C107.652 267.208 104.204 258.67 104.154 258.419C103.868 257.845 102.59 254.499 102.343 254.169C102.222 253.79 102.078 253.417 101.887 253.07C101.883 253.016 101.875 252.908 101.87 252.854C101.839 252.814 101.776 252.734 101.744 252.694C101.579 252.264 98.9749 245.864 97.877 243.582C95.4975 243.218 93.748 243.182 91.4468 241.799C90.957 241.445 85.3285 241.838 84.6964 241.947C84.5121 242.302 84.4278 242.728 84.124 243.008C83.1543 243.926 70.0954 242.314 69.6841 242.473C67.2832 241.968 62.6272 241.414 60.7351 240.782C60.6937 240.316 60.9321 239.905 61.0441 239.469C63.4633 231.87 80.0746 141.891 80.0242 141.58C78.1543 140.871 78.6881 135.994 79.3079 134.813C78.7362 130.982 77.5198 127.275 77.0731 123.423C76.7121 121.415 76.8518 120.559 76.0399 119.161C75.4705 118.193 74.625 111.017 73.415 106.339C73.2714 105.952 73.3719 105.539 73.3437 105.139C73.3586 104.373 72.2165 100.706 72.1385 100.453C71.9544 99.6514 71.7179 99.7977 70.7739 97.6661C70.5432 97.8809 70.5397 98.2124 70.4571 98.4972C66.629 113.704 62.9969 118.071 58.6397 122.312C58.613 122.318 58.5589 122.329 58.5322 122.334C58.5269 122.364 58.5185 122.423 58.5132 122.452C58.2638 122.603 52.4026 128.375 46.7664 123.723C44.868 122.33 42.477 115.495 41.8989 114.367C37.8899 103.922 36.9665 89.0327 34.0036 80.175C33.1938 77.2038 32.022 73.3434 32.022 73.3434L31.9788 73.3427C31.9342 73.0926 30.8459 68.8419 29.2781 68.1498C29.2342 68.1473 29.1464 68.1428 29.1025 68.1403C29.0656 68.0981 28.9922 68.0143 28.9553 67.9721C28.9044 67.9661 28.8039 67.9531 28.753 67.9471C28.7186 67.9168 28.6505 67.858 28.6161 67.828C28.1631 67.7288 27.7508 67.5077 27.3126 67.3672C27.2256 67.3094 27.1388 67.2517 27.0527 67.1954C26.9063 67.1574 26.7609 67.1177 26.6155 67.0807C26.5776 67.0487 26.501 66.9849 26.4623 66.9529C26.0016 66.8131 25.6083 66.5178 25.1469 66.3816C25.1082 66.3555 25.0306 66.3048 24.991 66.2788C23.999 65.9702 21.7333 65.5512 20.3258 64.7728C20.2801 64.7693 20.1881 64.764 20.1424 64.7615C20.107 64.7228 20.0374 64.646 20.003 64.608C19.1637 64.4765 18.4533 64.1632 17.843 63.7476C16.1913 63.1 10.4271 62.3889 9.38031 61.7773C7.82541 60.9842 2.0338 60.0383 0.384861 59.4479C0.447716 59.4567 0.572427 59.4739 0.635282 59.4824C0.686164 59.2677 0.749019 59.0441 0.702377 58.8231C0.475152 58.6808 0.230717 58.5703 0 58.4348C0.0438985 58.4055 0.130948 58.3468 0.173849 58.3175C0.767975 56.1719 3.58072 57.1886 5.73773 57.7254C6.1867 57.7154 12.6759 58.5928 12.9348 58.6238C12.9608 58.5685 13.0132 58.458 13.0391 58.4028C13.0493 58.4598 13.0693 58.5745 13.0788 58.6316C13.5454 58.54 14.043 58.5978 14.5052 58.6876C14.9133 58.6746 15.3143 58.5703 15.7251 58.6056C16.2814 58.5883 16.8288 58.7203 17.3866 58.6893C17.3788 58.7548 17.3634 58.8861 17.3564 58.9516C17.8023 58.9871 18.2413 58.8886 18.6848 58.8636C20.2208 57.7552 21.4484 58.3783 22.9644 58.3588C22.9275 57.5426 22.5419 57.1633 23.4009 55.8766C23.5635 55.7688 23.7134 55.6411 23.8553 55.5056C24.5191 55.2768 25.2122 55.5158 25.8854 55.5633C27.6503 55.6538 28.855 57.4044 30.6616 56.782C31.6306 56.4004 31.771 56.5192 32.7356 56.7423C32.7735 56.7715 32.8501 56.8285 32.888 56.857C33.0825 56.8838 33.2651 56.9553 33.4354 57.0528C33.5173 57.0571 33.5991 57.0616 33.6826 57.0676C33.7223 57.1091 33.8014 57.1918 33.842 57.2333C33.9281 57.2351 34.0159 57.2386 34.1037 57.2418C34.5691 57.5711 34.1628 57.3701 34.8923 57.7477C34.9896 57.7494 35.0886 57.7519 35.1877 57.7554C35.1901 57.7959 35.1954 57.8779 35.1979 57.9184C35.377 57.9202 35.556 57.9227 35.7351 57.9279C35.8239 57.9822 35.9132 58.0385 36.0028 58.0945C36.0467 58.0962 36.1355 58.0997 36.1794 58.1015C36.2173 58.1395 36.2931 58.2162 36.3308 58.255C36.4789 58.268 36.6493 58.2637 36.7044 58.437C36.7406 58.4405 36.8136 58.4455 36.8498 58.4483C37.1115 58.6521 37.3906 58.8348 37.6796 58.9971C37.6796 59.0316 37.6804 59.1006 37.6814 59.1351C37.7176 59.1344 37.7889 59.1326 37.8251 59.1316C37.9525 59.4829 38.2443 59.7382 38.3813 60.086C38.7394 60.7749 38.3907 61.3057 38.7489 62.3722C38.8332 62.5404 38.8996 62.7182 38.9238 62.9072C38.9617 62.946 39.0365 63.022 39.0737 63.06C39.0789 63.1033 39.0884 63.1885 39.0926 63.2318C40.5924 65.4807 41.0414 68.7104 41.3327 69.7423C41.8919 72.9856 43.9833 80.5331 47.3116 88.2593L47.3306 88.2818C47.6224 88.9887 48.0132 89.648 48.3395 90.3392L48.3627 90.3512C48.4804 90.6012 51.5012 96.8787 52.1068 97.6738C52.2135 97.7023 52.3245 97.7161 52.4355 97.7361L54.8632 91.8864C55.5613 89.1327 55.6114 85.2226 56.2078 83.5893C56.5388 82.0386 57.3205 79.8457 57.4794 79.0171C57.5138 78.9808 57.5836 78.9093 57.6188 78.8731C57.6999 78.3697 58.7709 75.5465 59.0891 74.9774C59.0969 74.9359 59.1116 74.8549 59.1183 74.8134C59.2251 74.6096 59.3276 74.4036 59.4343 74.1998C59.4413 74.1583 59.4558 74.0763 59.4628 74.035C59.5453 73.922 59.6254 73.8062 59.7055 73.6915C59.7072 73.6475 59.7107 73.5595 59.7124 73.5155C60.2395 72.5971 61.3951 70.446 63.0502 68.5669C63.0562 68.5394 63.0674 68.4824 63.0727 68.4546C63.1131 68.4539 63.1941 68.4511 63.2336 68.4504C63.2395 68.4201 63.25 68.3589 63.255 68.3286C63.6174 67.9471 64.0581 67.6485 64.4138 67.2584C64.4542 67.2514 64.5353 67.2387 64.5765 67.2324C64.8097 67.0624 65.0499 66.9026 65.2833 66.7329C65.3187 66.7276 65.3876 66.7181 65.4228 66.7131C65.5026 66.5776 65.5956 66.5663 65.9702 66.3946C66.0134 66.3886 66.0984 66.3773 66.1416 66.3721C66.1802 66.3358 66.2571 66.2633 66.2957 66.228C66.5863 66.1925 67.7551 65.7042 68.1879 65.6654C68.3645 65.5544 69.6784 65.3326 70.1758 65.3374C70.279 65.2769 70.384 65.2166 70.489 65.1571C70.4788 65.1028 70.4564 64.9941 70.4451 64.9396C70.6836 64.5298 71.1562 64.1284 71.6563 64.3397C72.3126 64.674 76.6887 65.5634 79.468 64.4562C80.3475 64.1587 80.7004 63.6306 81.9318 63.5854C82.3157 63.5611 82.636 63.8381 83.0201 63.8331C83.3291 63.9127 83.6596 63.8859 83.9584 64.0102C84.1761 64.0974 84.4001 64.1664 84.6291 64.225C84.7144 64.1369 84.8012 64.0507 84.89 63.9652C84.9331 63.9627 85.0199 63.9582 85.0638 63.9557C86.7527 63.0495 87.5845 62.751 88.0108 62.4222C88.0512 62.4169 88.1305 62.4084 88.1709 62.4032C88.3954 62.2804 89.0249 61.9246 89.302 61.7308C89.3494 61.7273 89.445 61.7223 89.4931 61.7196C89.4948 61.6773 89.4983 61.5935 89.5008 61.5513C89.555 61.5478 89.6644 61.541 89.7186 61.5365C92.9716 58.7078 91.3064 60.084 92.8394 58.068C92.8429 58.0257 92.8506 57.9429 92.8541 57.9004C93.4467 57.0881 94.3968 54.4461 94.6731 53.481C94.7342 53.3895 94.8178 53.3144 94.8729 53.2187C94.9358 53.1557 95.0063 53.1032 95.0857 53.0589C95.3074 51.5964 95.0393 49.5701 95.1081 47.7496C95.5361 49.3158 95.4304 48.9808 95.5678 49.2971C95.6693 49.2978 95.7718 49.3006 95.8768 49.3031C95.8726 49.1985 95.8699 49.095 95.8684 48.9915C95.913 48.9528 96.0018 48.8732 96.0457 48.8335C96.0397 48.748 96.0355 48.6635 96.0327 48.5789C95.8923 48.3149 95.7624 48.0456 95.6239 47.7816C95.6127 47.703 95.6025 47.6253 95.593 47.5495C95.472 47.3505 95.273 46.1718 95.246 45.977C95.1987 45.888 95.1523 45.8 95.1056 45.7137C95.1216 45.1121 94.5402 41.1302 94.2628 40.6012C93.548 40.0646 92.126 40.1031 90.2553 36.6425C89.4006 35.1328 89.9236 33.7 89.3756 31.857C88.9204 30.239 90.2434 27.4773 92.2363 27.7118C92.2225 27.2898 92.3405 26.8687 92.2577 26.4491C92.2008 25.9563 92.1011 25.4557 92.2215 24.9639C92.1195 20.779 93.2152 19.7503 93.7919 17.0449C93.7268 16.576 93.5929 16.542 92.8898 15.1263C92.8346 15.1306 92.7254 15.1383 92.671 15.1418C92.7748 13.4758 91.7658 12.4099 92.8019 9.69618L92.6358 9.76269C93.125 9.38938 94.172 7.19178 94.4506 6.44616C94.5609 6.12261 94.8864 5.96033 95.0877 5.70479C95.2942 5.31748 95.6329 3.67921 97.1177 3.78798C97.3193 3.61095 97.5033 3.41167 97.6206 3.16663C97.7582 2.86533 98.174 2.84908 98.2878 2.52278C98.3623 2.74681 98.945 2.74982 99.1917 2.3295C98.9834 2.30624 98.7766 2.29499 98.5709 2.26724C98.9265 2.07821 99.3052 2.17322 99.6591 2.30424C99.9085 2.11871 101.222 1.17731 101.747 1.20907C103.5 -0.172405 102.64 0.59997 104.286 0.0111248ZM138.34 94.6101C137.833 94.8259 137.344 95.0847 136.827 95.2772C136.74 95.3937 136.618 95.5007 136.596 95.6518C136.644 95.8666 136.796 96.0428 136.842 96.2601C136.92 96.7849 136.756 97.3215 136.463 97.7558C136 98.4317 135.363 98.9728 134.93 99.6727C134.564 100.24 134.507 100.929 134.314 101.563C134.214 101.859 134.341 102.162 134.341 102.462C134.341 102.94 134.326 103.421 134.405 103.895C134.479 104.397 134.497 104.967 134.171 105.39C133.846 105.815 133.535 106.249 133.246 106.699C132.975 107.093 132.907 107.578 132.753 108.022C132.511 108.911 132.324 109.82 132.228 110.738C132.164 111.681 131.98 112.611 131.788 113.535C131.682 114.007 131.702 114.496 131.61 114.97C131.507 115.494 131.562 116.034 131.464 116.558C131.404 116.883 131.466 117.23 131.326 117.539C131.089 118.095 131.12 118.713 130.962 119.292C130.787 119.936 130.993 120.589 131.028 121.238C131.223 122.945 131.385 124.655 131.527 126.368C131.625 127.075 131.782 127.774 131.839 128.488C131.932 128.983 132.089 129.466 132.242 129.946C132.285 130.035 132.298 130.23 132.446 130.198C132.781 130.137 133.131 130.153 133.434 130.328C133.427 130.545 133.226 130.818 133.441 130.99C133.858 131.468 134.41 131.846 134.681 132.437C134.879 132.828 135.22 133.13 135.376 133.547C135.585 134.109 135.9 134.65 135.927 135.265C136.025 135.821 136.013 136.423 135.761 136.939C135.633 137.223 135.275 137.244 135.079 137.453C134.977 137.575 135.126 137.7 135.181 137.808C135.863 138.81 136.5 139.843 137.08 140.908C137.217 141.087 137.046 141.354 137.211 141.511C137.548 141.685 137.922 141.773 138.288 141.87C138.971 141.937 139.703 141.781 140.335 142.131C140.939 142.443 141.488 142.859 141.933 143.378C142.341 143.867 142.964 144.063 143.483 144.402C143.804 144.59 144.091 144.83 144.398 145.043C144.629 145.19 144.722 145.464 144.909 145.657C145.21 146.071 145.682 146.278 146.052 146.616C146.085 146.623 146.152 146.639 146.185 146.646C146.273 146.701 146.363 146.756 146.455 146.814C146.531 146.815 146.611 146.817 146.692 146.823C147.068 147.066 147.459 147.303 147.868 147.486C148.355 147.524 148.826 147.306 149.315 147.289C149.634 146.917 150.101 146.692 150.354 146.26C150.634 145.943 150.983 145.697 151.24 145.358C151.579 145.129 151.832 144.805 152.093 144.496C152.201 144.456 152.262 144.346 152.375 144.309C152.383 144.275 152.399 144.209 152.408 144.176C152.59 144.004 152.766 143.822 152.918 143.623C153.204 143.24 153.618 142.959 153.822 142.516C153.899 142.455 153.979 142.398 154.06 142.342C154.769 141.414 155.487 140.489 156.297 139.648C156.874 139.011 157.324 138.273 157.878 137.618C158.578 136.673 159.213 135.682 159.864 134.704C160.093 134.301 160.315 133.893 160.558 133.5C160.694 133.232 160.823 132.96 160.996 132.713C161.007 132.668 161.028 132.577 161.039 132.531C161.092 132.454 161.145 132.378 161.2 132.303C161.413 131.878 161.668 131.478 161.934 131.085C162.247 130.565 162.518 130.018 162.875 129.526C163.059 129.24 163.17 128.907 163.413 128.66C163.421 128.618 163.436 128.533 163.443 128.491C163.608 128.267 163.752 128.028 163.901 127.793C164.079 127.51 164.25 127.222 164.432 126.94C164.526 126.754 164.643 126.582 164.772 126.419C164.975 125.984 165.269 125.599 165.554 125.216C165.931 124.568 166.352 123.948 166.757 123.318C167.149 122.626 167.609 121.976 168.04 121.308C168.528 120.585 168.89 119.774 169.096 118.927C169.107 118.647 168.945 118.391 168.904 118.119C168.649 117.838 168.411 117.544 168.19 117.237C167.738 116.917 167.351 116.519 166.914 116.186C166.692 115.969 166.472 115.753 166.233 115.558C165.919 115.272 165.626 114.955 165.273 114.718C164.754 114.234 164.294 113.685 163.738 113.244C163.31 112.817 162.813 112.469 162.405 112.024C162.338 111.955 162.245 111.927 162.181 111.862C162.09 111.73 161.974 111.619 161.862 111.511C161.482 111.234 161.203 110.846 160.823 110.573C160.558 110.375 160.356 110.107 160.09 109.914C159.563 109.527 159.111 109.05 158.575 108.678C158.136 108.27 157.618 107.957 157.167 107.565C156.719 107.188 156.211 106.892 155.768 106.511C155.656 106.464 155.555 106.401 155.458 106.336C154.781 105.799 154.024 105.376 153.339 104.852C153.207 104.777 153.083 104.695 152.971 104.598C151.872 103.837 150.834 102.984 149.694 102.282C149.606 102.235 149.528 102.176 149.455 102.116C149.057 101.854 148.683 101.56 148.309 101.268C147.835 100.892 147.286 100.618 146.848 100.197C146.131 99.6927 145.427 99.1688 144.764 98.5965C143.873 97.9216 142.985 97.239 142.024 96.6667C141.45 96.3369 140.886 95.9841 140.378 95.5585C140.067 95.3065 139.812 94.9924 139.49 94.7541C139.118 94.6584 138.724 94.5193 138.34 94.6101Z" fill="black"/>
</svg>
