<svg width="165" height="400" viewBox="0 0 165 400" fill="none" xmlns="http://www.w3.org/2000/svg">
<path d="M114.799 93.6605C114.842 93.6605 114.881 93.6633 114.917 93.6692C116.146 93.8964 117.432 94.4975 118.07 95.1606C118.452 95.5535 119.697 96.6303 120.839 97.5591C121.981 98.5129 122.896 99.3457 122.899 99.4707C122.901 99.5688 123.071 99.6638 123.266 99.6638C123.27 99.6638 123.274 99.6638 123.277 99.6637C123.279 99.6637 123.281 99.6637 123.282 99.6637C123.482 99.6637 123.783 99.8815 123.961 100.151C124.14 100.421 124.417 100.64 124.567 100.64C124.568 100.64 124.569 100.64 124.57 100.64L124.572 100.64C124.724 100.64 125.229 101.004 125.709 101.418C129.803 105.142 130.77 106.099 130.776 106.424C130.78 106.624 131.06 106.894 131.412 107.012C131.764 107.131 132.044 107.351 132.046 107.475C132.049 107.625 132.483 108.142 133.018 108.657C133.527 109.173 134.546 110.204 135.26 110.94C135.973 111.677 136.737 112.413 136.915 112.585C137.117 112.731 137.5 113.149 137.781 113.494C138.319 114.184 142.927 118.698 143.612 119.235C144.246 119.723 144.113 120.625 143.259 121.766C142.819 122.324 142.136 123.237 141.722 123.794C141.332 124.352 140.354 125.52 139.57 126.409C138.787 127.298 137.933 128.439 137.667 128.944C137.427 129.448 137.062 129.98 136.889 130.083C136.691 130.187 136.398 130.567 136.229 130.92C135.867 131.627 135.063 132.716 132.911 135.331C132.08 136.346 131.325 137.41 131.256 137.711C131.161 137.988 130.842 138.319 130.544 138.424C129.972 138.61 128.84 139.531 127.095 141.138C126.554 141.673 125.889 142.16 125.665 142.239C125.442 142.318 125.124 142.699 124.956 143.102C124.814 143.505 124.422 143.937 124.075 144.093C123.753 144.274 123.482 144.504 123.484 144.604C123.486 144.729 122.992 145.038 122.397 145.274C121.801 145.51 121.134 145.923 120.889 146.202C120.669 146.456 119.876 146.871 119.156 147.109C118.52 147.334 118.159 147.441 117.793 147.441C117.473 147.441 117.149 147.359 116.633 147.206C114.245 146.5 113.137 146.046 112.931 145.7C112.828 145.504 112.581 145.36 112.382 145.36C112.379 145.36 112.377 145.36 112.374 145.36C112.373 145.36 112.372 145.36 112.371 145.36C112.169 145.36 111.666 144.996 111.26 144.556C110.852 144.138 109.634 143.161 108.596 142.43C106.722 141.115 106.206 140.275 106.922 139.811C107.12 139.708 107.136 139.183 106.993 138.235C106.734 136.365 106.732 136.29 107.077 134.684C107.33 133.48 107.296 132.98 106.857 130.889C106.419 128.822 106.407 128.172 106.616 125.969C106.741 124.592 106.834 122.865 106.82 122.141C106.831 121.39 107.013 120.412 107.278 119.832C107.542 119.278 107.749 118.274 107.736 117.574C107.72 116.7 107.907 116.021 108.319 115.314C108.974 114.227 109.059 113.425 108.626 113.008C108.117 112.518 108.54 108.335 109.426 104.919C109.637 104.166 109.863 102.862 109.948 102.035C110.141 100.307 110.979 96.9916 111.441 96.2582C111.611 95.9801 111.826 95.4511 111.918 95.0495C112.009 94.5729 112.231 94.3688 112.63 94.3614C112.93 94.3309 113.452 94.1712 113.798 93.9649C114.099 93.7854 114.514 93.6605 114.799 93.6605ZM43.3393 92.894C43.5665 92.894 44.2241 93.4552 44.7847 94.142L45.8333 95.4225L45.8832 98.1212C45.9105 99.5956 45.8341 100.872 45.7356 100.949C45.612 101.026 45.3746 101.705 45.214 102.483C44.96 103.613 44.9697 104.137 45.2108 105.008C45.3967 105.604 45.5402 106.602 45.5513 107.201C45.5633 107.851 45.7248 108.473 45.9539 108.694C46.1575 108.89 46.3402 109.311 46.3463 109.636C46.3773 109.961 46.5652 110.657 46.7752 111.203C46.9853 111.749 47.2977 113.768 47.4832 115.69C47.6438 117.611 47.9621 119.955 48.18 120.926C48.726 123.415 49.1494 127.382 49.4311 133.151C49.557 135.899 49.7546 138.47 49.8624 138.893C50.1039 139.788 49.5916 144.522 49.1386 145.705C48.9229 146.209 48.6291 146.539 48.3542 146.545C47.5046 146.56 43.859 148.128 42.8238 148.922C42.4791 149.203 41.3875 149.648 40.443 149.941C39.498 150.208 38.2806 150.606 37.735 150.841C37.0798 151.103 36.5984 151.246 36.1832 151.246C35.5606 151.246 35.0868 150.924 34.3986 150.202C33.8377 149.613 32.9433 148.555 32.431 147.889C31.9183 147.199 31.4324 146.608 31.3316 146.56C31.2307 146.512 30.8702 145.943 30.5084 145.3C30.146 144.632 29.6583 143.941 29.4056 143.796C29.1775 143.625 28.7892 142.907 28.5768 142.236C28.3122 141.441 27.9508 140.823 27.5464 140.58C27.1919 140.337 26.9096 139.942 26.9036 139.617C26.8981 139.318 26.7138 138.821 26.5084 138.525C26.3034 138.254 25.5474 136.568 24.8153 134.832C24.0833 133.095 23.1462 131.088 22.7325 130.346C22.2943 129.629 21.9542 128.81 21.9487 128.511C21.9436 128.236 21.7089 127.715 21.4276 127.37C21.1463 127.025 20.9126 126.555 20.9084 126.33C20.9038 126.08 20.4859 125.113 19.9931 124.147C19.5003 123.181 19.0825 122.214 19.0788 122.014C19.0755 121.84 18.8687 121.468 18.5896 121.249C18.3356 121.028 17.8701 120.187 17.5554 119.393C17.0043 117.978 17.0029 117.903 17.4101 116.946C17.6984 116.316 18.6526 115.198 20.0289 113.923C21.872 112.214 25.258 108.777 28.8609 104.91C29.3019 104.427 29.8883 103.692 30.1062 103.313C30.3492 102.933 30.8401 102.449 31.1864 102.243C31.5325 102.036 32.5413 101.168 33.4006 100.327C34.2599 99.4862 35.097 98.7958 35.222 98.7935C35.3469 98.7912 35.8897 98.4061 36.4061 97.9467C36.923 97.5122 37.7842 96.7714 38.3515 96.3609C38.9184 95.9254 39.7806 95.2346 40.2725 94.8006C40.7643 94.3664 41.5778 93.7515 42.0471 93.4428C42.5168 93.1592 43.0869 92.8986 43.3368 92.894L43.3393 92.894ZM85.4698 267.843L85.7312 272.512C85.8542 275.11 86.1573 277.979 86.3752 278.95C86.5927 279.896 86.7649 281.092 86.7737 281.567C86.8074 282.041 86.9698 282.713 87.1762 283.059C87.3826 283.406 87.5446 284.052 87.5778 284.502C87.5862 284.952 87.75 285.698 87.9583 286.145C88.5066 287.409 88.7439 290.779 89.0247 301.898C89.1514 307.395 89.4586 314.538 89.6682 317.759C89.9027 320.979 90.2484 326.147 90.4306 329.244C90.6129 332.34 90.8489 335.635 90.9419 336.608C91.1834 338.853 90.7924 346.085 90.3388 347.243C90.1727 347.721 89.8904 348.676 89.7525 349.329C89.5901 350.006 89.23 350.813 88.9112 351.144C88.5924 351.475 88.2782 352.055 88.1856 352.457C88.0926 352.834 87.8769 353.338 87.7057 353.541C87.0699 354.303 86.8172 355.507 86.6691 358.31C86.3937 363.689 86.1401 366.193 85.65 368.077C85.1132 370.137 85.0614 371.388 85.4667 373.03C85.7083 373.925 85.6643 374.251 85.2548 375.084C84.9896 375.614 84.7809 376.492 84.7906 377.017C84.8003 377.542 84.6916 378.419 84.5268 378.972C84.387 379.524 84.158 380.653 83.9983 381.481C83.8478 382.314 83.7428 382.669 83.6355 382.669C83.5974 382.669 83.5589 382.624 83.518 382.54C83.388 382.267 83.4712 381.366 83.6786 380.412C83.8863 379.484 84.0974 377.38 84.1668 375.729C84.2362 374.078 84.4061 372.45 84.5746 372.097C84.743 371.744 84.9235 370.69 84.9809 369.739C85.0637 368.813 85.2219 367.91 85.3187 367.733C85.5875 367.403 85.9559 364.347 86.1249 361.319C86.2364 359.242 85.6992 355.878 85.1624 355.238C85.0347 355.09 84.273 353.105 83.4564 350.845C82.0339 346.922 81.9783 346.623 81.9594 344.248C81.9344 342.899 82.0029 341.198 82.1154 340.521C82.7906 336.484 83.0091 333.43 83.11 326.729C83.2971 313.877 82.8636 302.612 82.1482 301.775C81.4583 300.963 82.2831 291.499 83.177 289.833C83.3224 289.58 83.4099 288.903 83.3987 288.304C83.3877 287.704 83.5681 286.651 83.7806 285.972C84.1359 284.915 84.1619 283.615 84.0574 276.618C83.9996 272.144 83.9542 268.346 83.976 268.17C83.9982 268.02 84.3453 267.864 84.7451 267.856L85.4698 267.843ZM80.773 0C79.8215 0 78.9544 0.105702 78.0689 0.312633C77.2031 0.532314 76.677 0.59489 74.6759 0.59489C73.9744 0.59489 73.0917 0.587201 71.9496 0.575893C71.6668 0.572386 71.411 0.570419 71.1782 0.570419C69.414 0.570419 68.9749 0.683384 68.2096 1.095C67.6654 1.40506 67 1.91727 66.7306 2.22232C66.4613 2.52726 65.8204 3.01409 65.3253 3.27317C64.8056 3.55774 64.3878 3.94041 64.3915 4.14026C64.3956 4.36518 63.5664 5.48048 62.5636 6.67383C61.5603 7.84231 60.7306 8.93244 60.7329 9.05738C60.7357 9.20729 60.3183 9.61503 59.7995 9.94965C59.2808 10.2842 58.5432 10.9477 58.1771 11.4294C57.8106 11.8862 57.1503 12.6734 56.7342 13.1559C56.2933 13.6391 55.4876 14.6788 54.9272 15.464C53.9527 16.832 53.9054 16.9828 53.7051 19.6613C53.4389 22.8408 52.5272 27.607 51.9733 28.7421C51.7322 29.2215 51.4124 29.5024 51.0376 29.5093C49.6887 29.5592 48.3916 31.0581 48.419 32.5324C48.4277 33.0072 48.2241 34.1609 47.9423 35.141C47.5906 36.3972 47.5058 37.2238 47.6456 38.0211C47.8136 38.9928 47.7206 39.3696 46.9015 41.0344L45.9866 42.9262L46.068 47.3241C46.136 50.9974 46.2267 51.8456 46.588 52.4639C47.4399 53.9229 47.8046 54.716 48.2562 56.1576C48.7079 57.599 48.7088 57.6489 48.2252 58.5328C47.9596 59.0377 47.2719 59.7003 46.7282 60.0353C46.0109 60.4486 45.693 60.8294 45.5778 61.3564C45.4625 61.8836 45.2668 62.1122 44.9419 62.1182C44.1673 62.1325 43.476 62.5952 42.003 64.0472C41.2668 64.7858 40.4047 65.4767 40.1312 65.5568C39.8332 65.6622 39.4657 66.069 39.2983 66.4721C39.1312 66.9001 38.8373 67.2305 38.6374 67.2342C38.4375 67.2379 37.9933 67.5461 37.6499 67.9024C37.282 68.2842 36.6406 68.7459 36.1691 68.9296C35.723 69.1379 35.3538 69.4446 35.3574 69.6445C35.3648 70.0443 34.6772 70.707 33.9812 70.9199C33.3352 71.1318 28.5513 76.0199 28.0941 76.9781C27.9011 77.3566 27.5822 77.6875 27.3823 77.6911C27.1824 77.6948 26.8164 78.1766 26.5272 78.7569C25.5656 80.8245 25.0801 81.6084 24.5146 82.1187C24.1949 82.3996 23.8774 82.8054 23.7816 83.0322C23.6632 83.3843 22.4498 85.3566 20.8691 87.7355C20.5775 88.1908 20.1106 88.6245 19.8376 88.7294C19.5646 88.8345 19.0717 89.2185 18.7284 89.5749C18.385 89.9312 17.1332 91.1792 15.9551 92.3509C14.7769 93.5225 13.8223 94.6152 13.8255 94.79C13.8292 94.9899 13.5095 95.2708 13.0874 95.4287C12.6899 95.5609 12.3447 95.8173 12.347 95.9422C12.3498 96.0921 11.9851 96.6488 11.5446 97.1569C10.4932 98.4263 8.93559 100.705 8.9416 101.03C8.94392 101.155 8.62417 101.435 8.228 101.643C7.73334 101.927 7.46493 102.282 7.377 102.933C7.28676 103.46 7.06834 103.814 6.86844 103.818C6.66854 103.821 6.17753 104.305 5.76339 104.888C3.79205 107.774 3.05766 108.613 2.33576 108.776C1.73835 108.912 1.59212 109.115 1.45605 109.867C1.30243 111.02 1.04419 111.924 0.451874 113.685C-0.64026 116.805 0.293035 121.312 2.75714 124.791C3.11669 125.309 3.78766 126.447 4.20319 127.289C4.64358 128.155 5.08076 128.846 5.18149 128.846H5.18236C5.28295 128.846 5.64379 129.463 6.00741 130.23C6.3466 130.999 6.94076 132.038 7.32437 132.506C7.73298 132.973 8.04485 133.617 8.05085 133.942C8.06099 134.489 8.64506 135.273 9.04474 135.273C9.04662 135.273 9.04849 135.273 9.05036 135.273H9.05089C9.25293 135.273 10.7389 137.343 11.2572 138.357C11.7236 139.248 13.7597 142.56 14.0915 142.929C14.2701 143.126 14.5834 143.845 14.8203 144.49C15.0572 145.136 15.4982 146.003 15.8304 146.397C16.1627 146.79 16.6754 147.481 17.0086 147.925C17.3168 148.369 17.8808 149.133 18.2144 149.602C18.5731 150.07 19.0613 150.786 19.2936 151.182C19.5504 151.552 20.1395 152.316 20.5995 152.857C21.0344 153.399 21.4199 153.967 21.4222 154.092C21.4249 154.242 21.8372 154.909 22.3241 155.55C22.8113 156.216 23.2222 156.808 23.2236 156.883C23.2282 157.133 25.2324 160.071 25.6142 160.439C25.8173 160.61 26.4018 161.124 26.8848 161.565C27.3679 162.006 27.9561 162.72 28.1888 163.141C28.4734 163.66 29.0815 164.099 30.0394 164.531C30.9258 164.938 31.2988 165.089 32.2437 165.089C32.75 165.089 33.4204 165.046 34.422 164.975C36.4937 164.812 37.7895 164.588 38.807 164.194C40.6549 163.473 42.252 162.992 42.8365 162.992C42.9114 162.992 42.9697 163 43.0098 163.016C43.261 163.087 43.2175 163.438 42.8361 164.445C42.5497 165.175 42.1976 166.406 42.0365 167.159C41.9005 167.911 41.6418 168.791 41.4974 169.094C41.328 169.397 41.2179 170.199 41.2309 170.898C41.2447 171.648 41.0614 172.551 40.7967 173.106C40.5316 173.636 40.0845 175.144 39.8087 176.449C39.5329 177.754 39.1562 179.011 38.985 179.214C38.6185 179.671 37.3616 186.043 37.0686 189.123C36.9164 190.351 36.7188 191.829 36.604 192.381C36.4892 192.933 36.256 195.187 36.0968 197.39C35.9376 199.593 35.6794 201.847 35.5646 202.399C35.4248 202.952 35.2906 205.154 35.255 207.28C35.2193 209.405 35.1059 211.382 34.986 211.659C34.6751 212.415 32.7218 218.975 32.2788 220.708C32.0692 221.537 31.767 222.767 31.5801 223.471C31.4176 224.149 30.9012 225.958 30.4046 227.492C29.2024 231.414 29.1084 231.74 29.1191 232.315C29.1246 232.615 28.8645 233.42 28.5272 234.101C28.1903 234.807 27.9298 235.587 27.9344 235.837C27.9529 236.836 26.2203 243.167 25.5937 244.429C25.1592 245.262 23.9232 248.709 23.9292 249.034C23.9324 249.209 23.7181 249.788 23.453 250.318C23.1397 250.948 22.9791 251.726 22.9971 252.701C23.0253 254.225 23.3114 254.82 24.2202 255.303C24.5232 255.472 25.6348 256.102 26.6963 256.732C27.7329 257.363 28.8684 257.942 29.1697 258.011C29.4714 258.105 30.0008 258.346 30.3293 258.539C30.6579 258.733 31.6176 259.265 32.4755 259.7C35.5291 261.268 36.1358 261.632 36.3959 262.177C36.6513 262.715 37.2695 262.94 39.0109 262.94C39.7528 262.94 40.6987 262.899 41.9072 262.825C46.2025 262.595 50.1085 261.598 51.2621 260.452C51.779 259.944 52.2016 259.69 52.5313 259.69C53.0944 259.69 53.3865 260.43 53.4139 261.912C53.4514 263.936 53.8151 264.679 55.0252 265.232C56.0844 265.737 56.6299 266.852 56.9229 269.171C57.0376 269.969 57.2255 270.665 57.3518 270.738C57.4786 270.835 57.5873 271.308 57.5971 271.833C57.6063 272.333 57.7747 273.33 57.9871 274.001C59.0528 277.556 59.0865 278.03 59.1994 286.827C59.2623 291.575 59.2821 298.049 59.2658 301.224C59.2283 307.299 59.1677 306.725 60.61 314.422C60.7201 314.97 60.9324 315.641 61.0875 315.913C61.2425 316.185 61.5942 317.629 61.8723 319.148C62.2027 320.792 62.5507 322.035 62.8051 322.281C63.0851 322.55 63.329 323.571 63.5899 325.516C63.769 327.087 64.0975 328.631 64.2789 328.978C64.4853 329.324 64.9643 330.89 65.3682 332.457C65.7722 334.024 66.1742 335.492 66.2779 335.69C66.3815 335.888 66.6471 336.733 66.8873 337.553C67.45 339.593 68.1594 341.454 68.5176 341.897C68.6961 342.094 68.9095 342.815 69.0215 343.463C69.1089 344.136 69.4281 345.18 69.7147 345.8C70.157 346.742 70.2454 347.465 70.2995 350.388C70.3369 352.413 70.2643 353.889 70.1162 353.991C69.9681 354.094 69.8922 355.395 69.9232 357.07C69.9611 359.119 69.8801 360.145 69.6367 360.5C69.4424 360.803 69.2665 362.106 69.2239 363.857C69.1526 365.408 69.004 366.835 68.8819 366.988C68.7598 367.14 68.5964 367.768 68.5075 368.369C68.4187 368.971 68.2095 369.825 68.0424 370.253C67.8754 370.681 67.5765 372.086 67.3746 373.34C67.1734 374.618 66.7795 376.3 66.5439 377.08C66.2839 377.884 66.0752 378.763 66.0812 379.088C66.0872 379.413 65.8216 379.918 65.5277 380.248C64.9877 380.783 64.9202 381.184 64.7318 384.512C64.4416 389.092 64.8377 392.934 65.7066 393.968C66.0135 394.337 66.8334 395.422 67.5262 396.384C69.8084 399.492 69.6311 399.37 71.5849 399.584C72.6408 399.699 73.5253 399.762 74.2927 399.762C76.2193 399.762 77.4071 399.37 78.7131 398.452C79.3054 398.041 79.9236 397.68 80.0735 397.677L80.0755 397.677C80.2277 397.677 80.706 397.992 81.1115 398.383C82.2055 399.394 84.3514 400 86.5649 400C86.8729 400 87.1821 399.988 87.49 399.964C90.5599 399.708 93.0985 399.111 94.9324 398.252C95.8241 397.81 97.0148 397.313 97.5862 397.128C99.5733 396.441 101.859 392.974 102.254 390.017C102.759 386.208 102.963 383.755 102.828 383.208C102.588 382.387 102.934 374.082 103.223 373.501C103.368 373.224 103.574 372.195 103.706 371.193C103.837 370.19 103.989 368.963 104.055 368.487C104.122 368.01 104.36 367.406 104.581 367.152C104.898 366.746 104.96 366.045 104.877 362.897C104.777 358.874 104.2 356.035 103.087 353.956C102.621 353.09 102.59 352.791 102.769 350.313C102.892 348.835 103.129 346.781 103.31 345.753C103.491 344.725 103.641 343.372 103.654 342.772C103.641 342.047 103.805 341.469 104.099 341.139C104.54 340.631 105.061 337.722 105.028 335.923C105.02 335.498 105.159 334.945 105.356 334.742C105.526 334.513 105.849 333.058 106.071 331.504C106.267 329.95 106.777 327.816 107.157 326.734C107.563 325.677 108.033 324.068 108.216 323.165C108.765 320.43 109.197 318.097 109.418 316.519C109.727 314.313 110.025 312.883 110.404 311.726C110.594 311.172 110.819 309.819 110.898 308.717C110.978 307.641 111.17 305.837 111.324 304.735C111.504 303.632 111.632 299.755 111.665 296.105C111.692 290.83 111.604 288.782 111.228 285.989C110.967 284.069 110.606 280.751 110.441 278.629C110.277 276.508 110.075 273.687 109.976 272.389C109.85 270.966 109.889 269.066 110.063 267.638L110.369 265.257L113.339 265.002C117.757 264.646 122.942 263.9 123.86 263.508C124.306 263.3 125.351 263.055 126.174 262.94C126.997 262.825 127.792 262.585 127.939 262.407C128.11 262.204 128.707 262.043 129.382 262.031C131.481 261.992 140.364 259.803 141.127 259.139C141.324 258.985 141.82 258.751 142.218 258.644C143.088 258.403 146.582 256.763 147.719 256.042C148.461 255.604 148.532 255.427 148.513 254.378C148.501 253.728 148.256 252.633 147.968 251.938C147.68 251.243 147.441 250.498 147.437 250.273C147.433 250.048 147.221 249.427 146.936 248.858C146.493 247.891 146.204 247.146 144.968 243.82C144.652 242.976 144.313 242.207 144.211 242.109C144.11 242.011 144.027 241.612 144.021 241.262C144.014 240.888 143.693 239.794 143.327 238.876C142.934 237.933 142.403 236.218 142.131 235.073C141.86 233.928 141.439 232.786 141.21 232.541C140.98 232.295 140.689 231.45 140.575 230.652C140.46 229.855 140.242 228.859 140.084 228.462C139.926 228.04 139.526 226.647 139.202 225.354C138.878 224.06 138.454 222.768 138.274 222.496C138.069 222.225 137.909 221.703 137.902 221.328C137.896 220.978 137.759 220.356 137.628 219.983C137.471 219.611 137.229 218.691 137.114 217.918C136.975 217.146 136.757 216.175 136.6 215.778C136.442 215.356 136.203 214.585 136.043 214.038C135.372 211.576 134.792 209.962 134.384 209.52C134.155 209.274 133.889 208.404 133.774 207.581C133.342 204.515 131.353 198.352 130.378 197.02C130.148 196.7 129.939 196.254 129.935 196.029C129.928 195.654 128.838 192.149 128.234 190.561C127.394 188.402 127.21 187.88 126.863 186.712C126.675 186.015 126.281 184.973 125.995 184.353C125.056 182.246 122.879 176.762 122.586 175.742C122.425 175.17 122.165 174.625 122.039 174.552C121.912 174.48 121.675 173.809 121.486 173.038C121.243 172.067 120.958 171.523 120.553 171.28C120.123 171.013 119.967 170.666 119.955 170.042C119.947 169.567 119.759 168.87 119.551 168.474C119.345 168.103 119.077 167.158 118.988 166.385C118.845 165.413 118.477 164.47 117.807 163.357C117.241 162.468 116.8 161.651 116.8 161.601C116.799 161.56 116.951 161.538 117.184 161.538C117.374 161.538 117.616 161.552 117.874 161.581C118.036 161.601 118.191 161.612 118.348 161.612C119.037 161.612 119.753 161.401 121.21 160.844C122.426 160.347 123.79 159.772 124.21 159.539C124.631 159.306 125.203 159.121 125.502 159.115C125.777 159.11 126.074 158.93 126.17 158.703C126.241 158.502 126.658 158.069 127.102 157.761C129.57 156.015 132.474 153.587 132.64 153.109C132.783 152.731 133.129 152.5 133.727 152.389C134.749 152.22 137.014 150.353 140.204 147.145C143.345 143.987 145.558 141.996 146.474 141.504C146.92 141.271 147.509 140.71 147.776 140.28C148.043 139.825 148.509 139.367 148.808 139.286C149.33 139.127 150.458 137.981 151.458 136.613C151.726 136.233 152.462 135.519 153.053 135.033C154.9 133.524 155.785 132.708 158.509 129.958C159.957 128.506 161.626 126.876 162.266 126.339C163.323 125.369 163.54 124.915 164.098 122.655C164.306 121.752 163.905 119.009 163.497 118.542C163.369 118.394 163.132 117.724 162.969 117.052C162.806 116.355 162.389 115.388 162.029 114.87C161.695 114.376 161.331 113.608 161.223 113.21C161.14 112.736 160.782 112.293 160.352 112.051C159.948 111.809 159.566 111.441 159.487 111.217C159.408 110.994 159.024 110.526 158.618 110.183C158.136 109.792 157.773 109.124 157.558 108.303C157.344 107.486 157.112 107.041 156.864 107.041C156.862 107.041 156.861 107.041 156.86 107.041C156.858 107.041 156.856 107.041 156.855 107.041C156.656 107.041 156.43 106.822 156.351 106.551C156.271 106.277 155.84 105.96 155.362 105.819C154.884 105.653 154.453 105.336 154.348 105.013C154.242 104.715 153.499 103.729 152.683 102.844C151.79 101.886 151.096 100.874 151.013 100.4C150.905 99.9774 150.647 99.5572 150.421 99.4864C149.214 99.1337 148.635 98.8695 148.63 98.6445C148.622 98.1698 145.794 95.2975 145.191 95.1587C144.79 95.0661 144.509 94.7714 144.401 94.3234C144.141 93.1811 144.059 93.0408 143.507 93.0408C143.481 93.0408 143.455 93.0411 143.427 93.0416C143.417 93.0418 143.406 93.0419 143.395 93.0419C142.669 93.0419 141.519 92.5972 141.513 92.2771C141.512 92.1771 140.695 91.2924 139.703 90.3358C138.252 88.9378 137.867 88.42 137.727 87.5727C137.562 86.7759 137.382 86.5292 136.955 86.4121C136.629 86.3433 136.249 86.0502 136.068 85.7536C135.888 85.4571 135.194 84.4201 134.476 83.4335C133.782 82.4464 133.013 81.3858 132.807 81.0646C132.601 80.7434 132.144 80.352 131.791 80.1836C131.387 79.9909 131.105 79.5963 130.994 79.0235C130.886 78.5504 130.653 78.1298 130.502 78.0826C130.074 77.9405 127.119 74.9207 126.833 74.326C126.677 74.0289 126.223 73.7874 125.622 73.7236C124.895 73.612 124.667 73.4662 124.66 73.0914C124.655 72.8166 124.169 72.2006 123.585 71.7115C122.976 71.2228 121.755 70.0956 120.839 69.2126C119.923 68.3296 118.857 67.4744 118.479 67.3315C118.101 67.1634 117.797 66.9192 117.794 66.7692C117.791 66.6193 116.932 66.1103 115.873 65.6299C113.958 64.7655 113.703 64.4952 113.35 63.0019C113.267 62.5785 112.754 61.8882 112.246 61.4226C111.229 60.4914 110.786 59.5498 110.269 57.2596C109.808 55.2935 109.999 52.1402 110.587 51.4795C110.831 51.175 110.995 50.5721 110.984 49.9974C110.97 49.1977 110.813 48.8507 110.203 48.287C109.516 47.6498 109.437 47.4263 109.411 46.002C109.377 44.2028 108.573 41.268 107.855 40.2564C107.136 39.2698 107.08 38.946 107.439 38.0395C107.844 36.957 107.787 33.8834 107.321 33.0173C107.114 32.6462 106.374 31.8349 105.662 31.1981L104.366 30.0473L104.335 28.3481C104.293 27.424 104.17 26.2014 104.035 25.654C103.548 23.6632 103.073 22.2971 102.767 22.0028C102.589 21.8312 102.458 21.5086 102.454 21.2587C102.44 20.509 100.806 15.9899 100.32 15.3989C100.065 15.0787 99.5708 14.063 99.1784 13.1204C98.811 12.1773 98.3196 11.2865 98.1164 11.1153C97.9133 10.9441 97.5792 10.4503 97.3714 10.0293C97.1622 9.53313 96.8055 9.16478 96.4038 9.07222C96.0526 9.00379 95.6977 8.73541 95.5926 8.46223C95.513 8.2139 94.8518 7.6012 94.1178 7.11479C93.3839 6.62849 92.2946 5.84874 91.6612 5.38552C89.4658 3.75861 88.4029 3.07715 88.0731 3.07715C88.0717 3.07715 88.0703 3.07716 88.0688 3.07718C88.0679 3.0772 88.0669 3.07721 88.0659 3.07721C87.8616 3.07721 87.1082 2.69271 86.3535 2.23412C85.5982 1.77513 84.8691 1.39 84.6902 1.39L84.688 1.39002L84.6857 1.39004C84.5355 1.39004 84.2825 1.12091 84.1522 0.799979C83.919 0.35442 83.5913 0.210463 82.5145 0.105367C81.8933 0.0348404 81.3192 0 80.773 0Z" fill="black"/>
</svg>
