<svg width="117" height="401" viewBox="0 0 117 401" fill="none" xmlns="http://www.w3.org/2000/svg">
<path d="M65.6669 0.5C65.0114 0.5 64.3067 0.513784 63.5704 0.54185C61.0785 0.62779 59.7883 0.971338 57.2964 2.13098C55.5611 2.94704 53.7811 3.6342 53.4252 3.6342C52.3127 3.6342 49.9098 6.21116 48.3526 9.08883L46.9732 11.7087L46.9287 18.9244C46.8842 22.9185 47.0622 26.8699 47.3292 27.6431C47.6406 28.7597 47.6406 29.2322 47.2402 29.447C46.8843 29.6617 46.8398 29.9624 47.1512 30.3489C47.4181 30.6494 47.5961 32.0669 47.5071 33.4413C47.4625 35.1593 47.6406 36.1901 48.0411 36.6196C48.397 36.9202 48.6641 37.4785 48.6641 37.7791C48.6641 38.1228 49.0645 38.5093 49.554 38.6382C50.0434 38.81 50.3549 39.1107 50.2214 39.3253C50.0434 39.5401 50.2659 40.1414 50.6219 40.6568C51.0223 41.1722 51.3338 42.2459 51.3338 43.0191C51.3338 43.7921 51.5119 44.4363 51.7788 44.4363C52.0013 44.4363 52.3126 44.9089 52.4908 45.5101C52.6242 46.1114 52.9357 46.5838 53.1137 46.5838C53.4697 46.5838 54.0927 47.9582 54.2261 48.946C54.2705 49.1609 54.4931 49.8909 54.7601 50.4922C55.0271 51.0935 55.3386 52.7256 55.383 54.0571C55.5165 56.677 55.116 57.4072 51.6454 61.0578C51.3565 61.3621 51.1021 61.6179 50.8692 61.833H50.8581L47.5343 62.9436H47.5233C46.7036 63.0279 45.786 63.2414 45.2378 63.506C44.7511 63.7507 44.2552 63.9863 43.7715 64.2046H43.7605L27.6225 69.597L3.71829 109.123H3.70763C3.43914 109.357 3.18031 109.551 2.9216 109.72C0.830135 111.137 0.11828 113.671 0.0292741 120.242C-0.0597616 124.752 -0.0152772 125.053 1.18622 126.771C1.85369 127.801 2.38754 128.704 2.38754 128.832C2.38754 129.09 2.74357 129.519 4.30094 131.195C6.51085 133.559 11.6205 134.893 16.2359 134.893C19.3336 134.893 22.2086 134.292 23.8349 132.998C24.1532 132.735 24.4017 132.606 24.7231 132.606C25.0307 132.606 25.4049 132.724 25.9708 132.956L27.3947 133.557L27.288 135.688H27.2772C25.6719 145.768 24.3207 154.769 23.2234 162.693C22.0664 170.972 20.5364 183.022 18.6333 198.844L30.1979 201.233V202.405C30.1979 203.522 30.465 206.528 30.7764 209.148C31.0878 211.725 31.4883 215.333 31.6219 217.094C31.7999 218.855 32.1558 220.573 32.5118 220.873C32.8233 221.174 33.0902 222.291 33.0902 223.322C33.0902 224.352 33.3128 225.254 33.5353 225.34C33.8022 225.426 34.1136 226.543 34.2916 227.831C34.4252 229.12 34.7366 230.322 34.9591 230.451C35.1816 230.58 35.4485 231.74 35.6266 233.028C35.7601 234.317 36.0716 235.476 36.2939 235.605C36.5164 235.734 36.8279 236.679 36.9614 237.667C37.0949 238.612 37.3619 239.428 37.5399 239.428C37.7179 239.428 38.1184 240.544 38.4298 241.876C38.7413 243.25 39.1863 244.667 39.3642 245.054C39.5867 245.441 40.4323 248.318 41.2776 251.497C42.657 256.65 44.437 262.148 45.5494 264.553C46.3057 266.228 46.8842 268.504 47.7742 273.573C48.308 276.407 49.465 281.046 50.4439 283.88C52.0013 288.562 52.3126 290.323 53.7811 303.208C54.7601 311.411 55.3385 318.154 55.1605 319.314C55.0271 320.388 54.8936 328.677 54.849 337.739C54.8046 356.036 54.9381 355.263 51.7788 358.441C50.9334 359.3 49.5095 360.717 48.6195 361.662C44.6148 365.914 37.2285 370.853 34.9146 370.853C34.5585 370.853 33.6687 371.025 32.9123 371.283C31.2214 371.755 22.4555 373.43 19.8747 373.731C18.8514 373.86 17.7834 374.204 17.4719 374.547C16.6711 375.492 17.3385 377.167 18.7179 377.511C19.4298 377.64 20.5867 378.069 21.2987 378.413C25.1699 380.131 26.4157 380.302 35.0481 380.302C43.4579 380.302 43.5914 380.259 48.2191 378.842C50.7999 378.069 55.2496 376.523 58.1418 375.406C61.8275 374.033 63.6104 373.453 64.5147 373.453C64.8549 373.453 65.0708 373.536 65.2168 373.688C65.7507 374.161 62.458 383.266 60.5891 386.53C59.4767 388.42 58.2754 390.653 57.8304 391.469C57.4299 392.328 56.3175 393.917 55.3386 395.077C52.8912 397.912 52.9802 398.942 55.65 399.802C57.0622 400.263 60.2819 400.5 63.5719 400.5C66.7088 400.5 69.9096 400.285 71.6688 399.845C79.8116 397.826 85.2848 394.648 85.8632 391.555C86.0413 390.782 86.4416 390.009 86.7531 389.88C87.1091 389.751 87.3761 389.279 87.3761 388.806C87.3761 388.334 87.7321 387.432 88.177 386.831C88.622 386.187 89.6008 384.597 90.3573 383.309C91.6476 381.032 91.6476 380.775 91.5143 376.523C91.3362 372.743 91.4698 371.841 92.2262 370.295C93.5611 367.589 94.8961 361.405 96.2754 351.526C96.4533 349.98 96.9429 347.102 97.2989 345.084C97.6548 343.065 98.0998 340.273 98.2778 338.856C98.4111 337.439 98.9453 334.261 99.3902 331.769C100.814 323.824 101.17 314.461 100.77 295.906C100.414 280.788 100.236 278.297 99.4347 275.033C98.5892 271.769 98.5003 270.18 98.5892 261.504C98.6337 255.233 98.4557 250.251 98.0998 247.76C97.7438 245.441 97.6103 242.692 97.7883 241.103C97.9662 239.599 98.2778 236.507 98.4557 234.274C98.6782 232.04 99.1232 229.12 99.5236 227.788C99.8796 226.5 100.325 223.321 100.503 220.745C100.681 218.211 101.17 215.032 101.615 213.701C102.594 210.737 103.395 206.271 103.395 203.694C103.395 201.761 103.439 201.761 105.086 201.46C105.976 201.331 107.311 201.202 107.978 201.202C109.224 201.202 109.224 201.16 108.957 199.141C108.779 198.024 108.156 195.147 107.577 192.741C106.999 190.293 106.51 188.017 106.51 187.673C106.51 187.287 106.02 184.925 105.397 182.39C103.973 176.721 103.751 175.776 102.06 168.561C101.304 165.382 100.28 161.216 99.7462 159.327C98.8561 156.234 98.7672 154.774 98.6782 144.08C98.6782 136.993 98.4557 131.624 98.1442 130.765C97.0763 127.415 97.0319 125.611 97.9662 124.623C98.4557 124.108 100.191 121.531 101.793 118.954C103.395 116.334 105.575 112.898 106.599 111.266C107.667 109.634 108.601 108.088 108.69 107.83C108.779 107.572 109.357 106.284 109.936 104.995C112.784 98.9395 113.763 96.0188 115.008 90.1776C115.72 86.7846 116.699 79.2683 116.833 76.4339C116.907 74.1037 115.246 67.9748 114.203 66.1356H114.191L113.99 65.3975L88.9196 53.8992H88.9081C88.4172 53.4985 87.7153 52.9819 86.3526 51.9955C85.4183 51.3083 84.3948 50.2345 84.0834 49.6333C83.4604 48.5165 83.1044 44.4363 83.2824 40.1414C83.3714 37.9079 83.4604 37.7362 84.7063 37.2638C86.3972 36.6625 86.8421 35.5458 86.9756 31.036C87.0646 28.1584 86.9311 27.1276 86.3526 26.2687C85.7297 25.3667 85.5963 24.0782 85.5963 19.6544C85.5963 13.8132 85.3738 12.9972 83.1043 11.2793C82.5704 10.8497 81.9919 9.86191 81.8585 9.04591C81.6806 8.18698 81.0576 7.15615 80.4791 6.68354C79.8562 6.25416 79.3666 5.65284 79.3666 5.39525C79.3666 5.13746 78.8772 4.8368 78.2543 4.66492C77.6313 4.53618 77.1419 4.23559 77.1419 4.02077C77.1419 3.80598 76.7414 3.6342 76.2519 3.6342C75.7625 3.6342 75.362 3.33358 75.362 2.98996C75.362 2.60337 74.9615 2.34564 74.3831 2.34564C73.3597 2.34564 70.3783 1.44375 70.0224 1.01425C69.744 0.678336 68.0223 0.5 65.6669 0.5Z" fill="#0A0A0A"/>
</svg>
