<svg width="44" height="40" viewBox="0 0 44 40" fill="none" xmlns="http://www.w3.org/2000/svg">
<path d="M37.3893 9.12622H35.2504V21.7034C35.2504 26.657 31.2203 30.6871 26.2667 30.6871H15.6246L13.9016 31.6716C14.9162 33.8818 17.1488 35.4213 19.7356 35.4213H28.8634L36.8759 40L36.876 35.4213H37.3893C40.9276 35.4213 43.8063 32.5427 43.8063 29.0044V15.5431C43.8063 12.0049 40.9276 9.12622 37.3893 9.12622Z" fill="#0A0A0A"/>
<path d="M14.9429 28.1203H26.2666C29.8049 28.1203 32.6835 25.2417 32.6835 21.7034V6.41692C32.6835 2.87863 29.8049 0 26.2666 0H6.41692C2.87863 0 0 2.87863 0 6.41692V21.7035C0 25.2418 2.87863 28.1204 6.41692 28.1204H6.93027V32.6991L14.9429 28.1203ZM19.4709 8.24318C20.5179 7.80315 21.7408 7.85174 23.0074 8.38358C23.8641 8.74335 24.4601 9.20606 24.5253 9.25765L22.937 11.2739C22.5675 10.9874 21.3202 10.2503 20.4652 10.6095C20.0649 10.7777 19.8095 11.0407 19.7648 11.331C19.7311 11.5496 19.8189 11.7602 20.012 11.924C20.3537 12.214 20.6719 12.3339 21.5419 12.6378C21.8005 12.7283 22.0937 12.8307 22.4318 12.9554C24.9053 13.8677 25.5245 15.6602 25.2794 17.0335C24.9544 18.8541 23.2188 20.1756 21.1527 20.1756C19.6585 20.1756 18.1999 19.6135 17.151 18.6335L18.9032 16.7579C19.482 17.2987 20.3019 17.6088 21.1526 17.6088C22.0393 17.6088 22.6624 17.0869 22.7525 16.5824C22.8726 15.9096 21.8575 15.4794 21.5435 15.3637C21.2261 15.2465 20.9439 15.148 20.695 15.0609C19.7539 14.7321 19.074 14.4945 18.3513 13.8812C17.4782 13.1404 17.0583 12.0409 17.228 10.94C17.4118 9.7479 18.2293 8.76492 19.4709 8.24318ZM7.86706 7.94475H14.5058V10.5115H10.4338V12.7768H14.2056V15.3435H10.4338V17.6088H14.5058V20.1756H7.86706V7.94475Z" fill="#0A0A0A"/>
</svg>
