<svg width="67" height="50" viewBox="0 0 67 50" fill="none" xmlns="http://www.w3.org/2000/svg">
<path d="M21.9547 36.3235C22.7702 35.5176 22.8503 34.1222 22.1337 33.2053L22.0254 33.0658C21.6813 32.6267 21.1956 32.3603 20.6759 32.3254C20.6326 32.3254 20.5892 32.3254 20.545 32.3254C20.0678 32.3245 19.6069 32.5198 19.2491 32.8744L16.6121 35.4743L14.2107 37.8416C13.3975 38.6485 13.318 40.0417 14.0327 40.9587L14.1428 41.1004C14.8609 42.0159 16.1033 42.1058 16.92 41.3014L18.7659 39.4821L21.9547 36.3235Z" fill="#11B0AC"/>
<path d="M15.623 42.3673C15.5683 42.3673 15.5147 42.3673 15.4601 42.3619C14.8146 42.3172 14.2121 41.9841 13.7865 41.4375L13.6753 41.2948C12.7914 40.1585 12.8902 38.4337 13.8966 37.434L18.937 32.4627C19.4235 31.9846 20.0586 31.7421 20.7037 31.7879C21.3492 31.8326 21.9517 32.1655 22.3773 32.7123L22.5318 32.9143C23.3744 34.0536 23.2567 35.7392 22.2662 36.7168L17.2277 41.6882C16.7848 42.1275 16.2139 42.3691 15.623 42.3673ZM20.5428 32.8477C20.1796 32.8498 19.8294 33.0003 19.5577 33.2709L14.5192 38.2422C13.9011 38.8565 13.8411 39.916 14.3846 40.6136L14.4958 40.7563C15.0422 41.4515 15.9865 41.5191 16.6072 40.9075L21.6448 35.9362C22.2645 35.3234 22.3251 34.2626 21.7804 33.5658L21.6703 33.4231C21.4095 33.0881 21.0402 32.8843 20.6447 32.8573L20.5428 32.8477Z" fill="#11B0AC"/>
<path d="M29.0262 41.8491C28.549 41.8484 28.0878 42.0431 27.7294 42.397L25.1291 44.9609C24.312 45.7662 24.2309 47.163 24.9478 48.0807C25.6648 48.9984 26.9084 49.0896 27.7255 48.2844L30.3258 45.7204C31.1429 44.9161 31.2247 43.5202 30.5086 42.6024C30.1344 42.1228 29.5939 41.8482 29.0262 41.8491Z" fill="#11B0AC"/>
<path d="M26.4298 49.361C25.0832 49.3636 23.9897 48.1397 23.9873 46.6273C23.9861 45.8368 24.2891 45.0841 24.8185 44.5632L27.4196 41.9992C28.4452 41.0457 29.955 41.156 30.8618 42.2509C31.7505 43.3884 31.6502 45.1195 30.6377 46.1179L28.0374 48.6819C27.593 49.1209 27.0213 49.3623 26.4298 49.361ZM29.0271 42.3801C28.6637 42.377 28.3117 42.5228 28.0373 42.7904L25.4361 45.3544C24.8142 45.9678 24.7529 47.0312 25.2991 47.7295C25.8452 48.4279 26.7921 48.4968 27.4138 47.8834L30.015 45.3226C30.6366 44.7108 30.6988 43.6488 30.1541 42.9508C29.8694 42.586 29.4581 42.3771 29.0262 42.3779L29.0271 42.3801Z" fill="#11B0AC"/>
<path d="M5.82469 1.31909L0.537598 27.225L4.76428 29.8925L15.702 9.91003L5.82469 1.31909Z" fill="#11B0AC"/>
<path d="M4.92824 30.6022L0 27.4925L5.52906 0.393555L16.3236 9.78091L4.92824 30.6022ZM1.0755 26.9573L4.60049 29.1786L15.0804 10.0336L6.11864 2.24447L1.0755 26.9573Z" fill="#11B0AC"/>
<path d="M15.8377 33.3155C16.6546 32.5097 16.7355 31.1129 16.0186 30.1952L15.9847 30.1518C15.6414 29.7102 15.1551 29.4413 14.6342 29.405C14.591 29.405 14.5475 29.405 14.5033 29.405C14.0261 29.4041 13.5652 29.5995 13.2074 29.9541L10.0496 33.0596C9.23278 33.8654 9.15191 35.2621 9.86882 36.1798C10.5716 37.119 11.8191 37.2403 12.6553 36.4509C12.6639 36.4427 12.6725 36.4345 12.681 36.4262L12.9202 36.1903L15.3236 33.8209L15.8377 33.3155Z" fill="#11B0AC"/>
<path d="M11.4039 37.5016C11.3437 37.5016 11.2824 37.5016 11.2203 37.4942C10.5624 37.4373 9.95116 37.091 9.5195 36.5307C8.63064 35.3938 8.73058 33.663 9.74267 32.6647L12.8966 29.5561C13.9089 28.5591 15.4487 28.6713 16.3378 29.8067C16.7855 30.3589 17.0145 31.0912 16.9726 31.8365C16.9327 32.5618 16.6359 33.2392 16.1486 33.7171L12.9955 36.8258C12.5564 37.2621 11.9902 37.5027 11.4039 37.5016ZM14.5032 29.9326C14.14 29.9343 13.7896 30.0847 13.5181 30.3557L10.3641 33.4644C9.74254 34.0771 9.68099 35.1397 10.2265 35.8377L10.2266 35.8379C10.4956 36.1896 10.8773 36.4079 11.2889 36.4451C11.6845 36.4798 12.0758 36.3324 12.3729 36.0368L15.5259 32.9282C16.147 32.315 16.2085 31.2528 15.6634 30.5547C15.3989 30.1962 15.0155 29.975 14.6021 29.9423L14.5032 29.9326Z" fill="#11B0AC"/>
<path d="M26.8384 39.504C26.874 38.9186 26.6993 38.3414 26.3534 37.9015L26.3252 37.8656C25.9817 37.427 25.4966 37.1606 24.9776 37.1252C24.9343 37.1252 24.8899 37.1252 24.8466 37.1252C24.3695 37.1243 23.9085 37.3195 23.5507 37.6742L23.2418 37.9788L20.051 41.1245L19.2035 41.9559C18.385 42.7877 18.322 44.207 19.0625 45.1261C19.408 45.555 19.8877 45.8175 20.4014 45.8588C20.9228 45.8996 21.4369 45.7033 21.8282 45.3141L26.1726 41.0314C26.5681 40.6433 26.8081 40.0929 26.8384 39.504Z" fill="#11B0AC"/>
<path d="M20.5326 46.3868C20.4788 46.3868 20.4261 46.3868 20.3725 46.3814C19.016 46.2872 17.9845 44.9756 18.0685 43.4521C18.1088 42.7212 18.4057 42.0381 18.894 41.5528L23.2346 37.2648C23.7219 36.788 24.3565 36.5457 25.0014 36.59C25.6459 36.6343 26.2479 36.9664 26.673 37.5123C27.1198 38.0636 27.3483 38.795 27.3059 39.539C27.2651 40.2624 26.9692 40.9377 26.4838 41.4153L22.1394 45.698C21.6966 46.1407 21.1251 46.3857 20.5326 46.3868ZM23.5462 38.3681L19.5145 42.343C18.8926 42.9555 18.8295 44.0176 19.3733 44.7175C19.6379 45.0711 20.0188 45.289 20.4291 45.3216C20.827 45.3532 21.2194 45.2034 21.5178 44.9059L25.8622 40.6232C26.4836 40.0113 26.5458 38.9495 26.001 38.2514C26.0006 38.2508 26.0001 38.2502 25.9997 38.2496C25.7359 37.8941 25.3541 37.6756 24.943 37.6445H24.8432C24.4796 37.6445 24.1288 37.7951 23.8581 38.0676L23.5462 38.3681Z" fill="#11B0AC"/>
<path d="M52.8679 32.4396L37.5415 18.4131C31.6724 21.9132 27.5164 20.1118 25.5292 18.6871C24.4935 17.928 24.2017 16.3693 24.8776 15.206C25.0875 14.8446 25.3769 14.5499 25.7176 14.3504L30.8257 11.3032C30.6939 11.281 30.5648 11.262 30.449 11.2492C25.8393 12.0672 21.1838 12.5175 16.5174 12.5967L7.58765 28.9089L9.57848 30.6129L11.9188 28.305C13.5436 26.703 16.0172 26.8836 17.4436 28.7085C17.4437 28.7087 17.4439 28.7089 17.4441 28.7091L17.478 28.7525C17.9463 29.3557 18.2578 30.0919 18.3784 30.8807C19.088 30.3369 19.9397 30.0763 20.7969 30.1403C21.8338 30.2129 22.8016 30.7484 23.4847 31.6275L23.5948 31.7691C24.2814 32.6435 24.6283 33.7897 24.5582 34.9529V34.9593C24.7374 34.9387 24.9177 34.9321 25.0979 34.9392C26.1347 35.0119 27.1025 35.5474 27.7856 36.4263L27.0821 37.1836L27.8138 36.4623C28.5015 37.3369 28.8491 38.484 28.7792 39.6481C28.7792 39.663 28.7735 39.6766 28.7726 39.6915C30.9168 39.5201 32.7787 41.3336 32.9313 43.7418C32.944 43.9428 32.9444 44.1446 32.9324 44.3456C32.8841 45.102 32.6608 45.8312 32.2844 46.461L36.4837 49.1825C37.4044 49.7688 38.5734 49.421 39.115 48.3998C39.6286 47.4251 39.3781 46.1697 38.5433 45.5343L31.8568 40.3303C31.8511 40.3303 31.8483 40.3187 31.8435 40.3144L31.3933 39.9643C30.9565 39.6118 30.8568 38.9286 31.1707 38.4379C31.4767 37.9594 32.0654 37.8393 32.5018 38.1662L41.9327 45.5037C42.8026 46.1809 43.9966 45.9378 44.5996 44.9608C44.5999 44.9602 44.6003 44.9596 44.6007 44.959C45.1926 43.9874 44.9832 42.6628 44.1299 41.9794L34.7452 34.5033C34.7395 34.5033 34.7376 34.4917 34.732 34.4874C34.2935 34.1368 34.1911 33.4535 34.5031 32.961C34.8151 32.4685 35.4236 32.3535 35.8621 32.704L46.3835 41.0875C47.3037 41.8173 48.5766 41.5711 49.2264 40.5374C49.8554 39.5371 49.6725 38.1579 48.8113 37.4066L37.4903 28.2447C37.0429 27.9094 36.9221 27.2304 37.2206 26.7279C37.5191 26.2254 38.1236 26.0899 38.5711 26.4251C38.5879 26.4377 38.6043 26.4508 38.6204 26.4647L39.3945 27.0845H39.4049L49.8971 35.5749C49.9168 35.5908 49.931 35.6109 49.9498 35.6268L50.1231 35.7664C50.156 35.7919 50.1875 35.8198 50.2172 35.8499L50.4055 35.9949C51.2825 36.7006 52.4979 36.5119 53.1715 35.5654C53.5743 34.9938 53.7047 34.2379 53.521 33.5387C53.4093 33.1055 53.1811 32.7218 52.8679 32.4396Z" fill="#11B0AC"/>
<path d="M37.4381 50C37.0218 50.0002 36.6129 49.8772 36.2525 49.6435L31.6161 46.6406L31.8986 46.1752C32.9452 44.4019 32.5136 42.0115 30.9347 40.8359C30.4339 40.4631 29.8547 40.2445 29.2551 40.2022C29.1382 40.1958 29.021 40.1994 28.9047 40.2127L28.2727 40.2572L28.3094 39.6554C28.3687 38.8007 28.1732 37.9482 27.7537 37.2321L27.4006 37.5812L26.7639 36.8027L27.1218 36.4177C26.5523 35.8539 25.832 35.519 25.0744 35.4658C24.9372 35.4607 24.7996 35.4656 24.6629 35.4806L24.1571 35.523L24.094 34.8968V34.8745C24.1433 33.8662 23.839 32.8764 23.2464 32.117L23.1352 31.9743C22.0015 30.5126 20.0742 30.2329 18.6467 31.3227L18.0468 31.7754L17.9207 30.9757C17.6007 28.8615 15.8153 27.439 13.9329 27.7985C13.3034 27.9188 12.7156 28.2325 12.2351 28.7048L9.60483 31.2983L6.96313 29.04L16.2499 12.074L16.5033 12.0655C21.1443 11.986 25.7745 11.5388 30.3595 10.7275L30.4255 10.7126L30.4923 10.719C30.6166 10.7317 30.7541 10.7529 30.8963 10.7761L32.3089 11.0141L25.9388 14.8135C25.071 15.317 24.7311 16.5155 25.1794 17.4901C25.32 17.7956 25.5287 18.0549 25.7853 18.2427C27.6547 19.5828 31.6441 21.3292 37.321 17.9455L37.597 17.7805L53.1644 32.0271C53.5509 32.3796 53.8313 32.8569 53.9677 33.3947C54.1951 34.2569 54.035 35.1897 53.5383 35.8951C52.7065 37.0626 51.2066 37.295 50.1244 36.4239L49.5961 35.9807L38.3476 26.8843C38.1229 26.7031 37.8098 26.7608 37.6485 27.0132C37.6479 27.014 37.6475 27.0147 37.647 27.0156C37.4854 27.2686 37.537 27.6208 37.7622 27.8024C37.7627 27.8028 37.7632 27.8032 37.7638 27.8037L49.0866 36.9731C50.1844 37.9247 50.3874 39.6955 49.5401 40.9284C48.7201 42.1218 47.2094 42.3796 46.1107 41.514L35.5864 33.1346C35.4772 33.0477 35.3417 33.013 35.2097 33.0384C34.9358 33.0905 34.7514 33.382 34.7977 33.6896C34.82 33.8374 34.8937 33.9693 35.0025 34.0561L44.4033 41.5502C45.4654 42.4025 45.7246 44.0527 44.9862 45.2617C44.2365 46.4798 42.7494 46.7848 41.6648 45.9427C41.6644 45.9424 41.664 45.9421 41.6636 45.9418L32.2347 38.6032C32.0116 38.4173 31.6967 38.4696 31.5311 38.7201C31.3655 38.9706 31.4121 39.3243 31.6352 39.5103C31.6443 39.5179 31.6536 39.525 31.6631 39.532L38.8149 45.102C39.9024 45.9382 40.1804 47.6063 39.4358 48.8278C39.1151 49.3539 38.6378 49.7343 38.0898 49.9008C37.8776 49.9664 37.6584 49.9999 37.4381 50ZM32.9347 46.2714L36.7233 48.7274C37.4296 49.1566 38.312 48.8617 38.6942 48.0684C39.0391 47.3525 38.862 46.4608 38.2791 45.9773L32.9345 41.812C33.2964 42.6036 33.4592 43.4912 33.4054 44.379C33.3672 45.0398 33.2068 45.6843 32.9347 46.2714ZM31.9534 37.4469C32.2462 37.4463 32.5321 37.5464 32.7728 37.7335L42.2017 45.0711C42.8584 45.5808 43.7588 45.3966 44.2133 44.6595C44.6601 43.9271 44.5025 42.9277 43.8592 42.4118L34.4075 34.8745C33.7821 34.3182 33.6766 33.2976 34.1719 32.5951C34.6465 31.9222 35.5054 31.7809 36.1319 32.2725L46.6562 40.6561C47.3667 41.2131 48.3448 41.0176 48.8408 40.2196C49.3169 39.4533 49.1778 38.403 48.5238 37.8256L37.2151 28.6731C36.5662 28.152 36.4164 27.1388 36.8803 26.4101C37.3443 25.6813 38.2464 25.513 38.8952 26.0341L39.6807 26.6592L50.398 35.3422C50.4462 35.3812 50.4921 35.4235 50.5355 35.4692L50.6683 35.5666C51.3391 36.1125 52.2733 35.973 52.7939 35.2493C53.1031 34.8118 53.2036 34.2326 53.0633 33.6966C52.9813 33.3645 52.81 33.0689 52.5726 32.8504L37.4844 19.0428C31.5334 22.4592 27.2908 20.5787 25.2763 19.1328C24.0205 18.2177 23.663 16.3326 24.4777 14.9222C24.7328 14.4805 25.0856 14.1207 25.5015 13.8779L28.389 12.1559C25.4525 12.6034 21.4434 12.9366 16.7882 13.1078L8.218 28.7724L9.56565 29.9243L11.6178 27.902C13.4374 26.1074 16.2081 26.3094 17.8059 28.3532C17.8063 28.3536 17.8067 28.3542 17.8071 28.3547C18.2008 28.8548 18.5012 29.4384 18.6905 30.0713C19.3573 29.7074 20.0972 29.5458 20.8368 29.6027C21.9994 29.6838 23.0847 30.2841 23.8504 31.2697L23.9616 31.4125C24.6129 32.2414 24.9943 33.2942 25.0437 34.3985H25.1378C26.1521 34.473 27.1112 34.9432 27.8492 35.728L27.8642 35.7131L28.1195 36.0411L28.1467 36.075L28.4434 36.4547L28.4301 36.4696C28.9355 37.2483 29.2242 38.1776 29.2598 39.1404H29.3173C29.7356 39.171 30.1479 39.2687 30.5415 39.4301C30.3605 38.5592 30.8424 37.6883 31.6178 37.485C31.7281 37.4561 31.841 37.4419 31.9542 37.4426L31.9534 37.4469Z" fill="#11B0AC"/>
<path d="M61.1745 0.925598L51.2991 9.51654L60.4343 26.2044C60.4944 26.2393 60.5509 26.2816 60.6029 26.3303C60.7595 26.5115 60.8541 26.749 60.8704 27.001L62.2389 29.5004L66.4617 26.8318L61.1745 0.925598Z" fill="#11B0AC"/>
<path d="M62.0708 30.2098L60.4087 27.1721L60.3984 27.0494C60.3923 26.9199 60.3455 26.797 60.2665 26.7025L60.0857 26.5819L60.0301 26.4762L50.6736 9.3884L61.47 0L67 27.0989L62.0708 30.2098ZM61.3175 26.8187L62.3967 28.7893L65.9217 26.5681L60.8804 1.85003L51.9196 9.64336L60.7722 25.815C60.8305 25.8543 60.8845 25.9011 60.9333 25.9546C61.1398 26.19 61.2752 26.4922 61.3203 26.8189L61.3175 26.8187Z" fill="#11B0AC"/>
<path d="M48.7628 12.4791C46.8471 13.3649 44.7127 13.452 42.7449 12.7245L37.5605 10.8344C36.844 10.5793 36.0664 10.6554 35.4001 11.0459L33.6428 12.0942C33.624 12.1047 33.6079 12.1175 33.5881 12.127L26.6247 16.2819C26.5255 16.3352 26.4609 16.4462 26.4571 16.5695C26.4494 16.6812 26.4977 16.7885 26.5823 16.8477C28.6306 18.3158 32.1388 19.3862 37.1611 16.1496C37.5111 15.9246 37.9482 15.9645 38.2611 16.2501L54.0904 30.7409C54.3108 30.9444 54.5099 31.1755 54.6837 31.4295L58.5977 27.0304L50.2564 11.7928L48.7628 12.4791Z" fill="#11B0AC"/>
<path d="M54.6431 32.2206L54.3154 31.7541C54.1639 31.5314 53.9901 31.329 53.7974 31.1512L37.9645 16.6645C37.8031 16.5197 37.5795 16.4992 37.3994 16.6127C32.1716 19.9847 28.4959 18.8465 26.3326 17.298C26.105 17.1369 25.9738 16.8487 25.9907 16.5471C26.0021 16.2364 26.1625 15.957 26.4098 15.8173L35.1823 10.5848C35.9609 10.1266 36.8703 10.0368 37.7082 10.3351L42.8907 12.2222C44.7521 12.911 46.7714 12.8292 48.5836 11.9916L50.4511 11.1327L59.1964 27.1045L54.6431 32.2206ZM37.6432 15.4788C37.976 15.478 38.2988 15.6057 38.5576 15.8405L54.3878 30.3313C54.4992 30.4323 54.6053 30.5408 54.7052 30.656L58.0013 26.954L50.065 12.4514L48.9424 12.9676C46.9227 13.9014 44.6723 13.9928 42.5976 13.2257L37.4179 11.3366C36.8214 11.1262 36.1749 11.1909 35.621 11.5165L27.114 16.5936C29.0851 17.8798 32.3276 18.6635 36.93 15.6946C37.1472 15.5543 37.393 15.48 37.6432 15.4788Z" fill="#11B0AC"/>
</svg>
