<svg width="23" height="25" viewBox="0 0 23 25" fill="none" xmlns="http://www.w3.org/2000/svg">
<path d="M7.04929 10.5996C7.27705 12.08 8.421 13.9642 10.3 14.6268C11.0712 14.8959 11.915 14.9011 12.6862 14.6216C14.5342 13.9539 15.7144 12.0749 15.9473 10.5996C16.1958 10.5789 16.5219 10.2321 16.8738 8.98464C17.3552 7.28165 16.8428 7.02801 16.408 7.06942C16.4908 6.83649 16.5529 6.59838 16.5943 6.37062C17.3294 1.95527 15.1553 1.80516 15.1553 1.80516C15.1553 1.80516 14.793 1.11154 13.8457 0.588735C13.209 0.210868 12.3239 -0.0790028 11.1592 0.0193463C10.7814 0.034875 10.4242 0.112519 10.0878 0.221221C9.65813 0.366156 9.26473 0.578383 8.90757 0.826844C8.47276 1.10119 8.05866 1.44282 7.69632 1.83104C7.12176 2.42113 6.60931 3.18204 6.38673 4.1293C6.20038 4.83845 6.24179 5.57865 6.39708 6.3758C6.43849 6.60873 6.50061 6.84166 6.58343 7.07459C6.14862 7.03318 5.63617 7.28682 6.11756 8.98981C6.47473 10.2321 6.80083 10.5789 7.04929 10.5996Z" fill="black"/>
<path d="M20.0366 16.3919C17.3915 15.719 15.2433 14.2075 15.2433 14.2075L13.5662 19.5132L13.2505 20.5122L13.2453 20.4967L12.971 21.3456L12.0858 18.8351C14.2598 15.8018 11.6458 15.8328 11.5009 15.838C11.356 15.8328 8.74194 15.8018 10.916 18.8351L10.0308 21.3456L9.75649 20.4967L9.75132 20.5122L9.43556 19.5132L7.75328 14.2075C7.75328 14.2075 5.60513 15.719 2.96006 16.3919C0.987901 16.894 0.894728 19.1715 0.972372 20.2948C0.972372 20.2948 1.08625 21.8218 1.20013 22.4947C1.20013 22.4947 5.05127 24.9948 11.5009 25C17.9505 25 21.8017 22.4947 21.8017 22.4947C21.9155 21.8218 22.0294 20.2948 22.0294 20.2948C22.1019 19.1715 22.0087 16.894 20.0366 16.3919Z" fill="black"/>
</svg>
