<svg width="17" height="25" viewBox="0 0 17 25" fill="none" xmlns="http://www.w3.org/2000/svg">
<path d="M8.78006 13.5936C8.83289 13.571 8.88977 13.5594 8.94724 13.5594C9.00472 13.5594 9.06158 13.5712 9.11438 13.5939C9.16718 13.6166 9.2148 13.6498 9.25435 13.6915C9.29391 13.7332 9.32457 13.7825 9.34446 13.8364L10.0737 15.8148L10.5868 14.1038L9.91862 13.4352L9.92158 13.4322C9.88173 13.3937 9.84996 13.3476 9.82813 13.2967C9.8063 13.2458 9.79486 13.191 9.79446 13.1356V12.5038C8.96971 12.7812 8.07684 12.7812 7.25209 12.5038V13.1356C7.2517 13.191 7.24025 13.2458 7.21842 13.2967C7.19659 13.3476 7.16482 13.3937 7.12497 13.4322L7.12878 13.436L6.45972 14.1038L6.58684 14.5331L8.78006 13.5936Z" fill="black"/>
<path d="M5.09829 20.7627H9.37075C9.48218 20.7627 9.58913 20.8066 9.66844 20.8849C9.74774 20.9631 9.79303 21.0695 9.79447 21.1809C10.0233 21.175 10.2482 21.1198 10.4538 21.0191C10.6326 20.9306 10.8216 20.8644 11.0165 20.822L8.7038 14.5483L3.55676 16.7542L5.09829 20.7627Z" fill="black"/>
<path d="M10.5224 11.1631C10.8326 10.9142 11.089 10.6048 11.276 10.2538C11.4631 9.90283 11.5769 9.51749 11.6105 9.1212L11.8762 5.93221H11.0656C10.9533 5.93219 10.8455 5.88753 10.7661 5.80806L10.3343 5.37628L10.1737 5.69789C10.1385 5.76833 10.0844 5.82756 10.0174 5.86895C9.95038 5.91034 9.87318 5.93225 9.79444 5.93221H8.09953C8.01483 5.93228 7.93206 5.90696 7.8619 5.85953C7.79173 5.8121 7.73739 5.74473 7.70588 5.66611L7.25207 4.53052L6.79825 5.66611C6.76675 5.74473 6.71241 5.8121 6.64224 5.85953C6.57207 5.90696 6.4893 5.93228 6.40461 5.93221H5.17029L5.43597 9.1212C5.46965 9.51749 5.58346 9.90283 5.7705 10.2538C5.95755 10.6048 6.21393 10.9142 6.5241 11.1631C7.09152 11.6171 7.79657 11.8645 8.52325 11.8645C9.24994 11.8645 9.95498 11.6171 10.5224 11.1631Z" fill="black"/>
<path d="M13.1843 9.26187C13.0462 9.30003 12.9038 9.32025 12.7606 9.32204H12.4372C12.3205 10.3054 11.8233 11.2039 11.0521 11.825C10.9213 11.9279 10.7843 12.0225 10.6419 12.1085V12.7987L12.5487 13.239C13.4514 12.8668 14.2014 12.1998 14.6762 11.3466C14.2442 11.2123 13.8664 10.9434 13.598 10.5792C13.3296 10.2149 13.1847 9.77447 13.1843 9.32204V9.26187Z" fill="black"/>
<path d="M11.7792 16.1233L12.633 15.8385L11.9305 13.9657L11.4682 13.8589C11.4939 13.9388 11.4951 14.0245 11.4716 14.1051L10.5614 17.139L11.2029 18.8801L12.2241 17.7563L11.5606 16.7606C11.5247 16.7064 11.5018 16.6447 11.4936 16.5803C11.4854 16.5158 11.4921 16.4503 11.5132 16.3889C11.5344 16.3275 11.5693 16.2717 11.6155 16.2259C11.6616 16.1802 11.7176 16.1456 11.7792 16.125V16.1233Z" fill="black"/>
<path d="M5.11605 13.9657L4.58258 15.3936L5.80631 14.8691L5.57707 14.1064C5.55358 14.0258 5.55476 13.94 5.58046 13.8602L5.11605 13.9657Z" fill="black"/>
<path d="M11.5394 23.7288C11.7508 23.7286 11.9535 23.6445 12.103 23.495C12.2526 23.3455 12.3366 23.1428 12.3369 22.9314V22.4076C12.3366 22.1962 12.2526 21.9935 12.103 21.844C11.9535 21.6945 11.7508 21.6104 11.5394 21.6102C11.2934 21.611 11.051 21.669 10.8314 21.7797C10.5087 21.9398 10.1546 22.0266 9.79449 22.0339V23.311C10.1546 23.3183 10.5087 23.4052 10.8314 23.5653C11.0515 23.6738 11.2939 23.7298 11.5394 23.7288Z" fill="black"/>
<path d="M3.43854 25H8.09955V24.5212L3.43854 24.3186V25Z" fill="black"/>
<path d="M16.9513 25L16.1928 17.8114C16.1021 16.9555 15.7469 16.1491 15.1764 15.5045C14.606 14.86 13.8487 14.4093 13.0102 14.2153L12.9216 14.1949L13.5813 15.9534C13.6014 16.0068 13.6104 16.0636 13.6079 16.1206C13.6054 16.1775 13.5915 16.2333 13.5669 16.2848C13.5424 16.3362 13.5077 16.3821 13.4649 16.4199C13.4222 16.4576 13.3723 16.4863 13.3182 16.5042L12.5737 16.7525L13.1131 17.5619C13.1656 17.6405 13.1903 17.7345 13.1832 17.8287C13.1762 17.923 13.1378 18.0123 13.0741 18.0822L11.533 19.7771L11.9144 20.8102C12.2753 20.8943 12.5973 21.0979 12.828 21.3879C13.0588 21.678 13.1848 22.0374 13.1856 22.4081V22.9318C13.185 23.368 13.0113 23.7863 12.7027 24.0946C12.3941 24.4029 11.9757 24.5762 11.5394 24.5763C11.1623 24.5766 10.7903 24.4895 10.4525 24.322C10.2475 24.2208 10.0231 24.1649 9.79448 24.1581C9.79303 24.2695 9.74775 24.3758 9.66844 24.4541C9.58913 24.5324 9.48218 24.5763 9.37075 24.5763H9.35253L8.94702 24.5581V25H13.608V19.4915H14.4555V25H16.9513Z" fill="black"/>
<path d="M8.94701 21.6102H2.59108V20.7627H4.19024L2.61905 16.6775C2.57973 16.5752 2.5816 16.4616 2.62427 16.3606C2.66694 16.2597 2.74708 16.1792 2.84786 16.136L3.50168 15.8559L4.12498 14.1949L2.73091 14.5165C1.96847 14.6925 1.28818 15.1216 0.801041 15.7339C0.313907 16.3463 0.0487026 17.1057 0.0487098 17.8881V21.6102C0.0477687 22.0715 0.225451 22.5153 0.544508 22.8485C0.863565 23.1817 1.29922 23.3784 1.76015 23.3975L8.94701 23.7102V21.6102Z" fill="black"/>
<path d="M4.286 8.47458H4.53218L4.39066 6.77966H4.286C4.06124 6.77966 3.84568 6.86895 3.68675 7.02788C3.52782 7.18681 3.43854 7.40236 3.43854 7.62712C3.43854 7.85188 3.52782 8.06743 3.68675 8.22636C3.84568 8.38529 4.06124 8.47458 4.286 8.47458Z" fill="black"/>
<path d="M4.49783 13.239L6.40461 12.7987V12.1085C6.26217 12.0225 6.12519 11.9279 5.99444 11.825C5.22319 11.2039 4.72593 10.3054 4.60927 9.32204H4.28596C4.14272 9.32025 4.00031 9.30003 3.86224 9.26187V9.32204C3.86175 9.77468 3.71654 10.2153 3.44781 10.5796C3.17909 10.9438 2.80093 11.2126 2.36859 11.3466C2.84409 12.1999 3.59463 12.8669 4.49783 13.239Z" fill="black"/>
<path d="M4.31987 5.9322L4.28597 5.54364C4.2811 5.48511 4.28844 5.42621 4.30754 5.37067C4.32664 5.31513 4.35708 5.26417 4.39693 5.22102C4.43677 5.17787 4.48515 5.14347 4.53899 5.12001C4.59284 5.09655 4.65097 5.08454 4.7097 5.08475H6.11775L6.85843 3.2322C6.88981 3.15344 6.9441 3.08589 7.01427 3.03831C7.08445 2.99072 7.16729 2.96529 7.25207 2.96529C7.33686 2.96529 7.4197 2.99072 7.48988 3.03831C7.56005 3.08589 7.61434 3.15344 7.64572 3.2322L8.3864 5.08475H9.53046L9.83682 4.47161C9.86687 4.41167 9.91071 4.35972 9.96475 4.32002C10.0188 4.28033 10.0815 4.25402 10.1476 4.24327C10.2138 4.23251 10.2816 4.23762 10.3454 4.25816C10.4093 4.2787 10.4673 4.3141 10.5148 4.36144L11.2411 5.08475H12.3368C12.3956 5.08454 12.4537 5.09655 12.5075 5.12001C12.5614 5.14347 12.6098 5.17787 12.6496 5.22102C12.6894 5.26417 12.7199 5.31513 12.739 5.37067C12.7581 5.42621 12.7654 5.48511 12.7605 5.54364L12.7267 5.9322H12.7605C12.9038 5.93399 13.0462 5.95422 13.1843 5.99237V4.66102C13.1843 3.42484 12.6932 2.23929 11.8191 1.36518C10.945 0.49107 9.75944 0 8.52326 0C7.28708 0 6.10153 0.49107 5.22742 1.36518C4.35331 2.23929 3.86224 3.42484 3.86224 4.66102V5.99237C4.00032 5.95422 4.14273 5.93399 4.28597 5.9322H4.31987Z" fill="black"/>
<path d="M12.6559 6.77966L12.5144 8.47458H12.7606C12.9854 8.47458 13.2009 8.38529 13.3598 8.22636C13.5188 8.06743 13.608 7.85188 13.608 7.62712C13.608 7.40236 13.5188 7.18681 13.3598 7.02788C13.2009 6.86895 12.9854 6.77966 12.7606 6.77966H12.6559Z" fill="black"/>
</svg>
