<svg width="95" height="122" viewBox="0 0 95 122" fill="none" xmlns="http://www.w3.org/2000/svg">
<path d="M61.8348 98.6765C61.8348 99.9204 61.3799 101.069 60.5898 101.93H18.2571C15.4557 98.9157 17.7782 93.6529 21.9445 93.7486H56.9024C59.632 93.7486 61.8348 95.9494 61.8348 98.6765ZM18.2571 105.255C15.4557 108.269 17.7782 113.532 21.9445 113.436H56.9024C61.0686 113.532 63.3912 108.245 60.5658 105.255H18.2571ZM32.1685 122H46.7024C49.815 122 52.377 119.727 52.8799 116.761H25.991C26.4938 119.727 29.0558 122 32.1685 122ZM63.6067 73.0086C58.4827 77.458 55.3461 83.7255 54.6996 90.4235H44.0925V23.4431C44.0925 22.0318 45.2897 20.9075 46.7024 21.0271C72.8969 23.3475 83.1209 56.1918 63.6067 73.0086ZM68.2518 50.618C68.3236 40.571 61.7151 31.1459 52.1855 27.8686C51.2038 27.5098 50.0784 28.0361 49.7432 29.0408C49.3841 30.0455 49.8869 31.122 50.8925 31.4808C58.8898 34.2318 64.4687 42.1498 64.3968 50.618C64.4447 53.1298 68.2278 53.1298 68.2518 50.618ZM19.5261 79.0369C20.7712 77.7451 23.5966 76.0706 24.6501 78.4388C25.0332 79.4196 24.5304 80.5439 23.5248 80.9267C19.2149 82.8882 21.4416 88.7012 24.1234 90.4235H32.7192C34.5628 89.0839 35.76 86.931 35.76 84.491V30.2608C35.7122 22.4384 24.9853 20.142 21.7769 27.2467C24.3628 27.749 32.0009 34.2557 26.5177 35.4757C24.698 35.4039 24.291 32.9878 22.8543 32.1745C15.6472 26.4812 5.3993 34.2796 8.512 42.5804C11.7684 41.9824 16.0543 43.5851 18.2332 46.3361C19.3106 47.5082 18.329 49.5416 16.7726 49.4937C16.2219 49.4937 15.6951 49.2545 15.312 48.8C14.8092 48.202 13.6839 47.1016 11.912 46.5992C10.6669 46.1925 8.94299 46.2882 7.93735 46.6231C-1.99933 49.5176 -2.81342 63.6314 6.66832 67.6741C7.96129 65.5929 15.5275 59.8278 16.8923 63.8706C17.1557 64.8992 16.5092 65.9518 15.5036 66.191C4.58521 68.8941 6.09367 84.2039 17.3473 84.5149C17.3712 82.649 17.9698 80.5918 19.5261 79.0369ZM69.88 27.0553C70.3828 27.0553 70.8617 26.8639 71.2448 26.5051L80.1279 17.6302C81.8758 15.8122 79.218 13.1569 77.4223 14.9271L68.5391 23.802C67.294 24.9263 68.2278 27.1031 69.88 27.0553ZM93.1054 48.9675H80.5589C78.0208 49.0153 78.0448 52.771 80.5589 52.7949H93.1054C95.6435 52.771 95.6195 49.0153 93.1054 48.9675ZM71.2208 75.3051C69.4011 73.5588 66.7433 76.2141 68.5152 78.0082L77.3983 86.8831C79.1941 88.6533 81.8758 85.9502 80.104 84.18C80.104 84.1561 71.2208 75.3051 71.2208 75.3051ZM44.0925 16.3863C45.146 16.3863 46.008 15.5251 46.008 14.4725V1.91373C46.008 0.861176 45.146 0 44.0925 0C43.039 0 42.177 0.861176 42.177 1.91373V14.4486C42.177 15.5251 43.039 16.3863 44.0925 16.3863Z" fill="#0A0A0A"/>
</svg>
