<svg width="120" height="120" viewBox="0 0 120 120" fill="none" xmlns="http://www.w3.org/2000/svg">
<path d="M60 79.3548C60 83.1829 61.1351 86.9249 63.2619 90.1078C65.3886 93.2907 68.4114 95.7715 71.9481 97.2364C75.4847 98.7013 79.3763 99.0846 83.1308 98.3378C86.8853 97.591 90.334 95.7476 93.0408 93.0408C95.7476 90.334 97.591 86.8853 98.3378 83.1308C99.0846 79.3763 98.7013 75.4847 97.2364 71.9481C95.7715 68.4114 93.2907 65.3886 90.1078 63.2619C86.9249 61.1351 83.1829 60 79.3548 60C74.2233 60.0056 69.3036 62.0466 65.6751 65.6751C62.0466 69.3036 60.0056 74.2233 60 79.3548ZM73.5484 65.011V77.4194H64.0045C64.3525 74.6907 65.4197 72.1036 67.0968 69.9232C68.7738 67.7428 71.0004 66.0475 73.5484 65.011ZM64.0045 81.2903H75.4839C75.9972 81.2903 76.4895 81.0864 76.8525 80.7234C77.2154 80.3605 77.4194 79.8682 77.4194 79.3548V64.0045C78.0611 63.9198 78.7075 63.8752 79.3548 63.871C81.3459 63.8715 83.3179 64.2586 85.1613 65.011V93.6987C82.9647 94.5929 80.5917 94.9694 78.2262 94.799C75.8607 94.6286 73.5662 93.9159 71.5205 92.7161C69.4747 91.5163 67.7327 89.8616 66.4293 87.8802C65.1259 85.8988 64.2963 83.6439 64.0045 81.2903ZM94.8387 79.3548C94.838 81.6731 94.3158 83.9614 93.3107 86.0504C92.3056 88.1394 90.8433 89.9754 89.0323 91.4226V67.2871C90.8433 68.7342 92.3056 70.5703 93.3107 72.6593C94.3158 74.7483 94.838 77.0366 94.8387 79.3548Z" fill="#11B0AC"/>
<path d="M117.83 107.35L103.012 92.5316C104.908 89.1428 106.051 85.3854 106.364 81.5151C106.677 77.6448 106.152 73.7526 104.825 70.1033C103.499 66.4541 101.401 63.1335 98.6761 60.3677C95.9508 57.6019 92.6616 55.4558 89.0323 54.0755V1.93548C89.0323 1.42216 88.8283 0.929864 88.4654 0.56689C88.1024 0.203916 87.6101 0 87.0968 0H1.93548C1.42216 0 0.929864 0.203916 0.56689 0.56689C0.203916 0.929864 0 1.42216 0 1.93548V118.065C0 118.578 0.203916 119.07 0.56689 119.433C0.929864 119.796 1.42216 120 1.93548 120H87.0968C87.6101 120 88.1024 119.796 88.4654 119.433C88.8283 119.07 89.0323 118.578 89.0323 118.065V104.634C90.2369 104.178 91.4071 103.635 92.5335 103.01L107.352 117.828C108.741 119.218 110.626 119.999 112.591 119.999C114.556 119.999 116.441 119.218 117.83 117.828C119.22 116.439 120.001 114.554 120.001 112.589C120.001 110.624 119.22 108.739 117.83 107.35ZM102.581 79.3548C102.581 83.9485 101.218 88.4389 98.6664 92.2584C96.1143 96.0779 92.4869 99.0548 88.243 100.813C83.999 102.571 79.3291 103.031 74.8237 102.134C70.3183 101.238 66.1799 99.0262 62.9317 95.778C59.6835 92.5298 57.4715 88.3913 56.5753 83.886C55.6791 79.3806 56.1391 74.7107 57.897 70.4667C59.6549 66.2227 62.6318 62.5954 66.4513 60.0433C70.2707 57.4912 74.7612 56.129 79.3548 56.129C85.5127 56.1357 91.4164 58.5848 95.7706 62.9391C100.125 67.2933 102.574 73.197 102.581 79.3548ZM15.4839 77.4193V42.5806H73.5484V52.9006C70.8267 53.5013 68.2149 54.5212 65.8065 55.9239V54.1935H23.2258V58.0645H62.6477C61.1805 59.2144 59.8347 60.5115 58.6316 61.9355H23.2258V65.8064H55.9355C55.2164 67.0453 54.5977 68.3398 54.0852 69.6774H23.2258V73.5484H52.9007C52.6254 74.8238 52.4437 76.1175 52.3568 77.4193H15.4839ZM85.1613 116.129H3.87097V3.87097H85.1613V52.9006C83.2546 52.4778 81.3078 52.2624 79.3548 52.2581C78.7006 52.2581 78.0619 52.3103 77.4194 52.3568V40.6452C77.4194 40.1318 77.2154 39.6395 76.8525 39.2766C76.4895 38.9136 75.9972 38.7097 75.4839 38.7097H13.5484C13.0351 38.7097 12.5428 38.9136 12.1798 39.2766C11.8168 39.6395 11.6129 40.1318 11.6129 40.6452V79.3548C11.6129 79.8682 11.8168 80.3605 12.1798 80.7234C12.5428 81.0864 13.0351 81.2903 13.5484 81.2903H52.3568C52.543 83.9418 53.1223 86.551 54.0755 89.0323H11.6129V92.9032H55.9239C58.7839 97.8912 63.1638 101.834 68.4239 104.156C73.6839 106.478 79.5486 107.057 85.1613 105.809V116.129ZM112.591 116.129C111.653 116.127 110.753 115.754 110.088 115.092L95.8219 100.825C97.6999 99.381 99.3817 97.6985 100.825 95.82L115.094 110.086C115.588 110.582 115.925 111.212 116.062 111.899C116.198 112.585 116.128 113.297 115.86 113.944C115.593 114.59 115.139 115.143 114.557 115.532C113.975 115.921 113.291 116.129 112.591 116.129Z" fill="#11B0AC"/>
<path d="M25.1609 34.8387H29.0319C30.5719 34.8387 32.0488 34.227 33.1377 33.1381C34.2266 32.0491 34.8384 30.5722 34.8384 29.0323V11.6129H30.9674V29.0323C30.9674 29.5456 30.7635 30.0379 30.4005 30.4009C30.0375 30.7638 29.5452 30.9678 29.0319 30.9678H25.1609C24.6476 30.9678 24.1553 30.7638 23.7924 30.4009C23.4294 30.0379 23.2255 29.5456 23.2255 29.0323V25.1613H19.3545V29.0323C19.3545 30.5722 19.9662 32.0491 21.0552 33.1381C22.1441 34.227 23.621 34.8387 25.1609 34.8387Z" fill="black"/>
<path d="M42.5809 34.8387H46.4518C47.9918 34.8387 49.4687 34.227 50.5576 33.1381C51.6465 32.0491 52.2583 30.5722 52.2583 29.0323V17.4194C52.2583 15.8794 51.6465 14.4025 50.5576 13.3136C49.4687 12.2247 47.9918 11.6129 46.4518 11.6129H42.5809C41.0409 11.6129 39.564 12.2247 38.4751 13.3136C37.3862 14.4025 36.7744 15.8794 36.7744 17.4194V29.0323C36.7744 30.5722 37.3862 32.0491 38.4751 33.1381C39.564 34.227 41.0409 34.8387 42.5809 34.8387ZM40.6454 17.4194C40.6454 16.906 40.8493 16.4137 41.2123 16.0508C41.5752 15.6878 42.0675 15.4839 42.5809 15.4839H46.4518C46.9652 15.4839 47.4575 15.6878 47.8204 16.0508C48.1834 16.4137 48.3873 16.906 48.3873 17.4194V29.0323C48.3873 29.5456 48.1834 30.0379 47.8204 30.4009C47.4575 30.7638 46.9652 30.9678 46.4518 30.9678H42.5809C42.0675 30.9678 41.5752 30.7638 41.2123 30.4009C40.8493 30.0379 40.6454 29.5456 40.6454 29.0323V17.4194Z" fill="black"/>
<path d="M56.1288 34.8387H62.903C64.2483 34.8378 65.5629 34.4363 66.6791 33.6854C67.7954 32.9346 68.6628 31.8684 69.1708 30.6227C69.6788 29.377 69.8045 28.0083 69.5317 26.691C69.2589 25.3736 68.6001 24.1673 67.6392 23.2258C68.6001 22.2843 69.2589 21.078 69.5317 19.7607C69.8045 18.4433 69.6788 17.0746 69.1708 15.8289C68.6628 14.5833 67.7954 13.5171 66.6791 12.7662C65.5629 12.0154 64.2483 11.6139 62.903 11.6129H56.1288C55.6155 11.6129 55.1232 11.8168 54.7602 12.1798C54.3973 12.5428 54.1934 13.0351 54.1934 13.5484V32.9032C54.1934 33.4166 54.3973 33.9089 54.7602 34.2718C55.1232 34.6348 55.6155 34.8387 56.1288 34.8387ZM58.0643 15.4839H62.903C63.673 15.4839 64.4115 15.7898 64.9559 16.3342C65.5004 16.8787 65.8063 17.6171 65.8063 18.3871C65.8063 19.1571 65.5004 19.8955 64.9559 20.44C64.4115 20.9845 63.673 21.2903 62.903 21.2903H58.0643V15.4839ZM58.0643 25.1613H62.903C63.673 25.1613 64.4115 25.4672 64.9559 26.0116C65.5004 26.5561 65.8063 27.2945 65.8063 28.0645C65.8063 28.8345 65.5004 29.573 64.9559 30.1174C64.4115 30.6619 63.673 30.9678 62.903 30.9678H58.0643V25.1613Z" fill="black"/>
<path d="M65.8064 46.4517H27.0967V50.3226H65.8064V46.4517Z" fill="#11B0AC"/>
<path d="M38.7101 96.7742H11.6133V100.645H38.7101V96.7742Z" fill="#11B0AC"/>
<path d="M54.194 96.7742H42.5811V100.645H54.194V96.7742Z" fill="#11B0AC"/>
</svg>
