<svg width="40" height="43" viewBox="0 0 40 43" fill="none" xmlns="http://www.w3.org/2000/svg">
<path d="M35.9721 24.4032C35.2417 19.0112 32.2593 15.0809 28.585 15.0809H11.4165C7.73953 15.0809 4.75834 19.0095 4.02641 24.4017C1.37467 25.7389 0 28.5109 0 31.723C0 34.1954 0.812416 36.4041 2.39146 37.9033V43H8.75462V39.9013H31.2454V43H37.6085V37.9033C39.1861 36.4041 40 34.1954 40 31.723C39.9986 28.5124 38.6239 25.7389 35.9721 24.4032ZM11.415 16.9843H28.5821C31.0008 16.9843 33.1177 19.8423 33.9056 23.7094C33.5115 23.6364 33.0931 23.5949 32.6632 23.5732C32.6632 23.5646 32.6661 23.5574 32.6661 23.5504C32.6661 21.3059 30.8354 19.4799 28.5821 19.4799C26.3287 19.4799 24.4981 21.3059 24.4981 23.5504H7.86027C7.23173 23.5504 6.64225 23.6049 6.08722 23.708C6.8765 19.8409 8.9949 16.9843 11.415 16.9843ZM31.3936 23.5519H25.7751C25.7751 22.0054 27.0363 20.7498 28.5864 20.7498C30.1324 20.7496 31.3936 22.0052 31.3936 23.5519ZM6.90831 34.3816C5.43868 34.3816 4.24356 33.1933 4.24356 31.7242C4.24356 30.258 5.43844 29.0668 6.90831 29.0668C8.38083 29.0668 9.57596 30.2565 9.57596 31.7242C9.57572 33.1964 8.38228 34.3816 6.90831 34.3816ZM27.7395 33.9101H12.2561C11.9038 33.9101 11.6192 33.6249 11.6192 33.2752C11.6192 32.9269 11.9038 32.6432 12.2561 32.6432H27.7393C28.0916 32.6432 28.3763 32.9269 28.3763 33.2752C28.3765 33.6249 28.0919 33.9101 27.7395 33.9101ZM27.7395 31.5839H12.2561C11.9038 31.5839 11.6192 31.2988 11.6192 30.949C11.6192 30.5993 11.9038 30.3171 12.2561 30.3171H27.7393C28.0916 30.3171 28.3763 30.6007 28.3763 30.949C28.3765 31.2988 28.0919 31.5839 27.7395 31.5839ZM33.0888 34.3816C31.6177 34.3816 30.4226 33.1933 30.4226 31.7242C30.4226 30.258 31.6175 29.0668 33.0888 29.0668C34.5584 29.0668 35.755 30.2565 35.755 31.7242C35.7536 33.1964 34.5587 34.3816 33.0888 34.3816ZM30.0216 7.86295C30.9347 9.31909 32.5439 10.2953 34.3945 10.2967C36.4206 10.2967 38.1549 9.12284 39.002 7.4301L35.5636 7.42865C34.3456 7.43154 33.3592 6.41114 33.3592 5.14692C33.3606 3.88992 34.3471 2.86952 35.5622 2.86664H38.9991C38.158 1.1739 36.4209 0.00144283 34.3917 1.58942e-06C32.5439 -0.00143965 30.9347 0.977405 30.0201 2.43667H8.27575C7.51371 1.56231 6.40486 1.00191 5.15382 1.00191C2.85442 1.00047 0.990758 2.85655 0.992204 5.14981C0.992204 7.4373 2.85442 9.29338 5.15093 9.29627C6.40197 9.29627 7.51082 8.7301 8.27575 7.86295H30.0216ZM4.05943 7.04168L2.9636 5.15125L4.06088 3.26226L6.24821 3.25938L7.34404 5.15125L6.24965 7.04168H4.05943Z" fill="#0A0A0A"/>
</svg>
