<svg width="40" height="40" viewBox="0 0 40 40" fill="none" xmlns="http://www.w3.org/2000/svg">
<path d="M30.4183 0.096463C28.5152 -0.181676 26.5792 0.144667 24.8407 1.03664C23.1022 1.92862 21.6345 3.34865 20.6123 5.1277C20.544 5.23639 20.4526 5.32527 20.346 5.38667C20.2393 5.44808 20.1206 5.48016 20.0001 5.48016C19.8797 5.48016 19.761 5.44808 19.6543 5.38667C19.5477 5.32527 19.4563 5.23639 19.388 5.1277C18.4796 3.52958 17.2059 2.21868 15.6927 1.32463C14.1796 0.430571 12.4795 -0.0156775 10.7605 0.0300053C10.3669 0.029914 9.97355 0.0518346 9.58199 0.0956812C8.15909 0.253225 6.78142 0.73165 5.53578 1.50081C4.29014 2.26997 3.20354 3.3132 2.34442 4.56476C1.3951 5.93662 0.71149 7.50609 0.335435 9.17714C-0.0406198 10.8482 -0.101214 12.5857 0.15736 14.2832C1.08947 20.4646 5.44572 24.1893 10.0577 28.1361C13.9468 31.4606 17.9617 34.9007 20.0001 40C22.0386 34.9007 26.0535 31.4606 29.9426 28.1361C34.5546 24.1909 38.9108 20.4646 39.8429 14.2809C40.1012 12.5837 40.0405 10.8466 39.6644 9.17603C39.2884 7.50541 38.6049 5.93633 37.6559 4.56476C36.7967 3.31335 35.7101 2.27027 34.4644 1.50124C33.2188 0.732216 31.8411 0.253912 30.4183 0.096463Z" fill="#11B0AC"/>
</svg>
