<svg width="334" height="334" viewBox="0 0 334 334" fill="none" xmlns="http://www.w3.org/2000/svg">
<path d="M28.8 271.1C24 271.1 20.5 270.1 18.3 268.1C16.3 265.9 15.3 262.6 15.3 258.2V80.3001C15.3 75.9001 16.3 72.6001 18.3 70.4001C20.5 68.2001 24 67.1001 28.8 67.1001H51.3C56.3 67.1001 59.8 68.2001 61.8 70.4001C63.8 72.4001 64.8 75.7001 64.8 80.3001V150.5H148.2V80.3001C148.2 75.9001 149.2 72.6001 151.2 70.4001C153.4 68.2001 157 67.1001 162 67.1001H184.2C189.2 67.1001 192.7 68.2001 194.7 70.4001C196.9 72.6001 198 75.9001 198 80.3001V258.2C198 262.6 196.9 265.9 194.7 268.1C192.7 270.1 189.2 271.1 184.2 271.1H162C157 271.1 153.4 270.1 151.2 268.1C149.2 265.9 148.2 262.6 148.2 258.2V186.8H64.8V258.2C64.8 262.6 63.8 265.9 61.8 268.1C59.8 270.1 56.3 271.1 51.3 271.1H28.8Z" fill="#0A0A0A"/>
<rect x="216" y="86.1001" width="50" height="185" rx="10" fill="#04BDB9"/>
<rect x="332.998" y="62.1001" width="39.0739" height="185" rx="10" transform="rotate(89.7009 332.998 62.1001)" fill="#04BDB9"/>
</svg>
