<svg width="45" height="47" viewBox="0 0 45 47" fill="none" xmlns="http://www.w3.org/2000/svg">
<path d="M5.79913 8.46911C7.19693 8.46911 8.33007 7.33597 8.33007 5.93817C8.33007 4.54037 7.19693 3.40723 5.79913 3.40723C4.40133 3.40723 3.26819 4.54037 3.26819 5.93817C3.26819 7.33597 4.40133 8.46911 5.79913 8.46911Z" fill="#0A0A0A"/>
<path d="M35.261 11.8683C35.1136 11.7782 34.9743 11.6799 34.8351 11.5734C34.7204 11.4915 34.614 11.4014 34.5075 11.3113C34.3764 11.2048 34.2536 11.0819 34.1307 10.9673C34.0324 10.869 33.9341 10.7707 33.844 10.6724C33.7294 10.5413 33.6229 10.4103 33.5164 10.2792C33.4345 10.1728 33.3444 10.0663 33.2707 9.95161C33.1724 9.80418 33.0823 9.65675 32.9922 9.50931C32.9267 9.39464 32.8529 9.28816 32.7956 9.1653C32.7137 9.00149 32.64 8.82948 32.5663 8.66567C32.5171 8.551 32.468 8.44452 32.4188 8.32166C32.3533 8.12508 32.296 7.9285 32.2468 7.73192C32.2223 7.63363 32.1895 7.53534 32.1649 7.42886C32.0994 7.12581 32.0502 6.81456 32.0257 6.49512H12.9576C12.933 6.81456 12.8839 7.12581 12.8184 7.42886C12.7938 7.52715 12.761 7.62544 12.7365 7.73192C12.6873 7.9285 12.63 8.13327 12.5644 8.32166C12.5235 8.43633 12.4662 8.551 12.4252 8.66567C12.3515 8.83767 12.286 9.00149 12.1959 9.1653C12.1385 9.27997 12.0648 9.39464 11.9993 9.50931C11.9092 9.65675 11.8191 9.81237 11.7208 9.95981C11.6471 10.0663 11.557 10.1728 11.4751 10.2792C11.3686 10.4185 11.2621 10.5495 11.1474 10.6806C11.0573 10.7789 10.9591 10.8772 10.8608 10.9755C10.7379 11.0983 10.615 11.213 10.4758 11.3277C10.3693 11.4178 10.2628 11.4997 10.1482 11.5816C10.0089 11.6881 9.8615 11.7863 9.71406 11.8764C9.59939 11.9502 9.47653 12.0239 9.36186 12.0894C9.29634 12.1304 9.23081 12.1713 9.16528 12.2123C9.71406 13.2361 10.7952 13.8996 11.9829 13.8996H33.0086C34.1962 13.8996 35.2774 13.2361 35.8262 12.2123C35.7607 12.1795 35.6951 12.1304 35.6296 12.0894C35.4986 12.0157 35.3839 11.942 35.261 11.8683Z" fill="#0A0A0A"/>
<path d="M8.3954 42.1495H7.1504C6.14294 42.1495 5.31567 42.9686 5.31567 43.9843V44.3529C5.31567 45.3603 6.13475 46.1876 7.1504 46.1876H37.8248C38.8322 46.1876 39.6595 45.3685 39.6595 44.3529V43.9761C39.6595 42.9686 38.8404 42.1414 37.8248 42.1414H36.5798H8.3954V42.1495Z" fill="#0A0A0A"/>
<path d="M12.8759 14.9893V35.9003H32.1159V14.9893H12.8759ZM18.1998 32.3209C18.1998 32.624 17.9541 32.8779 17.6429 32.8779C17.3316 32.8779 17.0859 32.6321 17.0859 32.3209V18.8881C17.0859 18.585 17.3316 18.3311 17.6429 18.3311C17.9541 18.3311 18.1998 18.5768 18.1998 18.8881V32.3209ZM23.0488 32.3209C23.0488 32.624 22.803 32.8779 22.4918 32.8779C22.1806 32.8779 21.9348 32.6321 21.9348 32.3209V18.8881C21.9348 18.585 22.1806 18.3311 22.4918 18.3311C22.803 18.3311 23.0488 18.5768 23.0488 18.8881V32.3209ZM27.8895 32.3209C27.8895 32.624 27.6438 32.8779 27.3325 32.8779C27.0213 32.8779 26.7756 32.6321 26.7756 32.3209V18.8881C26.7756 18.585 27.0213 18.3311 27.3325 18.3311C27.6438 18.3311 27.8895 18.5768 27.8895 18.8881V32.3209Z" fill="#0A0A0A"/>
<path d="M39.1274 8.46911C40.5252 8.46911 41.6583 7.33597 41.6583 5.93817C41.6583 4.54037 40.5252 3.40723 39.1274 3.40723C37.7296 3.40723 36.5964 4.54037 36.5964 5.93817C36.5964 7.33597 37.7296 8.46911 39.1274 8.46911Z" fill="#0A0A0A"/>
<path d="M12.319 37.0059H11.7129C10.1894 37.0059 8.95264 38.2427 8.95264 39.7661V41.0357H36.0395V39.7661C36.0395 38.2427 34.8027 37.0059 33.2792 37.0059H32.6731H12.319Z" fill="#0A0A0A"/>
<path d="M39.0535 0H5.93011C2.66199 0 0 2.662 0 5.9383C0 9.20641 2.66199 11.8684 5.93011 11.8684C6.7328 11.8684 7.50273 11.7128 8.22352 11.4097C8.36276 11.3524 8.49381 11.2705 8.63305 11.205C8.76411 11.1394 8.89516 11.0821 9.01802 11.0084C10.5251 10.091 11.5408 8.55934 11.8029 6.8229C11.8438 6.53622 11.8684 6.23316 11.8684 5.9383C11.8684 5.63524 12.1141 5.38133 12.4254 5.38133H32.5664C32.8695 5.38133 33.1234 5.62705 33.1234 5.9383C33.1234 8.33819 34.5568 10.4842 36.7683 11.4097C37.4891 11.7128 38.259 11.8684 39.0699 11.8684C42.338 11.8684 45 9.20641 45 5.9383C44.9918 2.67019 42.3298 0 39.0535 0ZM5.79905 9.57499C3.79232 9.57499 2.16236 7.94503 2.16236 5.9383C2.16236 3.93156 3.79232 2.3016 5.79905 2.3016C7.80579 2.3016 9.43575 3.93156 9.43575 5.9383C9.43575 7.94503 7.7976 9.57499 5.79905 9.57499ZM39.1272 9.57499C37.1205 9.57499 35.4905 7.94503 35.4905 5.9383C35.4905 3.93156 37.1205 2.3016 39.1272 2.3016C41.134 2.3016 42.7639 3.93156 42.7639 5.9383C42.7639 7.94503 41.134 9.57499 39.1272 9.57499Z" fill="#0A0A0A"/>
</svg>
