<svg width="46" height="47" viewBox="0 0 46 47" fill="none" xmlns="http://www.w3.org/2000/svg">
<path d="M45.4205 20.5008L26.3685 1.37638C25.4268 0.507087 24.2677 0 22.9638 0C21.6598 0 20.5008 0.507087 19.5591 1.37638L0.507087 20.5008C0.217323 20.7906 0 21.2252 0 21.6598C0 22.0945 0.144882 22.5291 0.507087 22.8189C1.08661 23.3984 2.17323 23.3984 2.8252 22.8189L21.8772 3.69449C22.1669 3.40472 22.6016 3.25984 22.9638 3.25984C23.3984 3.25984 23.7606 3.40472 24.0504 3.69449L43.1748 22.7465C43.7543 23.326 44.8409 23.326 45.4929 22.7465C45.7827 22.4567 46 22.022 46 21.5874C45.9276 21.2252 45.7827 20.7906 45.4205 20.5008ZM32.8882 35.4961L23.978 26.5858C23.326 25.9339 23.0362 24.9921 23.1087 24.0504C23.326 22.3843 22.7465 20.7181 21.5874 19.4866C20.6457 18.5449 19.4142 17.9654 18.1102 17.8929L18.9795 18.7622C20.5732 20.3559 20.5732 23.0362 18.9795 24.6299C18.1827 25.4268 17.1685 25.8614 16.0094 25.8614C14.9228 25.8614 13.8362 25.4268 13.1118 24.6299L12.2425 23.7606C12.315 25.0646 12.8945 26.2961 13.8362 27.2378C15.0677 28.4693 16.7339 29.0488 18.4 28.7591H18.7622C19.5591 28.7591 20.3559 29.0488 20.863 29.6283L29.9181 38.6835C30.7874 39.5528 32.2362 39.4803 33.0331 38.611C33.8299 37.7417 33.7575 36.3654 32.8882 35.4961ZM31.8016 37.452C31.6567 37.5969 31.4394 37.6693 31.222 37.6693C31.0047 37.6693 30.8598 37.5969 30.715 37.452L30.063 36.8C29.7732 36.5102 29.7732 36.0032 30.063 35.7134C30.3528 35.4236 30.8598 35.4236 31.1496 35.7134L31.8016 36.3654C32.0913 36.6551 32.0913 37.1622 31.8016 37.452ZM32.8882 35.4961L23.978 26.5858C23.326 25.9339 23.0362 24.9921 23.1087 24.0504C23.326 22.3843 22.7465 20.7181 21.5874 19.4866C20.6457 18.5449 19.4142 17.9654 18.1102 17.8929L18.9795 18.7622C20.5732 20.3559 20.5732 23.0362 18.9795 24.6299C18.1827 25.4268 17.1685 25.8614 16.0094 25.8614C14.9228 25.8614 13.8362 25.4268 13.1118 24.6299L12.2425 23.7606C12.315 25.0646 12.8945 26.2961 13.8362 27.2378C15.0677 28.4693 16.7339 29.0488 18.4 28.7591H18.7622C19.5591 28.7591 20.3559 29.0488 20.863 29.6283L29.9181 38.6835C30.7874 39.5528 32.2362 39.4803 33.0331 38.611C33.8299 37.7417 33.7575 36.3654 32.8882 35.4961ZM31.8016 37.452C31.6567 37.5969 31.4394 37.6693 31.222 37.6693C31.0047 37.6693 30.8598 37.5969 30.715 37.452L30.063 36.8C29.7732 36.5102 29.7732 36.0032 30.063 35.7134C30.3528 35.4236 30.8598 35.4236 31.1496 35.7134L31.8016 36.3654C32.0913 36.6551 32.0913 37.1622 31.8016 37.452ZM32.8882 35.4961L23.978 26.5858C23.326 25.9339 23.0362 24.9921 23.1087 24.0504C23.326 22.3843 22.7465 20.7181 21.5874 19.4866C20.6457 18.5449 19.4142 17.9654 18.1102 17.8929L18.9795 18.7622C20.5732 20.3559 20.5732 23.0362 18.9795 24.6299C18.1827 25.4268 17.1685 25.8614 16.0094 25.8614C14.9228 25.8614 13.8362 25.4268 13.1118 24.6299L12.2425 23.7606C12.315 25.0646 12.8945 26.2961 13.8362 27.2378C15.0677 28.4693 16.7339 29.0488 18.4 28.7591H18.7622C19.5591 28.7591 20.3559 29.0488 20.863 29.6283L29.9181 38.6835C30.7874 39.5528 32.2362 39.4803 33.0331 38.611C33.8299 37.7417 33.7575 36.3654 32.8882 35.4961ZM31.8016 37.452C31.6567 37.5969 31.4394 37.6693 31.222 37.6693C31.0047 37.6693 30.8598 37.5969 30.715 37.452L30.063 36.8C29.7732 36.5102 29.7732 36.0032 30.063 35.7134C30.3528 35.4236 30.8598 35.4236 31.1496 35.7134L31.8016 36.3654C32.0913 36.6551 32.0913 37.1622 31.8016 37.452ZM32.8882 35.4961L23.978 26.5858C23.326 25.9339 23.0362 24.9921 23.1087 24.0504C23.326 22.3843 22.7465 20.7181 21.5874 19.4866C20.6457 18.5449 19.4142 17.9654 18.1102 17.8929L18.9795 18.7622C20.5732 20.3559 20.5732 23.0362 18.9795 24.6299C18.1827 25.4268 17.1685 25.8614 16.0094 25.8614C14.9228 25.8614 13.8362 25.4268 13.1118 24.6299L12.2425 23.7606C12.315 25.0646 12.8945 26.2961 13.8362 27.2378C15.0677 28.4693 16.7339 29.0488 18.4 28.7591H18.7622C19.5591 28.7591 20.3559 29.0488 20.863 29.6283L29.9181 38.6835C30.7874 39.5528 32.2362 39.4803 33.0331 38.611C33.8299 37.7417 33.7575 36.3654 32.8882 35.4961ZM31.8016 37.452C31.6567 37.5969 31.4394 37.6693 31.222 37.6693C31.0047 37.6693 30.8598 37.5969 30.715 37.452L30.063 36.8C29.7732 36.5102 29.7732 36.0032 30.063 35.7134C30.3528 35.4236 30.8598 35.4236 31.1496 35.7134L31.8016 36.3654C32.0913 36.6551 32.0913 37.1622 31.8016 37.452ZM32.8882 35.4961L23.978 26.5858C23.326 25.9339 23.0362 24.9921 23.1087 24.0504C23.326 22.3843 22.7465 20.7181 21.5874 19.4866C20.6457 18.5449 19.4142 17.9654 18.1102 17.8929L18.9795 18.7622C20.5732 20.3559 20.5732 23.0362 18.9795 24.6299C18.1827 25.4268 17.1685 25.8614 16.0094 25.8614C14.9228 25.8614 13.8362 25.4268 13.1118 24.6299L12.2425 23.7606C12.315 25.0646 12.8945 26.2961 13.8362 27.2378C15.0677 28.4693 16.7339 29.0488 18.4 28.7591H18.7622C19.5591 28.7591 20.3559 29.0488 20.863 29.6283L29.9181 38.6835C30.7874 39.5528 32.2362 39.4803 33.0331 38.611C33.8299 37.7417 33.7575 36.3654 32.8882 35.4961ZM31.8016 37.452C31.6567 37.5969 31.4394 37.6693 31.222 37.6693C31.0047 37.6693 30.8598 37.5969 30.715 37.452L30.063 36.8C29.7732 36.5102 29.7732 36.0032 30.063 35.7134C30.3528 35.4236 30.8598 35.4236 31.1496 35.7134L31.8016 36.3654C32.0913 36.6551 32.0913 37.1622 31.8016 37.452ZM38.8284 1.81102H37.1622C36.2929 1.81102 35.5685 2.53543 35.5685 3.40472V8.25827V8.40315L40.4945 13.3291V3.40472C40.4945 2.53543 39.7701 1.81102 38.8284 1.81102Z" fill="#0A0A0A"/>
<path d="M43.6094 44.8409H41.581V23.6157C41.581 23.5432 41.581 23.4708 41.6535 23.3983L22.9637 4.78101L4.34639 23.3983C4.34639 23.4708 4.41883 23.5432 4.41883 23.6157V44.8409H3.04246C2.60781 44.8409 2.24561 45.2031 2.24561 45.6377C2.31805 45.9999 2.68025 46.3621 3.04246 46.3621H43.6094C44.044 46.3621 44.4062 45.9999 44.4062 45.5653C44.4062 45.2031 44.044 44.8409 43.6094 44.8409ZM10.6488 22.8912C10.7212 22.2393 11.2283 21.7322 11.8803 21.7322C12.17 21.7322 12.5322 21.8771 12.7495 22.0944L14.1259 23.4708C15.1401 24.4849 16.8062 24.4849 17.8204 23.4708C18.8346 22.4566 18.8346 20.7905 17.8204 19.7763L16.444 18.3999C16.0818 18.0377 16.0094 17.5306 16.1543 17.096C16.2991 16.6613 16.7338 16.3716 17.2409 16.2991C19.2692 16.1542 21.2251 16.8786 22.6015 18.3275C24.1228 19.8487 24.8472 22.022 24.6299 24.1952C24.5574 24.6298 24.7023 25.1369 25.0645 25.4267L33.9747 34.3369C35.4236 35.7857 35.496 38.1038 34.1196 39.5527C33.3952 40.2771 32.4535 40.7117 31.4393 40.7117C30.4251 40.7117 29.5558 40.3495 28.8314 39.6251L19.8488 30.7149C19.4866 30.3527 19.0519 30.2078 18.6173 30.2802C16.444 30.57 14.2708 29.8456 12.7495 28.2519C11.3007 26.8755 10.5763 24.9196 10.6488 22.8912Z" fill="#0A0A0A"/>
</svg>
