<svg width="23" height="25" viewBox="0 0 23 25" fill="none" xmlns="http://www.w3.org/2000/svg">
<path fill-rule="evenodd" clip-rule="evenodd" d="M20.0499 8.32784L21.2404 6.68897C21.3425 6.54642 21.3101 6.34641 21.1686 6.24322C21.0255 6.13949 20.8255 6.17141 20.7233 6.3145L20.026 7.27356C19.7999 5.49852 19.0292 4.03094 17.5674 2.56761C15.9105 0.911722 13.7104 0 11.3689 0C9.02521 0 6.82517 0.911722 5.16822 2.56761C3.6001 4.13573 2.68997 6.21875 2.60752 8.43316C2.60114 8.60923 2.73785 8.75763 2.91391 8.76455H2.92721C3.09636 8.76455 3.23786 8.62944 3.24637 8.45763C3.32243 6.40439 4.16713 4.47297 5.62035 3.01868C8.78904 -0.150535 13.9477 -0.150535 17.1163 3.01868C18.502 4.40541 19.2185 5.78895 19.4079 7.46718L18.3414 6.69429C18.1983 6.59057 18.0004 6.62248 17.8961 6.76504C17.7919 6.90759 17.8243 7.1076 17.968 7.21079L19.6058 8.39911C19.6621 8.44007 19.7297 8.45975 19.7925 8.45975C19.8914 8.45975 19.9893 8.41401 20.0499 8.32784ZM18.4233 19.7557C18.4233 20.5148 19.0403 21.1324 19.8004 21.1324C20.5584 21.1324 21.1755 20.5148 21.1755 19.7557C21.1755 18.9967 20.5584 18.3791 19.8004 18.3791C19.0403 18.3791 18.4233 18.9967 18.4233 19.7557ZM10.1242 19.7557C10.1242 20.5148 10.7412 21.1324 11.4992 21.1324C12.2593 21.1324 12.8764 20.5148 12.8764 19.7557C12.8764 18.9967 12.2593 18.3791 11.4992 18.3791C10.7412 18.3791 10.1242 18.9967 10.1242 19.7557ZM3.20009 21.1324C3.96021 21.1324 4.57725 20.5148 4.57725 19.7557C4.57725 18.9967 3.96021 18.3791 3.20009 18.3791C2.4421 18.3791 1.82293 18.9967 1.82293 19.7557C1.82293 20.5148 2.4421 21.1324 3.20009 21.1324ZM5.92568 23.4159C5.92568 22.542 5.21556 21.8313 4.34214 21.8313H2.05751C1.18462 21.8313 0.473969 22.542 0.473969 23.4159V25H5.92568V23.4159ZM14.2269 23.4159C14.2269 22.542 13.5168 21.8313 12.6412 21.8313H10.3588C9.4832 21.8313 8.77308 22.542 8.77308 23.4159V25H14.2269V23.4159ZM18.6579 21.8313C17.7823 21.8313 17.0722 22.542 17.0722 23.4159V25H22.526V23.4159C22.526 22.542 21.8159 21.8313 20.9404 21.8313H18.6579ZM9.70927 4.31977C9.42682 4.03838 9.38107 3.60327 9.58533 3.14156C9.89598 2.43729 10.7646 1.79472 12.0029 1.94419C12.5264 2.00749 13.0109 2.39899 13.2647 2.96549C13.3971 3.25964 13.4535 3.56231 13.4365 3.84689C13.3498 3.63306 13.3258 3.58837 13.3168 3.56816C13.2647 3.4639 13.1604 3.39635 13.0434 3.39156C12.9285 3.38731 12.8173 3.44582 12.7588 3.54582C12.1205 4.60116 10.3481 4.48946 9.70927 4.31977ZM11.4992 6.91451C10.563 6.7161 9.99385 5.78204 9.88321 5.00915C10.7412 5.15171 12.1072 5.1049 12.9391 4.32509C13.0109 4.50701 13.087 4.69904 13.1343 4.82351C13.0976 5.62725 12.5178 6.69961 11.4992 6.91451ZM11.4992 9.18371L10.4609 8.11879C10.6758 7.89698 10.7391 7.59591 10.7322 7.30281C10.9492 7.42143 11.188 7.50867 11.4444 7.55388C11.4811 7.56027 11.5184 7.56027 11.5551 7.55388C11.8285 7.50495 12.0827 7.4092 12.3152 7.27781C12.3194 7.56186 12.3801 7.86081 12.5652 8.09007L11.4992 9.18371ZM16.269 12.7641H14.9136V11.8338C14.9136 11.6577 14.7727 11.5146 14.5945 11.5146C14.4184 11.5146 14.2775 11.6577 14.2775 11.8338V12.7641H8.68212V11.8338C8.68212 11.6577 8.53903 11.5146 8.36297 11.5146C8.1869 11.5146 8.04381 11.6577 8.04381 11.8338V12.7641H6.72995C6.77357 10.3662 6.91453 9.30445 9.86619 8.42199L11.2715 9.86404C11.3322 9.92521 11.4146 9.96032 11.4997 9.96032C11.5864 9.96032 11.6694 9.92521 11.7301 9.86404L13.1349 8.42199C16.0865 9.30445 16.2275 10.3662 16.269 12.7641ZM20.1239 9.21349C20.1324 9.03743 19.9978 8.88742 19.8217 8.87838C19.6435 8.86987 19.4962 9.00498 19.485 9.18105C19.3829 11.1944 18.5424 13.0886 17.1153 14.5152C13.9466 17.6844 8.78798 17.6844 5.61929 14.5152C4.6331 13.5295 3.99266 12.4997 3.63201 11.3135L4.64427 11.9699C4.79215 12.0657 4.98949 12.0231 5.08524 11.8753C5.18311 11.7274 5.13949 11.5295 4.99162 11.4338L3.29105 10.3337C3.14317 10.238 2.94583 10.2805 2.85008 10.4284L1.75166 12.1274C1.65591 12.2758 1.6974 12.4731 1.84527 12.5689C1.89953 12.6035 1.96017 12.6199 2.01921 12.6199C2.12347 12.6199 2.2256 12.5689 2.28837 12.4742L2.98998 11.3907C3.37456 12.7253 4.07617 13.8726 5.16822 14.9663C6.8773 16.6759 9.12309 17.5302 11.3689 17.5302C13.6125 17.5302 15.8583 16.6754 17.5674 14.9663C19.1052 13.4279 20.0132 11.3848 20.1239 9.21349Z" fill="black"/>
</svg>
