<svg width="64" height="55" viewBox="0 0 64 55" fill="none" xmlns="http://www.w3.org/2000/svg">
<path d="M63.777 28.3837C63.7367 28.3496 63.6782 28.3387 63.6326 28.3545C63.5769 28.372 63.5258 28.3873 63.4777 28.4017L63.4542 28.4087C63.3354 28.4443 63.2329 28.4748 63.1313 28.5166C61.5262 29.1702 60.2625 30.2898 59.268 31.9394C59.0224 32.347 58.8322 32.7707 58.6807 33.1932C58.9291 31.772 58.9867 31.2183 59.0307 29.6281C59.0328 29.5614 59.0328 29.4935 59.0328 29.4261C59.0328 29.2421 59.0328 29.0683 59.072 28.9098C59.119 28.7219 59.2136 28.5345 59.3051 28.3532C59.3309 28.3018 59.3566 28.2505 59.3779 28.2054C59.3853 28.1966 59.4091 28.1817 59.4184 28.1802C59.8774 28.1084 60.2833 27.9087 60.6597 27.5698C61.0389 27.2266 61.3507 26.8065 61.5867 26.3209C62.4337 24.5803 62.8575 22.6564 62.8468 20.6034C62.8459 20.4053 62.8231 20.2125 62.7982 20.0028C62.7868 19.9088 62.7753 19.8127 62.7657 19.7132C62.7603 19.6586 62.7275 19.6101 62.6799 19.5865C62.6331 19.5632 62.5764 19.5648 62.5291 19.5942C62.5004 19.6126 62.4759 19.6275 62.4537 19.6408C62.4107 19.667 62.3779 19.6875 62.3468 19.7104C61.6243 20.2412 60.987 20.9019 60.4525 21.6738C59.5802 22.9355 59.0728 24.3621 58.9362 25.9315C58.9226 25.7566 58.9088 25.5816 58.8951 25.4067L58.8903 25.3432C58.8367 24.6574 58.7813 23.9481 58.7362 23.2506C58.7248 23.074 58.6917 22.9022 58.6597 22.736C58.5979 22.4164 58.5395 22.1146 58.633 21.7983C58.6543 21.7268 58.6722 21.6548 58.6901 21.583C58.7343 21.4051 58.9475 21.1311 59.275 20.8316L59.2874 20.8203C59.4082 20.7153 60.0286 20.1336 60.3806 18.983C60.7379 17.8139 60.7109 16.5924 60.6912 15.7005L60.6907 15.6767C60.6645 14.4507 60.5352 13.5268 60.2715 12.6806C60.2374 12.5724 60.1969 12.4656 60.1541 12.3535C60.1318 12.2951 60.1091 12.2348 60.0858 12.1716C60.0666 12.1182 60.0205 12.0793 59.9666 12.0702L59.9402 12.0677C59.8934 12.0677 59.8498 12.0892 59.8202 12.1262L59.564 12.4461C58.3359 13.9811 57.7325 15.7813 57.7703 17.797C57.7768 18.152 57.8028 18.5162 57.8487 18.8921C57.5365 17.7882 57.1704 16.7136 56.7541 15.6799C56.7455 15.6572 56.7399 15.6292 56.7393 15.6054L56.7364 15.4641C56.7321 15.2601 56.7276 15.0491 56.7361 14.8415C56.7373 14.8071 56.7591 14.7453 56.8044 14.6845C56.8687 14.5974 56.94 14.5123 57.014 14.4238C57.1399 14.2736 57.27 14.1185 57.373 13.9414C57.7048 13.3718 57.8607 12.6989 57.8632 11.8236C57.8677 10.7931 57.7127 9.70867 57.3748 8.41062C57.1901 7.70248 56.9114 6.78251 56.3924 5.94846C56.3572 5.89239 56.3178 5.83959 56.2759 5.78368C56.257 5.75893 56.2372 5.73253 56.217 5.70416C56.1876 5.66367 56.1469 5.64006 56.0813 5.64006C56.029 5.64399 55.9823 5.67449 55.9562 5.72187C55.3047 6.9268 54.9802 8.21403 54.9649 9.65719C54.9518 10.8605 55.1351 11.8959 55.365 12.7142C54.7799 11.6188 54.1297 10.5604 53.4249 9.55652L53.4088 9.53373C53.3928 9.51192 53.386 9.50127 53.3872 9.50881C53.3428 9.18401 53.3121 8.92413 53.2908 8.69787C53.2913 8.69443 53.2955 8.67541 53.3284 8.61901C53.375 8.53769 53.426 8.458 53.4803 8.37373C53.5891 8.20419 53.7014 8.02876 53.7734 7.83234C53.9907 7.23947 54.0395 6.56707 53.9222 5.77745C53.6647 4.02982 52.9129 2.45615 51.6243 0.966269C51.4917 0.813296 51.3451 0.67803 51.1901 0.535059L51.1472 0.495217C51.0866 0.43898 51.0243 0.381431 50.9614 0.320602C50.9214 0.28158 50.8642 0.266988 50.8086 0.283712C50.7562 0.300763 50.7157 0.34536 50.7032 0.400777L50.675 0.527353C50.6558 0.6113 50.641 0.677539 50.6299 0.744106C50.4565 1.80491 50.4691 2.94114 50.6688 4.21805C50.8669 5.48446 51.2616 6.57675 51.8672 7.52557C50.959 6.42902 50.0757 5.50823 49.1525 4.69221C49.1484 4.68664 49.1423 4.66975 49.1418 4.66549C49.214 4.02851 49.0607 3.42843 48.6728 2.83096C48.1636 2.04577 47.4559 1.44732 46.5695 1.05251C46.0391 0.816739 45.4895 0.608021 44.9515 0.403565C44.6937 0.305518 44.436 0.207799 44.1705 0.10303C43.9038 -0.00567423 43.7897 -0.0250213 43.7278 0.0336756C43.6481 0.109752 43.6673 0.17468 43.7021 0.29273L43.7133 0.331259C44.0385 1.45404 44.4702 2.34204 45.0332 3.04591C46.0668 4.33938 47.2756 4.99652 48.7268 5.05456C48.7776 5.05768 48.818 5.0721 48.8344 5.08522C49.0388 5.24196 49.1892 5.36739 49.3221 5.49167C49.7426 5.8855 50.1567 6.30507 50.5618 6.74694C49.9592 6.36327 49.2228 6.19013 48.3933 6.23309C47.9394 6.25654 47.4889 6.32474 47.0532 6.39066L47.0366 6.39328C46.9078 6.41263 46.7796 6.43181 46.6518 6.45034C46.3718 6.48919 46.0895 6.54002 45.8403 6.58462C45.7393 6.60315 45.4982 6.65938 45.4427 6.77924C45.4235 6.82023 45.4251 6.86515 45.4468 6.90598C45.466 6.94155 45.4871 6.975 45.5102 7.0055C46.2297 7.96219 47.0505 8.59228 48.0194 8.93151C49.2008 9.34731 50.2859 9.31304 51.261 8.82396C51.4101 8.73985 51.5899 8.69722 51.7953 8.69722C51.9504 8.69722 52.0667 8.7223 52.1053 8.73132C52.163 8.74116 52.2414 8.77428 52.2574 8.79559C52.8638 9.61259 53.4393 10.4852 53.9767 11.4019C53.5227 10.9493 52.9305 10.6442 52.1238 10.4455C51.4168 10.2729 50.6939 10.2358 49.9951 10.1997L49.761 10.1876C49.5418 10.1761 49.3226 10.1619 49.0968 10.1473L48.7183 10.1233C48.6693 10.1233 48.6228 10.1476 48.5943 10.1879C48.5628 10.2314 48.5552 10.2878 48.5738 10.3384C48.589 10.3807 48.6167 10.4553 48.6309 10.4803C49.368 11.7437 50.2336 12.6176 51.2768 13.1521C52.2966 13.6742 53.218 13.8122 54.1475 13.5845C54.255 13.5579 54.3796 13.5438 54.5084 13.5438C54.9038 13.5438 55.1794 13.6674 55.2374 13.7819C55.7487 14.8629 56.205 15.9861 56.5986 17.1319C56.1858 16.5487 55.6086 16.075 54.8777 15.7207C54.1516 15.3695 53.3956 15.0485 52.6518 14.7325C52.3321 14.5971 52.0112 14.4612 51.6917 14.3221C51.6441 14.3008 51.588 14.3052 51.5437 14.3352C51.5002 14.3649 51.4742 14.4144 51.4742 14.4677C51.4742 14.57 52.535 17.587 54.0756 18.7759C54.7041 19.2609 55.4782 19.7598 56.4543 19.7832C56.7464 19.7893 57.0485 19.8316 57.2767 20.0974C57.3116 20.1397 57.3578 20.1726 57.4082 20.1902C57.4861 20.2164 57.5076 20.2653 57.546 20.4319C57.8621 21.792 58.0923 23.1941 58.2341 24.6177C58.1912 24.4733 58.1415 24.3273 58.0843 24.1796C57.7396 23.2836 57.1592 22.4995 56.2581 21.712C55.7937 21.3044 55.3073 20.9098 54.8369 20.5279L54.8145 20.5099C54.6003 20.3359 54.3865 20.1626 54.1734 19.9872C54.1294 19.951 54.0865 19.9136 54.0367 19.87L53.9038 19.7532C53.8572 19.7129 53.7879 19.7045 53.7336 19.7324C53.6777 19.7614 53.6443 19.8214 53.6486 19.8855C53.6552 19.9818 53.6604 20.0728 53.6654 20.1602L53.668 20.201C53.6785 20.3809 53.6884 20.5506 53.7062 20.7181C53.8729 22.3497 54.3463 23.7118 55.1535 24.8823C55.6532 25.6059 56.37 26.4903 57.4877 26.9085C57.7597 27.0108 57.957 27.1658 58.1683 27.4438C58.3677 27.7042 58.4048 27.9421 58.4003 28.2415C58.3813 29.4956 58.2941 30.7397 58.1403 31.9581C58.1043 31.619 58.0282 31.27 57.9112 30.9073C57.6692 30.1564 57.2919 29.4263 56.7577 28.6753C56.2965 28.0251 55.8167 27.3725 55.3527 26.7411L55.3218 26.699C55.1378 26.4489 54.954 26.1986 54.775 25.9536C54.7414 25.9033 54.6929 25.8853 54.6649 25.8753C54.6252 25.8554 54.5779 25.8535 54.5358 25.8718C54.4945 25.8899 54.4628 25.9254 54.4489 25.969L54.4435 25.9861C54.4358 26.009 54.4297 26.0294 54.4265 26.0497C54.1065 28.0051 54.3028 29.757 55.0265 31.4061C55.3799 32.2124 55.854 33.1253 56.6898 33.7821C57.0714 34.082 57.3727 34.5027 57.5381 34.9666C57.5732 35.0664 57.5719 35.1097 57.5679 35.1264C57.2141 36.628 56.7521 38.0762 56.1903 39.4469C56.3349 38.7245 56.325 37.9657 56.1599 37.1795C55.9255 36.0653 55.5226 34.9854 55.1633 34.0607L55.0556 33.7838C54.8871 33.3504 54.7175 32.9136 54.5423 32.461C54.5201 32.4031 54.4665 32.3636 54.395 32.36C54.3387 32.36 54.2868 32.3929 54.2599 32.4464L54.2035 32.5552C54.1787 32.6029 54.1555 32.6474 54.1356 32.6933C53.4128 34.3647 53.1686 36.078 53.4104 37.7858C53.5832 39.007 53.8759 39.8814 54.3598 40.6212C54.6102 41.0035 54.8481 41.4295 54.8913 41.9533C54.9015 42.0773 54.8967 42.1627 54.8428 42.2599C54.2326 43.355 53.5484 44.3884 52.7992 45.3486C52.802 45.3433 52.8048 45.3381 52.8076 45.3328C53.3467 44.3233 53.363 43.2319 53.308 42.2971C53.2604 41.4959 53.1708 40.6958 53.0846 39.9222L53.0796 39.8774C53.0449 39.5676 53.0104 39.2578 52.9788 38.9475C52.9606 38.7715 52.9403 38.5956 52.9193 38.4171L52.8916 38.1754C52.8856 38.1219 52.8537 38.0757 52.808 38.0524C52.7228 38.0068 52.5851 38.0772 52.4363 38.2575C51.4138 39.4969 50.7792 40.8974 50.5501 42.4204C50.3125 43.9995 50.4413 45.3508 50.9443 46.5517C50.9578 46.5836 50.9574 46.6489 50.9573 46.6707L50.9302 47.3616C50.9262 47.4113 50.9006 47.4674 50.8795 47.4882C49.8584 48.4959 48.7343 49.3719 47.5279 50.101C48.0989 49.5721 48.5095 48.882 48.7756 48.0075C49.0704 47.0381 49.2218 46.0293 49.3685 45.0511L49.3813 44.9641C49.4333 44.6204 49.4875 44.2774 49.5429 43.9269L49.6055 43.5306C49.6144 43.4729 49.5922 43.4152 49.5485 43.3806C49.5051 43.3451 49.4424 43.3366 49.3925 43.3586L49.3379 43.3817C49.2797 43.4061 49.229 43.428 49.1812 43.453C46.9006 44.6203 45.3993 47.3426 45.6115 49.9259C45.6447 50.3306 45.6086 50.7106 45.5007 51.0871C45.4907 51.1214 45.4583 51.1586 45.4452 51.1648C44.362 51.6329 43.3321 51.9744 42.2958 52.2089C42.2426 52.2215 42.2003 52.2605 42.183 52.3132C42.1656 52.3661 42.1762 52.4237 42.2117 52.467C42.3243 52.6037 42.4224 52.7508 42.503 52.9047C42.5362 52.9677 42.615 53 42.6741 52.9842C43.5184 52.7868 44.3406 52.5312 45.1187 52.224C45.1815 52.1981 45.2295 52.1858 45.2745 52.1933C45.4476 52.2169 45.6305 52.2533 45.8335 52.305C45.8755 52.3155 45.9102 52.3353 45.9108 52.3335C46.3543 53.2395 47.1166 53.8167 48.2418 54.0975C48.4866 54.1577 48.7391 54.2021 48.9922 54.2293C49.2572 54.258 49.5527 54.2726 49.8703 54.2726C50.3103 54.2726 50.624 54.2448 50.6278 54.2444C51.6032 54.1326 52.4361 53.9077 53.1739 53.5566C53.4766 53.4128 53.8215 53.2192 54.0867 52.8734C54.1374 52.8072 54.1289 52.7116 54.0673 52.656C53.3179 51.9784 52.5549 51.486 51.7342 51.1509C50.5184 50.6557 49.4109 50.5216 48.3253 50.7356C48.1631 50.7679 48.0047 50.8085 47.8508 50.8552C48.8663 50.2332 49.8386 49.5021 50.7568 48.6692C50.7744 48.6528 50.8034 48.6384 50.8259 48.6343C50.9762 48.6087 51.1757 48.5772 51.3798 48.5621C51.3987 48.5621 51.4227 48.5715 51.4254 48.5725C51.9787 49.207 52.6915 49.5154 53.6046 49.5154C53.6512 49.5154 53.6979 49.5144 53.7444 49.5128C54.7372 49.48 55.7353 49.2004 56.7114 48.6815C57.4208 48.3023 58.1603 47.8607 58.76 47.2023C58.893 47.0558 59.0117 46.8903 59.1165 46.7442L59.1267 46.7299C59.1731 46.6655 59.22 46.6005 59.2682 46.5364C59.2944 46.5018 59.3054 46.4572 59.2986 46.4123C59.2912 46.369 59.2667 46.3305 59.225 46.3026C59.2144 46.2967 58.9605 46.1572 58.7287 46.0652C57.1764 45.4505 55.6092 45.3876 54.1142 45.8813C53.6248 46.0424 53.1641 46.2844 52.7156 46.6189C53.5451 45.6309 54.3131 44.5478 55.0103 43.3824C55.0178 43.3701 55.0377 43.3368 55.0441 43.3307C55.105 43.2909 55.1674 43.2532 55.2297 43.216C55.3412 43.1489 55.4567 43.0795 55.5652 42.9969C55.6567 42.9269 55.6825 42.9251 55.7749 42.9861C55.9058 43.0731 56.058 43.1184 56.1906 43.154C56.9666 43.3576 57.7488 43.2561 58.6141 42.8398C59.4045 42.4601 60.0122 41.8599 60.5513 41.268C61.3356 40.4046 61.8481 39.6256 62.1643 38.8163C62.2307 38.6464 62.278 38.4708 62.3273 38.2872C62.3476 38.2101 62.3684 38.1331 62.3905 38.0573C62.4147 37.976 62.3724 37.8899 62.294 37.8616L62.2291 37.8565C61.9092 37.8565 59.0562 37.9045 57.3874 39.5638C57.0244 39.9248 56.6989 40.3085 56.4018 40.7285C57.062 39.2959 57.6218 37.786 58.073 36.2187L58.0795 36.1958C58.085 36.1766 58.0931 36.1476 58.0986 36.1397L58.5351 35.5255C58.5514 35.5009 58.5533 35.5009 58.5789 35.5009C58.5903 35.5009 58.6027 35.5017 58.617 35.5025L58.7103 35.5083C59.035 35.5289 59.2262 35.526 59.3835 35.5007C60.005 35.4002 60.5659 35.0795 61.0982 34.5201C62.3431 33.2117 63.2001 31.5794 63.7178 29.5302C63.7734 29.3107 63.7889 29.089 63.8055 28.8539C63.8129 28.7473 63.821 28.6375 63.8329 28.524C63.8378 28.4696 63.817 28.4176 63.777 28.3837Z" fill="#11B0AC"/>
<path d="M21.5375 52.2074C20.5022 51.9731 19.4724 51.6316 18.3889 51.1635C18.376 51.1572 18.3438 51.12 18.3337 51.0866C18.2257 50.7093 18.1896 50.3293 18.2229 49.9246C18.435 47.3411 16.9338 44.6189 14.6537 43.4519C14.6052 43.4266 14.5546 43.4048 14.4964 43.3804L14.4423 43.3574C14.3909 43.335 14.3284 43.3443 14.2869 43.3784C14.2421 43.4138 14.2199 43.4715 14.229 43.5294L14.2914 43.9255C14.3468 44.2761 14.401 44.6191 14.453 44.9624L14.4661 45.0523C14.6125 46.028 14.7639 47.037 15.0588 48.0063C15.3248 48.8809 15.7354 49.5709 16.3064 50.0997C15.1 49.3708 13.9759 48.4947 12.955 47.4872C12.9335 47.4661 12.9081 47.41 12.9044 47.3637L12.877 46.6723C12.8769 46.6477 12.8766 46.5825 12.8902 46.5502C13.393 45.3497 13.5218 43.9983 13.2842 42.4193C13.0551 40.8963 12.4206 39.4957 11.398 38.2564C11.2784 38.1113 11.1728 38.0378 11.0841 38.0378C11.0625 38.0378 11.043 38.0422 11.0276 38.0504C10.9806 38.0744 10.9488 38.1208 10.9425 38.1744L10.9152 38.4156C10.894 38.5946 10.8737 38.7704 10.8555 38.9465C10.824 39.2567 10.7894 39.5664 10.7547 39.8763L10.7497 39.921C10.6633 40.6948 10.5737 41.4949 10.5264 42.296C10.4713 43.2305 10.4876 44.322 11.0267 45.3317C11.0296 45.3367 11.0321 45.3421 11.035 45.3472C10.2857 44.3871 9.60175 43.3538 8.99152 42.2589C8.9376 42.1615 8.93296 42.0761 8.94304 41.9521C8.9864 41.428 9.22415 41.002 9.47455 40.62C9.95822 39.8802 10.251 39.0058 10.424 37.7847C10.6657 36.0769 10.4216 34.3637 9.6987 32.6923C9.67886 32.6462 9.65566 32.6018 9.63086 32.5541L9.57439 32.4449C9.54735 32.3916 9.48959 32.3565 9.42863 32.3593C9.36783 32.3626 9.31423 32.4021 9.29215 32.4595C9.11679 32.9127 8.9472 33.3493 8.77872 33.7826L8.67104 34.0595C8.31169 34.9844 7.90866 36.0643 7.67442 37.1783C7.5093 37.9645 7.49922 38.7233 7.64402 39.4457C7.08211 38.0752 6.6202 36.627 6.26645 35.1253C6.26245 35.1085 6.26117 35.0653 6.29621 34.9654C6.46164 34.5014 6.76292 34.0807 7.14467 33.7808C7.98034 33.124 8.45441 32.2111 8.80784 31.4047C9.53151 29.7556 9.72782 28.0038 9.40783 26.0486C9.40447 26.0281 9.39839 26.0077 9.39119 25.9856L9.38543 25.9679C9.37151 25.9241 9.33983 25.8887 9.29791 25.8702C9.25695 25.8526 9.20543 25.8559 9.17359 25.872C9.14159 25.8839 9.09311 25.9021 9.0616 25.9495C8.88048 26.1974 8.69664 26.4476 8.51265 26.6977L8.48177 26.7398C8.01777 27.3712 7.53794 28.0238 7.07683 28.6738C6.5426 29.4249 6.16533 30.155 5.92325 30.906C5.80646 31.2686 5.73014 31.6177 5.69414 31.9568C5.54038 30.7384 5.45318 29.4945 5.43414 28.2402C5.42966 27.9408 5.46678 27.7029 5.6663 27.4424C5.87749 27.1646 6.07477 27.0095 6.34677 26.9072C7.46435 26.4888 8.18129 25.6046 8.68096 24.881C9.48815 23.7105 9.96158 22.3485 10.1283 20.7171C10.1461 20.5492 10.1561 20.3794 10.1665 20.1997L10.1691 20.1589C10.1741 20.0715 10.1793 19.9805 10.1861 19.8841C10.1902 19.8201 10.1568 19.7601 10.1009 19.7311C10.0469 19.7032 9.97758 19.7114 9.93054 19.7522L9.7979 19.8686C9.74798 19.9123 9.70526 19.9496 9.66094 19.986C9.44799 20.1613 9.23423 20.3348 9.02 20.5087L8.9976 20.5268C8.52737 20.9085 8.04097 21.3031 7.5765 21.7107C6.67524 22.4984 6.09493 23.2824 5.75014 24.1784C5.69318 24.3262 5.64326 24.4723 5.60038 24.6169C5.74214 23.1931 5.97237 21.7909 6.28853 20.4305C6.32693 20.2641 6.34837 20.2153 6.42724 20.1887C6.47684 20.1715 6.52308 20.1384 6.55684 20.0974C6.78612 19.8303 7.08803 19.788 7.38051 19.7819C8.35649 19.7585 9.13055 19.2595 9.75886 18.7746C11.2995 17.5855 12.3603 14.5687 12.3603 14.4664C12.3603 14.4131 12.3343 14.3634 12.2903 14.3334C12.247 14.3041 12.1884 14.3 12.1443 14.3201C11.8233 14.4597 11.5023 14.5956 11.17 14.7364C10.4388 15.0471 9.68286 15.3682 8.9568 15.7192C8.22609 16.0735 7.64866 16.5474 7.23587 17.1304C7.6293 15.9848 8.08545 14.8617 8.59616 13.7824C8.65488 13.666 8.93072 13.5423 9.32623 13.5423C9.45487 13.5423 9.57951 13.5564 9.68718 13.583C10.6164 13.8112 11.5379 13.6728 12.5577 13.1506C13.601 12.6161 14.4666 11.7422 15.2039 10.4783C15.218 10.4539 15.2456 10.3793 15.2605 10.3374C15.2792 10.2863 15.2717 10.2299 15.2407 10.1871C15.2119 10.1464 15.1658 10.1222 15.1071 10.1222C15.1066 10.1222 15.1063 10.1222 15.1058 10.1222L14.7375 10.1459C14.5117 10.1605 14.2925 10.1748 14.0733 10.1863L13.8393 10.1984C13.1404 10.2345 12.4175 10.2715 11.7103 10.4442C10.9038 10.6429 10.3117 10.948 9.85758 11.4005C10.395 10.4839 10.9705 9.6116 11.5767 8.7946C11.5931 8.77296 11.6713 8.73984 11.7355 8.72885C11.7675 8.72115 11.8839 8.69606 12.0388 8.69606C12.2443 8.69606 12.4241 8.73885 12.5766 8.82477C13.5454 9.31025 14.6333 9.34632 15.8146 8.93052C16.7835 8.59129 17.6042 7.9612 18.3235 7.00483C18.3469 6.97401 18.368 6.9404 18.3872 6.90498C18.4091 6.86416 18.4105 6.81923 18.3913 6.77824C18.3357 6.65855 18.0947 6.60232 17.9933 6.58363C17.7443 6.53903 17.4622 6.4882 17.1826 6.44934C17.0544 6.43098 16.9261 6.4118 16.7975 6.39229L16.781 6.38966C16.3451 6.32375 15.8946 6.25555 15.4407 6.2321C14.6113 6.18865 13.8748 6.36212 13.2721 6.74611C13.6773 6.30408 14.0914 5.88467 14.5119 5.49068C14.6449 5.3664 14.7952 5.24114 15.0002 5.0839C15.016 5.07144 15.0564 5.05685 15.1058 5.0539C16.5584 4.99569 17.7672 4.33855 18.8008 3.04525C19.3638 2.34121 19.7955 1.45322 20.1207 0.330432L20.1319 0.291902C20.1667 0.173852 20.1859 0.108924 20.106 0.0328478C20.0444 -0.0258491 19.936 -0.00846911 19.654 0.105974C19.398 0.206808 19.1404 0.304691 18.876 0.405197C18.3446 0.607029 17.795 0.815747 17.2646 1.05152C16.3783 1.44633 15.6704 2.04478 15.1612 2.82997C14.7733 3.42743 14.6201 4.02768 14.6922 4.66187C14.6917 4.66892 14.6857 4.68581 14.6847 4.68778C13.7594 5.50642 12.875 6.42803 11.9668 7.52491C12.5724 6.57608 12.9671 5.48363 13.1652 4.21722C13.3649 2.94048 13.3775 1.80409 13.2041 0.743278C13.193 0.676875 13.1782 0.610472 13.1591 0.527346L13.1308 0.399294C13.118 0.344368 13.0777 0.299936 13.0247 0.282884C12.9718 0.266816 12.9124 0.28108 12.8729 0.31961C12.8095 0.380767 12.7474 0.43848 12.6868 0.494554L12.6441 0.534068C12.4889 0.677367 12.3423 0.812633 12.2097 0.965605C10.9209 2.45549 10.1693 4.02916 9.91182 5.77662C9.79454 6.56641 9.84318 7.2388 10.0606 7.83167C10.1326 8.02809 10.2449 8.20353 10.3568 8.37765C10.408 8.45717 10.4592 8.53702 10.506 8.619C10.5406 8.67786 10.5435 8.69311 10.5433 8.69032C10.522 8.92396 10.4915 9.18433 10.4502 9.49683C10.4484 9.50077 10.4427 9.50995 10.4243 9.53487L10.4094 9.55602C9.70462 10.5599 9.0544 11.6183 8.46929 12.7137C8.69936 11.8955 8.88256 10.86 8.8696 9.65669C8.85392 8.21337 8.52961 6.92613 7.87778 5.72088C7.85202 5.67399 7.8053 5.64349 7.73986 5.6389C7.69234 5.6389 7.64658 5.663 7.61666 5.70415C7.59714 5.73203 7.5773 5.75826 7.55842 5.78318C7.51634 5.83893 7.47698 5.89172 7.44179 5.94812C6.92276 6.78218 6.64436 7.70182 6.45956 8.40995C6.12181 9.70866 5.96661 10.7931 5.97109 11.8229C5.97365 12.6983 6.12933 13.3712 6.46116 13.9406C6.56436 14.1178 6.69428 14.2729 6.82484 14.429C6.89412 14.5118 6.96531 14.5969 7.02979 14.6841C7.07491 14.7448 7.09667 14.8066 7.09795 14.841C7.10643 15.0486 7.10195 15.2596 7.09763 15.4636L7.09459 15.6046C7.09411 15.6289 7.08867 15.6567 7.08051 15.678C6.66388 16.7125 6.29765 17.7875 5.98533 18.8916C6.03125 18.5157 6.05717 18.1517 6.06373 17.7965C6.10149 15.7808 5.49814 13.9808 4.27 12.4456L4.01401 12.1261C3.98441 12.0885 3.94057 12.0672 3.89385 12.0672L3.86825 12.0695C3.81353 12.0788 3.76745 12.1177 3.74841 12.1707C3.72505 12.2344 3.70218 12.2946 3.67994 12.3528C3.63706 12.4653 3.59658 12.5719 3.56234 12.6802C3.29882 13.5261 3.16955 14.4502 3.14331 15.6759L3.14283 15.6999C3.12315 16.5916 3.09611 17.8133 3.45354 18.9823C3.80537 20.1331 4.42584 20.7147 4.54616 20.8191L4.55896 20.8309C4.88647 21.1305 5.09975 21.4044 5.14391 21.5823C5.16167 21.6542 5.17975 21.7261 5.20087 21.7973C5.29431 22.1139 5.23591 22.4156 5.17287 22.7414C5.14151 22.9058 5.10887 23.0757 5.09751 23.25C5.05239 23.9474 4.99703 24.6567 4.94343 25.3426L4.93863 25.406C4.92487 25.5809 4.91111 25.7559 4.89751 25.9308C4.76088 24.3614 4.25368 22.9348 3.38106 21.6732C2.84667 20.9013 2.20956 20.2408 1.48702 19.7098C1.45582 19.6868 1.42302 19.6663 1.37918 19.6396C1.3579 19.627 1.33326 19.6119 1.30334 19.5927C1.25822 19.565 1.2003 19.5625 1.15374 19.5858C1.10606 19.6096 1.07326 19.658 1.06782 19.7127C1.05806 19.8119 1.0467 19.908 1.0347 20.0077C1.01055 20.2118 0.987666 20.4046 0.986706 20.6027C0.975986 22.6558 1.39982 24.5797 2.24684 26.3202C2.48284 26.8059 2.79467 27.2259 3.17402 27.5693C3.55018 27.9078 3.95609 28.1075 4.41416 28.1794C4.42424 28.1812 4.44824 28.1961 4.45192 28.199C4.47672 28.25 4.50248 28.3012 4.52824 28.3525C4.61976 28.5337 4.71432 28.7211 4.76136 28.909C4.80055 29.0678 4.80055 29.2415 4.80055 29.4254C4.80055 29.4928 4.80055 29.5607 4.80263 29.6273C4.84663 31.2177 4.90439 31.7715 5.15271 33.1925C5.00119 32.77 4.81095 32.3463 4.56536 31.9387C3.57082 30.2892 2.30732 29.1695 0.702711 28.5161C0.600633 28.474 0.498235 28.4437 0.379517 28.4082L0.355838 28.401C0.307679 28.3866 0.25664 28.3712 0.202081 28.3541C0.152801 28.3376 0.0966425 28.3489 0.0564833 28.383C0.016484 28.4169 -0.0044756 28.4689 0.000804303 28.523C0.0126441 28.6358 0.0208039 28.7455 0.0283238 28.8526C0.0448035 29.0873 0.0603232 29.309 0.115842 29.5284C0.633593 31.5777 1.49054 33.2099 2.73547 34.5185C3.26778 35.0779 3.82873 35.3986 4.45032 35.4991C4.60712 35.5242 4.79879 35.5273 5.12327 35.5066L5.21671 35.5009C5.23095 35.5001 5.24343 35.4993 5.25479 35.4993C5.28039 35.4993 5.28247 35.4993 5.30023 35.5261L5.73494 36.1379C5.74054 36.1459 5.7487 36.1749 5.7543 36.1949L5.7607 36.2169C6.21189 37.7843 6.77172 39.2941 7.43187 40.7269C7.13475 40.3067 6.80916 39.923 6.44628 39.5621C4.77752 37.9029 1.92445 37.8548 1.60461 37.8548L1.56478 37.8552L1.53966 37.8599C1.46126 37.8885 1.41886 37.9744 1.44302 38.0552C1.46526 38.1314 1.48606 38.2085 1.5099 38.299C1.5555 38.469 1.60285 38.6446 1.66925 38.8145C1.98541 39.6241 2.49788 40.4029 3.28234 41.2663C3.82137 41.8582 4.42904 42.4585 5.21927 42.838C6.08469 43.2545 6.86612 43.3561 7.64322 43.1522C7.77538 43.1166 7.92738 43.0715 8.05809 42.9846C8.15121 42.9234 8.17665 42.9254 8.26817 42.9952C8.37665 43.0779 8.49201 43.1472 8.604 43.2145C8.66592 43.2517 8.72832 43.2892 8.78656 43.3269C8.79584 43.335 8.81568 43.3683 8.82304 43.3806C9.52031 44.546 10.2885 45.6291 11.1179 46.6171C10.6692 46.2826 10.2086 46.0406 9.71934 45.8794C8.22417 45.3858 6.657 45.4486 5.10487 46.0636C4.87319 46.1555 4.61928 46.2949 4.60232 46.3047C4.5668 46.3287 4.54232 46.3674 4.53464 46.4118C4.52792 46.4554 4.53896 46.5 4.56488 46.5341C4.61336 46.5987 4.66024 46.6636 4.70664 46.7281L4.71688 46.7422C4.82167 46.8884 4.94039 47.0539 5.07351 47.2004C5.67302 47.8591 6.41236 48.3006 7.12211 48.6797C8.09809 49.1986 9.09615 49.4782 10.0888 49.5109C10.1355 49.5126 10.1822 49.5136 10.2288 49.5136C11.1419 49.5136 11.8547 49.2052 12.4041 48.5744C12.4108 48.5695 12.4347 48.5601 12.4478 48.56C12.6577 48.5754 12.8572 48.6067 13.0063 48.6321C13.0298 48.6364 13.0588 48.6508 13.0769 48.6675C13.9948 49.5003 14.9669 50.2312 15.9824 50.8533C15.8285 50.8065 15.67 50.7659 15.5077 50.7332C14.4225 50.5194 13.315 50.6536 12.0988 51.1487C11.2784 51.4838 10.5153 51.9762 9.76606 52.6538C9.7043 52.7094 9.69566 52.805 9.74654 52.8713C10.0117 53.217 10.3566 53.4107 10.6592 53.5543C11.3971 53.9057 12.23 54.1306 13.2065 54.2424C13.2094 54.2426 13.5231 54.2705 13.9631 54.2705C14.2807 54.2705 14.5762 54.2559 14.841 54.2272C15.0941 54.2 15.3466 54.1555 15.5916 54.0952C16.7167 53.8145 17.479 53.2374 17.9158 52.3413C17.9237 52.3336 17.9573 52.3136 17.9998 52.303C18.2029 52.2513 18.3856 52.2149 18.5593 52.1912C18.6003 52.1844 18.6513 52.1958 18.7157 52.2223C19.4926 52.5291 20.3148 52.7847 21.1579 52.9818C21.1697 52.9847 21.182 52.9862 21.1943 52.9862C21.251 52.9862 21.3031 52.9542 21.3306 52.9021C21.4111 52.7486 21.5092 52.6014 21.622 52.4645C21.6574 52.4214 21.6679 52.364 21.6505 52.3109C21.6338 52.2594 21.5916 52.2203 21.5375 52.2074Z" fill="#11B0AC"/>
<path d="M39.5065 31.048L45.9352 24.6264C46.1531 24.4087 46.2318 24.0828 46.1376 23.7862C46.0435 23.4892 45.7932 23.2728 45.4918 23.2281L36.6083 21.9061L32.6348 13.6568C32.5001 13.377 32.222 13.1999 31.9175 13.1999C31.613 13.1999 31.3348 13.3773 31.2002 13.6568L27.2282 21.9061L18.3432 23.2281C18.0419 23.2728 17.7915 23.4894 17.6975 23.7862C17.6032 24.0828 17.6818 24.4087 17.8998 24.6264L24.3285 31.048L22.8118 40.1147C22.7602 40.4222 22.8836 40.733 23.13 40.9163C23.3761 41.0998 23.7025 41.1241 23.9724 40.9788L31.9178 36.6987L39.8633 40.9788C39.9802 41.0419 40.1081 41.0729 40.2353 41.0729C40.4012 41.0729 40.5661 41.0201 40.7055 40.9163C40.9519 40.7332 41.0754 40.4222 41.0237 40.1147L39.5065 31.048Z" fill="#11B0AC"/>
</svg>
