<svg width="175" height="158" viewBox="0 0 175 158" fill="none" xmlns="http://www.w3.org/2000/svg">
<path d="M0.451267 153.657C-0.169225 154.616 -0.141021 155.856 0.53588 156.787C1.07176 157.549 1.94609 158 2.84863 158C3.04606 158 3.24348 158 3.46912 157.944L29.3888 152.19C36.8629 155.998 45.2396 158 53.6444 158C82.8922 158 106.725 134.421 107.176 105.258C119.868 108.699 133.773 107.402 145.562 101.422L171.482 107.148C171.679 107.204 171.876 107.204 172.102 107.204C173.005 107.204 173.879 106.753 174.415 105.991C175.064 105.061 175.092 103.82 174.499 102.861L163.923 86.1357C171.03 76.8565 174.923 65.3774 174.923 53.588C174.923 24.03 150.893 0 121.335 0C91.7765 0 68.2542 23.5787 67.8029 52.7137C63.2903 51.4727 58.552 50.7676 53.6444 50.7676C24.03 50.7958 0 74.8258 0 104.384C0 116.145 3.89218 127.624 11.0278 136.931L0.451267 153.657ZM121.278 5.66905C147.705 5.66905 169.225 27.1889 169.225 53.6162C169.225 64.7569 165.333 75.6155 158.226 84.1614C157.436 85.0921 157.351 86.4459 158 87.4613L166.038 100.153L145.731 95.6687C145.082 95.5277 144.377 95.6123 143.785 95.9225C132.532 101.902 118.965 103.058 106.894 99.2788C104.976 78.9436 91.6073 61.88 73.331 54.6034C73.331 54.2649 73.3027 53.9265 73.3027 53.588C73.3027 27.1607 94.8226 5.64084 121.25 5.64084L121.278 5.66905ZM5.64084 104.384C5.64084 77.9564 27.1607 56.4366 53.588 56.4366C80.0154 56.4366 101.535 77.9564 101.535 104.384C101.535 130.811 80.0154 152.331 53.588 152.331C45.7472 152.331 37.9629 150.385 31.0528 146.69C30.6298 146.464 30.1785 146.352 29.7272 146.352C29.5298 146.352 29.3042 146.352 29.1067 146.408L8.82792 150.893L16.8661 138.201C17.5148 137.157 17.4302 135.831 16.6687 134.901C9.56123 126.327 5.66905 115.468 5.66905 104.327L5.64084 104.384Z" fill="#11B0AC"/>
<path d="M53.588 129.768C55.9245 129.768 57.8186 127.874 57.8186 125.537C57.8186 123.201 55.9245 121.306 53.588 121.306C51.2515 121.306 49.3574 123.201 49.3574 125.537C49.3574 127.874 51.2515 129.768 53.588 129.768Z" fill="black"/>
<path d="M53.588 81.8205C58.2417 81.8205 62.0493 85.6281 62.0493 90.2818C62.0493 94.9355 58.2417 98.7431 53.588 98.7431C52.0368 98.7431 50.7676 100.012 50.7676 101.563V115.666H56.4084V104.102C62.839 102.804 67.6901 97.1072 67.6901 90.2818C67.6901 82.4974 61.3724 76.1797 53.588 76.1797C45.8036 76.1797 39.4859 82.4974 39.4859 90.2818H45.1267C45.1267 85.6281 48.9343 81.8205 53.588 81.8205Z" fill="black"/>
<path d="M98.7148 33.8733H143.841V39.5141H98.7148V33.8733Z" fill="black"/>
<path d="M98.7148 50.7959H143.841V56.4367H98.7148V50.7959Z" fill="black"/>
<path d="M109.996 67.7183H143.841V73.3591H109.996V67.7183Z" fill="black"/>
</svg>
