<svg width="310" height="542" viewBox="0 0 310 542" fill="none" xmlns="http://www.w3.org/2000/svg">
<path d="M78.4083 0.660215C75.6247 1.32521 73.0605 -0.0472912 70.5575 0.001262C68.5771 0.0377015 66.3086 0.754328 64.2318 0.878837C63.4167 0.930473 62.5923 0.714889 61.836 0.878837C58.8298 1.52868 55.6082 4.16139 53.7658 5.93177C52.8506 6.80934 51.3911 7.41667 50.933 7.90557C50.3993 8.47341 50.1176 9.54833 49.4052 10.3227C48.7125 11.0697 47.7997 11.7833 47.4451 12.2996C45.8124 14.6559 44.5061 20.0004 44.3894 22.6182C44.3177 24.2458 45.101 25.9494 45.4804 28.1083C45.9303 30.656 45.9596 33.4072 46.7889 35.1349C47.4451 36.4983 49.033 36.9933 48.9706 38.4296C47.1142 38.8699 46.3506 40.1089 46.1351 41.7244C44.7371 52.14 56.3408 56.6582 59.2174 63.6816C57.4661 66.3812 55.4975 68.865 53.7659 71.5858C44.0137 78.0872 34.3508 84.6764 24.3264 90.908C22.6006 93.3252 21.5018 95.8667 20.1862 99.0339C19.4721 100.75 18.9917 102.684 18.2225 104.302C17.1824 106.489 15.4943 108.25 14.7323 110.233C14.2893 111.393 14.4717 112.729 14.0797 113.965C13.7169 115.11 13.0255 116.51 12.5529 117.7C11.2843 120.885 10.1465 123.615 9.06403 126.482C8.35629 128.361 8.14215 130.384 7.53607 132.191C7.34311 132.777 6.6676 133.184 6.44751 133.73C6.08865 134.623 6.32687 135.573 6.01328 136.363C5.32272 138.091 3.48621 139.815 2.52432 141.853C1.71011 143.572 0.790466 145.637 0.341095 147.121C-0.723358 150.647 0.920105 152.566 2.30121 154.807C2.84094 160.892 1.61969 166.759 2.30121 171.496C2.43085 172.38 3.18774 173.242 3.39282 174.132C4.17682 177.484 4.41205 179.804 5.14185 182.473C6.4838 185.285 7.67191 188.249 8.84619 191.258C9.99841 194.204 11.5179 196.867 12.7735 199.821C14.127 203.016 14.7406 206.52 15.6064 209.924C16.5547 213.644 18.4994 217.191 18.6607 221.342C18.756 223.902 17.902 226.337 18.2226 228.806C18.3733 229.969 19.066 231.09 19.3121 232.322C19.9906 235.717 19.3721 237.715 21.2782 239.565C21.6045 240.114 22.7188 239.868 23.0215 240.448C24.7895 242.067 25.1807 244.815 26.5104 246.813C27.0252 247.584 28.0348 247.818 28.2539 248.787C24.7764 256.782 20.9118 263.344 17.7882 271.406C16.9765 273.495 15.4617 275.639 15.6065 278.211C17.7717 279.945 20.4537 282.201 23.4563 283.483C27.081 285.028 32.4631 285.438 34.7976 288.092C34.8694 289.267 35.1381 290.239 35.667 290.949C37.3689 291.387 37.5258 288.648 39.1559 288.314C40.1631 290.315 38.6517 291.642 39.1559 293.145C40.1149 295.993 45.3459 295.796 47.6642 297.755C47.862 300.615 48.7419 303.727 49.1861 305.66C49.6478 307.653 49.2932 309.659 49.623 311.81C49.782 312.829 50.3404 313.868 50.4957 314.885C50.9083 317.565 50.5488 320.279 50.933 323.003C51.1097 324.264 51.6302 325.493 51.8033 326.737C52.2004 329.58 51.8588 332.474 52.2405 335.301C52.4278 336.684 53.0367 338.051 53.1133 339.473C53.1721 340.553 52.853 341.658 52.8943 342.766C53.0285 346.374 53.9672 350.45 54.4208 353.085C55.8743 361.531 53.9518 370.235 54.8577 377.9C55.0827 379.812 55.8106 381.605 55.9463 383.608C56.2147 387.492 56.6588 391.124 57.037 393.93C57.5198 397.494 57.1039 401.031 57.4752 404.469C57.6036 405.667 58.3668 406.967 58.3457 408.202C58.334 408.978 57.6977 409.978 57.4752 411.275C57.0545 413.695 57.4504 417.002 57.037 419.181C56.8096 420.387 56.0793 421.269 55.9463 422.255C55.6351 424.597 56.0934 427.348 55.9463 429.942C55.8296 432.019 55.1252 433.945 54.8577 435.87C54.3855 439.246 54.1877 444.515 54.4208 447.728C54.608 450.323 55.1581 450.905 53.7658 452.34C52.4441 453.702 51.2532 454.809 50.278 456.29C46.314 458.447 43.883 462.15 41.7745 466.172C41.9099 469.554 39.6612 471.376 40.4658 474.737C42.6614 475.495 44.8018 477.937 47.6642 478.468C51.7008 479.22 56.1053 477.918 60.7466 478.468C62.9787 476.862 65.828 476.825 67.9401 475.395C70.0299 473.978 70.952 471.28 73.1748 470.126C75.6452 469.611 78.319 469.305 81.0224 469.025C83.7162 466.978 86.9193 465.447 89.5283 463.319C89.8745 461.015 89.1031 458.772 88.8746 457.388C88.7603 456.7 89.2175 455.742 89.0926 455.195C88.9358 454.508 88.3233 454.164 88.2184 453.436C88.0465 452.195 87.7648 450.073 88.004 448.607C88.1596 447.645 88.9678 446.873 89.3103 445.972C89.8097 444.665 90.4625 443.019 90.619 442.018C90.9088 440.16 90.063 438.931 89.7463 436.968C88.8344 431.309 90.6049 423.168 90.619 416.329C90.6251 413.335 89.8911 410.342 89.7463 407.324C89.4481 400.981 89.5235 395.185 90.4022 389.098C90.8395 386.069 90.6097 382.945 91.056 379.875C91.2197 378.753 91.758 377.734 91.9278 376.582C92.3729 373.533 91.7888 370.374 92.3635 367.139C92.5309 366.207 93.0975 365.263 93.2353 364.287C93.6322 361.496 93.3294 358.581 93.4521 355.72C93.9313 344.826 94.1023 333.421 93.6723 323.883C93.6204 322.768 93.3249 321.707 93.4521 320.589C93.8043 317.542 95.7502 314.613 96.0717 312.028C96.4462 309.008 95.9197 305.478 96.0717 302.148C96.3392 296.234 98.0165 290.625 97.16 284.361C96.6724 280.781 93.2718 277.425 94.7618 273.602C97.9658 281.385 99.1192 290.036 101.958 298.413C102.45 299.867 102.745 301.374 103.266 303.026C103.506 303.78 104.133 304.432 104.358 305.22C105.177 308.114 106.129 311.986 106.757 314.445C107.004 315.416 106.934 316.561 107.193 317.517C107.385 318.228 107.898 318.851 108.063 319.491C108.525 321.266 108.163 323.056 108.5 324.981C108.668 325.945 109.215 326.881 109.372 327.836C109.881 330.914 109.287 334.076 109.809 337.275C110.003 338.459 110.535 339.591 110.68 340.792C111.015 343.533 110.609 346.317 111.117 348.914C111.835 352.585 112.601 356.044 113.298 359.675C113.708 361.809 113.298 364.079 113.733 366.263C113.922 367.204 114.444 368.026 114.605 368.899C114.932 370.647 114.62 372.276 114.822 374.169C114.967 375.5 115.663 376.917 115.913 378.34C116.25 380.225 115.993 382.187 116.351 383.829C116.561 384.803 117.3 385.701 117.439 386.681C117.555 387.49 117.261 388.308 117.439 389.098C117.633 389.933 118.311 390.631 118.529 391.514C118.822 392.7 118.61 394.002 118.967 395.248C119.151 395.89 119.666 396.55 119.84 397.225C120.559 400.035 120.735 403.083 121.583 405.788C121.833 406.582 122.481 407.197 122.673 407.983C122.844 408.677 122.541 409.462 122.673 410.178C122.823 410.983 123.521 411.694 123.765 412.593C124.091 413.809 123.905 415.252 124.2 416.328C124.423 417.123 125.063 417.721 125.292 418.522C125.445 419.06 125.181 419.778 125.292 420.28C125.459 421.043 126.175 421.727 126.381 422.476C127.074 424.974 127.299 427.67 127.907 430.16C128.447 432.366 129.842 435.708 130.305 437.627C130.553 438.652 130.293 439.837 130.523 440.92C130.708 441.776 131.377 442.56 131.612 443.556C131.929 444.872 131.72 446.432 132.051 447.727C132.28 448.626 132.932 449.288 133.142 450.14C133.672 452.312 133.748 454.605 134.452 456.512C134.807 457.487 135.985 458.154 136.195 459.365C136.408 460.597 135.851 463.289 135.758 465.514C135.662 467.813 135.845 469.728 135.54 471.004C135.063 473.004 133.947 476.138 133.142 477.591C133.029 480.438 131.951 482.915 133.797 484.617C134.832 485.571 136.767 485.705 138.593 486.375C140.227 486.972 142.006 488.035 143.609 488.132C146.582 488.31 150.48 487.411 153.862 487.033C157.597 486.613 161.188 486.085 164.333 485.935C163.686 481.178 165.004 476.249 163.897 471.662C163.686 470.789 162.949 469.937 162.808 469.025C162.553 467.418 163.031 465.373 163.025 463.318C163.018 461.532 162.322 459.621 162.587 458.268C162.864 456.868 164.578 454.914 165.426 453.435C166.46 451.634 167.32 450.195 167.825 448.167C165.973 445.396 167.257 441.92 166.517 438.944C166.343 438.252 165.787 437.662 165.642 436.968C164.698 432.431 164.872 427.468 163.897 422.917C163.715 422.062 163.203 421.371 163.025 420.498C162.695 418.886 162.936 417.094 162.587 415.448C162.384 414.481 161.678 413.565 161.497 412.594C161.267 411.361 161.525 410.083 161.28 408.862C161.101 407.969 160.566 407.134 160.407 406.226C159.472 400.918 159.333 395.147 158.66 389.538C157.241 387.707 157.883 384.686 157.35 382.072C156.015 375.482 154.112 367.447 153.425 360.774C151.649 355.664 151.142 350.101 149.499 344.964C149.246 344.175 148.585 343.589 148.408 342.767C148.226 341.92 148.57 340.937 148.408 340.132C148.082 338.511 146.528 337.269 146.882 335.522C144.604 331.341 143.008 324.908 142.955 318.396C142.891 310.68 144.375 302.012 142.955 295.12C142.691 293.844 142.01 293.167 142.083 292.046C142.152 290.935 142.826 290.306 142.955 289.41C143.356 286.592 142.132 285.411 141.863 283.483C141.515 280.975 142.51 278.512 142.955 275.579C143.45 272.302 143.665 267.483 142.955 264.158C142.646 262.712 141.871 261.613 141.863 260.204C141.857 258.458 142.519 256.733 142.519 254.936C142.519 251.331 141.807 247.623 141.647 243.955C141.27 235.376 142.6 226.519 141.647 217.828C140.545 215.131 140.024 211.849 139.028 209.046C138.187 207.546 136.969 206.058 135.759 204.433C134.684 202.988 133.054 200.978 132.705 199.38C131.712 194.829 133.736 190.635 132.487 186.208C136.149 184.286 140.873 181.732 138.158 175.886C140.35 169.115 138.317 159.35 137.72 152.83C137.525 150.689 136.597 148.123 137.94 146.243C139.054 147.273 138.835 148.922 139.028 150.197C141.916 168.973 146.301 187.815 149.062 206.629C149.528 209.796 149.73 213.309 150.589 216.291C150.787 216.978 151.343 217.558 151.463 218.265C151.634 219.279 151.367 220.361 151.463 221.341C151.837 225.283 153.49 230.178 154.08 233.418C154.305 234.66 154.105 235.893 154.298 237.15C154.545 238.76 155.37 240.345 155.606 241.978C155.876 243.837 155.658 245.701 156.044 247.472C156.649 250.253 157.558 253.842 158.006 256.472C158.674 260.405 158.881 264.917 159.753 268.549C159.983 269.515 160.665 270.259 160.843 271.185C161.433 274.27 161.796 277.589 162.15 280.847C162.476 283.811 162.791 287.425 163.677 290.291C163.881 290.944 164.415 291.409 164.552 292.046C165.386 295.91 165.297 300.166 166.079 304.122C166.22 304.838 166.784 305.559 166.952 306.32C167.316 307.966 167.025 309.786 167.386 311.37C167.539 312.028 168.086 312.689 168.263 313.346C169.324 317.351 169.159 321.61 170.005 325.64C170.187 326.495 170.706 327.267 170.878 328.055C171.228 329.65 171.038 331.238 171.316 332.886C171.848 336.054 172.939 340.431 173.495 343.206C173.778 344.614 173.648 346.001 173.932 347.379C174.66 350.912 175.68 354.383 176.33 357.919C176.598 359.372 176.285 360.877 176.548 362.311C176.752 363.422 177.459 364.513 177.638 365.603C178.25 369.303 178.395 373.122 179.164 376.803C179.862 380.132 180.916 383.375 181.564 386.683C181.861 388.201 181.682 389.96 182.001 391.515C182.212 392.547 182.762 393.397 182.871 394.369C183.004 395.555 182.682 396.729 182.871 397.882C183.032 398.861 183.728 399.816 183.961 400.737C184.328 402.182 184.226 404.038 184.616 405.569C184.838 406.435 185.319 407.128 185.49 407.984C186.251 411.84 186.144 416.008 187.014 419.842C187.423 421.631 188.63 423.394 188.324 425.768C187.656 426.93 186.82 426.208 186.58 427.528C186.345 428.804 187.852 429.937 188.105 430.823C188.429 431.949 188.107 433.14 188.324 434.115C188.613 435.413 189.288 436.253 189.414 437.409C189.52 438.386 189.256 439.402 189.414 440.483C189.58 441.65 190.291 442.717 190.505 443.776C190.83 445.386 190.572 447.089 190.938 448.608C191.125 449.38 191.658 450.04 191.812 450.804C192.925 456.323 191.739 462.157 190.068 465.734C189.46 467.034 188.948 468.552 188.324 469.688C186.932 472.215 184.386 474.815 182.871 477.811C182.478 478.592 182.188 479.396 181.783 480.227C181.361 481.091 181.029 481.788 180.473 482.641C179.51 484.12 178.051 485.923 177.637 487.254C176.58 490.677 178.098 493.723 178.728 497.136C178.942 498.29 178.759 499.755 178.945 501.09C179.246 503.207 180.223 505.038 180.037 506.358C179.694 508.797 176.384 510.204 176.548 513.165C177.637 513.531 178.797 513.828 180.037 514.043C181.614 515.893 183.351 517.585 184.835 519.533C187.672 520.859 190.782 521.566 193.775 523.046C197.133 524.708 199.989 527.712 203.588 529.195C207.353 530.747 212.096 531.558 216.671 532.927C220.968 534.215 225.384 535.916 229.755 536.661C234.398 537.452 239.278 538.284 244.146 539.075C248.945 539.858 253.907 540.92 258.755 541.271C272.523 542.265 286.576 540.529 301.279 541.271C305.316 539.924 309.047 538.261 310 533.805C304.061 530.492 296.478 528.829 289.938 526.119C288.442 523.456 284.189 523.565 282.523 521.072C280.132 520.771 278.669 519.536 277.727 517.775C276.16 517.372 275.079 516.362 273.583 515.8C272.728 515.476 271.652 515.564 270.749 515.14C269.028 514.335 267.869 512.179 266.389 510.749C264.505 508.93 261.414 506.798 258.754 506.139C257.059 505.716 255.28 505.937 253.74 505.262C253.024 504.949 252.336 504.245 251.559 503.724C250.803 503.215 249.785 502.872 249.161 502.405C248.295 501.758 247.843 500.685 246.98 499.992C243.634 497.297 240.429 495.201 236.077 493.84C234.186 494.058 233.286 495.277 231.498 495.597C230.552 490.492 229.737 483.902 228.445 479.788C227.477 476.701 226.371 475.942 223.648 473.859C221.997 472.595 220.415 470.862 219.287 470.128C218.746 469.773 217.954 469.799 217.542 469.467C216.919 468.964 216.63 467.993 216.016 467.492C214.341 466.118 212.333 465.264 210.782 463.977C208.887 462.407 207.753 460.16 205.985 458.709C205.242 455.581 202.609 453.42 203.369 449.486C202.884 448.875 202.715 448.315 202.496 447.508C201.415 443.504 201.331 438.577 200.532 434.116C199.765 432.455 199.142 430.987 199.227 429.063C199.277 427.861 200.172 426.905 199.88 425.769C199.56 424.54 197.489 424.158 197.043 422.918C196.51 421.419 196.947 419.578 196.609 418.084C196.027 415.512 194.837 413.063 195.301 409.96C193.197 405.591 193.584 400.544 192.683 395.908C192.478 394.848 191.769 393.893 191.593 392.834C191.394 391.625 191.613 390.283 191.375 389.1C189.297 378.724 186.99 367.184 185.053 357.043C184.822 355.836 185.027 354.506 184.834 353.31C184.638 352.113 183.948 350.873 183.743 349.578C183.47 347.845 183.726 346.042 183.307 344.526C183.12 343.849 182.578 343.226 182.434 342.549C182.149 341.204 182.461 339.742 182.217 338.376C181.602 334.948 180.638 331.423 180.037 327.838C179.788 326.362 179.979 324.682 179.599 323.225C179.429 322.563 178.888 321.942 178.728 321.25C177.836 317.371 177.803 313.292 176.983 309.393C176.757 308.313 176.088 307.366 175.892 306.321C175.658 305.052 175.898 303.665 175.673 302.369C175.482 301.235 174.803 300.178 174.585 299.072C173.401 293.077 172.927 286.882 171.968 280.848C171.302 276.67 169.893 272.677 169.131 268.551C168.45 264.858 168.213 260.889 167.604 257.136C167.078 253.874 165.977 250.288 165.425 247.911C165.055 246.338 165.115 244.519 164.769 242.861C162.38 231.41 160.887 219.13 158.659 207.29C157.815 202.799 156.553 197.952 156.261 193.677C156.165 192.28 155.221 190.865 154.951 189.505C154.111 185.257 154.024 180.434 152.986 176.329C152.787 175.54 152.266 174.881 152.117 174.134C151.601 171.574 151.431 168.735 151.026 166.008C150.63 163.351 149.77 160.627 149.498 158.104C149.391 157.117 149.665 156.012 149.498 155.031C149.24 153.537 147.551 152.377 148.625 150.64C150.059 151.609 150.444 153.64 153.205 153.273C157.096 161.071 165.352 164.472 171.314 170.181C173.733 170.751 176.879 172.543 179.818 171.28C180.419 171.022 181.789 169.919 182.433 169.081C183.455 167.766 185.853 162.887 186.141 161.399C186.908 157.436 184.326 154.059 185.053 150.199C185.225 149.273 185.975 148.405 186.141 147.564C187.476 140.792 183.03 136.729 181.562 133.073C184.415 129.211 187.354 125.436 190.067 121.434C189.517 120.304 188.338 119.806 187.447 119.02C187.447 118.433 187.532 117.765 187.232 117.48C185.738 116.718 184.899 115.294 183.743 114.188C178.67 106.12 170.701 100.967 164.769 93.7678C164.079 93.4337 163.238 93.2576 162.586 92.8871C161.688 89.1066 157.789 88.3474 156.26 85.2016C153.121 83.6044 151.914 80.0606 148.84 78.3966C147.915 78.266 148.679 79.842 147.753 79.7144C147.11 79.0403 147.114 77.7194 146.442 77.0787C144.277 76.4775 143.92 74.0543 142.081 73.1282C137.602 72.952 135.146 70.7414 132.704 68.5156C133.222 65.6157 131.681 62.3179 130.96 58.4129C130.413 55.4583 130.68 52.112 130.089 49.1909C129.988 48.6929 129.442 48.0218 129.215 47.214C128.519 44.7331 128.634 41.9729 127.471 41.068C125.583 39.5953 121.774 40.6429 120.493 42.6045C119.435 47.3294 120.804 51.1191 121.582 55.1188C122.493 59.7951 123.558 64.1345 123.981 67.8538C120.769 67.4226 117.85 64.6988 114.605 63.9033C111.261 63.0834 108.13 63.3749 105.448 61.4892C104.979 60.9335 104.862 60.0255 104.357 59.5123C102.159 59.3089 101.487 57.572 99.9949 56.658C99.8924 57.9455 100.209 59.655 98.9053 59.731C98.7579 58.2855 99.1267 56.3694 98.9053 55.5617C97.1642 54.2378 95.4255 52.9169 94.7611 50.5088C98.1892 46.9438 101.557 36.8471 98.9053 30.5276C98.0547 28.4992 95.5729 27.1661 93.4515 26.574C95.1441 12.855 87.1188 5.34826 78.4084 0.662544L78.4083 0.660215ZM40.6846 144.491C39.3984 152.763 36.0178 161.55 36.3227 170.84C36.4016 173.327 37.1779 175.136 37.8458 177.866C38.7176 181.404 40.9192 184.252 41.7744 187.529C42.1782 188.291 43.407 188.227 43.9559 188.847C44.2149 190.711 43.6956 192.053 43.7354 193.678C43.8075 196.426 45.4329 198.895 45.2622 201.145C45.1893 202.12 44.4176 202.618 44.1739 203.556C43.996 204.227 44.334 205.138 44.1739 205.973C43.9842 206.957 43.0723 207.856 42.8651 208.827C42.6046 210.021 42.9321 211.424 42.6459 212.562C42.2961 213.95 40.9804 215.229 41.5564 217.831C34.9458 214.679 33.8385 205.985 29.3425 200.704C28.5874 196.763 25.9772 193.007 25.6367 188.188C25.2326 182.452 26.175 175.714 25.2019 169.962C24.9676 168.581 24.2562 167.269 24.1111 166.009C23.8946 164.147 24.2643 162.101 23.8922 160.519C23.3539 158.235 23.2819 156.963 25.42 154.81C28.7358 151.473 33.092 148.773 35.8857 145.369C36.7988 144.255 36.6914 142.703 38.2839 142.293C39.1898 142.108 39.8329 143.908 40.6846 144.491ZM216.016 478.693C217.239 478.373 218.932 478.607 219.286 479.791C221.481 479.41 221.775 480.946 223.211 481.329C223.007 486.803 225.137 489.931 224.957 495.384C219.398 496.646 212.875 494.172 207.729 494.286C207.87 489.676 205.322 486.608 206.204 481.988C205.619 480.673 204.369 478.184 205.113 476.94C206.014 476.763 206.231 477.275 206.204 478.036C207.098 477.788 206.254 477.064 206.42 476.276C209.812 475.293 213.199 476.144 215.362 477.598C216.15 477.386 215.583 478.544 216.016 478.693ZM23.6725 144.062C24.9647 145.286 24.2473 147.318 24.544 149.113C24.7386 150.287 25.4523 151.359 25.6327 152.624C26.066 155.619 25.3794 158.845 26.0696 161.407C20.9068 164.112 16.4081 167.487 10.5862 169.534C9.24817 168.05 9.92877 165.93 9.71677 164.043C9.41281 161.381 7.7554 158.672 8.40686 155.48C9.31393 154.27 10.7677 153.609 11.2424 151.965C14.8716 150.817 15.6527 145.602 19.309 144.5C20.6964 144.082 22.0186 144.804 23.6725 144.062Z" fill="url(#paint0_linear_23_735)"/>
<path d="M7.00002 141H26.4131V175.739H7.00002V141Z" fill="#14B3AF"/>
<defs>
<linearGradient id="paint0_linear_23_735" x1="-41.9906" y1="79.696" x2="199.141" y2="502.698" gradientUnits="userSpaceOnUse">
<stop offset="0.222945" stop-color="#13B2AE"/>
<stop offset="1" stop-color="#04D9D5"/>
</linearGradient>
</defs>
</svg>
