<svg width="147" height="147" viewBox="0 0 147 147" fill="none" xmlns="http://www.w3.org/2000/svg">
<path d="M130.922 4.59375H25.2656C22.2198 4.59375 19.2987 5.80371 17.1449 7.95745C14.9912 10.1112 13.7813 13.0323 13.7812 16.0781V27.5625H137.812V130.922C137.807 132.748 137.079 134.497 135.788 135.788C134.497 137.079 132.748 137.807 130.922 137.812H25.2656C23.4398 137.807 21.6903 137.079 20.3992 135.788C19.1082 134.497 18.3805 132.748 18.375 130.922V68.9062H13.7812V130.922C13.7812 133.968 14.9912 136.889 17.1449 139.043C19.2987 141.196 22.2198 142.406 25.2656 142.406H130.922C133.968 142.406 136.889 141.196 139.043 139.043C141.196 136.889 142.406 133.968 142.406 130.922V16.0781C142.406 13.0323 141.196 10.1112 139.043 7.95745C136.889 5.80371 133.968 4.59375 130.922 4.59375ZM137.812 22.9688H18.375V16.0781C18.3805 14.2523 19.1082 12.5028 20.3992 11.2117C21.6903 9.92068 23.4398 9.19295 25.2656 9.1875H130.922C132.748 9.19295 134.497 9.92068 135.788 11.2117C137.079 12.5028 137.807 14.2523 137.812 16.0781V22.9688Z" fill="#11B0AC"/>
<path d="M27.5625 13.7812H32.1562V18.375H27.5625V13.7812Z" fill="#11B0AC"/>
<path d="M36.75 13.7812H41.3438V18.375H36.75V13.7812Z" fill="#11B0AC"/>
<path d="M45.9375 13.7812H50.5312V18.375H45.9375V13.7812Z" fill="#11B0AC"/>
<path d="M22.9688 84.9844V126.328C22.9688 128.156 23.6947 129.908 24.987 131.201C26.2792 132.493 28.0319 133.219 29.8594 133.219H126.328C128.156 133.219 129.908 132.493 131.201 131.201C132.493 129.908 133.219 128.156 133.219 126.328V84.9844C133.219 83.1569 132.493 81.4042 131.201 80.112C129.908 78.8197 128.156 78.0938 126.328 78.0938H29.8594C28.0319 78.0938 26.2792 78.8197 24.987 80.112C23.6947 81.4042 22.9688 83.1569 22.9688 84.9844ZM128.625 84.9844V126.328C128.625 126.937 128.383 127.522 127.952 127.952C127.522 128.383 126.937 128.625 126.328 128.625H29.8594C29.2502 128.625 28.666 128.383 28.2352 127.952C27.8045 127.522 27.5625 126.937 27.5625 126.328V84.9844C27.5625 84.3752 27.8045 83.791 28.2352 83.3602C28.666 82.9295 29.2502 82.6875 29.8594 82.6875H126.328C126.937 82.6875 127.522 82.9295 127.952 83.3602C128.383 83.791 128.625 84.3752 128.625 84.9844Z" fill="#11B0AC"/>
<path d="M39.0469 124.031H119.438V119.438H41.3438V106.178L51.3811 114.329C51.621 114.524 51.8977 114.668 52.1946 114.754C52.4916 114.839 52.8027 114.863 53.1093 114.826C53.416 114.788 53.7119 114.689 53.9793 114.534C54.2467 114.379 54.4801 114.172 54.6656 113.925L60.0495 106.747L67.5718 112.12C67.8425 112.313 68.1519 112.445 68.4787 112.507C68.8055 112.569 69.1418 112.559 69.4644 112.478L87.8394 107.884C88.0252 107.839 88.2043 107.769 88.3723 107.678L94.7461 104.246L101.481 113.863C101.825 114.355 102.347 114.692 102.937 114.804C103.527 114.915 104.137 114.791 104.636 114.458L118.418 105.27L115.868 101.448L103.957 109.389L98.8207 102.052L118.232 91.5994L116.054 87.5569L96.1679 98.2626L89.1647 88.262C88.9847 88.0046 88.7539 87.7869 88.4865 87.6223C88.219 87.4576 87.9207 87.3496 87.6098 87.3048C87.299 87.26 86.9823 87.2795 86.6792 87.362C86.3762 87.4444 86.0933 87.5882 85.848 87.7843L75.5121 96.053L67.6361 92.1047C67.1536 91.8656 66.6025 91.8036 66.079 91.9296C65.5554 92.0555 65.0928 92.3614 64.7719 92.7938L59.0664 100.399L54.1626 96.896L51.4936 100.635L56.3171 104.081L52.4308 109.262L41.3438 100.261V87.2812H36.75V121.734C36.75 122.344 36.992 122.928 37.4227 123.359C37.8535 123.789 38.4377 124.031 39.0469 124.031ZM67.2984 97.0843L74.7702 100.833C75.1627 101.029 75.6032 101.109 76.0396 101.062C76.476 101.016 76.8899 100.845 77.2324 100.571L86.8035 92.9132L92.0863 100.468L86.4452 103.497L69.3794 107.765L62.8057 103.07L67.2984 97.0843Z" fill="black"/>
<path d="M13.7812 41.3438H45.9375V45.9375H13.7812V41.3438Z" fill="#11B0AC"/>
<path d="M13.7812 50.5312H45.9375V55.125H13.7812V50.5312Z" fill="#11B0AC"/>
<path d="M42.2051 72.997C42.5429 73.2675 42.9503 73.437 43.3804 73.4861C43.8104 73.5351 44.2455 73.4617 44.6356 73.2742C45.0257 73.0867 45.3549 72.7928 45.5852 72.4264C45.8155 72.06 45.9377 71.6359 45.9375 71.2031V64.3125H50.5312C51.7496 64.3125 52.918 63.8285 53.7795 62.967C54.641 62.1055 55.125 60.9371 55.125 59.7188V36.75C55.125 35.5317 54.641 34.3632 53.7795 33.5017C52.918 32.6402 51.7496 32.1562 50.5312 32.1562H9.1875C7.96916 32.1562 6.80072 32.6402 5.93923 33.5017C5.07773 34.3632 4.59375 35.5317 4.59375 36.75V59.7188C4.59375 60.9371 5.07773 62.1055 5.93923 62.967C6.80072 63.8285 7.96916 64.3125 9.1875 64.3125H31.35L42.2051 72.997ZM9.1875 36.75H50.5312V59.7188H43.6406C43.0315 59.7188 42.4472 59.9607 42.0165 60.3915C41.5857 60.8222 41.3438 61.4065 41.3438 62.0156V66.4233L33.5918 60.2218C33.1843 59.8959 32.678 59.7185 32.1562 59.7188H9.1875V36.75Z" fill="#11B0AC"/>
<path d="M64.3125 32.1562H91.875V36.75H64.3125V32.1562Z" fill="#11B0AC"/>
<path d="M64.3125 41.3438H91.875V45.9375H64.3125V41.3438Z" fill="#11B0AC"/>
<path d="M64.3125 50.5312H91.875V55.125H64.3125V50.5312Z" fill="#11B0AC"/>
<path d="M64.3125 59.7188H91.875V64.3125H64.3125V59.7188Z" fill="#11B0AC"/>
<path d="M98.7656 32.1562H126.328V36.75H98.7656V32.1562Z" fill="#11B0AC"/>
<path d="M98.7656 41.3438H126.328V45.9375H98.7656V41.3438Z" fill="#11B0AC"/>
<path d="M98.7656 50.5312H126.328V55.125H98.7656V50.5312Z" fill="#11B0AC"/>
<path d="M98.7656 59.7188H126.328V64.3125H98.7656V59.7188Z" fill="#11B0AC"/>
</svg>
