<svg width="113" height="152" viewBox="0 0 113 152" fill="none" xmlns="http://www.w3.org/2000/svg">
<path fill-rule="evenodd" clip-rule="evenodd" d="M106.32 151.911H6.67838C2.93849 151.911 0 148.972 0 145.322V6.67838C0 3.02753 2.93849 0 6.67838 0H106.32C109.971 0 112.998 3.02753 112.998 6.67838V145.322C112.998 148.972 109.971 151.911 106.32 151.911ZM6.67838 3.5618C4.89748 3.5618 3.5618 4.98653 3.5618 6.67838V145.322C3.5618 147.013 4.89748 148.349 6.67838 148.349H106.32C108.012 148.349 109.436 147.013 109.436 145.322V6.67838C109.436 4.98653 108.012 3.5618 106.32 3.5618H6.67838Z" fill="#11B0AC"/>
<path fill-rule="evenodd" clip-rule="evenodd" d="M95.7235 47.5501H14.7815C12.4663 47.5501 12.4663 43.9883 14.7815 43.9883H95.7235C98.0387 43.9883 98.0387 47.5501 95.7235 47.5501Z" fill="#11B0AC"/>
<path fill-rule="evenodd" clip-rule="evenodd" d="M95.7235 56.6326H14.7815C12.4663 56.6326 12.4663 53.0708 14.7815 53.0708H95.7235C98.0387 53.0708 98.0387 56.6326 95.7235 56.6326Z" fill="#11B0AC"/>
<path fill-rule="evenodd" clip-rule="evenodd" d="M95.7235 65.7151H14.7815C12.4663 65.7151 12.4663 62.1533 14.7815 62.1533H95.7235C98.0387 62.1533 98.0387 65.7151 95.7235 65.7151Z" fill="#11B0AC"/>
<path fill-rule="evenodd" clip-rule="evenodd" d="M95.7235 74.7979H57.5231C55.1189 74.7979 55.1189 71.2361 57.5231 71.2361H95.7235C98.0387 71.2361 98.0387 74.7979 95.7235 74.7979Z" fill="#11B0AC"/>
<path fill-rule="evenodd" clip-rule="evenodd" d="M95.7235 88.3328H14.7815C12.4663 88.3328 12.4663 84.771 14.7815 84.771H95.7235C98.0387 84.771 98.0387 88.3328 95.7235 88.3328Z" fill="#11B0AC"/>
<path fill-rule="evenodd" clip-rule="evenodd" d="M95.7235 97.4153H14.7815C12.4663 97.4153 12.4663 93.8535 14.7815 93.8535H95.7235C98.0387 93.8535 98.0387 97.4153 95.7235 97.4153Z" fill="#11B0AC"/>
<path fill-rule="evenodd" clip-rule="evenodd" d="M95.7235 106.498H14.7815C12.4663 106.498 12.4663 102.936 14.7815 102.936H95.7235C98.0387 102.936 98.0387 106.498 95.7235 106.498Z" fill="#11B0AC"/>
<path fill-rule="evenodd" clip-rule="evenodd" d="M53.0709 115.581H14.7815C12.4663 115.581 12.4663 112.019 14.7815 112.019H53.0709C55.3861 112.019 55.3861 115.581 53.0709 115.581Z" fill="#11B0AC"/>
<path fill-rule="evenodd" clip-rule="evenodd" d="M35.2619 133.211H14.7815C12.4663 133.211 12.4663 129.65 14.7815 129.65H35.2619C37.577 129.65 37.577 133.211 35.2619 133.211Z" fill="#11B0AC"/>
<path fill-rule="evenodd" clip-rule="evenodd" d="M95.7235 35.6181H14.7815C13.802 35.6181 13.0006 34.8167 13.0006 33.8372V20.5695C13.0006 19.59 13.802 18.7886 14.7815 18.7886H95.7235C96.703 18.7886 97.5044 19.59 97.5044 20.5695V33.8372C97.5044 34.8167 96.703 35.6181 95.7235 35.6181ZM16.5624 32.0563H93.9426V22.3504H16.5624V32.0563Z" fill="#11B0AC"/>
<path fill-rule="evenodd" clip-rule="evenodd" d="M66.7838 140.335C65.8043 140.335 65.0029 139.534 65.0029 138.554C64.8248 133.568 66.6057 116.738 79.6063 120.567C80.4077 120.834 80.942 121.547 80.942 122.348C80.2297 133.746 85.4833 131.163 85.1271 126.355C85.0381 125.019 86.4628 123.951 87.7094 124.663C90.0246 125.91 93.4083 126.355 94.655 122.882C95.4564 120.656 98.751 121.903 98.0387 124.129C96.2578 128.848 92.2507 129.739 88.5999 128.759C87.5314 134.814 77.2021 138.376 77.2912 123.684C69.4552 122.437 68.4757 134.547 68.5647 138.465C68.5647 139.534 67.7633 140.335 66.7838 140.335Z" fill="black"/>
</svg>
