<svg width="23" height="26" viewBox="0 0 23 26" fill="none" xmlns="http://www.w3.org/2000/svg">
<path fill-rule="evenodd" clip-rule="evenodd" d="M16.1628 6.56349C16.735 8.28073 6.27723 8.28073 6.8494 6.56349C9.88563 5.64388 13.1263 5.64388 16.1628 6.56349ZM14.0422 1.63069C15.4375 2.49872 16.282 4.04244 16.258 5.68708C13.1535 4.77928 9.8517 4.77995 6.74776 5.689C6.71299 4.03792 7.56224 2.48509 8.96914 1.62376L9.26314 4.37178C9.28827 4.6093 9.50118 4.78131 9.73882 4.75622C9.97655 4.73083 10.1486 4.51812 10.1232 4.28028L9.74423 0.736262C9.72357 0.541931 9.7803 0.365971 9.91113 0.220874C10.0422 0.0750471 10.2105 0 10.4062 0H12.6059C12.8019 0 12.9702 0.0750471 13.101 0.220874C13.2321 0.365971 13.2888 0.541931 13.268 0.736262L12.8889 4.28028C12.8637 4.51807 13.0358 4.73077 13.2733 4.75622C13.5108 4.78131 13.7241 4.60936 13.7492 4.37178L14.0422 1.63069ZM7.47981 24.7042C8.77622 25.0151 10.1884 25.1328 11.5 25.1328C12.8117 25.1328 14.2238 25.0151 15.5202 24.7042V22.9118C15.5194 22.6218 15.285 22.3874 14.9951 22.3863H8.00456C7.7151 22.3874 7.48064 22.6217 7.47981 22.9118V24.7042ZM4.52581 20.4558L4.23571 23.9353C4.88933 25.1321 7.94222 26 11.5 26C15.0579 26 18.111 25.1321 18.7643 23.9353L18.4742 20.4558H4.52581ZM16.694 14.8256C16.9183 14.885 15.8973 14.6304 15.8269 14.614V19.5886H14.4897V14.3046C14.0321 14.4207 13.7259 14.2199 13.5712 13.7001C12.2784 14.5717 10.7214 14.5723 9.42864 13.7005C9.27386 14.2199 8.96774 14.4207 8.51038 14.3046V19.5886H7.17285V14.614C6.88162 14.6813 6.59522 14.7497 6.3057 14.8256V19.5886H4.59815L4.6072 19.4861C4.6275 19.2475 4.45102 19.0376 4.21235 19.0168C3.97362 18.9961 3.76383 19.1729 3.74317 19.4116C3.6101 20.9492 3.48618 22.4874 3.35826 24.0251C2.38556 23.9932 1.46111 23.5283 0.850739 22.7279C1.28291 20.4164 1.64951 17.7774 3.25766 16.2504C3.93579 15.6068 5.75414 14.9794 5.74732 14.9818L5.74004 14.9685C4.70629 14.0478 4.82688 13.1301 6.10148 12.2159C6.42405 11.8018 6.38423 11.2674 5.98173 10.613C5.57818 10.197 5.71594 8.73195 6.26557 7.52401C6.40287 7.68831 6.57711 7.82482 6.77175 7.93833C6.18288 8.55005 6.94115 10.5615 8.16101 10.4978L8.16413 10.4899C9.53251 14.4824 13.4677 14.4824 14.8359 10.4899L14.839 10.4978C16.056 10.5616 16.8134 8.5602 16.2328 7.94255C16.4327 7.82623 16.6124 7.68639 16.7521 7.51683C17.3233 8.72653 17.5046 10.196 17.1002 10.6129C16.6977 11.2673 16.6582 11.8018 16.9807 12.2158C18.2553 13.13 18.3759 14.0477 17.3422 14.9684L17.3224 15.0029C18.2518 15.2867 19.1266 15.666 19.7423 16.2504C21.3505 17.7774 21.7171 20.4163 22.1493 22.7279C21.5388 23.5282 20.6148 23.9932 19.6418 24.0251C19.5138 22.4873 19.3895 20.9485 19.2565 19.4115C19.2359 19.1728 19.0261 18.996 18.7873 19.0167C18.549 19.0375 18.3721 19.2475 18.3928 19.486L18.4015 19.5885H16.6939V14.8256H16.694Z" fill="black"/>
</svg>
