<svg width="45" height="25" viewBox="0 0 45 25" fill="none" xmlns="http://www.w3.org/2000/svg">
<path d="M23.5057 15.9979C24.2274 16.2585 29.2513 18.0732 29.8202 18.2787C30.2918 18.4489 30.794 18.3509 31.1625 18.0645C31.4378 17.9429 31.496 17.8815 32.398 17.211C31.5949 17.3904 31.7842 17.3481 30.9959 17.5241C29.8247 17.7859 28.6574 17.0484 28.3949 15.8727C28.1339 14.7036 28.8718 13.534 30.0463 13.2717L33.4012 12.5226L35.5474 9.52915L34.0312 13.4752C32.2731 13.8678 32.3658 13.8471 30.2788 14.3131C29.6715 14.4488 29.3046 15.0506 29.4362 15.6401C29.4386 15.6509 29.442 15.6611 29.4446 15.6717C29.5926 16.2543 30.177 16.6138 30.7633 16.4826L35.0973 15.5149C35.4606 15.4338 35.7591 15.1763 35.8927 14.8288L37.5668 10.4712L37.1246 13.698L38.7825 12.4658C39.3942 12.0112 39.5214 11.1457 39.0659 10.5343L37.3878 8.28181C36.9233 7.65843 36.0345 7.54165 35.4248 8.02459L27.3745 14.4015C25.4786 13.7167 26.1361 13.9542 23.9498 13.1645C23.6202 13.0454 23.2579 13.0535 22.934 13.1875L15.5065 16.2567C14.7879 16.5536 14.4462 17.3768 14.7431 18.0953C15.0399 18.8137 15.8628 19.1557 16.5817 18.8588L23.5057 15.9979Z" fill="black"/>
<path d="M37.7045 6.86223C38.6051 7.66354 39.9802 7.75799 40.9931 7.00524C42.1494 6.14582 42.3901 4.5118 41.5307 3.35548C40.6713 2.19916 39.0373 1.95845 37.881 2.81787C36.5559 3.80265 36.4657 5.75972 37.7045 6.86223Z" fill="black"/>
<path d="M44.1108 11.9812C43.5572 11.2927 42.5506 11.1833 41.8617 11.7367L32.053 19.6216H18.155C17.2715 19.6216 16.5552 20.3378 16.5552 21.2214C16.5552 22.105 17.2715 22.8212 18.155 22.8212H18.7786V23.9302C18.7786 24.5211 19.2576 25 19.8485 25C20.4394 25 20.9183 24.5211 20.9183 23.9302V22.8212H30.0484V23.9302C30.0484 24.5211 30.5274 25 31.1184 25C31.7092 25 32.1884 24.5211 32.1884 23.9302V22.8212H32.6163C32.9808 22.8212 33.3344 22.6967 33.6186 22.4683L43.8663 14.2304C44.5549 13.6768 44.6644 12.6698 44.1108 11.9812Z" fill="black"/>
<path d="M8.28501 4.97542C9.65894 4.97542 10.7727 3.86164 10.7727 2.48771C10.7727 1.11379 9.65894 0 8.28501 0C6.91109 0 5.7973 1.11379 5.7973 2.48771C5.7973 3.86164 6.91109 4.97542 8.28501 4.97542Z" fill="black"/>
<path d="M12.1013 14.8659C12.2373 14.7491 12.3478 14.5988 12.4171 14.42C12.6424 13.8397 12.3546 13.1867 11.7744 12.9613L8.13998 11.5502L7.35613 7.98063L8.67693 10.5496L9.81589 10.9918L10.2566 8.28278C10.4056 7.36669 9.78373 6.50327 8.86765 6.35425L6.2975 5.93618C5.09233 5.59491 4.13808 6.2971 3.98114 7.26203C3.84013 8.16524 2.7983 14.9182 2.75412 15.5C2.72235 15.9145 2.88149 16.2994 3.15683 16.5693H1.6062C1.01535 16.5694 0.536316 17.0483 0.536316 17.6393V23.9301C0.536316 24.5211 1.01535 25 1.6062 25C2.19714 25 2.67608 24.5211 2.67608 23.9301V22.1708H6.91344V23.9301C6.91344 24.5211 7.39248 25 7.98333 25C8.57427 25 9.05321 24.5211 9.05321 23.9301C9.05321 17.0862 9.07229 17.5498 9.00875 17.3351L10.2961 17.4337L9.33399 23.4332C9.21569 24.1707 9.71771 24.8644 10.4552 24.9828C11.1948 25.1011 11.8868 24.5974 12.0049 23.8616L13.1997 16.4115C13.3125 15.7083 12.8495 14.9991 12.1013 14.8659ZM6.91354 20.7442H2.67618V18.7092H6.91354V20.7442ZM6.14571 14.4032L5.91292 14.3128C5.30538 14.0769 4.94178 13.4826 4.96707 12.8658L5.15444 8.46424L6.06796 12.624C6.14896 12.9927 6.40903 13.2964 6.76089 13.433L10.0241 14.7L6.14571 14.4032Z" fill="black"/>
</svg>
