<svg width="166" height="153" viewBox="0 0 166 153" fill="none" xmlns="http://www.w3.org/2000/svg">
<path fill-rule="evenodd" clip-rule="evenodd" d="M114.095 126.093H15.0298C7.18597 126.093 0.794678 119.774 0.794678 112.018V14.0622C0.794678 6.40198 7.18597 0.0822754 15.0298 0.0822754H114.095C121.939 0.0822754 128.33 6.40198 128.33 14.0622V101.006C128.33 102.251 127.362 103.208 126.103 103.208C124.941 103.208 123.876 102.251 123.876 101.006V14.0622C123.876 8.79581 119.518 4.39117 114.095 4.39117H15.0298C9.60692 4.39117 5.24922 8.79581 5.24922 14.0622V112.018C5.24922 117.38 9.60692 121.785 15.0298 121.785H114.095C114.579 121.785 115.063 121.689 115.547 121.689C116.806 121.497 117.872 122.263 118.065 123.508C118.259 124.657 117.484 125.806 116.322 125.998C115.547 126.093 114.87 126.093 114.095 126.093Z" fill="#11B0AC"/>
<path fill-rule="evenodd" clip-rule="evenodd" d="M126.103 25.4568H3.02195C1.76306 25.4568 0.794678 24.4993 0.794678 23.3503C0.794678 22.1055 1.76306 21.1479 3.02195 21.1479H126.103C127.362 21.1479 128.33 22.1055 128.33 23.3503C128.33 24.4993 127.362 25.4568 126.103 25.4568Z" fill="#11B0AC"/>
<path fill-rule="evenodd" clip-rule="evenodd" d="M26.1662 14.924H17.6444C16.4824 14.924 15.514 13.9665 15.514 12.8174C15.514 11.5726 16.4824 10.6151 17.6444 10.6151H26.1662C27.4251 10.6151 28.3934 11.5726 28.3934 12.8174C28.3934 13.9665 27.4251 14.924 26.1662 14.924Z" fill="#11B0AC"/>
<path fill-rule="evenodd" clip-rule="evenodd" d="M43.3065 14.924H34.8816C33.6227 14.924 32.6543 13.9665 32.6543 12.8174C32.6543 11.5726 33.6227 10.6151 34.8816 10.6151H43.3065C44.5654 10.6151 45.5338 11.5726 45.5338 12.8174C45.5338 13.9665 44.5654 14.924 43.3065 14.924Z" fill="#11B0AC"/>
<path fill-rule="evenodd" clip-rule="evenodd" d="M60.5436 14.924H52.0219C50.8599 14.924 49.8915 13.9665 49.8915 12.8174C49.8915 11.5726 50.8599 10.6151 52.0219 10.6151H60.5436C61.8025 10.6151 62.7709 11.5726 62.7709 12.8174C62.7709 13.9665 61.8025 14.924 60.5436 14.924Z" fill="#11B0AC"/>
<path fill-rule="evenodd" clip-rule="evenodd" d="M87.0772 55.7148H79.5238C78.2649 55.7148 77.2965 54.7573 77.2965 53.6082V38.575C77.2965 37.426 78.2649 36.3727 79.5238 36.3727H87.0772C92.5001 36.3727 96.8578 40.7773 96.8578 46.0437C96.8578 51.4059 92.5001 55.7148 87.0772 55.7148ZM81.6542 51.4059H87.0772C90.0791 51.4059 92.5001 49.0121 92.5001 46.0437C92.5001 43.1712 90.0791 40.7773 87.0772 40.7773H81.6542V51.4059Z" fill="black"/>
<path fill-rule="evenodd" clip-rule="evenodd" d="M89.9823 70.748H79.5238C78.2649 70.748 77.2965 69.7905 77.2965 68.5457V53.6082C77.2965 52.3634 78.2649 51.4059 79.5238 51.4059H89.9823C95.4052 51.4059 99.7629 55.7148 99.7629 61.077C99.7629 66.4391 95.4052 70.748 89.9823 70.748ZM81.6542 66.4391H89.9823C92.9843 66.4391 95.4052 64.0453 95.4052 61.077C95.4052 58.1086 92.9843 55.7148 89.9823 55.7148H81.6542V66.4391Z" fill="black"/>
<path fill-rule="evenodd" clip-rule="evenodd" d="M59.5752 70.7481H58.3163C52.3124 70.7481 47.4705 65.9604 47.4705 60.1195V47.097C47.4705 41.1603 52.3124 36.3727 58.3163 36.3727H59.5752C65.4823 36.3727 70.3242 41.1603 70.3242 47.097V60.1195C70.3242 65.9604 65.4823 70.7481 59.5752 70.7481ZM58.3163 40.7773C54.7333 40.7773 51.925 43.5542 51.925 47.097V60.1195C51.925 63.5666 54.7333 66.4392 58.3163 66.4392H59.5752C63.0614 66.4392 65.9665 63.5666 65.9665 60.1195V47.097C65.9665 43.5542 63.0614 40.7773 59.5752 40.7773H58.3163Z" fill="black"/>
<path fill-rule="evenodd" clip-rule="evenodd" d="M29.265 70.7481C23.8421 70.7481 19.4844 66.3435 19.4844 61.0771C19.4844 59.8323 20.4528 58.8747 21.7117 58.8747C22.9706 58.8747 23.9389 59.8323 23.9389 61.0771C23.9389 63.9497 26.3599 66.3435 29.265 66.3435C32.267 66.3435 34.5911 63.9497 34.5911 61.0771V38.6708C34.5911 37.426 35.5595 36.4685 36.8184 36.4685C38.0773 36.4685 39.0456 37.426 39.0456 38.6708V61.0771C39.0456 66.3435 34.6879 70.7481 29.265 70.7481Z" fill="black"/>
<path fill-rule="evenodd" clip-rule="evenodd" d="M98.6977 84.1535H22.1958C20.9369 84.1535 19.9685 83.196 19.9685 81.9512C19.9685 80.7064 20.9369 79.7489 22.1958 79.7489H98.6977C99.8597 79.7489 100.828 80.7064 100.828 81.9512C100.828 83.196 99.8597 84.1535 98.6977 84.1535Z" fill="#11B0AC"/>
<path fill-rule="evenodd" clip-rule="evenodd" d="M98.6977 97.4631H22.1958C20.9369 97.4631 19.9685 96.5055 19.9685 95.3565C19.9685 94.1117 20.9369 93.1542 22.1958 93.1542H98.6977C99.8597 93.1542 100.828 94.1117 100.828 95.3565C100.828 96.5055 99.8597 97.4631 98.6977 97.4631Z" fill="#11B0AC"/>
<path fill-rule="evenodd" clip-rule="evenodd" d="M98.6977 110.869H22.1958C20.9369 110.869 19.9685 109.911 19.9685 108.666C19.9685 107.517 20.9369 106.464 22.1958 106.464H98.6977C99.8597 106.464 100.828 107.517 100.828 108.666C100.828 109.911 99.8597 110.869 98.6977 110.869Z" fill="#11B0AC"/>
<path fill-rule="evenodd" clip-rule="evenodd" d="M149.344 153C148.763 153 148.182 152.808 147.794 152.33L125.812 130.689L120.099 136.339C119.518 136.913 118.743 137.105 117.968 136.913C117.194 136.626 116.613 136.052 116.419 135.286L107.51 97.6546C107.316 96.9843 107.51 96.2183 108.091 95.6438C108.575 95.165 109.35 94.8778 110.125 95.0693L148.182 103.879C148.956 104.07 149.538 104.645 149.731 105.411C149.925 106.177 149.731 107.038 149.15 107.613L143.437 113.262L165.419 134.903C165.806 135.286 166 135.86 166 136.435C166 137.009 165.806 137.584 165.419 137.967L150.893 152.33C150.409 152.808 149.828 153 149.344 153ZM125.812 125.423C126.393 125.423 126.974 125.615 127.362 126.093L149.344 147.733L160.771 136.435L138.789 114.794C137.917 113.933 137.917 112.496 138.789 111.73L143.243 107.23L112.545 100.144L119.808 130.498L124.263 126.093C124.65 125.615 125.231 125.423 125.812 125.423Z" fill="#11B0AC"/>
</svg>
