<svg width="231" height="568" viewBox="0 0 231 568" fill="none" xmlns="http://www.w3.org/2000/svg">
<path d="M161.546 132.978C161.606 132.978 161.662 132.982 161.713 132.991C163.442 133.313 165.252 134.167 166.149 135.108C166.686 135.666 168.438 137.195 170.045 138.513C171.653 139.868 172.941 141.05 172.944 141.227C172.947 141.367 173.187 141.502 173.461 141.502C173.467 141.502 173.472 141.502 173.477 141.502C173.479 141.502 173.482 141.502 173.484 141.502C173.765 141.502 174.188 141.811 174.439 142.193C174.691 142.577 175.08 142.887 175.292 142.887C175.294 142.887 175.295 142.887 175.296 142.887L175.299 142.887C175.513 142.887 176.223 143.404 176.899 143.993C182.66 149.28 184.021 150.639 184.03 151.1C184.035 151.384 184.429 151.767 184.925 151.935C185.42 152.103 185.813 152.415 185.816 152.593C185.82 152.805 186.431 153.539 187.183 154.271C187.9 155.002 189.334 156.466 190.338 157.512C191.343 158.558 192.417 159.603 192.668 159.847C192.953 160.054 193.491 160.648 193.887 161.137C194.644 162.117 201.128 168.526 202.092 169.289C202.984 169.982 202.797 171.263 201.595 172.882C200.977 173.675 200.015 174.97 199.432 175.762C198.884 176.553 197.507 178.211 196.405 179.474C195.302 180.737 194.101 182.356 193.727 183.073C193.388 183.789 192.874 184.544 192.631 184.691C192.352 184.838 191.94 185.378 191.703 185.879C191.194 186.882 190.061 188.43 187.034 192.142C185.864 193.583 184.802 195.094 184.704 195.521C184.57 195.914 184.122 196.384 183.702 196.534C182.898 196.797 181.304 198.105 178.848 200.386C178.089 201.146 177.151 201.838 176.837 201.95C176.522 202.062 176.075 202.603 175.839 203.175C175.639 203.747 175.087 204.36 174.599 204.582C174.146 204.839 173.765 205.166 173.768 205.308C173.771 205.485 173.076 205.924 172.238 206.259C171.4 206.594 170.461 207.18 170.116 207.576C169.806 207.937 168.691 208.526 167.677 208.864C166.782 209.184 166.275 209.335 165.759 209.335C165.309 209.335 164.853 209.219 164.127 209.001C160.767 207.999 159.207 207.354 158.917 206.863C158.773 206.585 158.424 206.38 158.145 206.38C158.141 206.38 158.138 206.38 158.134 206.38C158.133 206.38 158.131 206.38 158.13 206.38C157.846 206.38 157.137 205.864 156.566 205.239C155.992 204.646 154.278 203.258 152.817 202.221C150.179 200.354 149.454 199.161 150.462 198.503C150.741 198.356 150.762 197.61 150.562 196.265C150.196 193.61 150.195 193.504 150.68 191.223C151.036 189.513 150.988 188.804 150.37 185.835C149.754 182.9 149.737 181.978 150.031 178.849C150.206 176.894 150.337 174.443 150.319 173.414C150.334 172.349 150.59 170.96 150.962 170.137C151.334 169.349 151.625 167.924 151.607 166.931C151.584 165.689 151.848 164.726 152.427 163.721C153.349 162.178 153.468 161.04 152.86 160.448C152.143 159.752 152.738 153.813 153.986 148.964C154.283 147.893 154.6 146.042 154.719 144.868C154.991 142.415 156.171 137.708 156.82 136.666C157.059 136.272 157.362 135.521 157.492 134.95C157.621 134.274 157.932 133.984 158.495 133.973C158.916 133.93 159.65 133.703 160.137 133.41C160.561 133.156 161.145 132.978 161.546 132.978ZM60.9874 131.89C61.3072 131.89 62.2326 132.687 63.0214 133.662L64.497 135.48L64.5672 139.312C64.6057 141.405 64.4982 143.217 64.3595 143.326C64.1856 143.436 63.8515 144.4 63.6256 145.505C63.268 147.108 63.2817 147.853 63.621 149.089C63.8827 149.936 64.0845 151.352 64.1002 152.203C64.1171 153.126 64.3444 154.009 64.6667 154.322C64.9532 154.601 65.2104 155.199 65.2189 155.661C65.2625 156.121 65.5269 157.11 65.8225 157.885C66.1181 158.66 66.5577 161.527 66.8187 164.255C67.0447 166.983 67.4926 170.311 67.7993 171.69C68.5676 175.224 69.1635 180.856 69.5599 189.047C69.737 192.948 70.015 196.598 70.1668 197.198C70.5066 198.47 69.7858 205.191 69.1482 206.871C68.8448 207.586 68.4312 208.055 68.0444 208.062C66.8488 208.085 61.7188 210.31 60.2621 211.437C59.7769 211.837 58.2408 212.469 56.9117 212.884C55.582 213.264 53.8687 213.828 53.101 214.162C52.179 214.534 51.5016 214.737 50.9173 214.737C50.0412 214.737 49.3744 214.281 48.406 213.256C47.6167 212.419 46.3581 210.916 45.6372 209.972C44.9157 208.991 44.232 208.152 44.09 208.084C43.948 208.016 43.4408 207.209 42.9316 206.296C42.4217 205.347 41.7354 204.366 41.3799 204.159C41.0588 203.917 40.5124 202.898 40.2136 201.945C39.8411 200.817 39.3326 199.939 38.7635 199.595C38.2647 199.249 37.8675 198.689 37.859 198.227C37.8512 197.802 37.592 197.097 37.3029 196.676C37.0144 196.291 35.9504 193.898 34.9203 191.433C33.8902 188.968 32.5715 186.117 31.9893 185.064C31.3727 184.046 30.8942 182.884 30.8863 182.458C30.8792 182.068 30.549 181.329 30.1531 180.839C29.7572 180.35 29.4283 179.682 29.4225 179.362C29.416 179.007 28.828 177.634 28.1345 176.263C27.441 174.892 26.853 173.519 26.8478 173.235C26.8432 172.987 26.5522 172.46 26.1595 172.148C25.802 171.835 25.1469 170.64 24.7042 169.513C23.9286 167.504 23.9267 167.398 24.4997 166.039C24.9054 165.144 26.2481 163.557 28.1848 161.747C30.7784 159.32 35.5432 154.44 40.6133 148.951C41.2339 148.265 42.059 147.22 42.3657 146.682C42.7076 146.143 43.3985 145.456 43.8857 145.163C44.3727 144.87 45.7923 143.637 47.0016 142.443C48.2108 141.25 49.3888 140.269 49.5646 140.266C49.7404 140.263 50.5043 139.716 51.231 139.064C51.9584 138.447 53.1703 137.395 53.9686 136.812C54.7663 136.194 55.9795 135.213 56.6717 134.597C57.3639 133.981 58.5087 133.107 59.169 132.669C59.83 132.266 60.6322 131.897 60.9839 131.89L60.9874 131.89ZM120.274 380.281L120.642 386.91C120.815 390.598 121.241 394.672 121.548 396.05C121.854 397.393 122.096 399.092 122.109 399.766C122.156 400.439 122.385 401.393 122.675 401.885C122.966 402.376 123.193 403.295 123.24 403.933C123.252 404.571 123.483 405.632 123.776 406.265C124.547 408.061 124.881 412.846 125.276 428.632C125.455 436.436 125.887 446.578 126.182 451.151C126.512 455.723 126.998 463.061 127.255 467.457C127.511 471.853 127.843 476.531 127.974 477.913C128.314 481.101 127.764 491.368 127.126 493.012C126.892 493.691 126.495 495.047 126.3 495.973C126.072 496.936 125.565 498.081 125.117 498.551C124.668 499.021 124.226 499.845 124.096 500.415C123.965 500.95 123.661 501.666 123.42 501.954C122.525 503.035 122.17 504.746 121.961 508.724C121.574 516.362 121.217 519.918 120.527 522.592C119.772 525.517 119.699 527.293 120.269 529.624C120.609 530.896 120.547 531.358 119.971 532.54C119.598 533.292 119.304 534.54 119.318 535.285C119.332 536.03 119.179 537.275 118.947 538.06C118.75 538.845 118.428 540.448 118.203 541.623C117.991 542.805 117.844 543.31 117.693 543.31C117.639 543.31 117.585 543.246 117.527 543.126C117.344 542.739 117.461 541.46 117.753 540.106C118.046 538.787 118.343 535.8 118.44 533.456C118.538 531.112 118.777 528.8 119.014 528.299C119.251 527.798 119.505 526.303 119.586 524.952C119.702 523.637 119.925 522.355 120.061 522.104C120.439 521.636 120.958 517.296 121.196 512.997C121.353 510.049 120.597 505.272 119.841 504.363C119.662 504.154 118.59 501.334 117.44 498.126C115.439 492.556 115.361 492.132 115.334 488.761C115.299 486.845 115.395 484.43 115.553 483.468C116.504 477.737 116.811 473.401 116.953 463.887C117.216 445.64 116.606 429.645 115.6 428.457C114.629 427.304 115.789 413.867 117.047 411.501C117.252 411.143 117.375 410.182 117.359 409.331C117.344 408.479 117.598 406.984 117.897 406.02C118.397 404.52 118.433 402.674 118.286 392.739C118.205 386.388 118.141 380.995 118.172 380.746C118.203 380.532 118.691 380.31 119.254 380.3L120.274 380.281ZM113.664 0C112.326 0 111.105 0.150074 109.859 0.443873C108.641 0.755774 107.9 0.84462 105.085 0.84462C104.097 0.84462 102.855 0.833702 101.248 0.817648C100.85 0.812668 100.49 0.809875 100.163 0.809875C97.68 0.809875 97.0621 0.970261 95.9852 1.55467C95.2193 1.99489 94.2829 2.72212 93.9039 3.15523C93.525 3.58818 92.6231 4.27937 91.9263 4.64721C91.195 5.05124 90.607 5.59455 90.6122 5.8783C90.618 6.19764 89.4511 7.78114 88.04 9.47544C86.6282 11.1344 85.4606 12.6822 85.4639 12.8596C85.4678 13.0724 84.8804 13.6513 84.1504 14.1264C83.4205 14.6013 82.3824 15.5435 81.8673 16.2274C81.3516 16.8759 80.4223 17.9935 79.8369 18.6786C79.2164 19.3646 78.0826 20.8409 77.294 21.9557C75.9226 23.898 75.8562 24.112 75.5742 27.9149C75.1997 32.4291 73.9168 39.1962 73.1373 40.8077C72.798 41.4884 72.348 41.8872 71.8206 41.897C69.9224 41.9679 68.0971 44.0961 68.1356 46.1892C68.1479 46.8633 67.8613 48.5013 67.4648 49.8928C66.9698 51.6764 66.8506 52.85 67.0473 53.982C67.2836 55.3617 67.1528 55.8965 66.0002 58.2602L64.7127 60.9462L64.8273 67.1903C64.923 72.4057 65.0506 73.6099 65.5591 74.4877C66.7579 76.5592 67.2711 77.6852 67.9065 79.7319C68.5421 81.7785 68.5434 81.8494 67.8629 83.1042C67.4891 83.8211 66.5214 84.7619 65.7563 85.2376C64.7469 85.8243 64.2996 86.365 64.1374 87.1133C63.9753 87.8617 63.6999 88.1862 63.2427 88.1948C62.1526 88.2152 61.1797 88.8721 59.107 90.9336C58.071 91.9823 56.8578 92.9631 56.473 93.0769C56.0536 93.2266 55.5365 93.8041 55.3009 94.3764C55.0657 94.984 54.6522 95.4532 54.3709 95.4585C54.0896 95.4637 53.4644 95.9013 52.9812 96.4072C52.4636 96.9492 51.561 97.6048 50.8974 97.8655C50.2697 98.1613 49.7501 98.5968 49.7552 98.8806C49.7657 99.4483 48.798 100.389 47.8186 100.691C46.9096 100.992 40.1776 107.932 39.5342 109.293C39.2626 109.83 38.814 110.3 38.5327 110.305C38.2514 110.31 37.7362 110.994 37.3293 111.818C35.9761 114.754 35.293 115.867 34.4972 116.591C34.0473 116.99 33.6005 117.566 33.4657 117.888C33.2991 118.388 31.5916 121.189 29.3672 124.566C28.9569 125.212 28.2998 125.828 27.9156 125.977C27.5314 126.126 26.8379 126.672 26.3547 127.178C25.8715 127.683 24.11 129.455 22.4522 131.119C20.7942 132.782 19.4508 134.334 19.4554 134.582C19.4606 134.866 19.0106 135.265 18.4167 135.489C17.8574 135.676 17.3715 136.04 17.3748 136.218C17.3787 136.431 16.8655 137.221 16.2456 137.942C14.7661 139.745 12.5742 142.98 12.5827 143.441C12.586 143.618 12.136 144.017 11.5785 144.311C10.8824 144.715 10.5047 145.219 10.381 146.144C10.254 146.891 9.94663 147.394 9.66532 147.399C9.38402 147.405 8.69308 148.092 8.1103 148.919C5.3362 153.017 4.30276 154.207 3.2869 154.439C2.44622 154.632 2.24045 154.92 2.04897 155.988C1.83279 157.625 1.46939 158.909 0.635881 161.409C-0.900979 165.838 0.412362 172.238 3.87987 177.177C4.38584 177.913 5.33003 179.528 5.91476 180.724C6.53449 181.953 7.14969 182.934 7.29144 182.934H7.29266C7.43421 182.934 7.94199 183.811 8.45368 184.9C8.93099 185.991 9.7671 187.466 10.3069 188.13C10.8819 188.794 11.3208 189.708 11.3292 190.17C11.3435 190.947 12.1654 192.06 12.7278 192.06C12.7305 192.06 12.7331 192.06 12.7357 192.06H12.7365C13.0208 192.06 15.1119 194.998 15.8412 196.438C16.4976 197.704 19.3628 202.406 19.8297 202.929C20.081 203.209 20.5218 204.23 20.8552 205.146C21.1886 206.063 21.8092 207.293 22.2767 207.852C22.7443 208.411 23.4658 209.392 23.9346 210.022C24.3683 210.652 25.162 211.738 25.6315 212.403C26.1362 213.068 26.8232 214.085 27.1501 214.646C27.5115 215.172 28.3405 216.257 28.9877 217.026C29.5998 217.795 30.1422 218.601 30.1455 218.778C30.1494 218.991 30.7295 219.939 31.4146 220.849C32.1003 221.794 32.6785 222.635 32.6805 222.741C32.687 223.096 35.5072 227.267 36.0445 227.789C36.3303 228.032 37.1528 228.762 37.8326 229.388C38.5124 230.015 39.34 231.028 39.6676 231.626C40.068 232.364 40.9237 232.986 42.2716 233.6C43.519 234.177 44.0439 234.392 45.3736 234.392C46.086 234.392 47.0295 234.331 48.439 234.23C51.3543 233.998 53.1776 233.68 54.6096 233.121C57.21 232.097 59.4574 231.415 60.2799 231.415C60.3853 231.415 60.4673 231.426 60.5237 231.449C60.8772 231.549 60.816 232.047 60.2794 233.477C59.8763 234.513 59.3808 236.262 59.1542 237.331C58.9627 238.399 58.5987 239.648 58.3954 240.078C58.1571 240.508 58.0022 241.646 58.0204 242.64C58.0399 243.704 57.782 244.987 57.4095 245.774C57.0364 246.527 56.4073 248.668 56.0192 250.521C55.6311 252.373 55.101 254.158 54.86 254.446C54.3443 255.095 52.5756 264.142 52.1633 268.515C51.9491 270.258 51.671 272.357 51.5095 273.141C51.348 273.925 51.0198 277.125 50.7957 280.253C50.5717 283.38 50.2083 286.581 50.0468 287.365C49.8501 288.149 49.6612 291.276 49.6111 294.293C49.5609 297.311 49.4013 300.118 49.2326 300.511C48.795 301.584 46.0463 310.899 45.423 313.359C45.1281 314.536 44.7028 316.283 44.4397 317.281C44.2111 318.244 43.4844 320.813 42.7857 322.991C41.0938 328.559 40.9616 329.023 40.9766 329.839C40.9844 330.264 40.6184 331.407 40.1437 332.374C39.6696 333.377 39.303 334.484 39.3095 334.838C39.3355 336.258 36.8974 345.247 36.0157 347.038C35.4042 348.22 33.6649 353.115 33.6733 353.576C33.6779 353.824 33.3764 354.646 33.0032 355.399C32.5624 356.294 32.3364 357.399 32.3618 358.782C32.4015 360.946 32.8039 361.791 34.0828 362.477C34.5093 362.717 36.0735 363.611 37.5673 364.505C39.0259 365.401 40.6238 366.223 41.0478 366.321C41.4724 366.455 42.2173 366.796 42.6797 367.072C43.142 367.347 44.4925 368.103 45.6998 368.719C49.9969 370.945 50.8507 371.462 51.2166 372.236C51.576 373.001 52.446 373.32 54.8965 373.32C55.9405 373.32 57.2715 373.262 58.9722 373.156C65.0165 372.83 70.5132 371.414 72.1365 369.787C72.8638 369.066 73.4585 368.705 73.9225 368.705C74.7149 368.705 75.1259 369.757 75.1645 371.86C75.2172 374.734 75.729 375.789 77.4319 376.573C78.9224 377.291 79.6901 378.873 80.1023 382.166C80.2638 383.299 80.5282 384.288 80.7059 384.391C80.8844 384.53 81.0374 385.201 81.0511 385.946C81.0641 386.656 81.301 388.071 81.5999 389.023C83.0996 394.071 83.147 394.744 83.3059 407.234C83.3943 413.975 83.4223 423.167 83.3993 427.674C83.3465 436.3 83.2612 435.485 85.2909 446.414C85.4458 447.191 85.7446 448.144 85.9629 448.53C86.181 448.917 86.6759 450.966 87.0672 453.124C87.5321 455.457 88.0218 457.223 88.3799 457.571C88.7739 457.954 89.117 459.403 89.4843 462.164C89.7362 464.395 90.1986 466.587 90.4539 467.079C90.7443 467.571 91.4183 469.794 91.9867 472.019C92.5552 474.244 93.1209 476.328 93.2668 476.609C93.4127 476.89 93.7864 478.09 94.1244 479.255C94.9162 482.15 95.9145 484.793 96.4185 485.423C96.6698 485.702 96.97 486.726 97.1276 487.645C97.2506 488.601 97.6999 490.084 98.1031 490.963C98.7255 492.3 98.8499 493.327 98.926 497.478C98.9787 500.352 98.8765 502.448 98.6682 502.594C98.4597 502.739 98.3529 504.587 98.3965 506.964C98.4499 509.873 98.3359 511.33 97.9933 511.834C97.7199 512.265 97.4724 514.115 97.4125 516.6C97.3121 518.802 97.103 520.829 96.9312 521.046C96.7593 521.262 96.5294 522.153 96.4043 523.007C96.2793 523.862 95.9849 525.074 95.7498 525.681C95.5148 526.289 95.0942 528.284 94.8101 530.064C94.5269 531.88 93.9727 534.268 93.6412 535.374C93.2753 536.517 92.9816 537.764 92.99 538.226C92.9985 538.687 92.6247 539.404 92.2112 539.873C91.4513 540.632 91.3562 541.202 91.0911 545.927C90.6827 552.429 91.2401 557.884 92.4629 559.352C92.8947 559.876 94.0486 561.417 95.0234 562.782C98.235 567.194 97.9855 567.021 100.735 567.325C102.221 567.489 103.465 567.578 104.545 567.578C107.257 567.578 108.928 567.021 110.766 565.718C111.599 565.135 112.469 564.622 112.68 564.618L112.683 564.618C112.897 564.618 113.57 565.065 114.141 565.62C115.68 567.055 118.7 567.916 121.815 567.916C122.248 567.916 122.683 567.899 123.117 567.865C127.437 567.501 131.009 566.653 133.59 565.434C134.844 564.807 136.52 564.102 137.324 563.838C140.12 562.863 143.337 557.941 143.893 553.743C144.603 548.335 144.891 544.852 144.7 544.074C144.362 542.909 144.85 531.117 145.257 530.294C145.46 529.899 145.75 528.439 145.935 527.016C146.12 525.593 146.334 523.85 146.428 523.174C146.521 522.498 146.857 521.64 147.167 521.279C147.613 520.703 147.701 519.707 147.583 515.238C147.444 509.526 146.631 505.496 145.064 502.544C144.408 501.314 144.366 500.889 144.618 497.37C144.79 495.273 145.124 492.357 145.378 490.897C145.633 489.437 145.844 487.517 145.863 486.664C145.845 485.636 146.076 484.815 146.489 484.346C147.109 483.625 147.842 479.494 147.796 476.94C147.785 476.336 147.981 475.552 148.257 475.263C148.498 474.939 148.952 472.872 149.263 470.666C149.54 468.46 150.258 465.43 150.792 463.894C151.363 462.393 152.025 460.109 152.282 458.827C153.055 454.944 153.663 451.632 153.974 449.39C154.409 446.259 154.829 444.228 155.361 442.585C155.628 441.8 155.945 439.877 156.057 438.314C156.17 436.785 156.439 434.225 156.657 432.659C156.909 431.093 157.09 425.589 157.136 420.406C157.174 412.917 157.05 410.009 156.52 406.044C156.154 403.318 155.645 398.608 155.414 395.595C155.183 392.583 154.898 388.578 154.759 386.735C154.581 384.715 154.637 382.017 154.882 379.989L155.312 376.61L159.491 376.248C165.708 375.741 173.005 374.682 174.297 374.126C174.924 373.83 176.395 373.483 177.553 373.32C178.711 373.156 179.83 372.816 180.037 372.564C180.278 372.275 181.118 372.046 182.067 372.029C185.021 371.974 197.522 368.866 198.595 367.923C198.872 367.705 199.57 367.372 200.13 367.22C201.355 366.878 206.272 364.55 207.871 363.526C208.915 362.903 209.016 362.653 208.989 361.163C208.972 360.241 208.627 358.685 208.222 357.699C207.817 356.713 207.481 355.655 207.475 355.335C207.469 355.016 207.171 354.134 206.769 353.326C206.146 351.953 205.74 350.896 204 346.173C203.556 344.974 203.079 343.883 202.935 343.744C202.792 343.604 202.676 343.039 202.667 342.542C202.657 342.01 202.207 340.457 201.69 339.153C201.138 337.815 200.39 335.38 200.008 333.755C199.627 332.129 199.034 330.508 198.711 330.159C198.388 329.81 197.979 328.611 197.818 327.478C197.656 326.346 197.349 324.932 197.128 324.368C196.906 323.769 196.342 321.792 195.886 319.955C195.43 318.118 194.834 316.283 194.58 315.898C194.292 315.513 194.067 314.772 194.057 314.239C194.048 313.743 193.856 312.859 193.671 312.33C193.45 311.802 193.109 310.495 192.949 309.398C192.753 308.302 192.446 306.923 192.224 306.359C192.003 305.76 191.666 304.666 191.44 303.89C190.497 300.394 189.681 298.102 189.107 297.474C188.784 297.125 188.409 295.89 188.247 294.722C187.64 290.368 184.841 281.618 183.47 279.728C183.145 279.272 182.852 278.639 182.846 278.32C182.836 277.787 181.303 272.812 180.452 270.556C179.27 267.491 179.011 266.75 178.523 265.091C178.258 264.103 177.704 262.622 177.301 261.743C175.979 258.751 172.917 250.964 172.503 249.517C172.277 248.705 171.912 247.931 171.734 247.828C171.556 247.725 171.222 246.773 170.956 245.677C170.614 244.3 170.213 243.526 169.644 243.182C169.039 242.803 168.819 242.31 168.802 241.423C168.79 240.749 168.525 239.76 168.234 239.198C167.943 238.671 167.566 237.33 167.441 236.232C167.239 234.851 166.722 233.512 165.779 231.933C164.982 230.67 164.363 229.51 164.361 229.44C164.36 229.381 164.574 229.35 164.903 229.35C165.169 229.35 165.51 229.37 165.873 229.411C166.101 229.44 166.32 229.455 166.54 229.455C167.51 229.455 168.518 229.156 170.568 228.365C172.278 227.659 174.198 226.843 174.79 226.512C175.382 226.182 176.186 225.918 176.608 225.91C176.995 225.903 177.412 225.647 177.547 225.325C177.647 225.039 178.234 224.425 178.859 223.987C182.331 221.509 186.419 218.061 186.653 217.382C186.854 216.846 187.34 216.518 188.182 216.36C189.619 216.12 192.807 213.47 197.296 208.914C201.717 204.431 204.831 201.605 206.119 200.906C206.746 200.575 207.576 199.779 207.952 199.169C208.327 198.523 208.983 197.872 209.403 197.757C210.138 197.531 211.726 195.904 213.133 193.961C213.51 193.422 214.546 192.409 215.378 191.719C217.977 189.576 219.222 188.418 223.055 184.513C225.092 182.452 227.442 180.137 228.343 179.375C229.83 177.998 230.135 177.354 230.92 174.145C231.213 172.862 230.649 168.968 230.074 168.305C229.894 168.095 229.56 167.143 229.332 166.189C229.103 165.2 228.515 163.827 228.009 163.091C227.538 162.39 227.026 161.299 226.875 160.734C226.757 160.062 226.253 159.433 225.649 159.089C225.08 158.745 224.542 158.222 224.431 157.905C224.32 157.588 223.78 156.924 223.208 156.437C222.53 155.882 222.02 154.933 221.717 153.768C221.416 152.608 221.089 151.976 220.74 151.976C220.738 151.976 220.736 151.976 220.734 151.976C220.732 151.976 220.73 151.976 220.727 151.976C220.448 151.976 220.13 151.665 220.018 151.28C219.905 150.891 219.299 150.441 218.627 150.241C217.955 150.005 217.348 149.555 217.199 149.097C217.051 148.673 216.005 147.273 214.856 146.017C213.6 144.656 212.624 143.219 212.506 142.547C212.354 141.947 211.992 141.35 211.673 141.25C209.976 140.749 209.16 140.374 209.154 140.055C209.142 139.381 205.162 135.302 204.314 135.105C203.749 134.974 203.355 134.555 203.202 133.919C202.836 132.298 202.721 132.098 201.944 132.098C201.908 132.098 201.871 132.099 201.832 132.1C201.817 132.1 201.802 132.1 201.787 132.1C200.764 132.1 199.147 131.469 199.139 131.014C199.136 130.872 197.987 129.616 196.591 128.258C194.549 126.273 194.008 125.538 193.81 124.335C193.578 123.204 193.326 122.853 192.725 122.687C192.266 122.589 191.73 122.173 191.476 121.752C191.223 121.331 190.246 119.859 189.235 118.458C188.26 117.057 187.177 115.551 186.887 115.095C186.597 114.639 185.954 114.083 185.457 113.844C184.889 113.57 184.492 113.01 184.336 112.197C184.183 111.525 183.856 110.928 183.644 110.861C183.042 110.659 178.883 106.372 178.48 105.527C178.262 105.106 177.622 104.763 176.776 104.672C175.753 104.514 175.433 104.307 175.423 103.774C175.416 103.384 174.732 102.51 173.91 101.815C173.053 101.121 171.335 99.521 170.046 98.2674C168.756 97.0137 167.257 95.7996 166.725 95.5966C166.193 95.358 165.765 95.0112 165.761 94.7982C165.757 94.5854 164.548 93.8627 163.058 93.1807C160.362 91.9534 160.003 91.5697 159.507 89.4495C159.39 88.8484 158.669 87.8682 157.953 87.2072C156.522 85.8852 155.899 84.5482 155.172 81.2966C154.522 78.5052 154.792 74.0282 155.619 73.09C155.963 72.6578 156.193 71.8017 156.178 70.9858C156.158 69.8504 155.937 69.3578 155.079 68.5574C154.112 67.6526 154.001 67.3354 153.964 65.3131C153.917 62.7587 152.785 58.5919 151.774 57.1557C150.763 55.7549 150.685 55.2951 151.189 54.0081C151.758 52.4712 151.678 48.1073 151.023 46.8776C150.732 46.3507 149.69 45.1989 148.689 44.2948L146.865 42.6609L146.821 40.2484C146.761 38.9363 146.589 37.2005 146.399 36.4233C145.714 33.5968 145.045 31.6572 144.615 31.2394C144.364 30.9957 144.18 30.5377 144.174 30.1829C144.154 29.1185 141.855 22.7023 141.172 21.8633C140.812 21.4087 140.117 19.9665 139.565 18.6282C139.048 17.2893 138.356 16.0245 138.07 15.7814C137.784 15.5383 137.314 14.8372 137.022 14.2394C136.727 13.5351 136.225 13.0121 135.66 12.8806C135.166 12.7835 134.667 12.4025 134.519 12.0146C134.407 11.662 133.476 10.7921 132.443 10.1015C131.411 9.41106 129.878 8.30398 128.986 7.64631C125.897 5.33644 124.401 4.3689 123.937 4.3689C123.935 4.3689 123.933 4.36892 123.931 4.36896C123.93 4.36898 123.928 4.36899 123.927 4.36899C123.64 4.36899 122.579 3.82308 121.517 3.17199C120.454 2.52031 119.428 1.9735 119.177 1.9735L119.174 1.97353L119.17 1.97356C118.959 1.97356 118.603 1.59145 118.42 1.1358C118.091 0.503202 117.63 0.298813 116.115 0.149599C115.241 0.049466 114.433 0 113.664 0Z" fill="black"/>
</svg>
