<svg width="61" height="61" viewBox="0 0 61 61" fill="none" xmlns="http://www.w3.org/2000/svg">
<circle cx="30.5" cy="30.5" r="30.5" fill="#11B0AC"/>
<path d="M31.1777 10.8445C22.9567 10.8445 16.2666 17.7341 16.2666 26.2046C16.2666 38.2402 29.7761 50.6673 30.351 51.1892C30.5879 51.4044 30.8828 51.5111 31.1777 51.5111C31.4726 51.5111 31.7675 51.4044 32.0045 51.1909C32.5794 50.6673 46.0888 38.2402 46.0888 26.2046C46.0888 17.7341 39.3987 10.8445 31.1777 10.8445ZM31.1777 34.5667C26.6099 34.5667 22.8938 30.766 22.8938 26.0945C22.8938 21.4229 26.6099 17.6222 31.1777 17.6222C35.7455 17.6222 39.4617 21.4229 39.4617 26.0945C39.4617 30.766 35.7455 34.5667 31.1777 34.5667Z" fill="white"/>
</svg>
