<svg width="116" height="116" viewBox="0 0 116 116" fill="none" xmlns="http://www.w3.org/2000/svg">
<g clip-path="url(#clip0_142_14)">
<path d="M92.8 46.4C105.593 46.4 116 35.9932 116 23.2C116 10.4068 105.593 0 92.8 0C83.51 0 75.5001 5.50075 71.7986 13.4059L65.5861 11.1129C65.6597 10.6371 65.7333 10.1613 65.7333 9.66667C65.7333 4.33678 61.3965 0 56.0667 0C50.7368 0 46.4 4.33678 46.4 9.66667C46.4 14.9965 50.7368 19.3333 56.0667 19.3333C59.5293 19.3333 62.5492 17.4868 64.256 14.7436L70.4581 17.0328C69.9134 19.001 69.6 21.0618 69.6 23.2C69.6 25.7328 70.021 28.1646 70.7753 30.4481L49.5124 39.4596C45.6193 32.0992 37.8916 27.0667 29 27.0667C26.1189 27.0667 23.3699 27.6199 20.822 28.5827L15.4742 17.3443C17.804 15.5771 19.3333 12.8083 19.3333 9.66667C19.3333 4.33678 14.9965 0 9.66667 0C4.33678 0 0 4.33678 0 9.66667C0 14.9965 4.33678 19.3333 9.66667 19.3333C10.471 19.3333 11.2422 19.2059 11.9908 19.018L17.332 30.2451C10.4474 34.2742 5.8 41.729 5.8 50.2667C5.8 58.286 9.89134 65.3642 16.0935 69.532L12.5572 75.889C11.6368 75.5992 10.6796 75.4 9.66667 75.4C4.33678 75.4 0 79.7368 0 85.0667C0 90.3965 4.33678 94.7333 9.66667 94.7333C14.9965 94.7333 19.3333 90.3965 19.3333 85.0667C19.3333 82.1393 17.9976 79.5433 15.9368 77.7704L19.4806 71.4002C22.3882 72.7162 25.6053 73.4667 29 73.4667C34.3053 73.4667 39.1849 71.657 43.0979 68.6484L50.7075 77.0199C46.8484 81.1651 44.4667 86.7026 44.4667 92.8C44.4667 93.9828 44.5847 95.1355 44.7546 96.2702L35.8016 98.3951C34.261 95.1005 30.9371 92.8 27.0667 92.8C21.7368 92.8 17.4 97.1368 17.4 102.467C17.4 107.797 21.7368 112.133 27.0667 112.133C32.3965 112.133 36.7333 107.797 36.7333 102.467C36.7333 102.36 36.7041 102.26 36.7022 102.153L45.6382 100.035C48.6854 109.293 57.4006 116 67.6667 116C80.4599 116 90.8667 105.593 90.8667 92.8C90.8667 88.8333 89.8632 85.0978 88.0998 81.8306L99.4562 74.4465C101.212 76.2251 103.644 77.3333 106.333 77.3333C111.663 77.3333 116 72.9965 116 67.6667C116 62.3368 111.663 58 106.333 58C101.003 58 96.6667 62.3368 96.6667 67.6667C96.6667 68.9156 96.9234 70.1022 97.3567 71.1992L85.9739 78.5993C83.696 75.6709 80.7384 73.3062 77.3333 71.7363L86.7697 45.5768C88.6954 46.096 90.7118 46.4 92.8 46.4ZM56.0667 15.4667C52.8693 15.4667 50.2667 12.864 50.2667 9.66667C50.2667 6.4693 52.8693 3.86667 56.0667 3.86667C59.264 3.86667 61.8667 6.4693 61.8667 9.66667C61.8667 12.864 59.264 15.4667 56.0667 15.4667ZM3.86667 9.66667C3.86667 6.4693 6.4693 3.86667 9.66667 3.86667C12.864 3.86667 15.4667 6.4693 15.4667 9.66667C15.4667 12.864 12.864 15.4667 9.66667 15.4667C6.4693 15.4667 3.86667 12.864 3.86667 9.66667ZM9.66667 90.8667C6.4693 90.8667 3.86667 88.264 3.86667 85.0667C3.86667 81.8693 6.4693 79.2667 9.66667 79.2667C12.864 79.2667 15.4667 81.8693 15.4667 85.0667C15.4667 88.264 12.864 90.8667 9.66667 90.8667ZM27.0667 108.267C23.8693 108.267 21.2667 105.664 21.2667 102.467C21.2667 99.2693 23.8693 96.6667 27.0667 96.6667C30.264 96.6667 32.8667 99.2693 32.8667 102.467C32.8667 105.664 30.264 108.267 27.0667 108.267ZM106.333 61.8667C109.531 61.8667 112.133 64.4693 112.133 67.6667C112.133 70.864 109.531 73.4667 106.333 73.4667C103.136 73.4667 100.533 70.864 100.533 67.6667C100.533 64.4693 103.136 61.8667 106.333 61.8667ZM81.4143 38.7903C82.2771 34.3186 86.2193 30.9333 90.8667 30.9333H94.7333C99.3807 30.9333 103.323 34.3186 104.186 38.7903C100.987 41.1315 97.0594 42.5333 92.8 42.5333C88.5406 42.5333 84.6126 41.1315 81.4143 38.7903ZM92.8 27.0667C89.6026 27.0667 87 24.464 87 21.2667C87 18.0693 89.6026 15.4667 92.8 15.4667C95.9974 15.4667 98.6 18.0693 98.6 21.2667C98.6 24.464 95.9974 27.0667 92.8 27.0667ZM92.8 3.86667C103.461 3.86667 112.133 12.5393 112.133 23.2C112.133 28.0333 110.337 32.4494 107.393 35.8422C106.038 32.2748 103.213 29.4276 99.6941 28.022C101.406 26.2775 102.467 23.8957 102.467 21.2667C102.467 15.9368 98.1299 11.6 92.8 11.6C87.4701 11.6 83.1333 15.9368 83.1333 21.2667C83.1333 23.8957 84.1944 26.2775 85.9059 28.022C82.3866 29.4276 79.5621 32.2748 78.2075 35.8422C75.2631 32.4494 73.4667 28.0333 73.4667 23.2C73.4667 12.5393 82.1393 3.86667 92.8 3.86667ZM9.66667 50.2667C9.66667 39.606 18.3393 30.9333 29 30.9333C39.6607 30.9333 48.3333 39.606 48.3333 50.2667C48.3333 55.1151 46.5256 59.5425 43.5661 62.94C42.2161 59.3594 39.386 56.4981 35.8573 55.0887C37.5669 53.3441 38.628 50.9624 38.628 48.3333C38.628 43.0034 34.2912 38.6667 28.9613 38.6667C23.6314 38.6667 19.2946 43.0034 19.2946 48.3333C19.2946 50.9624 20.3557 53.3441 22.0672 55.0887C18.5583 56.4877 15.7376 59.3244 14.3782 62.8777C11.4508 59.4887 9.66667 55.0868 9.66667 50.2667ZM23.1613 48.3333C23.1613 45.136 25.7639 42.5333 28.9613 42.5333C32.1587 42.5333 34.7613 45.136 34.7613 48.3333C34.7613 51.5307 32.1587 54.1333 28.9613 54.1333C25.7639 54.1333 23.1613 51.5307 23.1613 48.3333ZM17.5822 65.8315C18.4535 61.372 22.39 58 27.028 58H30.8946C35.5505 58 39.5002 61.3965 40.3508 65.8825C37.1591 68.2095 33.2433 69.6 29 69.6C24.7255 69.6 20.7852 68.1887 17.5822 65.8315ZM56.2489 108.365C57.1202 103.905 61.0567 100.533 65.6946 100.533H69.5613C74.2172 100.533 78.1669 103.93 79.0174 108.416C75.8257 110.743 71.91 112.133 67.6667 112.133C63.3922 112.133 59.4519 110.722 56.2489 108.365ZM67.628 96.6667C64.4306 96.6667 61.828 94.064 61.828 90.8667C61.828 87.6693 64.4306 85.0667 67.628 85.0667C70.8253 85.0667 73.428 87.6693 73.428 90.8667C73.428 94.064 70.8253 96.6667 67.628 96.6667ZM87 92.8C87 97.6484 85.1922 102.076 82.2327 105.473C80.8828 101.893 78.0527 99.0314 74.524 97.622C76.2336 95.8775 77.2946 93.4957 77.2946 90.8667C77.2946 85.5368 72.9578 81.2 67.628 81.2C62.2981 81.2 57.9613 85.5368 57.9613 90.8667C57.9613 93.4957 59.0224 95.8775 60.7339 97.622C57.225 99.021 54.4043 101.858 53.0449 105.411C50.1175 102.022 48.3333 97.6201 48.3333 92.8C48.3333 82.1393 57.006 73.4667 67.6667 73.4667C78.3274 73.4667 87 82.1393 87 92.8ZM73.697 70.4232C71.7712 69.904 69.7548 69.6 67.6667 69.6C62.3613 69.6 57.4817 71.4097 53.5688 74.4182L45.9591 66.0467C49.8183 61.9016 52.2 56.364 52.2 50.2667C52.2 47.7339 51.779 45.3021 51.0247 43.0186L72.2876 34.007C74.6693 38.51 78.4916 42.1236 83.1352 44.2637L73.697 70.4232Z" fill="#0a0a0a"/>
</g>
<defs>
<clipPath id="clip0_142_14">
<rect width="116" height="116" fill="white"/>
</clipPath>
</defs>
</svg>
