<svg width="119" height="119" viewBox="0 0 119 119" fill="none" xmlns="http://www.w3.org/2000/svg">
<g clip-path="url(#clip0_140_67)">
<path d="M117.683 47.3093L100.828 42.1312V29.575C100.828 28.8609 100.425 28.2103 99.7846 27.8963L54.2663 5.37122C54.2614 5.36874 54.2512 5.36874 54.231 5.36874C54.1449 5.32302 53.8056 5.16622 53.3119 5.19394C52.7978 5.22186 52.4232 5.46989 52.3522 5.52575L19.8892 28.6735C19.3954 29.0253 19.1017 29.5926 19.1017 30.1978V46.3597L13.0703 45.6405C13.0678 45.6405 13.05 45.643 13.0172 45.6481C12.9387 45.643 12.7563 45.6353 12.5842 45.6583C12.3664 45.6862 12.1791 45.7572 12.1082 45.7849C12.0981 45.7874 12.0906 45.7898 12.0906 45.7898L1.11417 50.6516C0.435657 50.9503 0 51.6238 0 52.3632V83.6764C0 84.3626 0.374838 84.9931 0.972263 85.3173L11.9739 91.3486C11.9739 91.3486 12.2627 91.5158 12.6094 91.5588C12.9185 91.5991 13.1438 91.5588 13.1438 91.5588L19.099 90.6927V94.144C19.099 94.8302 19.4738 95.4582 20.0712 95.7871L52.5293 113.575C52.5293 113.575 52.8913 113.785 53.3648 113.807C53.7268 113.825 54.0814 113.694 54.0814 113.694V113.683C54.0864 113.683 54.0915 113.683 54.0915 113.683L99.6123 96.3771L117.792 89.4645C118.519 89.1886 119 88.4925 119 87.7151V49.1017C119.007 48.2766 118.471 47.5496 117.683 47.3093ZM5.22353 75.8932C5.22353 76.088 5.13231 76.273 4.9753 76.3892C4.8638 76.4728 4.73223 76.5183 4.59798 76.5183C4.54212 76.5183 4.48648 76.5109 4.43083 76.4958L2.34708 75.9157C2.07609 75.8398 1.88888 75.5942 1.88888 75.3131V69.5048C1.88888 69.33 1.96232 69.1604 2.09388 69.0414C2.22317 68.9225 2.39777 68.8666 2.57236 68.8844L4.6561 69.0869C4.97509 69.1198 5.22064 69.3856 5.22064 69.7073V75.893H5.22353V75.8932ZM5.22353 63.5241C5.22353 63.8508 4.97281 64.1193 4.64866 64.147L2.56491 64.3193C2.5496 64.3193 2.53202 64.3193 2.51423 64.3193C2.3597 64.3193 2.20786 64.2635 2.0914 64.1573C1.96232 64.0382 1.88888 63.8737 1.88888 63.6962V57.8879C1.88888 57.6043 2.08126 57.3562 2.35474 57.2853L4.43869 56.7359C4.62611 56.6879 4.82346 56.7282 4.97799 56.8474C5.13251 56.9638 5.22105 57.1461 5.22105 57.3387V63.5243H5.22353V63.5241ZM11.3157 77.587C11.3157 77.7818 11.2247 77.9641 11.0699 78.083C10.9584 78.1666 10.8269 78.2096 10.6926 78.2096C10.637 78.2096 10.5811 78.202 10.5255 78.1869L7.66929 77.3919C7.3983 77.3185 7.21109 77.0702 7.21109 76.7918V70.0236C7.21109 69.849 7.28432 69.6794 7.41609 69.5604C7.54517 69.4415 7.71997 69.3856 7.89726 69.4034L10.7534 69.6819C11.0751 69.7123 11.318 69.9806 11.318 70.3022V77.587H11.3157ZM11.3157 63.0227C11.3157 63.3468 11.065 63.6178 10.7435 63.6458L7.88484 63.8812C7.86726 63.8812 7.85195 63.8812 7.83416 63.8812C7.67715 63.8812 7.52531 63.823 7.41133 63.7167C7.28204 63.5978 7.20881 63.4331 7.20881 63.2558V56.4903C7.20881 56.2067 7.4014 55.9587 7.67467 55.8852L10.5333 55.1358C10.7207 55.0851 10.9181 55.1256 11.0726 55.2446C11.2247 55.3635 11.3157 55.5458 11.3157 55.7384V63.0227ZM26.9509 81.927C26.9509 82.1219 26.8597 82.3068 26.7052 82.423C26.5964 82.5066 26.4621 82.5521 26.3278 82.5521C26.2697 82.5521 26.2139 82.5447 26.1607 82.5294L22.4766 81.5066C22.2057 81.4307 22.0182 81.185 22.0182 80.9065V71.4696C22.0182 71.2925 22.0917 71.1251 22.2234 71.0062C22.3525 70.8873 22.5273 70.8316 22.7019 70.8442L26.386 71.2064C26.7074 71.2366 26.9505 71.5052 26.9505 71.8266V81.927H26.9509ZM26.9509 61.7314C26.9509 62.0556 26.7027 62.3266 26.3787 62.3518L22.6945 62.6557C22.6794 62.6584 22.6616 62.6584 22.6438 62.6584C22.4868 62.6584 22.3349 62.6001 22.221 62.4937C22.0917 62.3748 22.0184 62.2076 22.0184 62.0328V52.5961C22.0184 52.3125 22.2108 52.0644 22.4843 51.9935L26.1684 51.0237C26.3558 50.9757 26.5558 51.0161 26.7076 51.1352C26.8595 51.2517 26.9507 51.4339 26.9507 51.6265V61.7314H26.9509ZM26.9509 41.5311C26.9509 41.7791 26.8065 42.0046 26.5813 42.1033L22.8972 43.7338C22.8161 43.7694 22.7301 43.7897 22.644 43.7897C22.5251 43.7897 22.4061 43.7543 22.3023 43.6883C22.125 43.5718 22.0187 43.3743 22.0187 43.1641V33.7274C22.0187 33.512 22.1301 33.312 22.3124 33.198L25.9964 30.9041C26.189 30.7827 26.4319 30.7775 26.6295 30.8865C26.827 30.998 26.9511 31.2055 26.9511 31.4334L26.9509 41.5311ZM36.1295 84.4766C36.1295 84.6715 36.0383 84.8564 35.8837 84.9729C35.7749 85.0562 35.6407 85.1019 35.5064 85.1019C35.4508 85.1019 35.3949 85.0943 35.3393 85.0792L30.4043 83.7068C30.1333 83.6334 29.9461 83.3852 29.9461 83.1067V72.242C29.9461 72.0672 30.0195 71.8976 30.1511 71.7786C30.2804 71.6624 30.455 71.6065 30.6296 71.6216L35.567 72.1026C35.886 72.1355 36.1291 72.4013 36.1291 72.723V84.4766H36.1295ZM36.1295 60.9718C36.1295 61.2985 35.8813 61.567 35.5571 61.5947L30.6224 62.0024C30.6046 62.0024 30.587 62.0051 30.5692 62.0051C30.4122 62.0051 30.2628 61.9443 30.1464 61.838C30.0173 61.719 29.9438 61.5544 29.9438 61.3771V50.5146C29.9438 50.231 30.1362 49.983 30.4097 49.912L35.3444 48.6131C35.5319 48.5624 35.7319 48.603 35.8837 48.7219C36.0383 48.8409 36.1268 49.0231 36.1268 49.2157V60.9718H36.1295ZM36.1295 37.4673C36.1295 37.7155 35.9851 37.9408 35.7598 38.0397L30.8249 40.2248C30.7438 40.2628 30.6577 40.2779 30.5717 40.2779C30.4527 40.2779 30.3338 40.2426 30.2324 40.1768C30.0553 40.0628 29.9488 39.8652 29.9488 39.6526V28.7901C29.9488 28.5748 30.0603 28.375 30.2425 28.261L35.1773 25.1845C35.3697 25.0631 35.6127 25.0579 35.8103 25.1667C36.0079 25.2782 36.132 25.4857 36.132 25.7136V37.4673H36.1295ZM48.9009 88.0241C48.9009 88.209 48.8299 88.3861 48.6984 88.5127C48.4704 88.743 48.164 88.743 48.0577 88.743C48.0577 88.743 48.0577 88.743 48.0552 88.743C46.8246 88.743 42.0493 87.0237 41.1073 86.682C40.8592 86.5932 40.6971 86.358 40.6971 86.0945V73.2925C40.6971 73.1179 40.7705 72.9482 40.8996 72.8293C41.0311 72.7104 41.2059 72.6545 41.3807 72.6723L48.3361 73.3508C48.6551 73.3837 48.9007 73.652 48.9007 73.971C48.9009 74.1079 48.8959 87.4238 48.9009 88.0241ZM48.9009 59.9185C48.9009 60.2424 48.6504 60.5136 48.3262 60.5389L41.3706 61.1135C41.353 61.1135 41.3352 61.1162 41.3199 61.1162C41.1629 61.1162 41.0111 61.0554 40.8971 60.9489C40.7678 60.8299 40.6946 60.6655 40.6946 60.488V47.6862C40.6946 47.405 40.8845 47.1545 41.1604 47.0836L48.1158 45.2555C48.3033 45.2048 48.5008 45.2454 48.6551 45.3643C48.8095 45.4833 48.8982 45.6657 48.8982 45.8581V59.9183H48.9009V59.9185ZM48.9009 31.8108C48.9009 32.0588 48.754 32.2816 48.5287 32.3805L41.5733 35.4619C41.4922 35.5 41.4062 35.5151 41.3201 35.5151C41.2012 35.5151 41.0822 35.4797 40.9784 35.4139C40.8011 35.2975 40.6948 35.1024 40.6948 34.8897V22.0902C40.6948 21.8726 40.8063 21.6723 40.9885 21.5586L47.9441 17.2264C48.1365 17.105 48.3796 17.0998 48.5771 17.2086C48.7747 17.3201 48.8986 17.5276 48.8986 17.7556V31.8108H48.9009ZM76.5506 24.8047C76.5506 24.5945 76.6571 24.3996 76.8317 24.2832C77.0063 24.1667 77.2291 24.1489 77.4217 24.23L84.8457 27.4405C85.0736 27.5394 85.2228 27.7647 85.2228 28.0152V39.1029C85.2228 39.3005 85.1293 39.4877 84.9696 39.6042C84.8608 39.6853 84.7317 39.7283 84.5999 39.7283C84.5391 39.7283 84.4758 39.7182 84.4176 39.7004L76.9937 37.4191C76.7304 37.338 76.5531 37.0951 76.5531 36.8241V24.8047H76.5506ZM76.5506 48.8361C76.5506 48.6512 76.6317 48.4741 76.7734 48.3576C76.9153 48.2387 77.1052 48.1905 77.285 48.2234L84.7114 49.5755C85.0076 49.6313 85.2228 49.887 85.2228 50.1882V61.3796C85.2228 61.5517 85.1518 61.719 85.0227 61.838C84.9065 61.9468 84.7544 62.0051 84.5974 62.0051C84.5821 62.0051 84.567 62.0024 84.5542 62.0024L77.1304 61.4733C76.8038 61.4505 76.5504 61.1795 76.5504 60.8529V48.8361H76.5506ZM57.2237 16.449C57.2237 16.2388 57.33 16.044 57.5048 15.9275C57.6794 15.8135 57.9022 15.7933 58.0948 15.8768L68.6407 20.4369C68.8687 20.5358 69.0178 20.7611 69.0178 21.0118V34.1252C69.0178 34.3227 68.9243 34.5101 68.7646 34.6266C68.6558 34.7077 68.5241 34.7507 68.395 34.7507C68.3342 34.7507 68.2709 34.7406 68.21 34.7228L57.6643 31.4819C57.4009 31.4035 57.2237 31.1602 57.2237 30.8869V16.449ZM57.2237 59.7464V45.3138C57.2237 45.1289 57.3048 44.9518 57.4465 44.8354C57.5884 44.7164 57.7756 44.6682 57.958 44.7011L68.5038 46.6231C68.8 46.6787 69.0176 46.9371 69.0176 47.2383V60.3514C69.0176 60.5238 68.9467 60.6882 68.8203 60.8072C68.7038 60.916 68.5493 60.9768 68.3925 60.9768C68.3797 60.9768 68.367 60.9768 68.3569 60.9743L57.8112 60.3717C57.482 60.349 57.2237 60.0782 57.2237 59.7464ZM77.7988 102.91C77.7988 103.171 77.6368 103.398 77.3965 103.492L63.5943 108.738C63.5233 108.766 63.4474 108.779 63.3742 108.779C63.2498 108.779 63.1234 108.741 63.0196 108.67C62.85 108.554 62.7511 108.361 62.7511 108.156V73.8018C62.7511 73.4724 63.0045 73.2017 63.3334 73.1787L77.1356 72.2443C77.3102 72.2317 77.4773 72.295 77.604 72.4116C77.7306 72.5279 77.8015 72.6926 77.8015 72.8674V102.91H77.7988ZM94.4317 96.5846C94.4317 96.8454 94.2723 97.0759 94.0292 97.1669L84.82 100.669C84.7468 100.697 84.6733 100.712 84.5974 100.712C84.4731 100.712 84.3492 100.671 84.2429 100.6C84.0757 100.484 83.9743 100.292 83.9743 100.087V72.3659C83.9743 72.0368 84.2278 71.766 84.5567 71.7431L93.7656 71.12C93.9404 71.1074 94.1074 71.1682 94.2342 71.2846C94.3608 71.4011 94.4317 71.5683 94.4317 71.7404V96.5846ZM97.0929 61.9569C97.0929 62.129 97.0219 62.2937 96.8953 62.4126C96.7788 62.5215 96.6243 62.5823 96.4675 62.5823C96.4547 62.5823 96.4423 62.5823 96.4319 62.5823L90.9223 62.2658C90.5932 62.2455 90.3348 61.9745 90.3348 61.6429V51.3479C90.3348 51.1629 90.4184 50.9859 90.5576 50.8667C90.702 50.7478 90.8894 50.702 91.0714 50.7324L96.5786 51.7376C96.875 51.7908 97.0927 52.0489 97.0927 52.3503V61.9569H97.0929ZM97.0929 42.7489C97.0929 42.9465 96.9991 43.1339 96.8394 43.2504C96.7306 43.3315 96.5991 43.3745 96.4698 43.3745C96.4092 43.3745 96.3457 43.3644 96.2848 43.3441L90.7777 41.6528C90.5146 41.5717 90.3373 41.3286 90.3373 41.0578V30.7626C90.3373 30.5524 90.4436 30.3575 90.6182 30.2411C90.7928 30.1246 91.0158 30.1068 91.2082 30.1904L96.718 32.5706C96.946 32.6695 97.0951 32.8945 97.0951 33.1453V42.7491H97.0929V42.7489ZM108.102 79.0454C108.102 79.3441 107.89 79.6025 107.596 79.6581L103.593 80.4303C103.552 80.438 103.514 80.4405 103.476 80.4405C103.332 80.4405 103.19 80.39 103.078 80.2963C102.934 80.1798 102.853 80.0025 102.853 79.8178V71.09C102.853 70.7609 103.106 70.4901 103.436 70.4671L107.439 70.1961C107.611 70.186 107.781 70.2466 107.907 70.3633C108.034 70.4795 108.105 70.6442 108.105 70.819V79.0456H108.102V79.0454ZM108.102 62.5897C108.102 62.7593 108.031 62.924 107.905 63.043C107.788 63.1518 107.636 63.2124 107.477 63.2124C107.464 63.2124 107.454 63.2124 107.441 63.2124L103.438 62.9821C103.109 62.9619 102.851 62.6911 102.851 62.3593V53.6317C102.851 53.4469 102.932 53.2721 103.073 53.1532C103.215 53.0342 103.403 52.986 103.585 53.0164L107.586 53.7456C107.882 53.7988 108.099 54.0597 108.099 54.3609V62.5897H108.102ZM114.87 77.739C114.87 78.0377 114.658 78.2959 114.364 78.3518L111.161 78.9694C111.121 78.9771 111.082 78.9796 111.045 78.9796C110.9 78.9796 110.758 78.9291 110.647 78.8354C110.503 78.7164 110.422 78.5416 110.422 78.3569V70.5734C110.422 70.2468 110.677 69.9758 111.004 69.9531L114.204 69.7352C114.377 69.7226 114.546 69.7859 114.673 69.8999C114.799 70.0188 114.87 70.1835 114.87 70.3583V77.739H114.87ZM114.87 62.9747C114.87 63.147 114.799 63.3115 114.675 63.4304C114.559 63.5392 114.407 63.6 114.247 63.6C114.235 63.6 114.225 63.6 114.212 63.5976L111.012 63.4151C110.682 63.3973 110.424 63.124 110.424 62.7922V55.1101C110.424 54.9279 110.502 54.7531 110.642 54.6341C110.779 54.5152 110.961 54.4645 111.141 54.4897L114.343 54.9734C114.65 55.0189 114.873 55.2824 114.873 55.5913V62.9745L114.87 62.9747Z" fill="#0a0a0a"/>
</g>
<defs>
<clipPath id="clip0_140_67">
<rect width="119" height="119" fill="white"/>
</clipPath>
</defs>
</svg>
