<svg width="304" height="217" viewBox="0 0 304 217" fill="none" xmlns="http://www.w3.org/2000/svg">
<path d="M28.8 217C24 217 20.5 216 18.3 214C16.3 211.8 15.3 208.5 15.3 204.1V26.2C15.3 21.8 16.3 18.5 18.3 16.3C20.5 14.1 24 13 28.8 13H103.8C155.2 13 180.9 36 180.9 82C180.9 127.8 155.2 150.7 103.8 150.7H64.8V204.1C64.8 208.5 63.8 211.8 61.8 214C59.8 216 56.3 217 51.3 217H28.8ZM100.5 114.4C121.3 114.4 131.7 103.6 131.7 82C131.7 60.4 121.3 49.6 100.5 49.6H65.1V114.4H100.5Z" fill="#0A0A0A"/>
<path d="M197.9 217C192.9 217 189.3 216 187.1 214C185.1 211.8 184.1 208.5 184.1 204.1V49.6H134.9C130.1 49.6 126.8 48.7 125 46.9C123.2 44.9 122.3 41.6 122.3 37V25.9C122.3 21.3 123.2 18 125 16C126.8 14 130.1 13 134.9 13H283.1C287.9 13 291.2 14 293 16C295 18 296 21.3 296 25.9V37C296 41.4 295 44.6 293 46.6C291.2 48.6 287.9 49.6 283.1 49.6H233.9V204.1C233.9 208.5 232.8 211.8 230.6 214C228.6 216 225.1 217 220.1 217H197.9Z" fill="#04BDB9"/>
</svg>
