<svg width="61" height="61" viewBox="0 0 61 61" fill="none" xmlns="http://www.w3.org/2000/svg">
<path d="M30.5 0C13.6559 0 0 13.6559 0 30.5C0 47.3441 13.6559 61 30.5 61C47.3441 61 61 47.3441 61 30.5C61 13.6559 47.3441 0 30.5 0ZM45.9466 44.007C45.7166 44.2572 45.4796 44.5014 45.2591 44.7588C43.9319 46.3016 42.2485 47.0224 39.3986 46.9259C37.627 46.8068 35.1298 46.1956 32.6922 45.3235C24.0974 42.2473 15.7111 34.0516 13.9287 22.5879C13.6118 20.547 13.9454 18.6824 15.4919 17.1646C16.0101 16.6571 16.4712 16.0923 16.9775 15.5729C18.8838 13.6106 21.6693 13.5606 23.6435 15.4454C24.2689 16.0411 24.9052 16.6285 25.5152 17.2432C26.3505 18.067 26.8341 19.1823 26.8645 20.355C26.895 21.5278 26.4698 22.6667 25.6784 23.5327C25.2018 24.0616 24.7014 24.5644 24.1987 25.066C23.6494 25.614 22.9667 25.9286 22.234 26.1573C21.3297 26.4409 21.1618 26.8197 21.5728 27.6835C24.1701 33.1235 28.2355 37.0404 33.7692 39.4344C34.5091 39.7537 34.851 39.6095 35.1489 38.8756C35.8018 37.266 36.9991 36.0925 38.3752 35.1441C39.9324 34.0718 42.1627 34.3101 43.6376 35.5778C44.4462 36.2726 45.2189 37.0083 45.9525 37.7819C46.7419 38.6264 47.1805 39.7396 47.1794 40.8956C47.1783 42.0516 46.7376 43.1639 45.9466 44.007Z" fill="#11B0AC"/>
</svg>
