<svg width="25" height="25" viewBox="0 0 25 25" fill="none" xmlns="http://www.w3.org/2000/svg">
<path d="M24.5664 9.47773C24.3027 9.35972 23.9942 9.40801 23.7791 9.60073C23.2655 10.0604 22.6032 10.3136 21.9141 10.3136C21.2249 10.3136 20.5625 10.0604 20.0491 9.60073C19.7709 9.35171 19.35 9.35176 19.072 9.60078C18.5585 10.0604 17.8963 10.3136 17.2071 10.3136C16.5179 10.3136 15.8555 10.0604 15.3422 9.60078C15.0641 9.35171 14.6433 9.35176 14.3651 9.60073C13.8516 10.0604 13.1892 10.3136 12.5 10.3136C11.8107 10.3136 11.1484 10.0604 10.6352 9.60083C10.3571 9.35166 9.93618 9.35166 9.65806 9.60073C9.14453 10.0604 8.48218 10.3136 7.79292 10.3136C7.2084 10.3136 6.64351 10.1308 6.17197 9.79487V5.43945V3.08589C6.17188 2.19209 6.89907 1.46484 7.79297 1.46484C8.68687 1.46484 9.41411 2.19209 9.41411 3.08589C9.41411 3.49038 9.74204 3.81831 10.1465 3.81831C10.551 3.81831 10.879 3.49038 10.879 3.08589C10.879 1.38433 9.49453 0 7.79297 0C6.85054 0 6.00596 0.425098 5.4395 1.09312C4.87295 0.425098 4.02842 0 3.08599 0C1.38438 0 0 1.38433 0 3.08589V5.43945V10.1464V22.3062C0 23.7916 1.2084 25 2.69375 25H22.3063C23.7916 25 25 23.7916 25 22.3062V10.1464C25 9.85752 24.8302 9.59565 24.5664 9.47773ZM4.70703 9.79492C4.2355 10.1308 3.67056 10.3136 3.08599 10.3136C2.50142 10.3136 1.93643 10.1308 1.46484 9.79487V6.17188H4.70703V9.79492ZM4.70703 4.70703H1.46484V3.08589C1.46484 2.19209 2.19209 1.46484 3.08599 1.46484C3.97983 1.46484 4.70703 2.19209 4.70703 3.08589V4.70703ZM20.0491 20.1062C19.2667 20.8067 18.2574 21.1925 17.207 21.1925C16.3641 21.1925 15.5476 20.944 14.8535 20.4837C14.1594 20.944 13.3428 21.1925 12.4999 21.1925C11.6569 21.1925 10.8404 20.944 10.1465 20.4837C9.45239 20.944 8.63579 21.1925 7.79287 21.1925C6.74282 21.1925 5.73355 20.8067 4.95098 20.1063C4.64961 19.8365 4.62397 19.3734 4.89375 19.072C5.16353 18.7706 5.62656 18.745 5.92798 19.0147C6.4416 19.4745 7.10386 19.7277 7.79287 19.7277C8.48213 19.7277 9.14453 19.4745 9.65796 19.0148C9.93613 18.7657 10.357 18.7657 10.6352 19.0149C11.1484 19.4745 11.8106 19.7277 12.4999 19.7277C13.1892 19.7277 13.8516 19.4745 14.365 19.0148C14.6431 18.7658 15.064 18.7657 15.3421 19.0148C15.8555 19.4745 16.5178 19.7277 17.207 19.7277C17.8962 19.7277 18.5585 19.4745 19.0719 19.0148C19.3733 18.7451 19.8364 18.7706 20.1062 19.0719C20.376 19.3733 20.3504 19.8363 20.0491 20.1062ZM20.0491 15.3991C19.2667 16.0997 18.2574 16.4855 17.207 16.4855C16.3641 16.4855 15.5476 16.237 14.8535 15.7767C14.1594 16.237 13.3428 16.4855 12.4999 16.4855C11.6569 16.4855 10.8404 16.237 10.1465 15.7767C9.45239 16.237 8.63579 16.4855 7.79287 16.4855C6.74282 16.4855 5.73355 16.0997 4.95098 15.3992C4.64961 15.1294 4.62397 14.6664 4.89375 14.365C5.16353 14.0635 5.62656 14.0379 5.92798 14.3077C6.4416 14.7674 7.10386 15.0207 7.79287 15.0207C8.48213 15.0207 9.14453 14.7675 9.65796 14.3078C9.93613 14.0586 10.357 14.0587 10.6352 14.3079C11.1484 14.7675 11.8106 15.0207 12.4999 15.0207C13.1892 15.0207 13.8516 14.7675 14.365 14.3078C14.6431 14.0587 15.064 14.0587 15.3421 14.3078C15.8555 14.7675 16.5178 15.0207 17.207 15.0207C17.8962 15.0207 18.5585 14.7675 19.0719 14.3078C19.3733 14.0381 19.8364 14.0636 20.1062 14.3649C20.376 14.6663 20.3504 15.1293 20.0491 15.3991Z" fill="black"/>
</svg>
