<svg width="23" height="25" viewBox="0 0 23 25" fill="none" xmlns="http://www.w3.org/2000/svg">
<path fill-rule="evenodd" clip-rule="evenodd" d="M22.3446 13.0487C22.3062 12.708 22.0422 12.4501 21.6992 12.4211L21.0969 12.3697C21.013 12.3625 20.9777 12.3021 20.9669 12.2764C20.9563 12.2507 20.9369 12.184 20.9913 12.119L21.3776 11.6526C21.596 11.3889 21.5984 11.0192 21.3824 10.753C21.1809 10.5054 20.9532 10.2787 20.7037 10.0793C20.4357 9.8655 20.0659 9.87055 19.8041 10.0913L19.3408 10.4821C19.276 10.5366 19.2093 10.5179 19.1836 10.5073C19.1577 10.4968 19.097 10.4632 19.0893 10.3792L19.0332 9.7755C19.0015 9.43428 18.7414 9.17132 18.4005 9.13607C18.0833 9.10295 17.7617 9.10418 17.4438 9.13943C17.1036 9.1776 16.8454 9.44244 16.8164 9.78412L16.7648 10.3885C16.7576 10.4725 16.6974 10.5066 16.672 10.5173C16.6458 10.5281 16.5791 10.5473 16.5143 10.4934L16.0481 10.1063C15.7842 9.88749 15.4145 9.88535 15.1483 10.1015C14.9005 10.3026 14.674 10.5313 14.4744 10.781C14.2608 11.0486 14.2659 11.4183 14.4869 11.6803L14.8777 12.1434C14.9317 12.2079 14.9132 12.2749 14.9027 12.3005C14.8919 12.3265 14.8588 12.3872 14.7746 12.3951L14.1711 12.4512C13.8297 12.4829 13.5669 12.743 13.5312 13.0836C13.4986 13.4008 13.4995 13.7226 13.5348 14.0401C13.573 14.3808 13.8378 14.6389 14.1798 14.6677L14.7837 14.7193C14.8679 14.7265 14.902 14.7867 14.9128 14.8127C14.9236 14.8381 14.943 14.905 14.8888 14.9698L14.5016 15.436C14.2827 15.7 14.2809 16.0697 14.497 16.3356C14.6981 16.5837 14.9268 16.8107 15.1761 17.0095C15.4441 17.2233 15.8138 17.2183 16.0758 16.9973L16.5389 16.6064C16.6032 16.5524 16.6706 16.5709 16.696 16.5815C16.7222 16.5923 16.7827 16.6259 16.7903 16.7096L16.8465 17.3138C16.8782 17.6545 17.1383 17.9177 17.4792 17.953C17.6323 17.9688 17.7863 17.9769 17.9404 17.9769C18.1057 17.9769 18.2714 17.9678 18.4358 17.9493C18.776 17.9116 19.0342 17.6463 19.0633 17.3048L19.1149 16.7005C19.122 16.6162 19.1823 16.5822 19.2077 16.5714C19.2338 16.5606 19.3006 16.5416 19.3654 16.5954L19.8318 16.9826C20.0955 17.2014 20.4655 17.2034 20.7313 16.9872C20.9792 16.7861 21.2073 16.5574 21.4041 16.3079C21.62 16.0402 21.6128 15.6704 21.3921 15.4086L21.001 14.9453C20.9483 14.881 20.9665 14.8143 20.9773 14.7882C20.989 14.7627 21.0203 14.7015 21.1042 14.6939L21.7089 14.6378C22.0496 14.6061 22.3136 14.346 22.3495 14.0053C22.3807 13.6879 22.3807 13.3661 22.3447 13.0487L22.3446 13.0487ZM17.9398 15.1648C17.0465 15.1648 16.32 14.4377 16.32 13.5445C16.32 12.6512 17.0465 11.9244 17.9398 11.9244C18.8331 11.9244 19.5598 12.6512 19.5598 13.5445C19.5598 14.4377 18.8331 15.1648 17.9398 15.1648ZM18.5353 8.84316C18.6759 8.84316 18.7904 8.72898 18.7904 8.58811V4.67206C18.7904 3.24779 17.6317 2.08917 16.2072 2.08917H13.0525C12.8889 1.73718 12.5323 1.49218 12.1189 1.49218H11.4378C11.314 0.649027 10.5857 0 9.70925 0C8.83277 0 8.1041 0.649027 7.98074 1.49218H7.29906C6.8859 1.49218 6.52957 1.73713 6.36549 2.08917H3.21082C1.787 2.08917 0.62767 3.24784 0.62767 4.67206V22.4169C0.62767 23.8413 1.78705 25 3.21082 25H16.2072C17.6317 25 18.7904 23.8413 18.7904 22.4169V18.5025C18.7904 18.3612 18.6759 18.2475 18.5353 18.2475C18.3947 18.2475 18.2801 18.3612 18.2801 18.5025V22.4169C18.2801 23.5597 17.35 24.4896 16.2072 24.4896H3.21082C2.06802 24.4896 1.13802 23.5597 1.13802 22.4169V4.67206C1.13802 3.52926 2.06802 2.59927 3.21082 2.59927H6.26855V3.32988H3.21082C2.47108 3.32988 1.86909 3.93186 1.86909 4.67206V22.4169C1.86909 23.1571 2.47108 23.759 3.21082 23.759H16.2072C16.9474 23.759 17.5495 23.1571 17.5495 22.4169V18.492C17.5495 18.3509 17.4353 18.2367 17.2944 18.2367C17.1535 18.2367 17.0394 18.3509 17.0394 18.492V22.4169C17.0394 22.8754 16.666 23.2489 16.2072 23.2489H3.21082C2.7523 23.2489 2.37919 22.8754 2.37919 22.4169V4.67206C2.37919 4.21329 2.7523 3.84018 3.21082 3.84018H6.36549C6.52962 4.19196 6.88595 4.43717 7.29906 4.43717H12.1189C12.5323 4.43717 12.8889 4.19196 13.0525 3.84018H16.2072C16.666 3.84018 17.0394 4.21329 17.0394 4.67206V8.59479C17.0394 8.73561 17.1535 8.84984 17.2944 8.84984C17.4353 8.84984 17.5495 8.73561 17.5495 8.59479V4.67206C17.5495 3.93186 16.9475 3.32988 16.2072 3.32988H13.1497V2.59927H16.2072C17.35 2.59927 18.2801 3.52926 18.2801 4.67206V8.58806C18.2801 8.72893 18.3945 8.84316 18.5353 8.84316ZM9.70925 2.03973C9.48129 2.03973 9.29558 1.85376 9.29558 1.62606C9.29558 1.39836 9.48129 1.21239 9.70925 1.21239C9.9372 1.21239 10.1227 1.3981 10.1227 1.62606C10.1227 1.85402 9.93669 2.03973 9.70925 2.03973ZM7.09248 13.1085L5.27208 14.4524C5.22815 14.485 5.17468 14.502 5.12045 14.502C5.10678 14.502 5.09285 14.501 5.07871 14.4986C5.01081 14.4874 4.95009 14.4489 4.91076 14.3924L4.29867 13.5077C4.21852 13.3918 4.24709 13.233 4.36275 13.1528C4.47938 13.0725 4.63795 13.1015 4.7181 13.2174L5.1807 13.8856L6.78947 12.6979C6.90273 12.6142 7.06227 12.6381 7.14605 12.7516C7.22977 12.8649 7.20579 13.0247 7.09253 13.1084L7.09248 13.1085ZM7.09248 18.1877L5.27208 19.5316C5.22815 19.5642 5.17468 19.5815 5.12045 19.5815C5.10678 19.5815 5.09285 19.5805 5.07871 19.5778C5.01081 19.5668 4.95009 19.5284 4.91076 19.4713L4.29867 18.5871C4.21852 18.4713 4.24709 18.3122 4.36275 18.232C4.47938 18.1519 4.63795 18.1805 4.7181 18.2964L5.1807 18.9648L6.78947 17.7769C6.90273 17.6934 7.06227 17.7179 7.14605 17.8312C7.22977 17.9444 7.20579 18.1042 7.09253 18.1877H7.09248ZM7.09248 8.02903L5.27208 9.3729C5.22815 9.40555 5.17468 9.4228 5.12045 9.4228C5.10678 9.4228 5.09285 9.42183 5.07871 9.41943C5.01081 9.40816 4.95009 9.36979 4.91076 9.3129L4.29867 8.42847C4.21852 8.3126 4.24709 8.15352 4.36275 8.07337C4.47938 7.99322 4.63795 8.02225 4.7181 8.13791L5.1807 8.80637L6.78947 7.61868C6.90273 7.53495 7.06227 7.55893 7.14605 7.6724C7.22977 7.78567 7.20579 7.94521 7.09253 8.02893L7.09248 8.02903ZM12.175 19.3889C12.3159 19.3889 12.4301 19.5031 12.4301 19.6439C12.4301 19.7847 12.3159 19.899 12.175 19.899H8.69767C8.55681 19.899 8.44237 19.7848 8.44237 19.6439C8.44237 19.503 8.55681 19.3889 8.69767 19.3889H12.175ZM15.6527 18.4555H8.69767C8.55681 18.4555 8.44237 18.3413 8.44237 18.2004C8.44237 18.0596 8.55681 17.9454 8.69767 17.9454H15.6527C15.7941 17.9454 15.9078 18.0596 15.9078 18.2004C15.9078 18.3413 15.7941 18.4555 15.6527 18.4555ZM8.44237 14.5647C8.44237 14.4238 8.55681 14.3096 8.69767 14.3096H12.175C12.3159 14.3096 12.4301 14.4238 12.4301 14.5647C12.4301 14.7055 12.3159 14.82 12.175 14.82H8.69767C8.55681 14.82 8.44237 14.7055 8.44237 14.5647ZM13.0185 13.1215C13.0185 13.2623 12.9043 13.3765 12.7634 13.3765H8.69767C8.55681 13.3765 8.44237 13.2623 8.44237 13.1215C8.44237 12.9806 8.55681 12.8661 8.69767 12.8661H12.7634C12.9043 12.8661 13.0185 12.9803 13.0185 13.1215ZM8.44237 9.4852C8.44237 9.34433 8.55681 9.23015 8.69767 9.23015H12.175C12.3159 9.23015 12.4301 9.34438 12.4301 9.4852C12.4301 9.62601 12.3159 9.7405 12.175 9.7405H8.69767C8.55681 9.7405 8.44237 9.62627 8.44237 9.4852ZM15.6527 8.29704H8.69767C8.55681 8.29704 8.44237 8.18281 8.44237 8.04199C8.44237 7.90118 8.55681 7.78694 8.69767 7.78694H15.6527C15.7941 7.78694 15.9078 7.90112 15.9078 8.04199C15.9078 8.18286 15.7941 8.29704 15.6527 8.29704ZM3.51025 13.1282V14.558C3.51025 14.9836 3.85673 15.3301 4.28239 15.3301H5.71243C6.1381 15.3301 6.48432 14.9836 6.48432 14.558V14.4433C6.48432 14.3024 6.37008 14.1882 6.22927 14.1882C6.08845 14.1882 5.97422 14.3025 5.97422 14.4433V14.558C5.97422 14.7022 5.85687 14.82 5.71243 14.82H4.28239C4.13795 14.82 4.02061 14.7022 4.02061 14.558V13.1282C4.02061 12.9837 4.13795 12.8662 4.28239 12.8662H5.71243C5.74652 12.8662 5.78034 12.8729 5.81152 12.8858C5.94203 12.9398 6.09106 12.8782 6.14503 12.7479C6.19927 12.6178 6.13733 12.4686 6.00728 12.4146C5.91345 12.3757 5.81391 12.356 5.71238 12.356H4.28234C3.85668 12.356 3.51025 12.7023 3.51025 13.1282ZM4.02061 8.04873C4.02061 7.90429 4.13795 7.78694 4.28239 7.78694H5.71243C5.74652 7.78694 5.78034 7.79342 5.81152 7.80658C5.94203 7.86056 6.09106 7.79893 6.14503 7.66863C6.19927 7.53832 6.13733 7.38909 6.00728 7.33511C5.91345 7.29623 5.81391 7.27659 5.71238 7.27659H4.28234C3.85668 7.27659 3.5102 7.62306 3.5102 8.04873V9.47851C3.5102 9.90438 3.85668 10.2507 4.28234 10.2507H5.71238C6.13804 10.2507 6.48427 9.90443 6.48427 9.47851V9.36407C6.48427 9.22326 6.37003 9.10903 6.22922 9.10903C6.0884 9.10903 5.97417 9.22326 5.97417 9.36407V9.47851C5.97417 9.62295 5.85682 9.74055 5.71238 9.74055H4.28234C4.1379 9.74055 4.02056 9.62295 4.02056 9.47851L4.02061 8.04873ZM3.51025 18.2076V19.6372C3.51025 20.0628 3.85673 20.4093 4.28239 20.4093H5.71243C6.1381 20.4093 6.48432 20.0628 6.48432 19.6372V19.5225C6.48432 19.3816 6.37008 19.2674 6.22927 19.2674C6.08845 19.2674 5.97422 19.3817 5.97422 19.5225V19.6372C5.97422 19.7816 5.85687 19.899 5.71243 19.899H4.28239C4.13795 19.899 4.02061 19.7816 4.02061 19.6372V18.2076C4.02061 18.0627 4.13795 17.9454 4.28239 17.9454H5.71243C5.74652 17.9454 5.78034 17.9521 5.81152 17.9653C5.94203 18.0193 6.09106 17.9576 6.14503 17.8271C6.19927 17.697 6.13733 17.548 6.00728 17.4938C5.91345 17.4552 5.81391 17.4352 5.71238 17.4352H4.28234C3.85668 17.4352 3.5102 17.7815 3.5102 18.2076L3.51025 18.2076Z" fill="black"/>
</svg>
