<svg width="42" height="33" viewBox="0 0 42 33" fill="none" xmlns="http://www.w3.org/2000/svg">
<path d="M2.10725 25.8562V5.54199C1.3908 5.73165 0.674264 5.96348 0 6.17418V31.8198C5.65637 30.2564 11.667 30.5669 17.1322 32.7049C13.4182 28.9496 8.35826 26.8331 3.07666 26.8256C2.54592 26.8144 2.11851 26.3869 2.10725 25.8562Z" fill="#0A0A0A"/>
<path d="M4.08812 0L4.0249 24.9923C10.228 25.3135 16.0133 28.2176 19.977 33V9.16667C16.3582 3.84526 10.5062 0.4691 4.08812 0Z" fill="#0A0A0A"/>
<path d="M39.7011 5.58423V25.8773C39.69 26.408 39.2625 26.8355 38.7318 26.8466C33.462 26.8513 28.4141 28.9692 24.7184 32.726V32.747C30.1656 30.6014 36.161 30.2761 41.8084 31.8198V6.21631C41.1341 5.98458 40.4387 5.75284 39.7011 5.58423Z" fill="#0A0A0A"/>
<path d="M37.8044 0C31.3607 0.422477 25.4769 3.80802 21.8734 9.16667V33C25.8323 28.2229 31.6088 25.3194 37.8044 24.9923V0Z" fill="#0A0A0A"/>
</svg>
