<svg width="39" height="36" viewBox="0 0 39 36" fill="none" xmlns="http://www.w3.org/2000/svg">
<path d="M22.6408 15.245H29.1872C29.4418 15.245 29.6489 15.4522 29.6489 15.7067V16.1685H22.1792V15.7067C22.1792 15.4522 22.3863 15.245 22.6409 15.245H22.6408ZM38.7059 16.9779H0.29408C0.174363 16.9779 0.0731812 17.0791 0.0731812 17.1988V19.0282C0.0731812 19.1479 0.174363 19.2491 0.29408 19.2491H38.7059C38.8256 19.2491 38.9268 19.1479 38.9268 19.0282V17.1988C38.9268 17.0791 38.8256 16.9779 38.7059 16.9779ZM34.1527 36H36.4238V20.0585H34.1527V36ZM5.65694 36H33.3432V20.0585H5.65685L5.65694 36ZM2.57625 36H4.84748V20.0585H2.57625V36ZM12.482 13.8895L13.2738 13.0977L11.6346 10.9894C11.4898 11.0322 11.3432 11.074 11.1936 11.1145L12.482 13.8895ZM18.8141 11.7883H23.9208V8.83548C23.9208 8.30715 24.3507 7.87725 24.879 7.87725H26.9489C27.4772 7.87725 27.9071 8.30715 27.9071 8.83548V11.7883H33.0139C33.0946 11.7883 33.1627 11.7201 33.1627 11.6395V2.83065C33.1627 2.75003 33.0946 2.68187 33.0139 2.68187H18.8141C18.7335 2.68187 18.6653 2.75003 18.6653 2.83065V11.6394C18.6653 11.72 18.7335 11.7883 18.8141 11.7883ZM15.8614 8.79007C16.6585 7.99009 17.1508 6.69829 17.1461 5.41895C17.1447 5.04102 17.101 4.68316 17.0156 4.35193C16.1827 4.12043 15.7363 3.748 15.1325 2.87808C13.9553 5.16211 11.8053 5.52709 10.6018 5.7314C10.5629 5.73803 10.5251 5.74443 10.4887 5.75066C10.5616 6.91797 11.0354 8.05922 11.7636 8.79007C12.3364 9.36494 13.0449 9.66881 13.8125 9.66881C14.5801 9.66881 15.2886 9.36494 15.8614 8.79007ZM26.9489 8.6867H24.879C24.7983 8.6867 24.7303 8.75486 24.7303 8.83548V14.4356H27.0977V8.83548C27.0977 8.75486 27.0295 8.6867 26.9489 8.6867ZM10.1971 10.5371C10.6133 10.4311 11.0099 10.3295 11.3844 10.2194L11.3973 9.55427C11.327 9.49259 11.2576 9.42897 11.1902 9.36138C10.2324 8.40016 9.66396 6.92518 9.66938 5.41596C9.67011 5.22711 9.80124 5.06384 9.98547 5.02256C10.1244 4.9914 10.2828 4.96452 10.4662 4.93336C11.7036 4.72323 13.7746 4.37168 14.6805 1.89355C14.7335 1.74874 14.8641 1.64658 15.0174 1.63015C15.1711 1.61324 15.3201 1.68576 15.4026 1.816C16.2466 3.14884 16.5499 3.41896 17.4306 3.62213C17.5692 3.65418 17.6809 3.75666 17.7246 3.89208C17.7775 4.05583 17.8209 4.22541 17.8557 4.39953V2.83073C17.8557 2.70397 17.881 2.58312 17.9259 2.47222C17.1151 0.963975 15.523 0 13.8124 0C11.2396 0 9.14648 2.09308 9.14648 4.66592C9.14648 4.94081 9.15036 5.20898 9.15417 5.46841C9.17869 7.15579 9.20023 8.63077 8.10018 10.1525C8.54352 10.3751 9.0402 10.5568 9.5818 10.6959C9.78959 10.641 9.99559 10.5885 10.1971 10.5372L10.1971 10.5371ZM13.4069 15.7895V15.4173C13.4069 15.1938 13.5881 15.0126 13.8116 15.0126C14.0351 15.0126 14.2163 15.1938 14.2163 15.4173V15.7895C14.2163 15.9642 14.1049 16.1118 13.9497 16.1685H21.3697V15.7067C21.3697 15.336 21.5301 15.003 21.784 14.7704C21.7691 13.8345 21.4046 13.1399 20.6428 12.5976H18.814C18.2857 12.5976 17.8558 12.1677 17.8558 11.6393V11.484C17.6453 11.4285 17.4344 11.374 17.2279 11.3214L15.6335 14.7555C15.5778 14.8754 15.4672 14.9605 15.337 14.9836C15.3134 14.9877 15.2898 14.9898 15.2663 14.9898C15.16 14.9898 15.0568 14.9478 14.9802 14.8713L13.8125 13.7037L12.6448 14.8713C12.5514 14.9648 12.4183 15.0065 12.288 14.9837C12.1579 14.9606 12.0471 14.8754 11.9915 14.7556L10.3972 11.3215H10.3968C8.15611 11.892 5.8393 12.4819 5.8393 14.8304V16.1685H13.6734C13.5182 16.1119 13.4068 15.9643 13.4068 15.7895H13.4069ZM17.8558 10.6468V6.52846C17.6539 7.62713 17.1542 8.63927 16.4347 9.36138C16.3673 9.42897 16.298 9.49259 16.2276 9.55427L16.2405 10.2195C16.615 10.3295 17.0115 10.4311 17.4276 10.5371C17.5685 10.573 17.7118 10.6096 17.8558 10.6468ZM15.4341 10.386L15.4285 10.0964C14.9296 10.3476 14.3847 10.4782 13.8124 10.4782C13.2401 10.4782 12.6953 10.3476 12.1963 10.0964L12.1907 10.386L13.8124 12.4719L15.434 10.386H15.4341ZM16.4314 11.1144C16.2817 11.0739 16.1351 11.0322 15.9903 10.9893L14.3512 13.0976L15.1431 13.8894L16.4314 11.1144Z" fill="black"/>
</svg>
