<svg width="110" height="110" viewBox="0 0 110 110" fill="none" xmlns="http://www.w3.org/2000/svg">
<path d="M73.9397 40.2115C73.8026 40.029 73.6306 39.8757 73.4335 39.7605C73.2365 39.6453 73.0185 39.5706 72.7922 39.5407C72.566 39.5108 72.336 39.5263 72.1158 39.5863C71.8956 39.6464 71.6896 39.7497 71.5099 39.8903C71.3301 40.0309 71.1802 40.206 71.0689 40.4052C70.9576 40.6045 70.8872 40.8239 70.8617 41.0507C70.8363 41.2775 70.8563 41.5072 70.9207 41.7261C70.9851 41.9451 71.0924 42.149 71.2366 42.326C74.0762 45.9383 75.6124 50.404 75.5959 54.9988C75.5952 59.572 74.0723 64.0149 71.2675 67.627C68.4627 71.2391 64.5354 73.8148 60.1049 74.9482C55.6744 76.0816 50.9927 75.7081 46.7979 73.8867C42.6031 72.0652 39.1338 68.8994 36.9371 64.8883C34.7404 60.8772 33.9413 56.2491 34.6656 51.7336C35.3899 47.2182 37.5966 43.0722 40.9376 39.9495C44.2787 36.8267 48.564 34.9048 53.1181 34.4868C57.6721 34.0687 62.2358 35.1783 66.0895 37.6406C66.4732 37.8859 66.9387 37.9688 67.3835 37.8709C67.8283 37.7731 68.216 37.5026 68.4614 37.1188C68.7067 36.7351 68.7896 36.2697 68.6917 35.8248C68.5939 35.38 68.3233 34.9923 67.9396 34.747C62.8626 31.5047 56.7535 30.2864 50.8212 31.3331C44.8889 32.3798 39.5656 35.6153 35.9048 40.3993C32.244 45.1833 30.5125 51.1673 31.0528 57.167C31.5931 63.1666 34.3659 68.7449 38.8225 72.7979C43.2791 76.8509 49.0948 79.0832 55.1187 79.0532C61.1426 79.0232 66.9358 76.733 71.3518 72.6358C75.7678 68.5386 78.4849 62.933 78.9654 56.9282C79.4459 50.9235 77.6548 44.9571 73.9465 40.2098L73.9397 40.2115Z" fill="#03D8D4"/>
<path d="M81.1635 73.878C80.8845 73.5926 80.7127 73.2197 80.6771 72.8222C80.6414 72.4247 80.7441 72.0271 80.9679 71.6966C82.8013 68.8596 84.1536 65.7392 84.9702 62.4614L89.3895 64.672C89.3707 64.8797 89.326 65.0822 89.326 65.295C89.3212 66.9428 89.9073 68.5377 90.9782 69.7901C92.049 71.0426 93.5335 71.8694 95.1621 72.1206C96.7906 72.3718 98.4552 72.0306 99.8537 71.159C101.252 70.2875 102.292 68.9433 102.783 67.3706C103.275 65.7979 103.187 64.101 102.534 62.5879C101.881 61.0749 100.708 59.8461 99.2261 59.1247C97.7446 58.4033 96.0535 58.2372 94.4599 58.6564C92.8663 59.0756 91.4759 60.0524 90.5412 61.4094L85.6327 58.9551C85.9581 56.4253 85.9737 53.8651 85.679 51.3315C85.1253 46.6937 83.5083 42.2464 80.9541 38.336L84.8449 34.4452C87.9368 36.9168 91.8577 38.1105 95.8023 37.7813C99.747 37.452 103.416 35.6247 106.055 32.6748C108.694 29.7248 110.104 25.8761 109.994 21.9193C109.884 17.9625 108.263 14.198 105.464 11.399C102.665 8.60005 98.9008 6.97916 94.944 6.86929C90.9872 6.75943 87.1385 8.16892 84.1886 10.8083C81.2386 13.4476 79.4113 17.1164 79.082 21.061C78.7528 25.0056 79.9465 28.9265 82.4181 32.0184L78.9152 35.5213C73.9464 29.3808 66.8091 25.3831 58.9774 24.3536C58.2223 24.2592 57.4688 24.2026 56.7171 24.1614V20.4302C58.335 20.0125 59.7449 19.0191 60.6827 17.6362C61.6205 16.2532 62.0217 14.5758 61.8112 12.9182C61.6006 11.2606 60.7928 9.73669 59.539 8.63212C58.2853 7.52756 56.6718 6.91816 55.0009 6.91816C53.33 6.91816 51.7164 7.52756 50.4627 8.63212C49.2089 9.73669 48.4011 11.2606 48.1905 12.9182C47.98 14.5758 48.3812 16.2532 49.319 17.6362C50.2568 19.0191 51.6668 20.0125 53.2846 20.4302V24.1631C46.2843 24.5354 39.6222 27.2923 34.4057 31.9755L27.5853 25.1551C30.0569 22.0632 31.2507 18.1423 30.9214 14.1977C30.5921 10.253 28.7648 6.58427 25.8149 3.94493C22.8649 1.3056 19.0162 -0.103896 15.0594 0.00597236C11.1026 0.115841 7.33809 1.73673 4.53913 4.53569C1.74016 7.33466 0.119273 11.0992 0.00940488 15.056C-0.100463 19.0128 1.30903 22.8615 3.94837 25.8114C6.5877 28.7614 10.2565 30.5887 14.2011 30.918C18.1457 31.2472 22.0667 30.0535 25.1585 27.5819L31.9772 34.404C27.2948 39.6211 24.5376 46.2827 24.1631 53.2829H20.432C20.0142 51.665 19.0208 50.2551 17.6379 49.3173C16.2549 48.3795 14.5775 47.9783 12.9199 48.1888C11.2623 48.3994 9.7384 49.2072 8.63384 50.461C7.52927 51.7147 6.91988 53.3282 6.91988 54.9991C6.91988 56.67 7.52927 58.2836 8.63384 59.5373C9.7384 60.7911 11.2623 61.5989 12.9199 61.8095C14.5775 62.02 16.2549 61.6188 17.6379 60.681C19.0208 59.7432 20.0142 58.3332 20.432 56.7154H24.1648C24.2043 57.4671 24.2626 58.2206 24.357 58.9757C25.0474 64.3326 27.1535 69.4086 30.4583 73.6806L25.1551 78.9839C22.0632 76.5123 18.1423 75.3185 14.1977 75.6478C10.253 75.9771 6.58427 77.8044 3.94493 80.7543C1.3056 83.7043 -0.103896 87.553 0.00597236 91.5098C0.115841 95.4666 1.73673 99.2311 4.53569 102.03C7.33466 104.829 11.0992 106.45 15.056 106.56C19.0128 106.67 22.8615 105.26 25.8114 102.621C28.7614 99.9815 30.5887 96.3127 30.918 92.3681C31.2472 88.4235 30.0535 84.5025 27.5819 81.4107L32.6998 76.2928C37.6294 81.4943 44.2191 84.8132 51.3332 85.6773C53.2381 85.8979 55.1591 85.9445 57.0724 85.8163L58.2171 90.3953C56.828 91.2803 55.8051 92.637 55.3364 94.216C54.8676 95.795 54.9846 97.4901 55.6658 98.9898C56.347 100.489 57.5467 101.693 59.0442 102.379C60.5417 103.064 62.2365 103.187 63.8169 102.723C65.3973 102.259 66.7572 101.24 67.6465 99.8537C68.5358 98.4673 68.8948 96.8065 68.6574 95.1766C68.4201 93.5467 67.6024 92.0573 66.3547 90.9821C65.1069 89.9069 63.513 89.3182 61.8659 89.3243C61.7406 89.3243 61.6239 89.3552 61.4986 89.3621L60.5032 85.3821C64.4914 84.6672 68.2975 83.1661 71.7001 80.9661C72.0302 80.7422 72.4275 80.6394 72.8248 80.675C73.2221 80.7107 73.5948 80.8827 73.8797 81.1618L101.132 108.411C101.61 108.889 102.177 109.269 102.802 109.528C103.427 109.787 104.096 109.92 104.772 109.919C104.911 109.919 105.05 109.919 105.189 109.902C105.937 109.841 106.662 109.617 107.314 109.247C107.966 108.877 108.529 108.369 108.965 107.759C109.662 106.731 109.975 105.49 109.85 104.255C109.724 103.019 109.168 101.867 108.279 101L81.1635 73.878ZM96.1911 61.8642C96.87 61.8642 97.5336 62.0655 98.0981 62.4427C98.6626 62.8198 99.1025 63.3559 99.3623 63.9831C99.6221 64.6103 99.6901 65.3005 99.5576 65.9664C99.4252 66.6322 99.0983 67.2438 98.6182 67.7239C98.1382 68.2039 97.5266 68.5308 96.8607 68.6633C96.1949 68.7957 95.5047 68.7277 94.8775 68.4679C94.2503 68.2081 93.7142 67.7682 93.337 67.2037C92.9599 66.6392 92.7586 65.9756 92.7586 65.2967C92.7586 64.3863 93.1202 63.5133 93.7639 62.8695C94.4076 62.2258 95.2807 61.8642 96.1911 61.8642ZM94.4748 10.3764C96.8509 10.3764 99.1737 11.081 101.149 12.4011C103.125 13.7212 104.665 15.5975 105.574 17.7927C106.483 19.988 106.721 22.4035 106.258 24.734C105.794 27.0644 104.65 29.2051 102.97 30.8853C101.29 32.5654 99.1491 33.7096 96.8186 34.1732C94.4882 34.6367 92.0726 34.3988 89.8773 33.4895C87.6821 32.5802 85.8058 31.0404 84.4857 29.0647C83.1656 27.0891 82.461 24.7663 82.461 22.3902C82.4646 19.2051 83.7315 16.1514 85.9838 13.8992C88.236 11.6469 91.2897 10.38 94.4748 10.3764ZM15.5269 103.054C13.1508 103.054 10.828 102.35 8.85237 101.03C6.87671 99.7096 5.33687 97.8333 4.42757 95.6381C3.51827 93.4428 3.28036 91.0273 3.74391 88.6968C4.20747 86.3664 5.35167 84.2257 7.03184 82.5455C8.712 80.8654 10.8527 79.7212 13.1831 79.2576C15.5136 78.7941 17.9291 79.032 20.1244 79.9413C22.3196 80.8506 24.1959 82.3904 25.516 84.3661C26.8361 86.3417 27.5407 88.6645 27.5407 91.0406C27.5371 94.2257 26.2702 97.2794 24.0179 99.5316C21.7657 101.784 18.712 103.051 15.5269 103.054ZM65.2984 96.1894C65.2984 96.8683 65.0971 97.5319 64.7199 98.0964C64.3428 98.6609 63.8067 99.1008 63.1795 99.3606C62.5522 99.6204 61.8621 99.6884 61.1962 99.5559C60.5304 99.4235 59.9188 99.0966 59.4387 98.6165C58.9587 98.1365 58.6318 97.5249 58.4993 96.859C58.3669 96.1932 58.4349 95.503 58.6947 94.8758C58.9545 94.2486 59.3944 93.7125 59.9589 93.3353C60.5234 92.9582 61.187 92.7569 61.8659 92.7569C62.7763 92.7569 63.6493 93.1185 64.2931 93.7622C64.9368 94.4059 65.2984 95.279 65.2984 96.1894ZM51.5683 13.8089C51.5683 13.13 51.7697 12.4664 52.1468 11.9019C52.524 11.3374 53.0601 10.8975 53.6873 10.6377C54.3145 10.3779 55.0047 10.3099 55.6705 10.4423C56.3364 10.5748 56.948 10.9017 57.428 11.3818C57.9081 11.8618 58.235 12.4734 58.3674 13.1393C58.4999 13.8051 58.4319 14.4953 58.1721 15.1225C57.9123 15.7497 57.4723 16.2858 56.9079 16.6629C56.3434 17.0401 55.6797 17.2414 55.0009 17.2414C54.0905 17.2414 53.2174 16.8798 52.5737 16.2361C51.93 15.5923 51.5683 14.7193 51.5683 13.8089ZM15.5269 27.539C13.1508 27.539 10.828 26.8344 8.85237 25.5143C6.87671 24.1942 5.33687 22.3179 4.42757 20.1227C3.51827 17.9274 3.28036 15.5118 3.74391 13.1814C4.20747 10.8509 5.35167 8.71028 7.03184 7.03012C8.712 5.34996 10.8527 4.20575 13.1831 3.7422C15.5136 3.27864 17.9291 3.51656 20.1244 4.42585C22.3196 5.33515 24.1959 6.87499 25.516 8.85065C26.8361 10.8263 27.5407 13.1491 27.5407 15.5252C27.5371 18.7103 26.2702 21.764 24.0179 24.0162C21.7657 26.2684 18.712 27.5354 15.5269 27.539ZM13.8106 58.4317C13.1317 58.4317 12.4681 58.2304 11.9036 57.8532C11.3391 57.476 10.8992 56.9399 10.6394 56.3127C10.3796 55.6855 10.3116 54.9953 10.4441 54.3295C10.5765 53.6636 10.9034 53.052 11.3835 52.572C11.8635 52.0919 12.4751 51.765 13.141 51.6326C13.8068 51.5001 14.497 51.5681 15.1242 51.8279C15.7514 52.0877 16.2875 52.5277 16.6647 53.0921C17.0418 53.6566 17.2431 54.3203 17.2431 54.9991C17.2431 55.9095 16.8815 56.7826 16.2378 57.4263C15.5941 58.07 14.721 58.4317 13.8106 58.4317ZM106.181 105.754C106.037 105.961 105.848 106.134 105.629 106.26C105.409 106.386 105.165 106.461 104.913 106.482C104.665 106.504 104.414 106.471 104.18 106.385C103.946 106.299 103.734 106.162 103.559 105.984L76.3099 78.735C75.8363 78.2581 75.2729 77.8797 74.6522 77.6216C74.0316 77.3636 73.3659 77.231 72.6938 77.2316C71.6795 77.2362 70.6883 77.5342 69.8396 78.0897C64.483 81.5617 58.0766 83.0409 51.74 82.2688C46.6239 81.6561 41.7834 79.6163 37.7717 76.3826C33.7601 73.1489 30.7393 68.8518 29.0545 63.9823C27.3696 59.1129 27.0889 53.8677 28.2442 48.8462C29.3996 43.8248 31.9444 39.2297 35.5879 35.5862C39.2314 31.9427 43.8265 29.3979 48.8479 28.2425C53.8694 27.0872 59.1146 27.3679 63.9841 29.0527C68.8535 30.7375 73.1506 33.7584 76.3843 37.77C79.618 41.7816 81.6578 46.6221 82.2705 51.7382C83.0415 58.0757 81.5598 64.4825 78.0845 69.8379C77.4304 70.8262 77.138 72.0102 77.2569 73.1894C77.3757 74.3685 77.8985 75.4704 78.7367 76.3082L105.854 103.425C106.168 103.716 106.373 104.107 106.432 104.531C106.492 104.956 106.403 105.388 106.181 105.754Z" fill="#03D8D4"/>
<path d="M41.2708 61.8645V64.9298C41.2761 65.9087 41.5569 66.8664 42.0811 67.6931C42.6053 68.5199 43.3516 69.1824 44.2347 69.6049C47.5749 71.284 51.2615 72.1586 55 72.1586C58.7384 72.1586 62.4251 71.284 65.7652 69.6049C66.6488 69.1828 67.3956 68.5205 67.9201 67.6936C68.4446 66.8668 68.7256 65.9089 68.7309 64.9298V61.8645C68.726 59.1383 67.9105 56.475 66.3879 54.2135C64.8654 51.952 62.7047 50.1944 60.1805 49.1642C61.2625 47.929 61.8612 46.3441 61.8659 44.702C61.8659 42.8812 61.1426 41.1351 59.8551 39.8476C58.5677 38.5602 56.8216 37.8369 55.0008 37.8369C53.1801 37.8369 51.434 38.5602 50.1465 39.8476C48.8591 41.1351 48.1358 42.8812 48.1358 44.702C48.1405 46.3441 48.7391 47.929 49.8212 49.1642C47.297 50.1944 45.1363 51.952 43.6137 54.2135C42.0912 56.475 41.2756 59.1383 41.2708 61.8645ZM51.5683 44.702C51.5683 44.0231 51.7696 43.3594 52.1468 42.7949C52.524 42.2305 53.06 41.7905 53.6873 41.5307C54.3145 41.2709 55.0046 41.2029 55.6705 41.3354C56.3363 41.4678 56.9479 41.7947 57.428 42.2748C57.908 42.7548 58.2349 43.3665 58.3674 44.0323C58.4998 44.6981 58.4319 45.3883 58.1721 46.0155C57.9123 46.6427 57.4723 47.1788 56.9078 47.556C56.3434 47.9332 55.6797 48.1345 55.0008 48.1345C54.0905 48.1345 53.2174 47.7728 52.5737 47.1291C51.9299 46.4854 51.5683 45.6123 51.5683 44.702ZM55.0008 51.567C57.7311 51.5697 60.3487 52.6555 62.2793 54.5861C64.2099 56.5167 65.2957 59.1343 65.2984 61.8645V64.9298C65.295 65.2606 65.1986 65.5839 65.0201 65.8625C64.8416 66.1411 64.5884 66.3639 64.2892 66.5053C61.4136 67.9749 58.2302 68.7411 55.0008 68.7411C51.7714 68.7411 48.5881 67.9749 45.7124 66.5053C45.4133 66.3639 45.16 66.1411 44.9815 65.8625C44.8031 65.5839 44.7066 65.2606 44.7033 64.9298V61.8645C44.706 59.1343 45.7918 56.5167 47.7224 54.5861C49.6529 52.6555 52.2706 51.5697 55.0008 51.567Z" fill="#03D8D4"/>
<path d="M88.7014 31.6043C92.4155 33.0454 96.5342 33.0454 100.248 31.6043C101.073 31.29 101.782 30.7331 102.283 30.0072C102.785 29.2814 103.054 28.4206 103.056 27.5385C103.051 26.0326 102.648 24.5548 101.889 23.2544C101.13 21.954 100.04 20.8772 98.7312 20.1329C99.2579 19.359 99.5637 18.4562 99.6157 17.5215C99.6677 16.5868 99.4638 15.6556 99.0261 14.8281C98.5883 14.0006 97.9332 13.3081 97.1313 12.8251C96.3294 12.3421 95.411 12.0869 94.4749 12.0869C93.5387 12.0869 92.6203 12.3421 91.8184 12.8251C91.0165 13.3081 90.3614 14.0006 89.9237 14.8281C89.4859 15.6556 89.2821 16.5868 89.334 17.5215C89.386 18.4562 89.6918 19.359 90.2185 20.1329C88.9094 20.8772 87.8201 21.954 87.0607 23.2544C86.3012 24.5548 85.8986 26.0326 85.8936 27.5385C85.8957 28.4206 86.1651 29.2814 86.6664 30.0072C87.1676 30.7331 87.8772 31.29 88.7014 31.6043ZM92.7586 17.241C92.7586 16.9015 92.8592 16.5697 93.0478 16.2875C93.2364 16.0052 93.5045 15.7853 93.8181 15.6554C94.1317 15.5255 94.4768 15.4915 94.8097 15.5577C95.1426 15.6239 95.4484 15.7874 95.6884 16.0274C95.9285 16.2674 96.0919 16.5732 96.1581 16.9061C96.2244 17.2391 96.1904 17.5842 96.0605 17.8978C95.9306 18.2114 95.7106 18.4794 95.4284 18.668C95.1461 18.8566 94.8143 18.9572 94.4749 18.9572C94.0197 18.9572 93.5831 18.7764 93.2613 18.4545C92.9394 18.1327 92.7586 17.6962 92.7586 17.241ZM94.4749 22.3897C95.8404 22.3897 97.15 22.9322 98.1156 23.8978C99.0812 24.8634 99.6236 26.173 99.6236 27.5385C99.625 27.7239 99.5699 27.9053 99.4656 28.0586C99.3614 28.2118 99.213 28.3298 99.0401 28.3967C96.1071 29.5534 92.8443 29.5534 89.9113 28.3967C89.7381 28.33 89.5893 28.2122 89.4848 28.0589C89.3802 27.9056 89.3249 27.7241 89.3261 27.5385C89.3261 26.173 89.8685 24.8634 90.8341 23.8978C91.7997 22.9322 93.1093 22.3897 94.4749 22.3897Z" fill="#03D8D4"/>
<path d="M19.7829 88.7833C20.3097 88.0094 20.6155 87.1065 20.6675 86.1718C20.7194 85.2372 20.5156 84.306 20.0778 83.4785C19.6401 82.651 18.985 81.9585 18.1831 81.4755C17.3812 80.9925 16.4627 80.7373 15.5266 80.7373C14.5905 80.7373 13.672 80.9925 12.8701 81.4755C12.0682 81.9585 11.4132 82.651 10.9754 83.4785C10.5377 84.306 10.3338 85.2372 10.3858 86.1718C10.4377 87.1065 10.7435 88.0094 11.2703 88.7833C9.9612 89.5276 8.87185 90.6044 8.11242 91.9048C7.35298 93.2052 6.95037 94.683 6.94531 96.1889C6.94742 97.071 7.21687 97.9318 7.71814 98.6576C8.2194 99.3835 8.92893 99.9403 9.75311 100.255C13.4672 101.696 17.586 101.696 21.3001 100.255C22.1243 99.9403 22.8338 99.3835 23.3351 98.6576C23.8363 97.9318 24.1058 97.071 24.1079 96.1889C24.1028 94.683 23.7002 93.2052 22.9408 91.9048C22.1814 90.6044 21.092 89.5276 19.7829 88.7833ZM13.8104 85.8914C13.8104 85.5519 13.911 85.2201 14.0996 84.9379C14.2882 84.6556 14.5562 84.4356 14.8698 84.3057C15.1834 84.1758 15.5285 84.1419 15.8614 84.2081C16.1944 84.2743 16.5002 84.4378 16.7402 84.6778C16.9802 84.9178 17.1437 85.2236 17.2099 85.5565C17.2761 85.8895 17.2421 86.2345 17.1122 86.5481C16.9823 86.8617 16.7624 87.1298 16.4801 87.3184C16.1979 87.507 15.8661 87.6076 15.5266 87.6076C15.0714 87.6076 14.6349 87.4268 14.313 87.1049C13.9912 86.7831 13.8104 86.3465 13.8104 85.8914ZM20.0919 97.047C17.1589 98.2038 13.8961 98.2038 10.9631 97.047C10.7899 96.9804 10.6411 96.8626 10.5365 96.7093C10.432 96.556 10.3766 96.3745 10.3778 96.1889C10.3778 94.8234 10.9203 93.5138 11.8859 92.5482C12.8515 91.5826 14.1611 91.0401 15.5266 91.0401C16.8922 91.0401 18.2018 91.5826 19.1673 92.5482C20.1329 93.5138 20.6754 94.8234 20.6754 96.1889C20.6767 96.3743 20.6216 96.5557 20.5174 96.7089C20.4132 96.8622 20.2647 96.9802 20.0919 97.047Z" fill="#03D8D4"/>
<path d="M19.7829 13.2676C20.3097 12.4938 20.6155 11.5909 20.6675 10.6562C20.7194 9.72153 20.5156 8.79035 20.0778 7.96287C19.6401 7.13538 18.985 6.44289 18.1831 5.9599C17.3812 5.4769 16.4627 5.22168 15.5266 5.22168C14.5905 5.22168 13.672 5.4769 12.8701 5.9599C12.0682 6.44289 11.4132 7.13538 10.9754 7.96287C10.5377 8.79035 10.3338 9.72153 10.3858 10.6562C10.4377 11.5909 10.7435 12.4938 11.2703 13.2676C9.9612 14.012 8.87185 15.0888 8.11242 16.3892C7.35298 17.6895 6.95037 19.1674 6.94531 20.6733C6.94742 21.5554 7.21687 22.4162 7.71814 23.142C8.2194 23.8679 8.92893 24.4247 9.75311 24.7391C13.4672 26.1802 17.586 26.1802 21.3001 24.7391C22.1243 24.4247 22.8338 23.8679 23.3351 23.142C23.8363 22.4162 24.1058 21.5554 24.1079 20.6733C24.1028 19.1674 23.7002 17.6895 22.9408 16.3892C22.1814 15.0888 21.092 14.012 19.7829 13.2676ZM13.8104 10.3757C13.8104 10.0363 13.911 9.70447 14.0996 9.42224C14.2882 9.14 14.5562 8.92002 14.8698 8.79012C15.1834 8.66022 15.5285 8.62623 15.8614 8.69246C16.1944 8.75868 16.5002 8.92214 16.7402 9.16216C16.9802 9.40218 17.1437 9.70799 17.2099 10.0409C17.2761 10.3738 17.2421 10.7189 17.1122 11.0325C16.9823 11.3461 16.7624 11.6142 16.4801 11.8028C16.1979 11.9913 15.8661 12.092 15.5266 12.092C15.0714 12.092 14.6349 11.9112 14.313 11.5893C13.9912 11.2675 13.8104 10.8309 13.8104 10.3757ZM20.0919 21.5314C17.1589 22.6881 13.8961 22.6881 10.9631 21.5314C10.7899 21.4648 10.6411 21.347 10.5365 21.1937C10.432 21.0404 10.3766 20.8589 10.3778 20.6733C10.3778 19.3078 10.9203 17.9981 11.8859 17.0326C12.8515 16.067 14.1611 15.5245 15.5266 15.5245C16.8922 15.5245 18.2018 16.067 19.1673 17.0326C20.1329 17.9981 20.6754 19.3078 20.6754 20.6733C20.6767 20.8587 20.6216 21.04 20.5174 21.1933C20.4132 21.3466 20.2647 21.4645 20.0919 21.5314Z" fill="#03D8D4"/>
</svg>
