<svg width="76" height="70" viewBox="0 0 76 70" fill="none" xmlns="http://www.w3.org/2000/svg">
<path fill-rule="evenodd" clip-rule="evenodd" d="M53.7841 60.6114V70H28.1673V60.6114H53.7841ZM50.9549 34.9929C51.0251 36.5456 52.2662 37.7937 53.7436 37.7937C55.2708 37.7937 56.5298 36.4628 56.5298 34.856V28.0377C56.5298 26.4312 55.2715 25.0996 53.7436 25.0996C52.2134 25.0996 50.9566 26.4268 50.9566 28.0377L50.9549 34.9929ZM42.9317 25.5187V34.8555C42.9317 36.4627 44.1906 37.7937 45.7181 37.7939C47.2456 37.7937 48.5049 36.4627 48.5049 34.8555C48.5133 34.8555 48.4937 25.5187 48.5096 25.5187C48.5096 23.9108 47.2447 22.5856 45.718 22.5856C44.188 22.5856 42.9317 23.9081 42.9317 25.5187ZM34.9068 22.5549V25.8786H35.5466C37.5108 25.8786 39.2779 26.7972 40.4801 28.2468C40.4801 26.3494 40.4801 24.4523 40.4801 22.5549C40.4801 20.9477 39.2212 19.6167 37.6935 19.6167C36.166 19.6168 34.9068 20.9479 34.9068 22.5549ZM27.3074 25.8786H32.4552V24.3342C32.4552 22.7235 31.1989 21.4009 29.6687 21.4009C28.1385 21.4009 26.8821 22.7235 26.8821 24.334V25.8874C27.0238 25.8815 27.1656 25.8786 27.3074 25.8786ZM69.4309 19.8884C70.0153 19.5322 70.7635 19.742 71.102 20.3571C71.4405 20.9723 71.2411 21.7598 70.6567 22.1161L64.9478 25.5854C64.3634 25.9417 63.6152 25.7319 63.2767 25.1167C62.9383 24.5016 63.1376 23.7141 63.722 23.3578L69.4309 19.8884ZM6.56435 60.1079C5.97994 60.4614 5.23389 60.2492 4.89802 59.634C4.56215 59.0189 4.76379 58.2336 5.34819 57.8801L11.0571 54.4107C11.6415 54.0572 12.3875 54.2693 12.7234 54.8846C13.0593 55.4997 12.8576 56.285 12.2732 56.6385L6.56435 60.1079ZM1.22581 40.8749C0.548855 40.8749 0 40.2972 0 39.5846C0 38.8721 0.548855 38.2944 1.22581 38.2944H7.81789C8.49484 38.2944 9.04369 38.8721 9.04369 39.5846C9.04369 40.2972 8.49484 40.8749 7.81789 40.8749H1.22581ZM5.73616 21.4C5.15176 21.0437 4.95241 20.2562 5.29089 19.641C5.62936 19.0259 6.37756 18.8161 6.96197 19.1723L12.6709 22.6417C13.2553 22.998 13.4546 23.7855 13.1161 24.4006C12.7777 25.0158 12.0295 25.2256 11.445 24.8693L5.73616 21.4ZM55.6691 6.04279C56.005 5.42765 56.751 5.21557 57.3354 5.56894C57.9198 5.92247 58.1213 6.70775 57.7856 7.32289L54.4895 13.332C54.1537 13.9471 53.4076 14.1592 52.8232 13.8058C52.2388 13.4523 52.0373 12.667 52.373 12.0519L55.6691 6.04279ZM18.8949 6.91452C18.5564 6.29939 18.7558 5.51184 19.3402 5.15557C19.9246 4.79929 20.6728 5.00912 21.0112 5.62426L24.3073 11.6333C24.6458 12.2485 24.4464 13.036 23.862 13.3923C23.2776 13.7486 22.5294 13.5387 22.1909 12.9236L18.8949 6.91452ZM37.1671 1.29026C37.1671 0.577715 37.7159 0 38.3929 0C39.0698 0 39.6187 0.577715 39.6187 1.29026V8.22898C39.6187 8.94152 39.0698 9.51924 38.3929 9.51924C37.7159 9.51924 37.1671 8.94152 37.1671 8.22898V1.29026ZM70.2591 58.5963C70.8435 58.9499 71.045 59.7351 70.7093 60.3503C70.3734 60.9654 69.6273 61.1775 69.0429 60.8241L63.3341 57.3548C62.7496 57.0012 62.5482 56.216 62.8839 55.6008C63.2197 54.9857 63.9658 54.7736 64.5502 55.127L70.2591 58.5963ZM74.7742 39.1214C75.4511 39.1214 76 39.6991 76 40.4117C76 41.1242 75.4511 41.7019 74.7742 41.7019H68.1821C67.5052 41.7019 66.9563 41.1242 66.9563 40.4117C66.9563 39.6991 67.5052 39.1214 68.1821 39.1214H74.7742ZM28.1672 58.0309C28.1002 51.6396 18.3853 51.176 19.0089 41.4257L19.405 35.2337C19.6647 31.1718 23.4397 28.459 27.3074 28.459H35.5466C37.8003 28.459 39.6443 30.3999 39.6443 32.7722C39.6443 35.1445 37.8003 37.0854 35.5466 37.0854C32.587 37.0854 29.6273 37.0854 26.6677 37.0854C25.9908 37.0854 25.4419 37.6631 25.4419 38.3756C25.4419 39.0882 25.9908 39.6659 26.6677 39.6659H28.9851C36.9262 39.6659 36.9165 44.5505 36.9092 48.3031C36.9066 49.6263 36.9038 46.4088 36.9038 48.6899C36.9038 49.4024 37.4527 49.9801 38.1296 49.9801C38.8066 49.9801 39.3554 49.4024 39.3554 48.6899C39.3554 46.1537 39.3492 49.366 39.3511 48.3031C39.357 45.3213 39.3634 41.7897 36.9892 39.4967C38.5553 39.1237 39.9116 38.1569 40.8321 36.8346C41.5922 38.8942 43.499 40.3639 45.7158 40.3639C47.2493 40.3639 48.7442 39.6248 49.7307 38.3916C51.5488 40.6747 54.7235 41.017 56.9381 39.2182C58.2647 47.5044 58.6473 52.6858 53.7839 58.0305H28.1672V58.0309ZM32.7762 63.4469C31.8009 63.4469 31.0105 64.2791 31.0105 65.3055C31.0105 66.3319 31.8011 67.1643 32.7762 67.1643C33.7515 67.1643 34.5422 66.3321 34.5422 65.3055C34.5422 64.279 33.7515 63.4469 32.7762 63.4469Z" fill="#11B0AC"/>
</svg>
