<svg width="113" height="142" viewBox="0 0 113 142" fill="none" xmlns="http://www.w3.org/2000/svg">
<path d="M15.4034 63.6514H97.1915C98.3409 63.6514 99.2715 62.7197 99.2715 61.5713C99.2715 60.4218 98.3409 59.4912 97.1915 59.4912H15.4034C14.255 59.4912 13.3233 60.4218 13.3233 61.5713C13.3233 62.7197 14.255 63.6514 15.4034 63.6514Z" fill="#11B0AC"/>
<path d="M15.4034 82.4077H97.1915C98.3409 82.4077 99.2715 81.4771 99.2715 80.3276C99.2715 79.1793 98.3409 78.2476 97.1915 78.2476H15.4034C14.255 78.2476 13.3233 79.1793 13.3233 80.3276C13.3233 81.4771 14.255 82.4077 15.4034 82.4077Z" fill="#11B0AC"/>
<path d="M15.4034 101.165H97.1915C98.3409 101.165 99.2715 100.235 99.2715 99.0852C99.2715 97.9357 98.3409 97.0051 97.1915 97.0051H15.4034C14.255 97.0051 13.3233 97.9357 13.3233 99.0852C13.3233 100.235 14.255 101.165 15.4034 101.165Z" fill="#11B0AC"/>
<path d="M15.4034 119.922H56.2974C57.4458 119.922 58.3775 118.991 58.3775 117.842C58.3775 116.693 57.4458 115.762 56.2974 115.762H15.4034C14.255 115.762 13.3233 116.693 13.3233 117.842C13.3233 118.991 14.255 119.922 15.4034 119.922Z" fill="#11B0AC"/>
<path d="M111.985 32.9887L79.6051 0.608855C79.2151 0.218841 78.6864 0 78.1339 0H9.42209C4.22732 0 0 4.22623 0 9.42209V24.7756C0 25.9251 0.9317 26.8557 2.08007 26.8557C3.22845 26.8557 4.16015 25.9251 4.16015 24.7756V9.42209C4.16015 6.52082 6.52082 4.16015 9.42209 4.16015H76.0538V28.9119C76.0538 33.1176 79.4762 36.54 83.6818 36.54H108.434V106.13C108.434 107.279 109.365 108.21 110.514 108.21C111.663 108.21 112.594 107.279 112.594 106.13V34.4599C112.594 33.9085 112.375 33.3798 111.985 32.9887ZM80.2139 28.9119V7.1015L105.492 32.3798H83.6818C81.7697 32.3798 80.2139 30.8241 80.2139 28.9119Z" fill="#11B0AC"/>
<path d="M110.514 114.959C109.365 114.959 108.434 115.889 108.434 117.039V132.578C108.434 135.479 106.074 137.84 103.172 137.84H9.42209C6.52082 137.84 4.16015 135.479 4.16015 132.578V35.6212C4.16015 34.4728 3.22953 33.5411 2.08007 33.5411C0.9317 33.5411 0 34.4728 0 35.6212V132.578C0 137.773 4.22732 142 9.42209 142H103.172C108.368 142 112.594 137.773 112.594 132.578V117.039C112.594 115.889 111.663 114.959 110.514 114.959Z" fill="#11B0AC"/>
<path d="M31.2802 46.5504C41.1822 46.5504 49.2371 38.4944 49.2371 28.5924C49.2371 18.6915 41.1822 10.6355 31.2802 10.6355C21.3793 10.6355 13.3233 18.6915 13.3233 28.5924C13.3233 38.4944 21.3793 46.5504 31.2802 46.5504ZM28.0312 25.0985C28.0312 23.3077 29.4883 21.8495 31.2802 21.8495C33.0721 21.8495 34.5292 23.3077 34.5292 25.0985C34.5292 26.8904 33.0721 28.3486 31.2802 28.3486C29.4894 28.3486 28.0312 26.8904 28.0312 25.0985ZM31.2802 32.5088C35.3732 32.5088 39.1953 34.5043 41.5506 37.7956C41.2017 38.1856 40.8301 38.5551 40.439 38.9028C40.4271 38.9137 40.4152 38.9234 40.4044 38.9343C40.3935 38.944 40.3827 38.9527 40.3719 38.9624C37.9007 41.1238 34.7036 42.3664 31.3744 42.3891C31.3734 42.3891 31.3712 42.3891 31.369 42.3891C31.3398 42.3891 31.3094 42.3902 31.2802 42.3902C31.2509 42.3902 31.2217 42.3902 31.1914 42.3891C31.1892 42.3891 31.1881 42.3891 31.1859 42.3891C27.8589 42.3664 24.664 41.1248 22.1929 38.9657C22.1788 38.9538 22.1658 38.9418 22.1528 38.931C22.143 38.9223 22.1333 38.9137 22.1224 38.905C21.7314 38.5562 21.3598 38.1867 21.0098 37.7967C23.3651 34.5043 27.1872 32.5088 31.2802 32.5088ZM31.2802 14.7956C38.8876 14.7956 45.0769 20.985 45.0769 28.5924C45.0769 30.5511 44.6674 32.4156 43.9286 34.1046C42.1139 32.0267 39.8215 30.4341 37.2691 29.4569C38.1618 28.2327 38.6894 26.7268 38.6894 25.0985C38.6894 21.0142 35.3656 17.6893 31.2802 17.6893C27.1948 17.6893 23.871 21.0131 23.871 25.0985C23.871 26.7268 24.3986 28.2327 25.2913 29.4569C22.74 30.4341 20.4465 32.0267 18.6329 34.1046C17.894 32.4156 17.4835 30.5511 17.4835 28.5924C17.4835 20.985 23.6728 14.7956 31.2802 14.7956Z" fill="black"/>
</svg>
