<svg width="25" height="25" viewBox="0 0 25 25" fill="none" xmlns="http://www.w3.org/2000/svg">
<path fill-rule="evenodd" clip-rule="evenodd" d="M23.4975 13.0357L18.658 10.8082C18.5908 10.7771 18.5116 10.7771 18.4444 10.8082L13.6049 13.0357C13.5137 13.0776 13.4561 13.1679 13.4561 13.2674V15.5862C13.4561 18.5847 14.2599 20.8301 15.8435 22.2597C16.5945 22.9362 17.6142 23.4617 18.5044 23.6316C18.5188 23.6347 18.5355 23.6362 18.5523 23.6362C18.5667 23.6362 18.5835 23.6347 18.6003 23.6316C19.4904 23.4617 20.5102 22.9362 21.2588 22.2597C22.8424 20.8301 23.6462 18.5846 23.6462 15.5862V13.2674C23.6462 13.1679 23.5886 13.0776 23.4974 13.0357H23.4975ZM21.3957 16.2357L17.5999 19.0092C17.4799 19.0955 17.336 19.1271 17.192 19.098C17.0528 19.0699 16.9328 18.9868 16.8585 18.8633L15.5748 16.7704C15.5028 16.6541 15.4836 16.5169 15.5148 16.3847C15.546 16.2515 15.6275 16.1393 15.7451 16.0684C15.9851 15.9214 16.3018 15.998 16.4481 16.2393L17.2975 17.6219C17.3336 17.6826 17.3959 17.725 17.4655 17.7388C17.5351 17.7526 17.6071 17.7362 17.6646 17.6944L20.7886 15.4107C21.0165 15.2444 21.338 15.2934 21.5036 15.5209C21.6716 15.7485 21.6212 16.0695 21.3957 16.2357ZM24.4813 11.9995L18.9243 9.4409C18.6796 9.32916 18.4228 9.32916 18.1805 9.4409L17.5423 9.73427V3.3654C17.5423 2.67204 16.9784 2.10826 16.285 2.10826H15.4357V1.25724C15.4357 0.563825 14.8718 0 14.1784 0H3.67149C3.6043 0 3.53955 0.0270918 3.49154 0.0751019L0.0748148 3.493C0.0268557 3.54086 0.000427246 3.60576 0.000427246 3.67305V19.045C0.000427246 19.7378 0.561855 20.302 1.25527 20.302H2.10706V21.153C2.10706 21.8459 2.67088 22.4102 3.36435 22.4102H14.1327C14.3799 22.7173 14.6486 23.0025 14.939 23.2637C16.405 24.5867 17.9694 24.9183 18.4132 24.9887C18.4612 24.9964 18.5068 25 18.5524 25C18.598 25 18.6436 24.9964 18.6892 24.9887C19.1355 24.9183 20.6999 24.5867 22.1659 23.2637C23.0033 22.5071 23.6679 21.5526 24.1382 20.427C24.7093 19.0617 24.9996 17.4331 24.9996 15.5862V12.8066C24.9996 12.4556 24.8004 12.1465 24.4813 11.9995V11.9995ZM1.25532 19.7918C0.845017 19.7918 0.509151 19.4567 0.509151 19.045V3.92815H2.67093C3.36435 3.92815 3.92823 3.36438 3.92823 2.67101V0.510356H14.1784C14.5887 0.510356 14.9245 0.845559 14.9245 1.25729V10.9394L12.6212 11.9996C12.302 12.1466 12.1029 12.4557 12.1029 12.8067V15.5863C12.1029 17.1552 12.3141 18.5654 12.7268 19.7919L1.25532 19.7918ZM24.4885 15.5863C24.4885 18.8337 23.5911 21.2893 21.8228 22.8852C20.4623 24.1138 19.0203 24.4205 18.61 24.4847C18.5692 24.4914 18.5356 24.4914 18.4924 24.4847C18.0845 24.4205 16.6425 24.1138 15.2797 22.8852C13.5113 21.2893 12.614 18.8337 12.614 15.5863V12.8067C12.614 12.6526 12.6956 12.5276 12.8347 12.4628L18.3941 9.90462C18.4469 9.88018 18.4996 9.86789 18.5524 9.86789C18.6028 9.86789 18.6556 9.88018 18.7108 9.90462L24.2701 12.4628C24.4093 12.5276 24.4884 12.6526 24.4884 12.8067V15.5863H24.4885ZM9.85229 14.9169C9.99148 14.9169 10.1066 15.0311 10.1066 15.172C10.1066 15.3128 9.99148 15.4271 9.85229 15.4271H6.84108C6.70189 15.4271 6.58674 15.3128 6.58674 15.172C6.58674 15.0311 6.70189 14.9169 6.84108 14.9169H9.85229ZM11.3375 13.6674C11.4791 13.6674 11.5942 13.7817 11.5942 13.9225C11.5942 14.0632 11.4791 14.1776 11.3375 14.1776H6.84108C6.70189 14.1776 6.58674 14.0638 6.58674 13.9225C6.58674 13.7811 6.70189 13.6674 6.84108 13.6674H11.3375ZM5.16868 9.13218C5.28383 9.04855 5.4422 9.07258 5.52618 9.18626C5.61016 9.29952 5.58618 9.45927 5.47338 9.54294L3.897 10.7062C3.85384 10.7388 3.80103 10.7556 3.74583 10.7556C3.73144 10.7556 3.71705 10.7546 3.70506 10.7525C3.63547 10.7408 3.57547 10.7026 3.5371 10.6459L3.00685 9.88013C2.92527 9.76427 2.95404 9.60559 3.06925 9.52544C3.1868 9.44544 3.34517 9.47401 3.42435 9.58978L3.80583 10.1393L5.16868 9.13212V9.13218ZM5.16868 4.73637C5.28383 4.65269 5.4422 4.67667 5.52618 4.78989C5.61016 4.9032 5.58618 5.06285 5.47338 5.14652L3.897 6.30983C3.85384 6.34244 3.80103 6.35978 3.74583 6.35978C3.73144 6.35978 3.71705 6.3583 3.70506 6.35621C3.63547 6.34499 3.57547 6.30626 3.5371 6.24953L3.00685 5.48427C2.92527 5.36841 2.95404 5.20927 3.06925 5.12912C3.1868 5.04897 3.34517 5.07759 3.42435 5.19397L3.80583 5.74295L5.16868 4.73637ZM5.16868 13.5287C5.28383 13.445 5.4422 13.469 5.52618 13.5822C5.61016 13.696 5.58618 13.8552 5.47338 13.9394L3.897 15.1021C3.85384 15.1347 3.80103 15.1521 3.74583 15.1521C3.73144 15.1521 3.71705 15.151 3.70506 15.1485C3.63547 15.1373 3.57547 15.0991 3.5371 15.0424L3.00685 14.2766C2.92527 14.1607 2.95404 14.0021 3.06925 13.9215C3.1868 13.8415 3.34517 13.8705 3.42435 13.9863L3.80583 14.5358L5.16868 13.5287ZM3.02124 7.07616C2.63257 7.07616 2.31823 6.76085 2.31823 6.37356V5.13581C2.31823 4.74856 2.63257 4.43326 3.02124 4.43326H4.25695C4.27373 4.43326 4.29052 4.43382 4.30496 4.4353C4.44654 4.44494 4.5521 4.56688 4.54251 4.70718C4.53292 4.84805 4.41052 4.9531 4.27139 4.94392C4.26659 4.94392 4.2618 4.94346 4.257 4.94346H3.02129C2.91333 4.94346 2.82695 5.03014 2.82695 5.13575V6.37351C2.82695 6.47963 2.91333 6.56585 3.02129 6.56585H4.257C4.35537 6.56585 4.44174 6.48881 4.44894 6.3904C4.46093 6.24953 4.58572 6.1455 4.72486 6.15769C4.86644 6.16999 4.9696 6.29341 4.95761 6.43371C4.92644 6.79391 4.6193 7.07611 4.257 7.07611H3.02129L3.02124 7.07616ZM4.72481 14.9506C4.86639 14.9623 4.96955 15.0863 4.95756 15.2267C4.92639 15.5863 4.61924 15.8685 4.25695 15.8685H3.02124C2.63257 15.8685 2.31823 15.5536 2.31823 15.1659V13.9286C2.31823 13.5415 2.63257 13.2262 3.02124 13.2262H4.25695C4.27373 13.2262 4.28812 13.2267 4.30496 13.2277C4.44654 13.2369 4.5521 13.3578 4.54251 13.4986C4.53292 13.6395 4.41292 13.747 4.27139 13.7369C4.26659 13.7364 4.2618 13.7363 4.257 13.7363H3.02129C2.91333 13.7363 2.82695 13.8226 2.82695 13.9286V15.1659C2.82695 15.272 2.91333 15.3582 3.02129 15.3582H4.257C4.35537 15.3582 4.44174 15.2812 4.44894 15.1828C4.46093 15.0425 4.58567 14.9383 4.72481 14.9506ZM3.02124 11.4726C2.63257 11.4726 2.31823 11.1573 2.31823 10.77V9.53228C2.31823 9.14508 2.63257 8.82973 3.02124 8.82973H4.25695C4.27373 8.82973 4.29052 8.83029 4.30496 8.83131C4.44654 8.84095 4.5521 8.96289 4.54251 9.10376C4.53292 9.24406 4.41052 9.34916 4.27139 9.34044C4.26659 9.33998 4.2618 9.33998 4.257 9.33998H3.02129C2.91333 9.33998 2.82695 9.4262 2.82695 9.53233V10.7701C2.82695 10.8763 2.91333 10.9625 3.02129 10.9625H4.257C4.35537 10.9625 4.44174 10.8849 4.44894 10.7864C4.46093 10.646 4.58572 10.5425 4.72486 10.5543C4.86644 10.5665 4.9696 10.69 4.95761 10.8303C4.92644 11.1905 4.6193 11.4726 4.257 11.4726H3.02129L3.02124 11.4726ZM6.84108 9.78177C6.70189 9.78177 6.58674 9.66753 6.58674 9.52666C6.58674 9.3858 6.70189 9.27166 6.84108 9.27166H12.8611C13.0027 9.27166 13.1178 9.38534 13.1178 9.52666C13.1178 9.66799 13.0027 9.78177 12.8611 9.78177H6.84108ZM6.84108 11.0308C6.70189 11.0308 6.58674 10.9165 6.58674 10.7756C6.58674 10.6348 6.70189 10.5205 6.84108 10.5205H9.85229C9.99148 10.5205 10.1066 10.6348 10.1066 10.7756C10.1066 10.9165 9.99148 11.0308 9.85229 11.0308H6.84108ZM6.84108 5.3854C6.70189 5.3854 6.58674 5.27116 6.58674 5.1303C6.58674 4.98943 6.70189 4.87514 6.84108 4.87514H12.8611C13.0027 4.87514 13.1178 4.98948 13.1178 5.1303C13.1178 5.27111 13.0027 5.3854 12.8611 5.3854H6.84108ZM6.58674 6.37927C6.58674 6.23841 6.70189 6.12417 6.84108 6.12417H9.85229C9.99148 6.12417 10.1066 6.23841 10.1066 6.37927C10.1066 6.52014 9.99148 6.63437 9.85229 6.63437H6.84108C6.70189 6.63437 6.58674 6.5206 6.58674 6.37927Z" fill="black"/>
</svg>
