<svg width="170" height="170" viewBox="0 0 170 170" fill="none" xmlns="http://www.w3.org/2000/svg">
<path d="M161.645 116.211C162.855 114.724 163.649 112.943 163.946 111.049C164.243 109.155 164.032 107.216 163.334 105.43C162.637 103.644 161.478 102.075 159.976 100.884C158.474 99.6924 156.682 98.9209 154.785 98.6482C153.467 95.5352 151.04 93.0233 147.974 91.6008C149.536 89.6815 150.394 87.2848 150.405 84.8098C150.405 81.909 149.253 79.127 147.201 77.0758C145.15 75.0247 142.368 73.8723 139.467 73.8723C136.567 73.8723 133.785 75.0247 131.733 77.0758C129.682 79.127 128.53 81.909 128.53 84.8098C128.54 87.2848 129.399 89.6814 130.961 91.6007C128.918 92.5538 127.143 93.9989 125.796 95.8064C124.448 93.9989 122.673 92.5538 120.63 91.6007C122.193 89.6814 123.051 87.2848 123.061 84.8098C123.061 81.909 121.909 79.127 119.858 77.0758C117.806 75.0247 115.024 73.8723 112.124 73.8723C109.223 73.8723 106.441 75.0247 104.39 77.0758C102.338 79.127 101.186 81.909 101.186 84.8098C101.197 87.2848 102.055 89.6814 103.617 91.6007C100.551 93.0233 98.1237 95.5352 96.8066 98.6481C94.9088 98.9208 93.1175 99.6923 91.6154 100.884C90.1133 102.075 88.9543 103.644 88.2567 105.43C87.5592 107.216 87.3481 109.155 87.6449 111.049C87.9418 112.943 88.736 114.724 89.9464 116.211C87.5919 117.305 85.5981 119.048 84.1988 121.236C82.7994 123.423 82.0525 125.963 82.0455 128.56V142.232C82.0454 142.74 82.1868 143.237 82.4537 143.669C82.7207 144.101 83.1027 144.451 83.5569 144.678L87.5143 146.656V166.841C87.5142 167.2 87.5848 167.556 87.7222 167.888C87.8596 168.219 88.061 168.521 88.315 168.775C88.5689 169.029 88.8704 169.23 89.2021 169.367C89.5339 169.505 89.8895 169.576 90.2487 169.575H106.655C107.014 169.576 107.37 169.505 107.701 169.367C108.033 169.23 108.335 169.029 108.589 168.775C108.843 168.521 109.044 168.219 109.181 167.888C109.319 167.556 109.389 167.2 109.389 166.841V146.656L112.124 145.289L114.858 146.656V166.841C114.858 167.2 114.929 167.556 115.066 167.888C115.203 168.219 115.405 168.521 115.659 168.775C115.913 169.029 116.214 169.23 116.546 169.367C116.878 169.505 117.233 169.576 117.592 169.575H133.999C134.358 169.576 134.713 169.505 135.045 169.367C135.377 169.23 135.678 169.029 135.932 168.775C136.186 168.521 136.388 168.219 136.525 167.888C136.662 167.556 136.733 167.2 136.733 166.841V146.656L139.467 145.289L142.202 146.656V166.841C142.202 167.2 142.272 167.556 142.41 167.888C142.547 168.219 142.749 168.521 143.002 168.775C143.256 169.029 143.558 169.23 143.89 169.367C144.221 169.505 144.577 169.576 144.936 169.575H161.342C161.702 169.576 162.057 169.505 162.389 169.367C162.721 169.23 163.022 169.029 163.276 168.775C163.53 168.521 163.731 168.219 163.869 167.888C164.006 167.556 164.077 167.2 164.077 166.841V146.656L168.034 144.678C168.488 144.451 168.87 144.101 169.137 143.669C169.404 143.237 169.546 142.74 169.546 142.232V128.56C169.539 125.963 168.792 123.423 167.392 121.236C165.993 119.048 163.999 117.306 161.645 116.211ZM158.608 109.419C158.608 110.501 158.287 111.558 157.686 112.457C157.085 113.357 156.231 114.058 155.232 114.472C154.233 114.886 153.133 114.994 152.072 114.783C151.012 114.572 150.037 114.051 149.272 113.286C148.507 112.521 147.987 111.547 147.776 110.486C147.565 109.425 147.673 108.326 148.087 107.326C148.501 106.327 149.202 105.473 150.101 104.872C151 104.271 152.058 103.95 153.139 103.95C154.589 103.952 155.979 104.529 157.004 105.554C158.03 106.579 158.606 107.969 158.608 109.419ZM139.467 79.3411C140.549 79.3411 141.606 79.6618 142.506 80.2627C143.405 80.8636 144.106 81.7177 144.52 82.717C144.934 83.7163 145.042 84.8159 144.831 85.8767C144.62 86.9376 144.099 87.912 143.334 88.6768C142.57 89.4416 141.595 89.9625 140.534 90.1735C139.473 90.3845 138.374 90.2762 137.375 89.8623C136.375 89.4484 135.521 88.7474 134.92 87.8481C134.319 86.9488 133.999 85.8914 133.999 84.8098C134 83.3599 134.577 81.9699 135.602 80.9447C136.627 79.9194 138.018 79.3427 139.467 79.3411ZM136.733 95.7473H142.202C143.535 95.7475 144.847 96.0728 146.026 96.6949C147.205 97.317 148.214 98.2172 148.966 99.3175C146.967 100.144 145.257 101.545 144.053 103.343C142.849 105.141 142.205 107.255 142.202 109.419C142.212 111.895 143.071 114.292 144.634 116.211C142.589 117.174 140.814 118.627 139.467 120.441C138.12 118.627 136.346 117.174 134.301 116.211C135.864 114.292 136.722 111.895 136.733 109.419C136.73 107.255 136.086 105.141 134.882 103.343C133.678 101.545 131.968 100.144 129.969 99.3175C130.721 98.2172 131.73 97.317 132.909 96.6949C134.088 96.0728 135.4 95.7475 136.733 95.7473ZM120.327 109.419C120.327 108.338 120.648 107.28 121.248 106.381C121.849 105.482 122.703 104.781 123.703 104.367C124.702 103.953 125.802 103.845 126.862 104.056C127.923 104.267 128.898 104.787 129.663 105.552C130.427 106.317 130.948 107.291 131.159 108.352C131.37 109.413 131.262 110.513 130.848 111.512C130.434 112.511 129.733 113.365 128.834 113.966C127.934 114.567 126.877 114.888 125.796 114.888C124.346 114.886 122.956 114.31 121.93 113.284C120.905 112.259 120.328 110.869 120.327 109.419ZM112.124 79.3411C113.205 79.3411 114.263 79.6618 115.162 80.2627C116.061 80.8636 116.762 81.7177 117.176 82.717C117.59 83.7163 117.698 84.8159 117.487 85.8767C117.276 86.9376 116.755 87.912 115.991 88.6768C115.226 89.4416 114.251 89.9625 113.191 90.1735C112.13 90.3845 111.03 90.2762 110.031 89.8623C109.032 89.4484 108.177 88.7474 107.577 87.8481C106.976 86.9488 106.655 85.8914 106.655 84.8098C106.657 83.3599 107.233 81.9699 108.258 80.9447C109.284 79.9194 110.674 79.3427 112.124 79.3411ZM109.389 95.7473H114.858C116.191 95.7475 117.504 96.0728 118.682 96.6949C119.861 97.317 120.87 98.2172 121.622 99.3175C119.623 100.144 117.913 101.545 116.709 103.343C115.505 105.141 114.861 107.255 114.858 109.419C114.869 111.895 115.727 114.292 117.29 116.211C115.246 117.174 113.471 118.627 112.124 120.441C110.777 118.627 109.002 117.174 106.957 116.211C108.52 114.292 109.379 111.895 109.389 109.419C109.386 107.255 108.742 105.141 107.538 103.343C106.334 101.545 104.625 100.144 102.625 99.3175C103.377 98.2172 104.386 97.317 105.565 96.6949C106.744 96.0728 108.056 95.7475 109.389 95.7473ZM98.4518 103.95C99.5334 103.95 100.591 104.271 101.49 104.872C102.389 105.473 103.09 106.327 103.504 107.326C103.918 108.326 104.026 109.425 103.815 110.486C103.604 111.547 103.084 112.521 102.319 113.286C101.554 114.051 100.58 114.572 99.5187 114.783C98.4579 114.994 97.3583 114.886 96.359 114.472C95.3597 114.058 94.5056 113.357 93.9047 112.457C93.3038 111.558 92.983 110.501 92.983 109.419C92.9847 107.969 93.5614 106.579 94.5866 105.554C95.6119 104.529 97.0019 103.952 98.4518 103.95ZM105.432 142.52C104.978 142.747 104.596 143.096 104.329 143.528C104.062 143.96 103.92 144.458 103.921 144.966V164.107H92.983V144.966C92.9831 144.458 92.8418 143.96 92.5749 143.528C92.3079 143.096 91.9259 142.747 91.4717 142.52L87.5143 140.541V128.56C87.5167 126.385 88.3817 124.3 89.9195 122.762C91.4574 121.224 93.5425 120.359 95.7174 120.357H101.186C103.361 120.359 105.446 121.224 106.984 122.762C108.522 124.3 109.387 126.385 109.389 128.56V140.541L105.432 142.52ZM132.776 142.52C132.321 142.747 131.939 143.096 131.672 143.528C131.406 143.96 131.264 144.458 131.264 144.966V164.107H120.327V144.966C120.327 144.458 120.186 143.96 119.919 143.528C119.652 143.096 119.27 142.747 118.815 142.52L114.858 140.541V128.56C114.86 126.385 115.725 124.3 117.263 122.762C118.801 121.224 120.886 120.359 123.061 120.357H128.53C130.705 120.359 132.79 121.224 134.328 122.762C135.866 124.3 136.731 126.385 136.733 128.56V140.541L132.776 142.52ZM164.077 140.541L160.119 142.52C159.665 142.747 159.283 143.096 159.016 143.528C158.749 143.96 158.608 144.458 158.608 144.966V164.107H147.671V144.966C147.671 144.458 147.529 143.96 147.262 143.528C146.995 143.096 146.613 142.747 146.159 142.52L142.202 140.541V128.56C142.204 126.385 143.069 124.3 144.607 122.762C146.145 121.224 148.23 120.359 150.405 120.357H155.874C158.049 120.359 160.134 121.224 161.672 122.762C163.209 124.3 164.074 126.385 164.077 128.56V140.541Z" fill="black"/>
<path d="M51.9674 8.24731C43.8553 8.24731 35.9253 10.6528 29.1803 15.1597C22.4354 19.6665 17.1783 26.0723 14.0739 33.5669C10.9695 41.0616 10.1573 49.3084 11.7399 57.2647C13.3225 65.2209 17.2288 72.5292 22.965 78.2654C28.7011 84.0015 36.0094 87.9079 43.9656 89.4905C51.9219 91.0731 60.1688 90.2608 67.6634 87.1564C75.158 84.0521 81.5638 78.795 86.0706 72.05C90.5775 65.305 92.983 57.3751 92.983 49.2629C92.9709 38.3886 88.6458 27.9632 80.9565 20.2739C73.2672 12.5846 62.8417 8.25942 51.9674 8.24731ZM41.0299 83.0703V76.6067C41.0323 74.4318 41.8973 72.3467 43.4352 70.8088C44.973 69.271 47.0581 68.4059 49.233 68.4036H54.7018C56.8766 68.4059 58.9618 69.271 60.4996 70.8088C62.0375 72.3467 62.9025 74.4318 62.9049 76.6067V83.0703C55.7977 85.3897 48.1371 85.3897 41.0299 83.0703ZM51.9674 62.9348C50.8858 62.9348 49.8284 62.6141 48.9291 62.0132C48.0298 61.4123 47.3288 60.5582 46.9149 59.5589C46.501 58.5596 46.3927 57.46 46.6037 56.3992C46.8147 55.3383 47.3356 54.3639 48.1004 53.5991C48.8652 52.8343 49.8397 52.3134 50.9005 52.1024C51.9613 51.8914 53.0609 51.9997 54.0602 52.4136C55.0595 52.8275 55.9136 53.5285 56.5145 54.4278C57.1154 55.3271 57.4361 56.3844 57.4361 57.4661C57.4345 58.916 56.8578 60.306 55.8326 61.3312C54.8073 62.3565 53.4173 62.9332 51.9674 62.9348ZM68.3736 80.7657V76.6067C68.3667 74.0102 67.6197 71.4696 66.2204 69.2825C64.821 67.0953 62.8273 65.3524 60.4728 64.258C62.0359 62.3385 62.8943 59.9415 62.9049 57.4661C62.9049 54.5653 61.7525 51.7833 59.7014 49.7321C57.6502 47.6809 54.8682 46.5286 51.9674 46.5286C49.0666 46.5286 46.2846 47.6809 44.2334 49.7321C42.1822 51.7833 41.0299 54.5653 41.0299 57.4661C41.0405 59.9415 41.8988 62.3385 43.462 64.258C41.1075 65.3524 39.1138 67.0953 37.7144 69.2825C36.3151 71.4696 35.5681 74.0102 35.5611 76.6067V80.7657C28.5009 77.0925 22.8775 71.1562 19.5916 63.9075C16.3058 56.6589 15.5475 48.5172 17.4382 40.7864C19.329 33.0556 23.7593 26.183 30.0198 21.2691C36.2803 16.3552 44.0088 13.6844 51.9674 13.6844C59.926 13.6844 67.6544 16.3552 73.9149 21.2691C80.1754 26.183 84.6058 33.0556 86.4966 40.7864C88.3873 48.5172 87.629 56.6589 84.3431 63.9075C81.0573 71.1562 75.4339 77.0925 68.3736 80.7657Z" fill="#11B0AC"/>
<path d="M63.3188 24.838L57.2037 23.9034L54.4428 18.0234C54.2221 17.5532 53.8721 17.1556 53.4338 16.8771C52.9954 16.5986 52.4868 16.4507 51.9674 16.4507C51.448 16.4507 50.9394 16.5986 50.5011 16.8771C50.0627 17.1556 49.7127 17.5532 49.4921 18.0234L46.7311 23.9034L40.6161 24.838C40.1194 24.914 39.6532 25.1254 39.2687 25.4491C38.8843 25.7728 38.5966 26.1962 38.4371 26.6727C38.2776 27.1493 38.2525 27.6606 38.3646 28.1505C38.4768 28.6403 38.7218 29.0898 39.0727 29.4496L43.5775 34.0679L42.5092 40.6207C42.4269 41.1274 42.4889 41.647 42.6879 42.1201C42.887 42.5932 43.2152 43.0007 43.635 43.2961C44.0548 43.5915 44.5492 43.7629 45.0617 43.7905C45.5743 43.8182 46.0843 43.701 46.5334 43.4525L51.9674 40.4471L57.4014 43.4525C57.8506 43.701 58.3606 43.8182 58.8731 43.7905C59.3857 43.7629 59.8801 43.5915 60.2999 43.2961C60.7196 43.0007 61.0478 42.5932 61.2469 42.1201C61.446 41.647 61.5079 41.1274 61.4256 40.6207L60.3575 34.0678L64.8623 29.4494C65.2132 29.0897 65.4582 28.6402 65.5703 28.1504C65.6825 27.6605 65.6574 27.1492 65.4979 26.6726C65.3384 26.1961 65.0507 25.7727 64.6663 25.449C64.2818 25.1253 63.8156 24.914 63.3188 24.838ZM55.4788 31.236C55.1801 31.5421 54.9573 31.9141 54.8283 32.3219C54.6994 32.7298 54.668 33.1622 54.7365 33.5845L55.121 35.9424L53.2919 34.9303C52.8864 34.7061 52.4307 34.5885 51.9674 34.5885C51.5041 34.5885 51.0484 34.7061 50.6429 34.9303L48.8138 35.9424L49.1983 33.5845C49.2669 33.1622 49.2354 32.7298 49.1065 32.3219C48.9775 31.9141 48.7548 31.5421 48.456 31.236L46.7043 29.4389L49.0007 29.0877C49.4445 29.02 49.8647 28.844 50.2243 28.5753C50.5838 28.3066 50.8716 27.9534 51.0622 27.547L51.9674 25.6189L52.8726 27.5469C53.0632 27.9533 53.351 28.3065 53.7106 28.5752C54.0701 28.8439 54.4904 29.0199 54.9341 29.0876L57.2305 29.4388L55.4788 31.236Z" fill="#11B0AC"/>
<path d="M101.186 49.2629C101.194 40.9773 99.1092 32.824 95.1262 25.5585C91.1432 18.2931 85.3904 12.1507 78.4012 7.70082C71.412 3.2509 63.4125 0.637426 55.1442 0.102639C46.8759 -0.432147 38.6064 1.12906 31.1022 4.64156C23.598 8.15407 17.1019 13.5042 12.2162 20.196C7.33041 26.8878 4.21307 34.7047 3.1531 42.9222C2.09313 51.1397 3.12483 59.4919 6.15257 67.2044C9.18031 74.917 14.1061 81.7404 20.4734 87.0422L18.1591 90.9254C17.2391 90.6196 16.2501 90.5878 15.3124 90.834C13.8686 91.223 12.6371 92.167 11.8864 93.4602L0.812725 112.332C0.0677381 113.52 -0.177962 114.954 0.129101 116.322C0.436164 117.69 1.27113 118.882 2.45228 119.637L14.7436 126.904C15.4972 127.35 16.3569 127.584 17.2323 127.582C17.6684 127.582 18.1027 127.526 18.5247 127.417C19.9675 127.028 21.198 126.084 21.9482 124.792L33.0246 105.92C33.6559 104.89 33.9246 103.679 33.7879 102.479C33.6512 101.279 33.117 100.159 32.2704 99.2975L34.6638 95.2807C42.1054 98.1084 50.1231 99.0837 58.0257 98.1226C65.9282 97.1615 73.4784 94.2928 80.0254 89.7639C86.5723 85.235 91.9195 79.1817 95.606 72.1259C99.2924 65.0702 101.208 57.2237 101.186 49.2629ZM28.3087 103.149L17.2083 122.008L5.52843 115.103L16.6288 96.2426L28.3087 103.149ZM27.6324 96.3953L22.9254 93.6122L24.8877 90.3194C26.4131 91.3199 27.9929 92.2348 29.6199 93.0598L27.6324 96.3953ZM51.9674 93.0129C43.3145 93.0129 34.8559 90.447 27.6612 85.6397C20.4666 80.8324 14.859 73.9996 11.5477 66.0053C8.23635 58.0111 7.36995 49.2144 9.05806 40.7277C10.7462 32.241 14.9129 24.4455 21.0315 18.327C27.15 12.2084 34.9455 8.04166 43.4322 6.35356C51.9189 4.66546 60.7155 5.53185 68.7098 8.84319C76.7041 12.1545 83.5369 17.7621 88.3442 24.9567C93.1515 32.1514 95.7174 40.61 95.7174 49.2629C95.7041 60.8621 91.0905 71.9823 82.8887 80.1842C74.6868 88.386 63.5666 92.9997 51.9674 93.0129Z" fill="#11B0AC"/>
</svg>
