<svg width="39" height="36" viewBox="0 0 39 36" fill="none" xmlns="http://www.w3.org/2000/svg">
<path d="M37.2347 27.561C37.2347 27.1665 37.1977 26.7782 37.1361 26.4021L38.6094 25.9213L37.9806 23.9795L36.5073 24.4603C36.1621 23.7638 35.6998 23.1288 35.145 22.5925L36.0573 21.3412L34.4052 20.1391L33.4929 21.3905C32.8148 21.0391 32.0751 20.7925 31.2922 20.6754V19.1282H29.2457V20.6754C28.4628 20.7925 27.7231 21.0391 27.045 21.3905L26.1326 20.1391L24.4806 21.3412L25.3929 22.5925C24.8443 23.135 24.382 23.7638 24.0306 24.4603L22.5573 23.9795L21.9285 25.9213L23.4018 26.4021C23.3402 26.7782 23.3032 27.1665 23.3032 27.561C23.3032 27.9556 23.3402 28.3439 23.4018 28.7199L21.9285 29.2008L22.5573 31.1425L24.0306 30.6617C24.3758 31.3583 24.8381 31.9932 25.3929 32.5295L24.4806 33.7809L26.1326 34.983L27.045 33.7316C27.7231 34.083 28.4628 34.3295 29.2457 34.4467V35.9939H31.2922V34.4467C32.0751 34.3295 32.8148 34.083 33.4929 33.7316L34.4052 34.983L36.0573 33.7809L35.145 32.5295C35.6936 31.9871 36.1559 31.3583 36.5073 30.6617L37.9806 31.1425L38.6094 29.1946L37.1361 28.7138C37.1977 28.3377 37.2347 27.9556 37.2347 27.561ZM30.2689 32.1843C27.7169 32.1843 25.6457 30.1131 25.6457 27.561C25.6457 25.009 27.7169 22.9377 30.2689 22.9377C32.821 22.9377 34.8922 25.009 34.8922 27.561C34.8922 30.1131 32.821 32.1843 30.2689 32.1843Z" fill="black"/>
<path d="M30.2691 26.9444C29.9301 26.9444 29.6527 26.667 29.6527 26.328C29.6527 25.989 29.9301 25.7116 30.2691 25.7116C30.6082 25.7116 30.8856 25.989 30.8856 26.328C30.8856 26.667 31.163 26.9444 31.502 26.9444C31.841 26.9444 32.1184 26.667 32.1184 26.328C32.1184 25.5266 31.6006 24.8486 30.8856 24.5896V24.2383C30.8856 23.8992 30.6082 23.6218 30.2691 23.6218C29.9301 23.6218 29.6527 23.8992 29.6527 24.2383V24.5896C28.9376 24.8424 28.4198 25.5205 28.4198 26.328C28.4198 27.3451 29.252 28.1773 30.2691 28.1773C30.6082 28.1773 30.8856 28.4547 30.8856 28.7938C30.8856 29.1328 30.6082 29.4102 30.2691 29.4102C29.9301 29.4102 29.6527 29.1328 29.6527 28.7938C29.6527 28.4547 29.3753 28.1773 29.0362 28.1773C28.6972 28.1773 28.4198 28.4547 28.4198 28.7938C28.4198 29.5951 28.9376 30.2732 29.6527 30.5321V30.8835C29.6527 31.2225 29.9301 31.4999 30.2691 31.4999C30.6082 31.4999 30.8856 31.2225 30.8856 30.8835V30.5321C31.6006 30.2794 32.1184 29.6013 32.1184 28.7938C32.1184 27.7705 31.2924 26.9444 30.2691 26.9444Z" fill="black"/>
<path d="M21.9475 8.92618V12.1995C22.6872 12.0207 23.242 11.3611 23.242 10.5597C23.242 9.76453 22.6872 9.09878 21.9475 8.92618Z" fill="black"/>
<path d="M6.36987 8.92618C5.62398 9.10495 5.07535 9.76453 5.07535 10.5659C5.07535 11.3673 5.63014 12.0269 6.36987 12.2056V8.92618Z" fill="black"/>
<path d="M21.8735 7.63767L22.2311 7.72397C22.342 7.74863 22.4468 7.79178 22.5516 7.82877C22.6071 7.41575 22.6379 6.94726 22.6194 6.39863C22.6194 6.39863 22.2064 2.7863 20.5543 2.8911C20.5543 2.8911 19.679 -1.23288 11.166 0.826027C11.166 0.826027 8.33037 1.96027 5.23585 0C5.23585 0 4.2064 2.98973 5.69818 4.90069C5.69818 4.90069 4.92763 6.86096 6.3701 8.15548V4.38288L8.02832 4.98699C8.02832 4.98699 8.66941 5.19658 9.7975 5.19658C10.9626 5.19658 12.2139 4.98082 13.5208 4.54932L13.5701 4.53082L13.6194 4.51849C13.7057 4.5 15.8139 4.00685 17.9283 4.00685C18.816 4.00685 19.5989 4.09315 20.2585 4.27192L20.616 4.36438L20.8626 4.63562C21.0043 4.81438 21.6578 5.6589 21.8735 7.63767Z" fill="black"/>
<path d="M14.1555 20.7986C12.602 20.7986 11.1596 20.3363 9.94519 19.5534V19.8493C9.94519 22.1733 14.1555 24.0596 14.1555 24.0596C14.1555 24.0596 18.3657 22.1733 18.3657 19.8493V19.5472C17.1514 20.3363 15.7089 20.7986 14.1555 20.7986Z" fill="black"/>
<path d="M20.9484 26.9012V28.2142L22.0764 27.8505C22.0703 27.7519 22.0703 27.6533 22.0703 27.5608C22.0703 27.4683 22.0703 27.3697 22.0764 27.2711L20.9484 26.9012Z" fill="black"/>
<path d="M23.6052 22.796C22.7977 22.2535 21.9038 21.8282 20.9484 21.5508V24.9474L21.7682 22.4261L23.4696 22.9809C23.5127 22.9193 23.5621 22.8576 23.6052 22.796Z" fill="black"/>
<path d="M9.01418 21.2238C8.8724 21.2423 8.73062 21.2547 8.58884 21.2731V27.3574C10.5368 27.3574 12.269 26.4697 13.4279 25.0827C12.4786 24.6389 9.89569 23.2519 9.01418 21.2238Z" fill="black"/>
<path d="M19.2968 21.2238C18.4152 23.2457 15.8324 24.6327 14.8769 25.0889C16.0358 26.4759 17.768 27.3636 19.7159 27.3636V21.2793C19.5803 21.2547 19.4385 21.2423 19.2968 21.2238Z" fill="black"/>
<path d="M16.3317 28.9665L18.4892 35.9939H25.4303L22.7611 34.0521L23.8152 32.6097C23.6981 32.4556 23.581 32.3015 23.4762 32.1412L21.7748 32.696L20.4433 28.6028H19.7221C18.8159 28.6028 17.9406 28.4302 17.1145 28.1282L16.3317 28.9665Z" fill="black"/>
<path d="M11.9795 28.9664L11.2027 28.1218C10.3829 28.4239 9.50137 28.5965 8.59521 28.5965H7.36233V21.5444C3.33699 22.7218 0.390411 26.439 0.390411 30.8465V35.9999H9.82192L11.9795 28.9664Z" fill="black"/>
<path d="M14.1554 24.0657H14.1616V24.0595H14.1493V24.0657H14.1554Z" fill="black"/>
<path d="M15.9434 27.5732C15.2838 27.191 14.6858 26.6979 14.1557 26.1246C13.6256 26.704 13.0276 27.191 12.368 27.5732L13.3667 28.652L11.1167 35.9937H17.2009L14.9509 28.652L15.9434 27.5732Z" fill="black"/>
<path d="M19.9317 5.474C17.6077 4.85756 13.8967 5.7329 13.8967 5.7329C9.97619 7.02126 7.59674 6.15208 7.59674 6.15208V8.87674V13.013C7.59674 16.6315 10.531 19.5719 14.1556 19.5719C17.7741 19.5719 20.7146 16.6377 20.7146 13.013V8.87674C20.6899 6.31852 19.9317 5.474 19.9317 5.474ZM11.0118 10.1589C11.0118 9.73359 11.357 9.38838 11.7824 9.38838C12.2077 9.38838 12.5529 9.73359 12.5529 10.1589C12.5529 10.5843 12.2077 10.9295 11.7824 10.9295C11.357 10.9295 11.0118 10.5843 11.0118 10.1589ZM16.1221 14.6404C15.5796 15.1829 14.8707 15.4541 14.1556 15.4541C13.4467 15.4541 12.7317 15.1829 12.1892 14.6404C11.9488 14.4 11.9488 14.0117 12.1892 13.7713C12.4296 13.5308 12.818 13.5308 13.0584 13.7713C13.6625 14.3754 14.6426 14.3754 15.2406 13.7713C15.481 13.5308 15.8693 13.5308 16.1098 13.7713C16.3502 14.0117 16.3625 14.4 16.1221 14.6404ZM16.5289 10.9295C16.1036 10.9295 15.7584 10.5843 15.7584 10.1589C15.7584 9.73359 16.1036 9.38838 16.5289 9.38838C16.9543 9.38838 17.2995 9.73359 17.2995 10.1589C17.2995 10.5843 16.9543 10.9295 16.5289 10.9295Z" fill="black"/>
</svg>
