<svg width="37" height="36" viewBox="0 0 37 36" fill="none" xmlns="http://www.w3.org/2000/svg">
<path d="M35.9391 22.7748L36.1185 22.6192C36.3301 22.4341 36.3529 22.1124 36.1678 21.9008L34.8022 20.3349C34.713 20.2324 34.5887 20.1707 34.453 20.1613C34.3163 20.1518 34.1853 20.1964 34.0838 20.2856L33.9044 20.4412C33.726 20.5968 33.7071 20.8683 33.8627 21.0467L35.3336 22.734C35.4893 22.9124 35.7597 22.9304 35.9391 22.7748Z" fill="black"/>
<path d="M20.3064 35.9992H21.9567C22.1854 35.9992 22.3705 35.8141 22.3705 35.5854V18.1248C22.3705 17.8961 22.1854 17.711 21.9567 17.711H20.3064C19.8822 17.711 19.5387 18.0546 19.5387 18.4788V35.2314C19.5387 35.6556 19.8832 35.9992 20.3064 35.9992Z" fill="black"/>
<path d="M23.4275 35.999H32.5237C32.9479 35.999 33.2914 35.6555 33.2914 35.2313V26.4103C33.2914 26.2262 33.075 26.1275 32.9355 26.249L29.1794 29.524C29.1747 29.5278 29.169 29.5297 29.1642 29.5335C29.1139 29.5876 29.0456 29.6255 28.9659 29.635L25.7004 30.0013C25.688 30.0023 25.6767 30.0032 25.6643 30.0032C25.5723 30.0032 25.4831 29.9634 25.4214 29.8932C25.3521 29.8134 25.3265 29.7053 25.3521 29.6028L26.1587 26.4179C26.1777 26.343 26.2233 26.2813 26.2812 26.2395C26.2869 26.2338 26.2916 26.2272 26.2982 26.2215L32.8653 20.4952C32.8691 20.4914 32.872 20.4876 32.8758 20.4838L33.1434 20.2504C33.2364 20.1688 33.2905 20.0511 33.2905 19.9268V18.4805C33.2905 18.0563 32.9469 17.7128 32.5227 17.7128H23.4266C23.1979 17.7128 23.0128 17.8978 23.0128 18.1265V35.5871C23.0138 35.814 23.1988 35.999 23.4275 35.999Z" fill="black"/>
<path d="M26.9637 26.4938L28.9993 28.8284L34.8081 23.7636C34.9865 23.6079 35.0055 23.3365 34.8499 23.1581L33.0961 21.1472L26.9637 26.4938ZM33.5507 22.8041C33.6674 22.9379 33.6541 23.141 33.5194 23.2587L28.9993 27.2027C28.9385 27.2559 28.8626 27.2825 28.7877 27.2825C28.6985 27.2825 28.6083 27.2454 28.5447 27.1724C28.428 27.0386 28.4413 26.8355 28.576 26.7178L33.0961 22.7738C33.2299 22.6561 33.433 22.6694 33.5507 22.8041Z" fill="black"/>
<path d="M28.3452 29.0571L26.6475 27.1107L26.0904 29.3096L28.3452 29.0571Z" fill="black"/>
<path d="M18.9222 7.83374C19.577 7.83374 20.1028 7.26909 20.0373 6.60099C19.9803 6.01926 19.4574 5.59221 18.8719 5.59221H18.5559C18.4221 5.59221 18.3044 5.50869 18.2551 5.38438C17.5129 3.5158 16.1027 2.21757 14.2427 1.66336C14.1089 1.6235 13.9751 1.72599 13.9722 1.86549C13.9646 2.20713 13.8878 2.54877 13.7378 2.86574L13.2614 3.87262C13.2064 3.9884 13.0906 4.05673 12.9701 4.05673C12.9236 4.05673 12.8771 4.04724 12.8325 4.02541C12.6721 3.94949 12.6028 3.75779 12.6787 3.59646L13.1551 2.58958C13.4152 2.04011 13.3876 1.39574 13.0811 0.866198C12.7917 0.365127 12.3039 0.0519576 11.743 0.00640573C11.6386 -0.00213525 11.5314 -0.00213525 11.427 0.00640573C10.8662 0.0519576 10.3784 0.365127 10.0889 0.866198C9.7824 1.39669 9.75488 2.04011 10.0149 2.58958L10.4913 3.59646C10.5748 3.77298 10.4837 3.98745 10.2873 4.04439C10.1335 4.08899 9.9703 4.00169 9.90198 3.85649L9.43317 2.86574C9.2633 2.50701 9.18548 2.11887 9.19687 1.73263C9.20161 1.58079 9.05642 1.47356 8.91217 1.52101C7.12331 2.11033 5.6628 3.50441 4.91689 5.38343C4.86754 5.50775 4.74987 5.59126 4.61606 5.59126H4.30004C3.71546 5.59126 3.19161 6.01736 3.13467 6.60004C3.06919 7.26814 3.59493 7.83279 4.24974 7.83279L18.9222 7.83374Z" fill="black"/>
<path d="M12.1516 17.8989C14.8098 17.8989 16.9725 15.7361 16.9725 13.078V12.8872C16.9725 12.7098 17.1168 12.5655 17.2943 12.5655C18.4207 12.5655 19.3384 11.6488 19.3384 10.5214C19.3384 9.39397 18.4217 8.47723 17.2943 8.47723H5.96037C5.95562 8.47723 5.95088 8.47913 5.94613 8.47913C4.83486 8.49432 3.93141 9.41105 3.93141 10.5214C3.93141 11.6317 4.83486 12.5475 5.94613 12.5636C6.1217 12.5665 6.2631 12.7098 6.2631 12.8853V13.078C6.2631 15.7361 8.42587 17.8989 11.084 17.8989H12.1516ZM9.44414 13.9605C9.56941 13.8353 9.77344 13.8353 9.89966 13.9605C10.8563 14.9171 12.4136 14.9171 13.3701 13.9605C13.4954 13.8353 13.6994 13.8353 13.8257 13.9605C13.9509 14.0858 13.9509 14.2898 13.8257 14.4161C13.2221 15.0196 12.4287 15.3224 11.6354 15.3224C10.842 15.3224 10.0487 15.0206 9.44509 14.4161C9.31887 14.2898 9.31887 14.0858 9.44414 13.9605Z" fill="black"/>
<path d="M18.8905 22.9075C18.6684 22.7396 18.3467 22.8364 18.2547 23.0992L16.5882 27.8765C15.9325 29.8267 14.806 31.5738 13.3464 32.9413C13.3303 32.9593 13.3132 32.9755 13.2933 32.9897C12.8454 33.4044 12.3671 33.784 11.8613 34.1218V35.5861C11.8613 35.8149 12.0463 35.9999 12.275 35.9999H18.7785C18.9265 35.9999 19.03 35.8528 18.9787 35.7143C18.9237 35.5643 18.8933 35.402 18.8933 35.2331V22.9113L18.8905 22.9075Z" fill="black"/>
<path d="M11.8831 23.2605L14.1958 25.7165L15.7028 21.8228C15.7948 21.5855 15.6534 21.3208 15.4048 21.2676C15.1884 21.2221 14.9711 21.186 14.7519 21.1585C14.5602 21.1347 14.3789 21.2448 14.3096 21.4251C13.9262 22.4292 12.9962 23.1637 11.8831 23.2605Z" fill="black"/>
<path d="M12.7874 32.5816V29.3569C12.7874 28.6404 12.2047 28.0568 11.4872 28.0568C10.7708 28.0568 10.1871 28.6395 10.1871 29.3569V32.482C10.6104 32.8777 11.0621 33.2402 11.5413 33.5638C11.9798 33.2677 12.3945 32.9375 12.7874 32.5816Z" fill="black"/>
<path d="M14.3741 26.6248C14.3532 26.6286 14.3332 26.6305 14.3124 26.6305C14.2241 26.6305 14.1396 26.5945 14.078 26.529L13.4307 25.8419V26.1067C13.4307 26.7852 13.0806 27.3831 12.551 27.7314C13.0796 28.0787 13.4307 28.6766 13.4307 29.3561V31.9468C14.5591 30.7416 15.4379 29.2792 15.9798 27.6687L17.762 22.5593C17.8303 22.3648 17.743 22.1503 17.5608 22.0545C17.3378 21.9368 17.1129 21.8305 16.886 21.7337C16.6706 21.6426 16.422 21.7479 16.3375 21.9662L14.6122 26.4246C14.5724 26.528 14.4822 26.603 14.3741 26.6248Z" fill="black"/>
<path d="M10.1871 26.1076C10.1871 26.8241 10.7698 27.4077 11.4872 27.4077C12.2037 27.4077 12.7874 26.825 12.7874 26.1076V25.1595L11.4967 23.7892L10.1871 25.1406V26.1076Z" fill="black"/>
<path d="M10.4226 27.7313C9.89398 27.384 9.5438 26.7861 9.5438 26.1066V25.8039L8.8387 26.5318C8.77701 26.5954 8.6935 26.6295 8.60714 26.6295C8.58436 26.6295 8.56159 26.6267 8.53881 26.6219C8.43063 26.5982 8.34142 26.5204 8.30346 26.416L6.7044 21.9529C6.62468 21.7308 6.3751 21.6188 6.15588 21.709C5.94615 21.7953 5.73927 21.8912 5.53808 21.9946C5.35492 22.0886 5.26572 22.3021 5.33215 22.4976L7.01947 27.5026C7.59551 29.1643 8.45245 30.6239 9.54285 31.8262V29.355C9.5438 28.6775 9.89398 28.0796 10.4226 27.7313Z" fill="black"/>
<path d="M0.725859 35.2511C0.727757 35.6639 1.05801 35.9998 1.46228 35.9998H3.57855C3.80726 35.9998 3.99231 35.8148 3.99231 35.5861V28.4306C3.99231 28.2532 4.13656 28.1089 4.31402 28.1089C4.49148 28.1089 4.63573 28.2532 4.63573 28.4306V35.5861C4.63573 35.8148 4.82078 35.9998 5.04949 35.9998H10.8061C11.0348 35.9998 11.2199 35.8148 11.2199 35.5861V34.1208C10.6609 33.7469 10.1361 33.3256 9.65024 32.8596C9.64359 32.853 9.63695 32.8473 9.63031 32.8406C8.21061 31.475 7.11261 29.7346 6.4113 27.7122L4.83882 23.0489C4.74771 22.7803 4.41746 22.6778 4.1935 22.8515C2.08767 24.4866 0.706879 27.1049 0.706879 29.9965L0.725859 35.2511Z" fill="black"/>
<path d="M8.7354 25.7138L11.143 23.2284C10.1304 23.0528 9.30101 22.3448 8.95083 21.4034C8.88629 21.2307 8.71927 21.114 8.53516 21.1292C8.23338 21.1548 7.9354 21.1975 7.64216 21.2573C7.39447 21.3076 7.24832 21.5667 7.33373 21.8039L8.7354 25.7138Z" fill="black"/>
<path d="M11.5198 22.6269C12.6623 22.6848 13.6284 21.8734 13.8201 20.7982C13.8201 20.7896 13.8182 20.7811 13.8182 20.7725C13.8192 20.7393 13.8277 20.7071 13.8382 20.6776C13.8486 20.5894 13.8562 20.5002 13.8562 20.4091V18.5576C13.8562 18.4171 13.7233 18.3137 13.5886 18.3507C13.1302 18.476 12.6491 18.5433 12.1518 18.5433H11.0842C10.5983 18.5433 10.1276 18.4788 9.67965 18.3592C9.54489 18.3232 9.41298 18.4295 9.41298 18.569V20.3332C9.41393 21.5279 10.3259 22.5661 11.5198 22.6269Z" fill="black"/>
</svg>
