<svg width="61" height="615" viewBox="0 0 61 615" fill="none" xmlns="http://www.w3.org/2000/svg">
<path d="M58.9818 608.78L58.983 608.779C59.7352 607.95 59.9158 606.752 59.4451 605.742L21.4913 524.425L22.3975 524.002L21.4913 524.425C21.0109 523.395 19.9545 522.77 18.8403 522.824C18.7524 522.828 18.6542 522.838 18.5436 522.853C17.328 523.047 16.3861 524.014 16.2265 525.231L16.2263 525.232L11.0317 564.487L10.9409 565.173L10.2666 565.33L-28.3022 574.287C-29.504 574.568 -30.3757 575.605 -30.4439 576.836L-30.444 576.838C-30.5149 578.067 -29.7648 579.195 -28.6012 579.61C-28.6009 579.61 -28.6005 579.61 -28.6001 579.61L55.9981 609.531C55.9987 609.531 55.9992 609.532 55.9998 609.532C57.0594 609.901 58.2334 609.608 58.9818 608.78Z" stroke="#11B0AC" stroke-width="2"/>
<path d="M58.9818 504.78L58.983 504.779C59.7352 503.95 59.9158 502.752 59.4451 501.742L21.4913 420.425L22.3975 420.002L21.4913 420.425C21.0109 419.395 19.9545 418.77 18.8403 418.824C18.7524 418.828 18.6542 418.838 18.5436 418.853C17.328 419.047 16.3861 420.014 16.2265 421.231L16.2263 421.232L11.0317 460.487L10.9409 461.173L10.2666 461.33L-28.3022 470.287C-29.504 470.568 -30.3757 471.605 -30.4439 472.836L-30.444 472.838C-30.5149 474.067 -29.7648 475.195 -28.6012 475.61C-28.6009 475.61 -28.6005 475.61 -28.6001 475.61L55.9981 505.531C55.9987 505.531 55.9992 505.532 55.9998 505.532C57.0594 505.901 58.2334 505.608 58.9818 504.78Z" stroke="#11B0AC" stroke-width="2"/>
<path d="M58.9818 400.78L58.983 400.779C59.7352 399.95 59.9158 398.752 59.4451 397.742L21.4913 316.425L22.3975 316.002L21.4913 316.425C21.0109 315.395 19.9545 314.77 18.8403 314.824C18.7524 314.828 18.6542 314.838 18.5436 314.853C17.328 315.047 16.3861 316.014 16.2265 317.231L16.2263 317.232L11.0317 356.487L10.9409 357.173L10.2666 357.33L-28.3022 366.287C-29.504 366.568 -30.3757 367.605 -30.4439 368.836L-30.444 368.838C-30.5149 370.067 -29.7648 371.195 -28.6012 371.61C-28.6009 371.61 -28.6005 371.61 -28.6001 371.61L55.9981 401.531C55.9987 401.531 55.9992 401.532 55.9998 401.532C57.0594 401.901 58.2334 401.608 58.9818 400.78Z" stroke="#11B0AC" stroke-width="2"/>
<path d="M58.9818 296.78L58.983 296.779C59.7352 295.95 59.9158 294.752 59.4451 293.742L21.4913 212.425L22.3975 212.002L21.4913 212.425C21.0109 211.395 19.9545 210.77 18.8403 210.824C18.7524 210.828 18.6542 210.838 18.5436 210.853C17.328 211.047 16.3861 212.014 16.2265 213.231L16.2263 213.232L11.0317 252.487L10.9409 253.173L10.2666 253.33L-28.3022 262.287C-29.504 262.568 -30.3757 263.605 -30.4439 264.836L-30.444 264.838C-30.5149 266.067 -29.7648 267.195 -28.6012 267.61C-28.6009 267.61 -28.6005 267.61 -28.6001 267.61L55.9981 297.531C55.9987 297.531 55.9992 297.532 55.9998 297.532C57.0594 297.901 58.2334 297.608 58.9818 296.78Z" stroke="#11B0AC" stroke-width="2"/>
<path d="M58.9818 192.78L58.983 192.779C59.7352 191.95 59.9158 190.752 59.4451 189.742L21.4913 108.425L22.3975 108.002L21.4913 108.425C21.0109 107.395 19.9545 106.77 18.8403 106.824C18.7524 106.828 18.6542 106.838 18.5436 106.853C17.328 107.047 16.3861 108.014 16.2265 109.231L16.2263 109.232L11.0317 148.487L10.9409 149.173L10.2666 149.33L-28.3022 158.287C-29.504 158.568 -30.3757 159.605 -30.4439 160.836L-30.444 160.838C-30.5149 162.067 -29.7648 163.195 -28.6012 163.61C-28.6009 163.61 -28.6005 163.61 -28.6001 163.61L55.9981 193.531C55.9987 193.531 55.9992 193.532 55.9998 193.532C57.0594 193.901 58.2334 193.608 58.9818 192.78Z" stroke="#11B0AC" stroke-width="2"/>
<path d="M58.9818 88.7803L58.983 88.7791C59.7352 87.9503 59.9158 86.7521 59.4451 85.742L21.4913 4.42475L22.3975 4.00181L21.4913 4.42471C21.0109 3.39532 19.9545 2.77028 18.8403 2.82421C18.7524 2.82847 18.6542 2.83837 18.5436 2.85309C17.328 3.04704 16.3861 4.01391 16.2265 5.23087L16.2263 5.23199L11.0317 44.487L10.9409 45.1733L10.2666 45.3299L-28.3022 54.2874C-29.504 54.5679 -30.3757 55.6052 -30.4439 56.836L-30.444 56.8383C-30.5149 58.0673 -29.7648 59.1955 -28.6012 59.6098C-28.6009 59.61 -28.6005 59.6101 -28.6001 59.6103L55.9981 89.5312C55.9987 89.5314 55.9992 89.5316 55.9998 89.5318C57.0594 89.9015 58.2334 89.6077 58.9818 88.7803Z" stroke="#11B0AC" stroke-width="2"/>
</svg>
