<svg width="60" height="511" viewBox="0 0 60 511" fill="none" xmlns="http://www.w3.org/2000/svg">
<path d="M1.90064 6.10247L1.89949 6.10374C1.14726 6.9325 0.966656 8.13073 1.43731 9.14081L39.3912 90.4581L38.485 90.881L39.3912 90.4581C39.8716 91.4875 40.928 92.1125 42.0421 92.0586C42.13 92.0543 42.2282 92.0444 42.3389 92.0297C43.5545 91.8358 44.4963 90.8689 44.656 89.6519L44.6561 89.6508L49.8507 50.3958L49.9415 49.7095L50.6159 49.5529L89.1847 40.5954C90.3864 40.3149 91.2582 39.2776 91.3263 38.0469L91.3265 38.0446C91.3973 36.8155 90.6472 35.6874 89.4837 35.273C89.4833 35.2728 89.4829 35.2727 89.4826 35.2726L4.88432 5.35158C4.88376 5.35138 4.8832 5.35119 4.88264 5.35099C3.82301 4.98135 2.64902 5.2751 1.90064 6.10247Z" stroke="#11B0AC" stroke-width="2"/>
<path d="M1.90064 110.102L1.89949 110.104C1.14726 110.932 0.966656 112.131 1.43731 113.141L39.3912 194.458L38.485 194.881L39.3912 194.458C39.8716 195.487 40.928 196.113 42.0421 196.059C42.13 196.054 42.2282 196.044 42.3389 196.03C43.5545 195.836 44.4963 194.869 44.656 193.652L44.6561 193.651L49.8507 154.396L49.9415 153.71L50.6159 153.553L89.1847 144.595C90.3864 144.315 91.2582 143.278 91.3263 142.047L91.3265 142.045C91.3973 140.815 90.6472 139.687 89.4837 139.273C89.4833 139.273 89.4829 139.273 89.4826 139.273L4.88432 109.352C4.88376 109.351 4.8832 109.351 4.88264 109.351C3.82301 108.981 2.64902 109.275 1.90064 110.102Z" stroke="#11B0AC" stroke-width="2"/>
<path d="M1.90064 214.102L1.89949 214.104C1.14726 214.932 0.966656 216.131 1.43731 217.141L39.3912 298.458L38.485 298.881L39.3912 298.458C39.8716 299.487 40.928 300.113 42.0421 300.059C42.13 300.054 42.2282 300.044 42.3389 300.03C43.5545 299.836 44.4963 298.869 44.656 297.652L44.6561 297.651L49.8507 258.396L49.9415 257.71L50.6159 257.553L89.1847 248.595C90.3864 248.315 91.2582 247.278 91.3263 246.047L91.3265 246.045C91.3973 244.815 90.6472 243.687 89.4837 243.273C89.4833 243.273 89.4829 243.273 89.4826 243.273L4.88432 213.352C4.88376 213.351 4.8832 213.351 4.88264 213.351C3.82301 212.981 2.64902 213.275 1.90064 214.102Z" stroke="#11B0AC" stroke-width="2"/>
<path d="M1.90064 318.102L1.89949 318.104C1.14726 318.932 0.966656 320.131 1.43731 321.141L39.3912 402.458L38.485 402.881L39.3912 402.458C39.8716 403.487 40.928 404.113 42.0421 404.059C42.13 404.054 42.2282 404.044 42.3389 404.03C43.5545 403.836 44.4963 402.869 44.656 401.652L44.6561 401.651L49.8507 362.396L49.9415 361.71L50.6159 361.553L89.1847 352.595C90.3864 352.315 91.2582 351.278 91.3263 350.047L91.3265 350.045C91.3973 348.815 90.6472 347.687 89.4837 347.273C89.4833 347.273 89.4829 347.273 89.4826 347.273L4.88432 317.352C4.88376 317.351 4.8832 317.351 4.88264 317.351C3.82301 316.981 2.64902 317.275 1.90064 318.102Z" stroke="#11B0AC" stroke-width="2"/>
<path d="M1.90064 422.102L1.89949 422.104C1.14726 422.932 0.966656 424.131 1.43731 425.141L39.3912 506.458L38.485 506.881L39.3912 506.458C39.8716 507.487 40.928 508.113 42.0421 508.059C42.13 508.054 42.2282 508.044 42.3389 508.03C43.5545 507.836 44.4963 506.869 44.656 505.652L44.6561 505.651L49.8507 466.396L49.9415 465.71L50.6159 465.553L89.1847 456.595C90.3864 456.315 91.2582 455.278 91.3263 454.047L91.3265 454.045C91.3973 452.815 90.6472 451.687 89.4837 451.273C89.4833 451.273 89.4829 451.273 89.4826 451.273L4.88432 421.352C4.88376 421.351 4.8832 421.351 4.88264 421.351C3.82301 420.981 2.64902 421.275 1.90064 422.102Z" stroke="#11B0AC" stroke-width="2"/>
</svg>
