<svg width="66" height="66" viewBox="0 0 66 66" fill="none" xmlns="http://www.w3.org/2000/svg">
<path d="M58.0954 12.6365C58.0954 16.9837 54.5714 20.5076 50.2247 20.5076C45.8775 20.5076 42.3535 16.9837 42.3535 12.6365C42.3535 8.28978 45.8775 4.76581 50.2247 4.76581C54.5714 4.76581 58.0954 8.28978 58.0954 12.6365Z" fill="white"/>
<path d="M36.6009 22.832L32.8651 17.23V7.67153C32.8651 3.85739 29.789 0.713257 25.9083 0.713257H7.67166C3.81071 0.713257 0.713379 3.83867 0.713379 7.67153V18.8154C0.713379 22.6394 3.79938 25.7732 7.67166 25.7732H35.0269C36.5339 25.7732 37.4384 24.0883 36.6009 22.832ZM16.7365 18.6814H10.7636C9.74475 18.6814 8.86832 17.8976 8.82102 16.8798C8.77126 15.793 9.63538 14.8978 10.7109 14.8978H16.7902C17.8637 14.8978 18.7298 15.793 18.6796 16.8793C18.6328 17.8976 17.7558 18.6814 16.7365 18.6814ZM22.8691 11.5886H10.7646C9.74623 11.5886 8.87029 10.8068 8.82151 9.78995C8.76929 8.70315 9.6344 7.80504 10.7109 7.80504H22.8154C23.8347 7.80504 24.7116 8.58886 24.7584 9.60718C24.8087 10.6935 23.9426 11.5886 22.8691 11.5886Z" fill="white"/>
<path d="M15.4044 47.6491C7.25635 47.6772 0.713379 54.4039 0.713379 62.552V62.9668C0.713379 64.2482 1.7519 65.2867 3.0333 65.2867H27.8794C29.1608 65.2867 30.1993 64.2482 30.1993 62.9668V62.3919C30.1993 54.232 23.5707 47.6206 15.4044 47.6491Z" fill="white"/>
<path d="M24.7406 38.3655C24.7406 43.4925 20.5845 47.6491 15.457 47.6491C10.3299 47.6491 6.17334 43.4925 6.17334 38.3655C6.17334 33.2384 10.3299 29.0818 15.457 29.0818C20.5845 29.0818 24.7406 33.2384 24.7406 38.3655Z" fill="white"/>
<path d="M62.1632 31.1081H38.2847C38.9887 25.1391 44.065 20.5076 50.2247 20.5076C56.3829 20.5076 61.4592 25.1391 62.1632 31.1081Z" fill="white"/>
<path d="M63.3952 35.0179C64.4401 35.0179 65.287 35.8648 65.287 36.9097V59.3428C65.287 60.4173 64.3903 61.2838 63.3031 61.2321C62.2867 61.1838 61.5034 60.3074 61.5034 59.2886V57.181H33.2363C31.9647 52.8525 29.1536 49.1749 25.437 46.7899C27.3613 44.5133 28.5245 41.5722 28.5245 38.365C28.5245 37.2087 28.3727 36.0874 28.089 35.0179H63.3952Z" fill="white"/>
</svg>
