<svg width="66" height="66" viewBox="0 0 66 66" fill="none" xmlns="http://www.w3.org/2000/svg">
<path d="M48.3212 10.6073C48.3212 10.2947 48.197 9.99493 47.976 9.77391C47.755 9.55288 47.4552 9.42871 47.1426 9.42871H43.6069V11.7859H47.1426C47.4552 11.7859 47.755 11.6617 47.976 11.4407C48.197 11.2196 48.3212 10.9199 48.3212 10.6073Z" fill="white"/>
<path d="M48.3212 15.3214C48.3212 15.0088 48.197 14.709 47.976 14.488C47.755 14.267 47.4552 14.1428 47.1426 14.1428H43.6069V16.5H47.1426C47.4552 16.5 47.755 16.3758 47.976 16.1548C48.197 15.9337 48.3212 15.634 48.3212 15.3214Z" fill="white"/>
<path d="M34.1784 16.5001C34.8036 16.5001 35.4031 16.2518 35.8452 15.8097C36.2872 15.3677 36.5356 14.7681 36.5356 14.143V11.7859C36.5356 11.1607 36.2872 10.5612 35.8452 10.1191C35.4031 9.67705 34.8036 9.42871 34.1784 9.42871C33.5533 9.42871 32.9537 9.67705 32.5117 10.1191C32.0696 10.5612 31.8213 11.1607 31.8213 11.7859V14.143C31.8213 14.7681 32.0696 15.3677 32.5117 15.8097C32.9537 16.2518 33.5533 16.5001 34.1784 16.5001Z" fill="white"/>
<path d="M0 64.8214C0 65.134 0.124171 65.4338 0.345196 65.6548C0.566221 65.8758 0.865995 66 1.17857 66H64.8214C65.134 66 65.4338 65.8758 65.6548 65.6548C65.8758 65.4338 66 65.134 66 64.8214V25.6929L36.1079 44.2448C35.1759 44.827 34.099 45.1358 33 45.1358C31.901 45.1358 30.8242 44.827 29.8921 44.2448L0 25.6929V64.8214Z" fill="white"/>
<path d="M0.563357 21.5208C0.391759 21.6258 0.2499 21.773 0.151288 21.9484C0.0526757 22.1237 0.000593114 22.3214 0 22.5226V22.9162L4.71429 25.8426V18.948L0.563357 21.5208Z" fill="white"/>
<path d="M16.4999 8.25012V1.66309L8.73193 9.42869H15.3213C15.6339 9.42869 15.9337 9.30452 16.1547 9.0835C16.3757 8.86247 16.4999 8.5627 16.4999 8.25012Z" fill="white"/>
<path d="M7.07129 27.3051L31.1354 42.2412C31.6943 42.5911 32.3404 42.7767 32.9999 42.7767C33.6593 42.7767 34.3054 42.5911 34.8644 42.2412L58.9284 27.3051V0H18.857V8.25C18.857 9.18773 18.4845 10.0871 17.8214 10.7501C17.1583 11.4132 16.259 11.7857 15.3213 11.7857H7.07129V27.3051ZM38.8927 37.7143H27.107C26.7944 37.7143 26.4947 37.5901 26.2736 37.3691C26.0526 37.1481 25.9284 36.8483 25.9284 36.5357C25.9284 36.2231 26.0526 35.9234 26.2736 35.7023C26.4947 35.4813 26.7944 35.3571 27.107 35.3571H38.8927C39.2053 35.3571 39.5051 35.4813 39.7261 35.7023C39.9471 35.9234 40.0713 36.2231 40.0713 36.5357C40.0713 36.8483 39.9471 37.1481 39.7261 37.3691C39.5051 37.5901 39.2053 37.7143 38.8927 37.7143ZM45.9641 33H21.2141C20.9016 33 20.6018 32.8758 20.3808 32.6548C20.1597 32.4338 20.0356 32.134 20.0356 31.8214C20.0356 31.5089 20.1597 31.2091 20.3808 30.9881C20.6018 30.767 20.9016 30.6429 21.2141 30.6429H45.9641C46.2767 30.6429 46.5765 30.767 46.7975 30.9881C47.0186 31.2091 47.1427 31.5089 47.1427 31.8214C47.1427 32.134 47.0186 32.4338 46.7975 32.6548C46.5765 32.8758 46.2767 33 45.9641 33ZM49.4999 28.2857H18.857C18.5444 28.2857 18.2447 28.1615 18.0236 27.9405C17.8026 27.7195 17.6784 27.4197 17.6784 27.1071C17.6784 26.7946 17.8026 26.4948 18.0236 26.2738C18.2447 26.0527 18.5444 25.9286 18.857 25.9286H49.4999C49.8124 25.9286 50.1122 26.0527 50.3332 26.2738C50.5543 26.4948 50.6784 26.7946 50.6784 27.1071C50.6784 27.4197 50.5543 27.7195 50.3332 27.9405C50.1122 28.1615 49.8124 28.2857 49.4999 28.2857ZM41.2499 12.9643V8.25C41.2499 7.93742 41.374 7.63765 41.5951 7.41662C41.8161 7.1956 42.1159 7.07143 42.4284 7.07143H47.1427C47.8266 7.0684 48.4965 7.26461 49.0706 7.63608C49.6448 8.00756 50.0983 8.53821 50.3758 9.16321C50.6533 9.78822 50.7428 10.4805 50.6333 11.1555C50.5238 11.8306 50.22 12.4591 49.7591 12.9643C50.22 13.4695 50.5238 14.098 50.6333 14.773C50.7428 15.4481 50.6533 16.1404 50.3758 16.7654C50.0983 17.3904 49.6448 17.921 49.0706 18.2925C48.4965 18.664 47.8266 18.8602 47.1427 18.8571H42.4284C42.1159 18.8571 41.8161 18.733 41.5951 18.5119C41.374 18.2909 41.2499 17.9911 41.2499 17.6786V12.9643ZM29.4641 11.7857C29.4641 10.5354 29.9608 9.33631 30.8449 8.45221C31.729 7.56811 32.9281 7.07143 34.1784 7.07143C35.4287 7.07143 36.6278 7.56811 37.5119 8.45221C38.396 9.33631 38.8927 10.5354 38.8927 11.7857V14.1429C38.8927 15.3932 38.396 16.5923 37.5119 17.4764C36.6278 18.3605 35.4287 18.8571 34.1784 18.8571C32.9281 18.8571 31.729 18.3605 30.8449 17.4764C29.9608 16.5923 29.4641 15.3932 29.4641 14.1429V11.7857ZM18.857 12.9643C19.1696 12.9643 19.4694 13.0885 19.6904 13.3095C19.9114 13.5305 20.0356 13.8303 20.0356 14.1429C20.0356 14.768 20.2839 15.3676 20.726 15.8096C21.168 16.2517 21.7676 16.5 22.3927 16.5C23.0179 16.5 23.6174 16.2517 24.0595 15.8096C24.5015 15.3676 24.7499 14.768 24.7499 14.1429V9.42857H23.5713C23.2587 9.42857 22.9589 9.3044 22.7379 9.08338C22.5169 8.86235 22.3927 8.56258 22.3927 8.25C22.3927 7.93742 22.5169 7.63765 22.7379 7.41662C22.9589 7.1956 23.2587 7.07143 23.5713 7.07143H25.9284C26.241 7.07143 26.5408 7.1956 26.7618 7.41662C26.9828 7.63765 27.107 7.93742 27.107 8.25V14.1429C27.107 15.3932 26.6103 16.5923 25.7262 17.4764C24.8421 18.3605 23.643 18.8571 22.3927 18.8571C21.1424 18.8571 19.9433 18.3605 19.0592 17.4764C18.1751 16.5923 17.6784 15.3932 17.6784 14.1429C17.6784 13.8303 17.8026 13.5305 18.0236 13.3095C18.2447 13.0885 18.5444 12.9643 18.857 12.9643ZM10.607 21.2143H55.3927C55.7053 21.2143 56.0051 21.3385 56.2261 21.5595C56.4471 21.7805 56.5713 22.0803 56.5713 22.3929C56.5713 22.7054 56.4471 23.0052 56.2261 23.2262C56.0051 23.4473 55.7053 23.5714 55.3927 23.5714H10.607C10.2944 23.5714 9.99465 23.4473 9.77363 23.2262C9.5526 23.0052 9.42843 22.7054 9.42843 22.3929C9.42843 22.0803 9.5526 21.7805 9.77363 21.5595C9.99465 21.3385 10.2944 21.2143 10.607 21.2143Z" fill="white"/>
<path d="M65.9999 22.5226C65.9988 22.3206 65.9461 22.1223 65.8469 21.9464C65.7477 21.7705 65.6053 21.6228 65.433 21.5173L61.2856 18.948V25.8426L65.9999 22.9162V22.5226Z" fill="white"/>
</svg>
