<svg width="71" height="69" viewBox="0 0 71 69" fill="none" xmlns="http://www.w3.org/2000/svg">
<path fill-rule="evenodd" clip-rule="evenodd" d="M4.18539 55.204L0.64102 53.0839C0.0184394 52.7116 -0.186277 51.8973 0.185585 51.2743L5.87815 41.7394C6.25001 41.1164 7.06385 40.9112 7.68613 41.2835L11.2305 43.4037C11.8529 43.7759 12.058 44.5904 11.6859 45.2134L5.99338 54.7482C5.62152 55.371 4.80797 55.5764 4.18539 55.204ZM17.2131 15.1421C22.3202 13.7724 27.5697 16.8059 28.938 21.9177C30.3064 27.0293 27.2757 32.2836 22.1686 33.6532C17.0617 35.0228 11.8123 31.9894 10.4439 26.8777C9.07551 21.7659 12.1062 16.5117 17.2131 15.1421ZM33.6992 20.6406C31.6261 12.8969 23.674 8.3013 15.9372 10.3763C8.20074 12.4512 3.60941 20.4108 5.68231 28.1545C7.75536 35.8983 15.7076 40.4937 23.4443 38.4189C31.181 36.3439 35.7722 28.3843 33.6992 20.6406ZM22.7812 35.9412C16.4406 37.6418 9.85681 33.8369 8.15784 27.4907C6.45887 21.1443 10.26 14.5543 16.6006 12.8538C22.9412 11.1532 29.525 14.9579 31.2241 21.3043C32.9229 27.6509 29.1217 34.2407 22.7812 35.9412ZM13.0963 39.9392L12.3155 41.2929L8.90023 39.25C8.8637 39.2281 8.82687 39.2073 8.78974 39.1868L9.54071 37.885C10.6377 38.7107 11.8334 39.4016 13.0963 39.9392ZM70.4079 0H45.7924C45.4662 0 45.2003 0.266198 45.2003 0.592654V25.2308C45.2003 25.5573 45.4662 25.8235 45.7924 25.8235H70.4079C70.7341 25.8235 71 25.5573 71 25.2308V0.592654C71 0.266198 70.7341 0 70.4079 0ZM67.0993 22.0215H49.1008C48.8257 22.0215 48.6182 21.7775 48.6623 21.5057C49.4005 16.9554 53.3438 13.4812 58.0983 13.4803C55.429 13.4794 53.2653 11.3131 53.2653 8.64123C53.2653 5.96859 55.4299 3.80214 58.1001 3.80214C60.7702 3.80214 62.9349 5.96873 62.9349 8.64123C62.9349 11.3133 60.7713 13.4794 58.1018 13.4803C62.8563 13.4812 66.7996 16.9554 67.5379 21.5057C67.5821 21.7775 67.3746 22.0215 67.0993 22.0215ZM34.396 59.6474C33.9339 59.1849 33.9339 58.435 34.396 57.9726C34.8581 57.5101 35.6073 57.5101 36.0692 57.9726L36.5439 58.4477L38.7934 56.4043C39.2759 55.9649 40.023 56 40.4621 56.4829C40.9011 56.9659 40.866 57.7137 40.3835 58.1531L37.346 60.9122C36.8881 61.3824 36.1287 61.3817 35.6663 60.9188L34.396 59.6474ZM45.7924 28.1922C44.1601 28.1922 42.8337 26.8646 42.8337 25.2307V6.02855H12.3462C11.7757 6.02855 11.3104 6.49432 11.3104 7.06536V9.74067C12.5592 9.02631 13.9062 8.46875 15.3247 8.08825C19.6548 6.92693 24.2436 7.53187 28.1254 9.77502C32.0107 12.0204 34.8238 15.6893 35.9852 20.0275C37.1455 24.3616 36.5411 28.9546 34.2999 32.8398C32.0567 36.7289 28.391 39.5444 24.0568 40.7069C21.1834 41.4775 18.1962 41.4699 15.3772 40.7224L13.9684 43.1648C14.3802 44.1988 14.3271 45.4074 13.7176 46.4284L11.3104 50.4603V67.9632C11.3104 68.5342 11.7757 69 12.3462 69H62.475C63.0455 69 63.5108 68.5342 63.5108 67.9632V28.1922H45.7924ZM37.4107 64.5586C34.1672 64.5586 31.5377 61.9268 31.5377 58.6802C31.5377 55.4337 34.1672 52.8017 37.4107 52.8017C40.6542 52.8017 43.2837 55.4335 43.2837 58.6802C43.2837 61.9268 40.6542 64.5586 37.4107 64.5586ZM55.9582 50.5546H18.8631C18.2096 50.5546 17.6798 50.0243 17.6798 49.3702C17.6798 48.7161 18.2096 48.1857 18.8631 48.1857H55.9582C56.6117 48.1857 57.1416 48.7161 57.1416 49.3702C57.1416 50.0243 56.6117 50.5546 55.9582 50.5546ZM55.9582 46.0981H18.8631C18.2096 46.0981 17.6798 45.5677 17.6798 44.9136C17.6798 44.2595 18.2096 43.7292 18.8631 43.7292H55.9582C56.6117 43.7292 57.1416 44.2595 57.1416 44.9136C57.1416 45.5677 56.6117 46.0981 55.9582 46.0981ZM55.9582 41.6414H37.1075C36.454 41.6414 35.9241 41.1111 35.9241 40.457C35.9241 39.8029 36.454 39.2725 37.1075 39.2725H55.9581C56.6116 39.2725 57.1414 39.8029 57.1414 40.457C57.1414 41.1111 56.6117 41.6414 55.9582 41.6414ZM55.9582 37.1849H37.1075C36.454 37.1849 35.9241 36.6545 35.9241 36.0004C35.9241 35.3463 36.454 34.816 37.1075 34.816H55.9581C56.6116 34.816 57.1414 35.3463 57.1414 36.0004C57.1414 36.6545 56.6117 37.1849 55.9582 37.1849ZM55.9582 32.7283H37.1075C36.454 32.7283 35.9241 32.198 35.9241 31.5439C35.9241 30.8898 36.454 30.3595 37.1075 30.3595H55.9581C56.6116 30.3595 57.1414 30.8898 57.1414 31.5439C57.1414 32.198 56.6117 32.7283 55.9582 32.7283Z" fill="white"/>
</svg>
