<svg width="69" height="67" viewBox="0 0 69 67" fill="none" xmlns="http://www.w3.org/2000/svg">
<path fill-rule="evenodd" clip-rule="evenodd" d="M63.5798 66.332L68.3812 61.3669C69.2244 60.4949 69.2031 59.0896 68.3343 58.2433L55.0357 45.2943C54.1669 44.4481 52.7657 44.4694 51.9226 45.3412L51.6251 45.6489L44.0723 38.2124C46.8202 34.2712 48.4328 29.4745 48.4328 24.2996C48.4328 10.8793 37.5908 0 24.2164 0C10.8421 0.000144244 0 10.8795 0 24.2998C0 33.3245 4.90317 41.2 12.1821 45.3908C12.8268 44.0849 13.6759 42.8987 14.6881 41.8749C8.28489 38.3721 4.28087 31.6551 4.28087 24.2998C4.28087 13.2521 13.2066 4.29573 24.2164 4.29573C35.2262 4.29573 44.152 13.2521 44.152 24.2998C44.152 31.6551 40.1481 38.3719 33.745 41.8749C34.7572 42.8987 35.6064 44.0849 36.251 45.3908C37.5731 44.6297 38.8164 43.7463 39.9665 42.7571L47.3708 50.0483L47.1212 50.3064C46.2782 51.1782 46.2991 52.5842 47.1681 53.4301L60.4667 66.3788C61.3357 67.2249 62.7365 67.2041 63.5798 66.332ZM24.2166 40.1996C30.3596 40.1996 35.3395 45.1967 35.3395 51.3607C35.3395 57.5247 30.3596 62.5217 24.2166 62.5217C18.0735 62.5217 13.0938 57.5247 13.0938 51.3607C13.0938 45.1967 18.0735 40.1996 24.2166 40.1996ZM22.7556 52.3451L28.1641 46.864C28.8043 46.2152 29.8487 46.2133 30.4934 46.8568C31.138 47.5 31.14 48.545 30.5006 49.1927C28.3074 51.4138 26.129 53.6495 23.9258 55.8605C23.2816 56.5069 22.2368 56.5069 21.5927 55.8605L17.9371 52.1925C17.293 51.5462 17.293 50.4978 17.9371 49.8514C18.5813 49.2051 19.6262 49.2051 20.2703 49.8514L22.7556 52.3451ZM24.2166 11.3641C27.8796 11.3641 30.8492 14.3439 30.8492 18.0195C30.8492 21.6953 27.8796 24.6751 24.2166 24.6751C20.5534 24.6751 17.5838 21.6953 17.5838 18.0195C17.5839 14.3439 20.5535 11.3641 24.2166 11.3641ZM11.4017 36.4571C8.41354 33.2868 6.58087 29.0082 6.58087 24.2998C6.58087 14.5262 14.4763 6.60364 24.2164 6.60364C33.9565 6.60364 41.852 14.5264 41.852 24.2998C41.852 29.008 40.0194 33.2866 37.0313 36.4569C35.7164 30.4219 30.3714 26.1177 24.2166 26.1177C18.0618 26.1175 12.7166 30.4219 11.4017 36.4571Z" fill="white"/>
</svg>
