<svg width="69" height="68" viewBox="0 0 69 68" fill="none" xmlns="http://www.w3.org/2000/svg">
<path fill-rule="evenodd" clip-rule="evenodd" d="M7.93952 36.024C7.93952 41.0501 12.0087 45.1391 17.0105 45.1391C22.0122 45.1391 26.0814 41.0501 26.0814 36.024C26.0814 30.9965 22.0122 26.9075 17.0105 26.9075C12.0087 26.9075 7.93952 30.9965 7.93952 36.024ZM41.0339 54.0981C41.0339 53.0354 40.1737 52.1725 39.1176 52.1725C38.06 52.1725 37.1997 53.0354 37.1997 54.0981C37.1997 55.1594 38.06 56.0238 39.1176 56.0238C40.1737 56.0238 41.0339 55.1594 41.0339 54.0981ZM41.0339 44.4881C41.0339 43.4269 40.1737 42.5624 39.1176 42.5624C38.06 42.5624 37.1997 43.4269 37.1997 44.4881C37.1997 45.5508 38.06 46.4152 39.1176 46.4152C40.1737 46.4152 41.0339 45.5508 41.0339 44.4881ZM41.0339 34.8796C41.0339 33.8168 40.1737 32.9524 39.1176 32.9524C38.06 32.9524 37.1997 33.8168 37.1997 34.8796C37.1997 35.9408 38.06 36.8052 39.1176 36.8052C40.1737 36.8052 41.0339 35.9408 41.0339 34.8796ZM41.0339 25.2695C41.0339 24.2083 40.1737 23.3439 39.1176 23.3439C38.06 23.3439 37.1997 24.2083 37.1997 25.2695C37.1997 26.3323 38.06 27.1967 39.1176 27.1967C40.1737 27.1967 41.0339 26.3323 41.0339 25.2695ZM63.7256 16.4391V63.145H35.8288V57.6557C35.8288 56.8685 35.7519 56.098 35.6088 55.3516C36.1226 56.8004 37.501 57.8404 39.1176 57.8404C41.171 57.8404 42.8418 56.1615 42.8418 54.0981C42.8418 52.0347 41.171 50.3559 39.1176 50.3559C37.0642 50.3559 35.3919 52.0347 35.3919 54.0981C35.3919 54.2359 35.4009 54.3737 35.416 54.5084C34.6672 51.7047 32.9437 49.2992 30.6342 47.6808V16.4391H63.7256ZM44.621 24.396C44.1223 24.396 43.7171 24.8032 43.7171 25.3043C43.7171 25.8069 44.1223 26.2127 44.621 26.2127H59.2752C59.7739 26.2127 60.1791 25.8069 60.1791 25.3043C60.1791 24.8032 59.7739 24.396 59.2752 24.396H44.621ZM44.621 34.0061C44.1223 34.0061 43.7171 34.4118 43.7171 34.9144C43.7171 35.4155 44.1223 35.8227 44.621 35.8227H59.2752C59.7739 35.8227 60.1791 35.4155 60.1791 34.9144C60.1791 34.4118 59.7739 34.0061 59.2752 34.0061H44.621ZM44.621 43.6146C44.1223 43.6146 43.7171 44.0218 43.7171 44.5229C43.7171 45.0255 44.1223 45.4312 44.621 45.4312H59.2752C59.7739 45.4312 60.1791 45.0255 60.1791 44.5229C60.1791 44.0218 59.7739 43.6146 59.2752 43.6146H44.621ZM43.7171 54.133C43.7171 54.634 44.1223 55.0413 44.621 55.0413H59.2752C59.7739 55.0413 60.1791 54.634 60.1791 54.133C60.1791 53.6304 59.7739 53.2246 59.2752 53.2246H44.621C44.1223 53.2246 43.7171 53.6304 43.7171 54.133ZM42.8418 34.8796C42.8418 36.943 41.171 38.6218 39.1176 38.6218C37.0642 38.6218 35.3919 36.943 35.3919 34.8796C35.3919 32.8162 37.0642 31.1358 39.1176 31.1358C41.171 31.1358 42.8418 32.8162 42.8418 34.8796ZM39.1176 40.7458C41.171 40.7458 42.8418 42.4247 42.8418 44.4881C42.8418 46.553 41.171 48.2319 39.1176 48.2319C37.0642 48.2319 35.3919 46.553 35.3919 44.4881C35.3919 42.4247 37.0642 40.7458 39.1176 40.7458ZM39.1176 21.5272C41.171 21.5272 42.8418 23.2061 42.8418 25.2695C42.8418 27.3329 41.171 29.0133 39.1176 29.0133C37.0642 29.0133 35.3919 27.3329 35.3919 25.2695C35.3919 23.2061 37.0642 21.5272 39.1176 21.5272ZM38.7801 11.407H55.5781C57.1389 11.407 58.4074 10.2837 58.4074 8.90307V7.19694C58.4074 5.81629 57.1389 4.693 55.5781 4.693H52.3119C51.8133 4.693 51.408 4.28577 51.408 3.78467C51.408 1.69856 49.5113 0 47.1791 0C44.8485 0 42.9502 1.69856 42.9502 3.78467C42.9502 4.28577 42.5465 4.693 42.0463 4.693H38.7801C37.2208 4.693 35.9508 5.81629 35.9508 7.19694V8.90307C35.9508 10.2837 37.2208 11.407 38.7801 11.407ZM25.3598 29.0239V13.3796C25.3598 10.9423 27.3333 8.95908 29.7589 8.95908H34.1445C34.1776 11.3162 36.2431 13.2237 38.7801 13.2237H55.5781C58.1152 13.2237 60.1822 11.3162 60.2138 8.95908H64.5994C67.0264 8.95908 69 10.9423 69 13.3796V63.578C69 66.0168 67.0264 68 64.5994 68H35.8288V64.9617H64.6295C65.1282 64.9617 65.5334 64.5544 65.5334 64.0533V15.5308C65.5334 15.0282 65.1282 14.6225 64.6295 14.6225H29.7303C29.2316 14.6225 28.8263 15.0282 28.8263 15.5308V46.6332C27.7476 46.1261 26.5831 45.7764 25.3598 45.6114V43.0227C26.9386 41.1243 27.8893 38.6839 27.8893 36.024C27.8893 33.3627 26.9386 30.9223 25.3598 29.0239ZM23.7282 47.313H10.2927C4.61607 47.313 0 51.953 0 57.6557V68H34.0209V57.6557C34.0209 51.953 29.4033 47.313 23.7282 47.313Z" fill="white"/>
</svg>
