<svg width="74" height="51" viewBox="0 0 74 51" fill="none" xmlns="http://www.w3.org/2000/svg">
<path d="M52.8574 37H66.0717V18.5H52.8574V37ZM63.4289 34.3571H60.786V31.7143H63.4289V34.3571ZM60.786 21.1429H63.4289V23.7857H60.786V21.1429ZM55.5003 21.1429H58.1431V23.7857H55.5003V21.1429ZM55.5003 26.4286H63.4289V29.0714H55.5003V26.4286ZM55.5003 31.7143H58.1431V34.3571H55.5003V31.7143Z" fill="white"/>
<path d="M72.6786 0H1.32143C0.970964 0 0.634854 0.139222 0.387038 0.387038C0.139222 0.634854 0 0.970964 0 1.32143V48.8929C0 49.2433 0.139222 49.5794 0.387038 49.8272C0.634854 50.0751 0.970964 50.2143 1.32143 50.2143H72.6786C73.029 50.2143 73.3651 50.0751 73.613 49.8272C73.8608 49.5794 74 49.2433 74 48.8929V1.32143C74 0.970964 73.8608 0.634854 73.613 0.387038C73.3651 0.139222 73.029 0 72.6786 0ZM29.0714 2.64286H44.9286V5.28571H29.0714V2.64286ZM10.5714 44.9286H5.28571V42.2857H10.5714V44.9286ZM23.7857 44.9286H13.2143V42.2857H23.7857V44.9286ZM23.7857 38.3214C23.7857 38.6719 23.6465 39.008 23.3987 39.2558C23.1509 39.5036 22.8148 39.6429 22.4643 39.6429H6.60714C6.25668 39.6429 5.92057 39.5036 5.67275 39.2558C5.42494 39.008 5.28571 38.6719 5.28571 38.3214V17.1786C5.28571 16.8281 5.42494 16.492 5.67275 16.2442C5.92057 15.9964 6.25668 15.8571 6.60714 15.8571H22.4643C22.8148 15.8571 23.1509 15.9964 23.3987 16.2442C23.6465 16.492 23.7857 16.8281 23.7857 17.1786V38.3214ZM23.7857 7.92857H50.2143V10.5714H23.7857V7.92857ZM30.3929 44.9286H27.75V42.2857H30.3929V44.9286ZM46.25 44.9286H33.0357V42.2857H46.25V44.9286ZM46.25 38.3214C46.25 38.6719 46.1108 39.008 45.863 39.2558C45.6151 39.5036 45.279 39.6429 44.9286 39.6429H29.0714C28.721 39.6429 28.3849 39.5036 28.137 39.2558C27.8892 39.008 27.75 38.6719 27.75 38.3214V17.1786C27.75 16.8281 27.8892 16.492 28.137 16.2442C28.3849 15.9964 28.721 15.8571 29.0714 15.8571H44.9286C45.279 15.8571 45.6151 15.9964 45.863 16.2442C46.1108 16.492 46.25 16.8281 46.25 17.1786V38.3214ZM52.8571 44.9286H50.2143V42.2857H52.8571V44.9286ZM58.1429 44.9286H55.5V42.2857H58.1429V44.9286ZM68.7143 44.9286H60.7857V42.2857H68.7143V44.9286ZM68.7143 38.3214C68.7143 38.6719 68.5751 39.008 68.3272 39.2558C68.0794 39.5036 67.7433 39.6429 67.3929 39.6429H51.5357C51.1852 39.6429 50.8491 39.5036 50.6013 39.2558C50.3535 39.008 50.2143 38.6719 50.2143 38.3214V17.1786C50.2143 16.8281 50.3535 16.492 50.6013 16.2442C50.8491 15.9964 51.1852 15.8571 51.5357 15.8571H67.3929C67.7433 15.8571 68.0794 15.9964 68.3272 16.2442C68.5751 16.492 68.7143 16.8281 68.7143 17.1786V38.3214Z" fill="white"/>
<path d="M7.92871 37H21.143V18.5H7.92871V37ZM15.8573 21.1429H18.5001V23.7857H15.8573V21.1429ZM10.5716 21.1429H13.2144V23.7857H10.5716V21.1429ZM10.5716 26.4286H18.5001V29.0714H10.5716V26.4286ZM10.5716 31.7143H18.5001V34.3571H10.5716V31.7143Z" fill="white"/>
<path d="M30.3926 37H43.6069V18.5H30.3926V37ZM33.0354 21.1429H40.964V23.7857H33.0354V21.1429ZM33.0354 26.4286H40.964V29.0714H33.0354V26.4286ZM33.0354 31.7143H40.964V34.3571H33.0354V31.7143Z" fill="white"/>
</svg>
