<svg width="70" height="62" viewBox="0 0 70 62" fill="none" xmlns="http://www.w3.org/2000/svg">
<path fill-rule="evenodd" clip-rule="evenodd" d="M54.3042 41.59C54.4031 41.2184 54.6678 40.9132 55.0217 40.7627L61.0522 38.1972C61.5034 38.0053 61.8003 37.5671 61.8114 37.077C61.8224 36.5869 61.5454 36.1357 61.1033 35.9238L43.2337 27.3576C43.215 27.3501 43.1988 27.3402 43.1813 27.3327L35.6147 23.7078L40.4563 51.5612C40.5402 52.0443 40.8993 52.4335 41.3742 52.5559C41.849 52.6784 42.3517 52.5113 42.6586 52.1289L46.7602 47.0217C46.9968 46.7269 47.3542 46.5553 47.7321 46.555H47.7508C48.1361 46.5616 48.4967 46.7458 48.7279 47.0541L59.5912 61.4038C60.0069 61.9527 60.7888 62.0609 61.3381 61.6459L66.1333 58.0223L54.5164 42.6745C54.2807 42.3656 54.2024 41.9648 54.3042 41.59Z" fill="white"/>
<path fill-rule="evenodd" clip-rule="evenodd" d="M16.2213 7.48669H12.478V11.2301H16.2215C17.2551 11.2301 18.0931 10.3922 18.0931 9.35848C18.093 8.32466 17.255 7.48669 16.2213 7.48669Z" fill="white"/>
<path d="M28.0755 17.4689C29.7983 17.4689 31.195 15.2343 31.195 12.4778C31.195 9.72129 29.7983 7.48669 28.0755 7.48669C26.3527 7.48669 24.9561 9.72129 24.9561 12.4778C24.9561 15.2343 26.3527 17.4689 28.0755 17.4689Z" fill="white"/>
<path d="M57.3983 0H12.478C5.58655 0 0 5.58655 0 12.4778C0 19.3691 5.58655 24.9558 12.478 24.9558H33.2849L33.1439 24.1447C32.9853 23.2217 33.3549 22.2873 34.1021 21.7227C34.8493 21.158 35.8491 21.0575 36.6938 21.462L43.9946 24.9558H57.3985C64.2899 24.9558 69.8764 19.3692 69.8764 12.4778C69.8764 5.58642 64.2897 0 57.3983 0ZM16.2213 13.7256H12.478V18.7167C12.478 19.4058 11.9194 19.9646 11.2302 19.9646C10.5411 19.9646 9.98235 19.406 9.98235 18.7167V6.23891C9.98235 5.54984 10.5409 4.99111 11.2302 4.99111H16.2213C18.6332 4.99111 20.5885 6.94641 20.5885 9.35837C20.5885 11.7703 18.6332 13.7256 16.2213 13.7256ZM28.0753 19.9646C26.7576 19.9646 22.4602 19.4242 22.4602 12.4778C22.4602 5.53142 26.7576 4.99111 28.0753 4.99111C29.3929 4.99111 33.6903 5.53142 33.6903 12.4778C33.6903 19.4242 29.3929 19.9646 28.0753 19.9646ZM41.801 11.23C44.9491 11.23 47.4161 13.1479 47.4161 15.5973C47.4161 18.0466 44.9493 19.9646 41.801 19.9646C38.6529 19.9646 36.186 18.0466 36.186 15.5973C36.186 14.9082 36.7446 14.3495 37.4338 14.3495C38.1228 14.3495 38.6816 14.9081 38.6816 15.5973C38.6816 16.4832 39.9631 17.4689 41.801 17.4689C43.639 17.4689 44.9205 16.4832 44.9205 15.5973C44.9205 14.7114 43.639 13.7256 41.801 13.7256C38.6529 13.7256 36.186 11.8077 36.186 9.35837C36.186 6.90902 38.6528 4.99111 41.801 4.99111C44.9491 4.99111 47.4161 6.90902 47.4161 9.35837C47.4161 10.0474 46.8575 10.6062 46.1683 10.6062C45.4792 10.6062 44.9205 10.0476 44.9205 9.35837C44.9205 8.4725 43.639 7.48672 41.801 7.48672C39.9631 7.48672 38.6816 8.4725 38.6816 9.35837C38.6816 10.2444 39.963 11.23 41.801 11.23ZM59.8939 7.48672H56.1505V18.7169C56.1505 19.406 55.5919 19.9647 54.9027 19.9647C54.2136 19.9647 53.6549 19.4061 53.6549 18.7169V7.48672H49.9115C49.2224 7.48672 48.6636 6.92812 48.6636 6.23891C48.6636 5.54971 49.2222 4.99111 49.9115 4.99111H59.8938C60.5829 4.99111 61.1416 5.54971 61.1416 6.23891C61.1416 6.92812 60.5831 7.48672 59.8939 7.48672Z" fill="white"/>
</svg>
