<svg width="66" height="60" viewBox="0 0 66 60" fill="none" xmlns="http://www.w3.org/2000/svg">
<path fill-rule="evenodd" clip-rule="evenodd" d="M43.7225 3.94873C43.2583 2.21997 41.9582 0.839336 40.2579 0.273346C38.5599 -0.292643 36.6914 0.0317939 35.2824 1.14009C27.6143 7.16468 12.2141 19.2707 12.2141 19.2707C11.6553 19.7088 11.4113 20.4406 11.596 21.1273L16.3182 38.7488C16.5005 39.4356 17.0783 39.9447 17.7817 40.0465C17.7817 40.0465 37.1721 42.8291 46.8247 44.2145C48.5961 44.4679 50.3794 43.8167 51.5658 42.4763C52.7546 41.1359 53.1904 39.2911 52.7286 37.56C50.4599 29.0915 45.9912 12.4173 43.7225 3.94873Z" fill="white"/>
<path fill-rule="evenodd" clip-rule="evenodd" d="M15.0279 20.2061C14.7745 19.2589 13.7988 18.6976 12.8516 18.951C12.8516 18.951 8.43257 20.1351 4.82824 21.1013C3.15868 21.5489 1.73779 22.6406 0.873413 24.1349C0.00903578 25.6316 -0.225411 27.4101 0.22217 29.0772C0.920777 31.6846 1.79463 34.9408 2.49323 37.5481C2.93845 39.2177 4.03017 40.641 5.52684 41.503C7.02352 42.3673 8.79963 42.6018 10.4692 42.1542C14.0735 41.188 18.4925 40.0039 18.4925 40.0039C19.4398 39.7505 20.0034 38.7748 19.75 37.8276L15.0279 20.2061Z" fill="white"/>
<path fill-rule="evenodd" clip-rule="evenodd" d="M21.2134 36.949C20.6214 36.8661 20.0293 37.084 19.6315 37.5292C19.236 37.9768 19.0915 38.5925 19.2455 39.168L21.5899 47.923C21.8291 48.8135 22.7101 49.3724 23.6171 49.2113C23.8515 49.1687 24.0883 49.1166 24.3228 49.055C28.5547 47.9207 31.1525 43.7172 30.364 39.4829C30.2242 38.7346 29.6227 38.1568 28.8696 38.0478L21.2134 36.949ZM24.5288 45.1618L23.3732 40.8494L26.9372 41.3609C26.8188 42.9381 25.9189 44.3755 24.5288 45.1618Z" fill="white"/>
<path fill-rule="evenodd" clip-rule="evenodd" d="M22.6772 38.2491C22.4925 37.5624 21.9171 37.0508 21.2137 36.949L18.2867 36.5298C18.0475 36.4967 17.8059 36.5109 17.5739 36.5725L11.3906 38.2302C10.9004 38.3604 10.4883 38.6943 10.261 39.149C10.0336 39.6013 10.0123 40.1318 10.1994 40.6031C10.1994 40.6031 14.2087 50.6677 16.2501 55.7924C17.2471 58.2956 19.9586 59.6549 22.5612 58.9587C25.4811 58.1772 27.2123 55.1767 26.4308 52.2591L22.6772 38.2491Z" fill="white"/>
<path fill-rule="evenodd" clip-rule="evenodd" d="M62.2014 15.7871L55.3314 17.6272C54.3865 17.8806 53.8229 18.8563 54.0763 19.8035C54.3297 20.7508 55.3054 21.3121 56.2526 21.0587L63.1203 19.2186C64.0676 18.9652 64.6312 17.9895 64.3778 17.0423C64.1244 16.095 63.1487 15.5338 62.2014 15.7871Z" fill="white"/>
<path fill-rule="evenodd" clip-rule="evenodd" d="M55.301 2.88543L49.5843 7.11496C48.798 7.69752 48.6299 8.81056 49.2125 9.59915C49.7974 10.3877 50.9104 10.5535 51.6967 9.97095L57.4158 5.74142C58.202 5.15886 58.3701 4.04582 57.7852 3.25723C57.2026 2.46863 56.0896 2.30286 55.301 2.88543Z" fill="white"/>
<path fill-rule="evenodd" clip-rule="evenodd" d="M63.8093 30.3726L56.757 29.4585C55.7837 29.333 54.8932 30.0198 54.7677 30.9907C54.6398 31.964 55.329 32.8545 56.2999 32.9823L63.3523 33.8964C64.3256 34.022 65.216 33.3352 65.3415 32.3619C65.4694 31.3909 64.7803 30.4981 63.8093 30.3726Z" fill="white"/>
</svg>
