<svg width="69" height="66" viewBox="0 0 69 66" fill="none" xmlns="http://www.w3.org/2000/svg">
<path d="M26.8607 36.989H12.3214C10.9414 36.989 9.85714 35.9047 9.85714 34.5247C9.85714 33.1694 10.9414 32.0604 12.3214 32.0604H23.9529C23.2629 30.5819 22.7207 29.0294 22.3264 27.4029H12.3214C10.9414 27.4029 9.85714 26.294 9.85714 24.9386C9.85714 23.5833 10.9414 22.4744 12.3214 22.4744H21.6118C21.5871 22.0554 21.5871 21.6611 21.5871 21.2422C21.5871 18.3097 22.08 15.5004 22.9671 12.8636H8.87143C3.9675 12.8636 0 16.8558 0 21.7351V47.3144C0 51.8733 3.47464 55.6683 7.935 56.1119V61.3115C7.935 62.7654 8.74821 64.0469 10.0543 64.6876C10.5718 64.934 11.1386 65.0572 11.6807 65.0572C12.5186 65.0572 13.3318 64.7861 13.9971 64.244L19.5418 59.8822C22.5482 57.4919 26.3432 56.1611 30.2121 56.1611H47.265C52.1443 56.1611 56.1364 52.1936 56.1364 47.3144V46.0329C53.4996 46.9201 50.6903 47.4129 47.7578 47.4129C39.2314 47.4129 31.6414 43.3222 26.8607 36.989ZM28.0682 46.5997H12.3214C10.9414 46.5997 9.85714 45.4908 9.85714 44.1354C9.85714 42.7801 10.9414 41.6711 12.3214 41.6711H28.0682C29.4236 41.6711 30.5325 42.7801 30.5325 44.1354C30.5325 45.4908 29.4236 46.5997 28.0682 46.5997Z" fill="white"/>
<path d="M47.7583 0C36.0283 0 26.5161 9.53678 26.5161 21.2421C26.5161 32.9721 36.0283 42.4843 47.7583 42.4843C59.4636 42.4843 69.0004 32.9721 69.0004 21.2421C69.0004 9.53678 59.4636 0 47.7583 0ZM47.7336 34.9189C46.3783 34.9189 45.2693 33.81 45.2693 32.4546C45.2693 31.0993 46.3536 29.9904 47.709 29.9904H47.7336C49.089 29.9904 50.1979 31.0993 50.1979 32.4546C50.1979 33.81 49.089 34.9189 47.7336 34.9189ZM50.2225 23.5339V25.0371C50.2225 26.3925 49.1136 27.5014 47.7583 27.5014C46.4029 27.5014 45.294 26.3925 45.294 25.0371V21.5379C45.294 20.1825 46.4029 19.0736 47.7583 19.0736C48.9165 19.0736 49.8775 18.1371 49.8775 16.9543C49.8775 15.7961 48.9165 14.8596 47.7583 14.8596C46.6 14.8596 45.639 15.7961 45.639 16.9543C45.639 18.3343 44.53 19.4186 43.1747 19.4186C41.8193 19.4186 40.7104 18.3343 40.7104 16.9543C40.7104 13.0854 43.8647 9.93107 47.7583 9.93107C51.6272 9.93107 54.8061 13.0854 54.8061 16.9543C54.8061 19.9854 52.884 22.5236 50.2225 23.5339Z" fill="white"/>
</svg>
