<svg width="72" height="63" viewBox="0 0 72 63" fill="none" xmlns="http://www.w3.org/2000/svg">
<path d="M56.8398 0H40.0398C31.9351 0 25.3398 6.59526 25.3398 14.7C25.3398 22.0931 30.8257 28.229 37.9398 29.2503V35.7C37.9398 36.549 38.4504 37.316 39.236 37.64C40.0106 37.9632 40.9192 37.7899 41.5247 37.1847L49.3094 29.4H56.8398C64.9446 29.4 71.6798 22.8047 71.6798 14.7C71.6798 6.59526 64.9446 0 56.8398 0ZM40.0398 16.7997C38.8798 16.7997 37.9398 15.8595 37.9398 14.6997C37.9398 13.54 38.8798 12.5997 40.0398 12.5997C41.1996 12.5997 42.1398 13.54 42.1398 14.6997C42.1398 15.8595 41.1996 16.7997 40.0398 16.7997ZM48.4398 16.7997C47.2798 16.7997 46.3398 15.8595 46.3398 14.6997C46.3398 13.54 47.2798 12.5997 48.4398 12.5997C49.5996 12.5997 50.5398 13.54 50.5398 14.6997C50.5398 15.8595 49.5996 16.7997 48.4398 16.7997ZM56.8398 16.7997C55.6798 16.7997 54.7398 15.8595 54.7398 14.6997C54.7398 13.54 55.6798 12.5997 56.8398 12.5997C57.9996 12.5997 58.9398 13.54 58.9398 14.6997C58.9398 15.8595 57.9996 16.7997 56.8398 16.7997Z" fill="white"/>
<path d="M47.18 62.9999C50.654 62.9999 53.48 60.1739 53.48 56.6999V48.2999C53.48 47.3955 52.9017 46.5936 52.0444 46.3086L39.474 42.1086C38.8587 41.9015 38.1861 41.9957 37.6447 42.3526L32.3004 45.9147C26.6402 43.216 19.924 36.4996 17.225 30.8394L20.7872 25.495C21.146 24.9556 21.2363 24.281 21.0312 23.6658L16.8312 11.0953C16.5463 10.2383 15.7444 9.65991 14.84 9.65991H6.3C2.82604 9.65991 0 12.4564 0 15.9304C0 40.1255 22.9849 62.9999 47.18 62.9999Z" fill="white"/>
</svg>
