<svg width="73" height="72" viewBox="0 0 73 72" fill="none" xmlns="http://www.w3.org/2000/svg">
<path d="M30.7524 34.5845H42.3472C41.946 34.115 41.4489 33.7369 40.8893 33.4757C40.3298 33.2144 39.7207 33.0761 39.1032 33.0699H33.9962C33.3788 33.0761 32.7698 33.2145 32.2102 33.4757C31.6507 33.737 31.1536 34.115 30.7524 34.5845Z" fill="white"/>
<path d="M28.9277 15.3604V20.8023H44.073V15.3604C44.073 12.7032 41.8386 10.3521 39.3428 10.3521H38.6375L38.1466 12.2661L39.089 17.5288C39.1161 17.68 39.0966 17.8359 39.033 17.9758C38.9695 18.1157 38.8648 18.2329 38.7331 18.3119L36.8894 19.4175C36.7717 19.4881 36.6369 19.5253 36.4996 19.5251C36.3623 19.5249 36.2276 19.4873 36.1101 19.4163L34.2672 18.3084C34.1354 18.2287 34.0309 18.1109 33.9675 17.9705C33.904 17.8302 33.8846 17.6739 33.9119 17.5223L34.8562 12.2776L34.3632 10.3521H33.6579C31.1621 10.3521 28.9277 12.7032 28.9277 15.3604Z" fill="white"/>
<path d="M20.7141 3.73648C20.7141 1.67673 19.071 0 17.0514 0C15.0317 0 13.3882 1.67627 13.3882 3.73648C13.3882 5.79669 15.0313 7.47311 17.0511 7.47311C19.0708 7.47311 20.7141 5.79684 20.7141 3.73648Z" fill="white"/>
<path d="M36.5494 30.7767C37.5789 30.7755 38.5659 30.366 39.2938 29.6381C40.0217 28.9102 40.4312 27.9232 40.4324 26.8937C40.4324 24.7087 38.6542 22.8627 36.5494 22.8627C34.4447 22.8627 32.6665 24.7087 32.6665 26.8937C32.6677 27.9232 33.0771 28.9102 33.8051 29.6381C34.533 30.366 35.52 30.7755 36.5494 30.7767Z" fill="white"/>
<path d="M9.5415 15.3604V20.8023H24.5353V15.3604C24.5353 12.7032 22.3898 10.3521 19.8939 10.3521H19.189L18.6982 12.2661L19.6405 17.5288C19.6676 17.68 19.6481 17.8359 19.5845 17.9758C19.521 18.1157 19.4164 18.2329 19.2846 18.3119L17.441 19.4175C17.3232 19.4881 17.1884 19.5253 17.0511 19.5251C16.9138 19.5249 16.7791 19.4873 16.6616 19.4163L14.8187 18.3084C14.6869 18.2287 14.5824 18.1109 14.5189 17.9706C14.4555 17.8302 14.4361 17.6739 14.4634 17.5223L15.4076 12.2778L14.9144 10.3521H14.2091C11.7133 10.3521 9.5415 12.7032 9.5415 15.3604Z" fill="white"/>
<path d="M17.6249 10.3521H16.4785L16.7667 11.5637H17.336L17.6249 10.3521Z" fill="white"/>
<path d="M17.0516 17.8852L18.0574 17.282L17.2904 13.0071L16.8168 13.007L16.0464 17.2815L17.0516 17.8852Z" fill="white"/>
<path d="M48.4653 15.3604V20.8023H63.4591V15.3604C63.4591 12.7032 61.2873 10.3521 58.7915 10.3521H58.0862L57.5953 12.2661L58.5377 17.5288C58.5648 17.68 58.5453 17.8359 58.4817 17.9758C58.4181 18.1157 58.3135 18.2329 58.1818 18.3119L56.3381 19.4175C56.2203 19.4881 56.0856 19.5253 55.9483 19.5251C55.811 19.5249 55.6763 19.4873 55.5588 19.4163L53.7159 18.3084C53.5841 18.2287 53.4796 18.1109 53.4162 17.9705C53.3527 17.8302 53.3333 17.6739 53.3606 17.5223L54.3049 12.2776L53.8116 10.3521H53.1064C50.6108 10.3521 48.4653 12.7032 48.4653 15.3604Z" fill="white"/>
<path d="M55.9487 17.8852L56.9543 17.282L56.1874 13.0071L55.7138 13.007L54.9434 17.2815L55.9487 17.8852Z" fill="white"/>
<path d="M52.2856 3.73648C52.2856 5.79623 53.9287 7.47311 55.9484 7.47311C57.968 7.47311 59.6115 5.79684 59.6115 3.73648C59.6115 1.67612 57.9684 0 55.9487 0C53.9289 0 52.2856 1.67627 52.2856 3.73648Z" fill="white"/>
<path d="M56.5218 10.3521H55.3755L55.6639 11.5637H56.233L56.5218 10.3521Z" fill="white"/>
<path d="M40.1627 3.73648C40.1627 1.67673 38.5194 0 36.4998 0C34.4802 0 32.8369 1.67627 32.8369 3.73648C32.8369 5.79669 34.4802 7.47311 36.4998 7.47311C38.5194 7.47311 40.1627 5.79684 40.1627 3.73648Z" fill="white"/>
<path d="M5.75488 40.9454H8.63248V58.5139H5.75488V40.9454Z" fill="white"/>
<path d="M36.5 17.8852L37.5056 17.282L36.7387 13.0071L36.2651 13.007L35.4946 17.2815L36.5 17.8852Z" fill="white"/>
<path d="M37.0731 10.3521H35.9268L36.2151 11.5637H36.7843L37.0731 10.3521Z" fill="white"/>
<path d="M64.3672 40.9454H67.3962V58.5139H64.3672V40.9454Z" fill="white"/>
<path d="M43.5533 56.6964C43.8097 56.6857 44.0525 56.5785 44.2332 56.3962C44.4138 56.2139 44.5188 55.9701 44.5271 55.7136V53.213H39.6807V56.6964H43.5533Z" fill="white"/>
<path d="M29.1246 56.6964H33.4712V53.213H28.1704V55.7136C28.1744 55.9681 28.2754 56.2115 28.4527 56.3941C28.63 56.5768 28.8703 56.6849 29.1246 56.6964Z" fill="white"/>
<path d="M45.7777 36.0989H27.3735C26.8096 36.0989 26.3525 36.556 26.3525 37.1198V50.6775C26.3525 51.2414 26.8096 51.6985 27.3735 51.6985H45.7777C46.3415 51.6985 46.7986 51.2414 46.7986 50.6775V37.1198C46.7986 36.556 46.3415 36.0989 45.7777 36.0989Z" fill="white"/>
<path d="M48.0804 36.0989H72.6591L66.8691 22.3168H39.5345C40.9776 23.3769 41.947 25.0172 41.947 26.8996C41.9465 27.8223 41.7089 28.7295 41.2572 29.5341C40.8055 30.3387 40.1547 31.0138 39.3672 31.4948C40.364 31.5432 41.3302 31.8546 42.1678 32.3972C43.0054 32.9399 43.6845 33.6945 44.1361 34.5844H45.7651C46.257 34.5821 46.7388 34.7244 47.1504 34.9937C47.5621 35.2629 47.8855 35.6473 48.0804 36.0989Z" fill="white"/>
<path d="M48.3135 37.6134H73.0002V39.4308H48.3135V37.6134Z" fill="white"/>
<path d="M51.4762 46.5492H48.313V47.4579H49.6761V58.0917C49.6763 58.2102 49.6525 58.3276 49.606 58.4367C49.5596 58.5458 49.4914 58.6443 49.4058 58.7262C49.3201 58.8082 49.2187 58.8719 49.1077 58.9135C48.9967 58.9551 48.8784 58.9738 48.7599 58.9683H46.7682C46.7142 58.7521 46.5894 58.5601 46.4138 58.4229C46.2382 58.2857 46.0217 58.2111 45.7989 58.211H27.3528C27.0876 58.2112 26.8333 58.3167 26.6459 58.5043C26.4585 58.6919 26.3532 58.9462 26.3532 59.2114V58.9683H24.2395C24.1211 58.9738 24.0028 58.9551 23.8917 58.9135C23.7807 58.8719 23.6793 58.8082 23.5937 58.7262C23.508 58.6443 23.4399 58.5458 23.3934 58.4367C23.3469 58.3276 23.3231 58.2102 23.3234 58.0917V47.4579H24.8379V46.5492H21.5232C21.4027 46.5492 21.2871 46.5971 21.2019 46.6823C21.1167 46.7675 21.0688 46.883 21.0688 47.0036C21.0688 47.1241 21.1167 47.2396 21.2019 47.3248C21.2871 47.41 21.4027 47.4579 21.5232 47.4579H21.8088V58.0917C21.8088 58.409 21.8719 58.7232 21.9946 59.0159C22.1172 59.3087 22.2969 59.574 22.5231 59.7966C22.7493 60.0192 23.0176 60.1945 23.3123 60.3123C23.607 60.4301 23.9222 60.4881 24.2395 60.4828H26.3524V60.3919C26.3524 60.6571 26.4577 60.9114 26.6451 61.099C26.8326 61.2866 27.0868 61.3921 27.352 61.3923H45.7989C46.0483 61.3923 46.2887 61.2991 46.4729 61.131C46.6572 60.9629 46.7719 60.7319 46.7945 60.4836H48.7607C49.078 60.4887 49.3932 60.4306 49.6878 60.3127C49.9825 60.1948 50.2507 60.0194 50.4769 59.7968C50.703 59.5742 50.8826 59.3087 51.0052 59.016C51.1277 58.7233 51.1907 58.409 51.1906 58.0917V47.4579H51.4762C51.5967 47.4579 51.7123 47.41 51.7975 47.3248C51.8827 47.2396 51.9306 47.1241 51.9306 47.0036C51.9306 46.883 51.8827 46.7675 51.7975 46.6823C51.7123 46.5971 51.5967 46.5492 51.4762 46.5492Z" fill="white"/>
<path d="M34.9858 53.213H38.1663V56.6964H34.9858V53.213Z" fill="white"/>
<path d="M0 37.6134H24.8382V39.4308H0V37.6134Z" fill="white"/>
<path d="M27.3342 34.5844H28.963C29.4149 33.6948 30.0941 32.9407 30.9318 32.3985C31.7694 31.8564 32.7356 31.5457 33.7323 31.4978C32.9446 31.0163 32.2938 30.3407 31.842 29.5356C31.3903 28.7306 31.1528 27.823 31.1523 26.8999C31.1523 25.0175 32.1216 23.3769 33.5649 22.3168H6.13084L0.34082 36.0989H25.0189C25.2139 35.6473 25.5373 35.263 25.9489 34.9937C26.3605 34.7244 26.8423 34.5821 27.3342 34.5844ZM9.26378 26.2545H8.11275C7.91191 26.2545 7.7193 26.1748 7.57728 26.0327C7.43527 25.8907 7.35549 25.6981 7.35549 25.4973C7.35549 25.2964 7.43527 25.1038 7.57728 24.9618C7.7193 24.8198 7.91191 24.74 8.11275 24.74H9.26378C9.46462 24.74 9.65723 24.8198 9.79925 24.9618C9.94126 25.1038 10.021 25.2964 10.021 25.4973C10.021 25.6981 9.94126 25.8907 9.79925 26.0327C9.65723 26.1748 9.46462 26.2545 9.26378 26.2545ZM11.5472 25.4973C11.5472 25.2964 11.627 25.1038 11.769 24.9618C11.911 24.8198 12.1037 24.74 12.3045 24.74H25.5576C25.7585 24.74 25.9511 24.8198 26.0931 24.9618C26.2351 25.1038 26.3149 25.2964 26.3149 25.4973C26.3149 25.6981 26.2351 25.8907 26.0931 26.0327C25.9511 26.1748 25.7585 26.2545 25.5576 26.2545H12.3045C12.205 26.2545 12.1066 26.2349 12.0147 26.1969C11.9228 26.1588 11.8393 26.1031 11.769 26.0327C11.6987 25.9624 11.6429 25.8789 11.6049 25.7871C11.5668 25.6952 11.5472 25.5967 11.5472 25.4973Z" fill="white"/>
<path d="M40.1064 69.5699H33.0444C32.7585 69.5699 32.4754 69.627 32.2119 69.7378C31.9483 69.8485 31.7095 70.0108 31.5094 70.2151C31.3094 70.4193 31.1521 70.6615 31.0469 70.9273C30.9416 71.1931 30.8905 71.4773 30.8965 71.7631V71.8417H42.2554V71.7631C42.2612 71.4772 42.21 71.193 42.1046 70.9272C41.9992 70.6614 41.8419 70.4193 41.6417 70.215C41.4416 70.0108 41.2027 69.8485 40.9391 69.7377C40.6755 69.627 40.3924 69.5699 40.1064 69.5699Z" fill="white"/>
<path d="M35.4395 62.906H37.7112V68.0554H35.4395V62.906Z" fill="white"/>
</svg>
