<svg width="74" height="46" viewBox="0 0 74 46" fill="none" xmlns="http://www.w3.org/2000/svg">
<path d="M71.3571 0H2.64286C1.94193 0 1.26971 0.242321 0.774075 0.673655C0.278443 1.10499 0 1.69 0 2.3V43.7C0 44.31 0.278443 44.895 0.774075 45.3263C1.26971 45.7577 1.94193 46 2.64286 46H71.3571C72.0581 46 72.7303 45.7577 73.2259 45.3263C73.7216 44.895 74 44.31 74 43.7V2.3C74 1.69 73.7216 1.10499 73.2259 0.673655C72.7303 0.242321 72.0581 0 71.3571 0ZM13.2143 11.5H31.7143C32.4152 11.5 33.0874 11.7423 33.5831 12.1737C34.0787 12.605 34.3571 13.19 34.3571 13.8C34.3571 14.41 34.0787 14.995 33.5831 15.4263C33.0874 15.8577 32.4152 16.1 31.7143 16.1H13.2143C12.5134 16.1 11.8411 15.8577 11.3455 15.4263C10.8499 14.995 10.5714 14.41 10.5714 13.8C10.5714 13.19 10.8499 12.605 11.3455 12.1737C11.8411 11.7423 12.5134 11.5 13.2143 11.5ZM23.7857 34.5H13.2143C12.5134 34.5 11.8411 34.2577 11.3455 33.8263C10.8499 33.395 10.5714 32.81 10.5714 32.2C10.5714 31.59 10.8499 31.005 11.3455 30.5737C11.8411 30.1423 12.5134 29.9 13.2143 29.9H23.7857C24.4866 29.9 25.1589 30.1423 25.6545 30.5737C26.1501 31.005 26.4286 31.59 26.4286 32.2C26.4286 32.81 26.1501 33.395 25.6545 33.8263C25.1589 34.2577 24.4866 34.5 23.7857 34.5ZM37 25.3H13.2143C12.5134 25.3 11.8411 25.0577 11.3455 24.6263C10.8499 24.195 10.5714 23.61 10.5714 23C10.5714 22.39 10.8499 21.805 11.3455 21.3737C11.8411 20.9423 12.5134 20.7 13.2143 20.7H37C37.7009 20.7 38.3731 20.9423 38.8688 21.3737C39.3644 21.805 39.6429 22.39 39.6429 23C39.6429 23.61 39.3644 24.195 38.8688 24.6263C38.3731 25.0577 37.7009 25.3 37 25.3ZM52.8571 20.7H52.9893C54.8506 20.7241 56.6428 21.3173 58.0519 22.3758C59.4611 23.4343 60.3974 24.8906 60.6968 26.4895C60.9962 28.0884 60.6395 29.728 59.6894 31.1211C58.7393 32.5142 57.2562 33.5719 55.5 34.109V34.5C55.5 35.11 55.2216 35.695 54.7259 36.1263C54.2303 36.5577 53.5581 36.8 52.8571 36.8C52.1562 36.8 51.484 36.5577 50.9884 36.1263C50.4927 35.695 50.2143 35.11 50.2143 34.5V34.109C48.6678 33.6332 47.329 32.7516 46.3823 31.5859C45.4356 30.4201 44.9277 29.0275 44.9286 27.6C44.9286 26.99 45.207 26.405 45.7026 25.9737C46.1983 25.5423 46.8705 25.3 47.5714 25.3C48.2724 25.3 48.9446 25.5423 49.4402 25.9737C49.9358 26.405 50.2143 26.99 50.2143 27.6C50.2143 28.0549 50.3693 28.4996 50.6597 28.8778C50.9501 29.256 51.3628 29.5508 51.8458 29.7249C52.3287 29.899 52.8601 29.9446 53.3727 29.8558C53.8854 29.7671 54.3563 29.548 54.7259 29.2263C55.0955 28.9047 55.3472 28.4949 55.4492 28.0487C55.5512 27.6026 55.4989 27.1401 55.2988 26.7198C55.0988 26.2996 54.7601 25.9403 54.3254 25.6876C53.8908 25.4349 53.3798 25.3 52.8571 25.3C50.9847 25.3024 49.1718 24.7281 47.7393 23.6787C46.3069 22.6293 45.3474 21.1726 45.0309 19.5665C44.7143 17.9605 45.0611 16.3087 46.0099 14.9039C46.9586 13.4991 48.448 12.4317 50.2143 11.891V11.5C50.2143 10.89 50.4927 10.305 50.9884 9.87365C51.484 9.44232 52.1562 9.2 52.8571 9.2C53.5581 9.2 54.2303 9.44232 54.7259 9.87365C55.2216 10.305 55.5 10.89 55.5 11.5V11.891C57.0465 12.3668 58.3853 13.2484 59.332 14.4141C60.2787 15.5799 60.7866 16.9725 60.7857 18.4C60.7857 19.01 60.5073 19.595 60.0116 20.0263C59.516 20.4577 58.8438 20.7 58.1429 20.7C57.4419 20.7 56.7697 20.4577 56.2741 20.0263C55.7784 19.595 55.5 19.01 55.5 18.4C55.5 17.9451 55.345 17.5004 55.0546 17.1222C54.7642 16.744 54.3514 16.4492 53.8685 16.2751C53.3856 16.101 52.8542 16.0554 52.3415 16.1442C51.8289 16.2329 51.358 16.452 50.9884 16.7737C50.6187 17.0953 50.367 17.5051 50.2651 17.9513C50.1631 18.3974 50.2154 18.8599 50.4155 19.2802C50.6155 19.7004 50.9542 20.0597 51.3888 20.3124C51.8235 20.5651 52.3344 20.7 52.8571 20.7Z" fill="white"/>
</svg>
