<svg width="182" height="462" viewBox="0 0 182 462" fill="none" xmlns="http://www.w3.org/2000/svg">
<path d="M131.889 39.7375C131.889 39.7374 131.889 39.7375 131.889 39.7375ZM161.338 227.733L161.534 227.821H161.532C161.523 227.822 161.515 227.823 161.507 227.823C161.438 227.823 161.373 227.789 161.336 227.733H161.338ZM71.269 236.145L71.2022 236.232C71.2153 236.197 71.2381 236.167 71.2678 236.145H71.269ZM49.3624 254.363C49.9548 254.642 50.6047 254.938 51.244 254.977C51.2946 254.98 51.3449 254.982 51.395 254.982C51.9713 254.982 52.5172 254.786 53.0119 254.597H53.0129C53.4863 254.858 54.0146 255.132 54.6364 255.19C54.7261 255.199 54.8175 255.203 54.91 255.203C55.4465 255.203 56.0224 255.072 56.5647 254.94H56.5658C56.8157 255.196 57.1433 255.481 57.6513 255.512C57.682 255.514 57.7133 255.515 57.7451 255.515C58.236 255.515 58.855 255.3 59.4128 255.1H59.4138L61.2019 255.889H61.2008C61.6716 257.384 62.2469 259.267 63.5904 259.267C63.6136 259.267 63.6371 259.267 63.6608 259.266C64.3937 259.231 65.2621 258.627 66.1299 257.876C66.8224 257.277 67.5634 256.539 68.3019 255.794H68.3031C69.4567 257.461 70.6239 259.135 71.9577 260.819C73.3503 262.576 74.9228 264.342 76.4911 266.101H76.4898L76.7695 268.508L45.4998 258.67L45.7741 255.375L49.3614 254.363H49.3624ZM77.3608 268.695C77.3608 268.695 77.3609 268.695 77.3608 268.695ZM85.5212 146.759C86.258 149.466 86.9682 152.107 87.4637 154.224C87.5123 154.432 87.5583 154.632 87.6041 154.832C87.648 155.023 87.6918 155.213 87.7353 155.4C88.1749 157.278 88.6507 158.952 90.2583 161.651C90.5029 162.062 90.774 162.497 91.059 162.954C91.3814 163.471 91.7221 164.018 92.0693 164.601C93.8356 167.566 95.7459 171.436 95.9273 176.609C96.1445 182.8 93.8921 190.872 91.7095 198.685C91.3826 199.855 91.0577 201.018 90.7433 202.167C88.3362 210.965 86.5434 218.951 87.4488 226.42C87.9829 230.827 89.4552 235.043 90.9473 239.32C91.9859 242.297 93.035 245.305 93.7985 248.446C95.6407 256.026 95.8247 264.405 95.99 272.828L88.2181 272.718H88.2168C86.0487 271.231 83.8944 269.747 81.53 267.491C79.2165 265.284 76.6992 262.337 74.163 259.35H74.1618C75.0855 259.072 76.0676 258.614 75.7699 257.141C75.6339 256.467 75.2227 255.573 74.7886 254.625C74.2362 253.418 73.6292 252.088 73.3705 250.851C73.0738 249.431 73.2332 248.118 73.3839 246.89C73.4677 246.208 73.5499 245.543 73.5375 244.919C73.5117 243.622 73.0785 242.523 72.6716 241.485C72.5293 241.122 72.3905 240.768 72.2689 240.409C71.845 239.159 71.6248 237.84 71.4229 236.494H71.4217L71.3939 236.496C71.2927 236.496 71.2077 236.425 71.1923 236.33H71.1911L71.3926 236.299H71.3938C71.4035 236.364 71.4132 236.429 71.4229 236.494L71.4258 236.494L72.6081 236.313C72.7194 236.296 72.7953 236.195 72.7777 236.088C72.7737 236.064 72.7652 236.041 72.7532 236.021H72.7519C72.7082 236.073 72.6456 236.108 72.5763 236.119L71.3938 236.299C71.3842 236.234 71.3746 236.169 71.365 236.105H71.3638L72.5444 235.924C72.5552 235.923 72.5659 235.922 72.5765 235.922C72.6499 235.922 72.7168 235.96 72.7526 236.02C72.7573 236.014 72.7617 236.008 72.7659 236.003C72.8097 235.94 72.8249 235.863 72.8077 235.79C71.3936 229.735 69.991 223.724 69.9255 219.237C69.8747 215.749 70.6327 213.179 71.2031 211.247C71.3633 210.704 71.5106 210.205 71.6196 209.752C71.8085 208.967 71.8811 208.323 71.9826 207.427C72.1489 205.958 72.3973 203.763 73.3649 199.027C74.9239 191.399 78.347 177.19 81.7722 162.972L81.7728 162.97L85.5198 146.759H85.5212ZM146.312 334.489C146.291 334.529 146.257 334.561 146.215 334.58L146.31 334.489H146.312ZM25.6844 413.55C25.6844 413.55 25.6844 413.55 25.6844 413.55ZM10.0646 422.496L10.1134 422.709C10.0541 422.654 10.0346 422.57 10.064 422.496H10.0646ZM12.56 424.268C12.5595 424.269 12.559 424.269 12.5586 424.269C12.5292 424.284 12.4972 424.291 12.4654 424.291C12.4534 424.291 12.4415 424.29 12.4297 424.288H12.4291L12.5594 424.268H12.56ZM99.5151 458.524C99.5065 458.607 99.4446 458.675 99.361 458.695L99.5136 458.524H99.5151ZM110.07 0C110.038 0 110.005 0.000297386 109.973 0.000891132C107.423 0.04787 105.443 1.9693 103.575 3.78389H103.574C100.417 4.65055 97.1749 5.5458 94.9531 7.65857C92.7257 9.77658 91.5494 13.0955 90.4016 16.3304H90.4002C88.1929 19.359 85.9498 22.4404 85.0783 26.1401C84.2104 29.8243 84.7082 34.1021 85.2041 38.322H85.2027C84.6102 39.4543 84.0175 40.6591 84.5849 42.8354C85.1508 45.006 86.8748 48.1582 88.0689 49.7568C89.0911 51.1251 89.7756 51.4236 90.4447 51.4995C90.4654 51.5019 90.4862 51.504 90.5069 51.506H90.5055C90.5056 53.5968 90.5322 55.7506 91.3822 57.4048C92.2493 59.0923 93.9568 60.2317 95.6038 61.3128H95.6023C95.6687 64.1051 95.7139 66.8292 94.7781 69.256C93.8272 71.722 91.8507 73.9077 89.8342 75.835C87.829 77.7516 85.8294 79.3716 82.4098 80.912C81.7769 81.1971 81.0926 81.4806 80.377 81.7771C77.2281 83.0816 73.4482 84.6418 70.9009 87.727C67.7853 91.5006 66.5466 97.5152 65.8824 102.329C65.2155 107.162 65.1193 110.868 65.0232 114.561C64.3531 125.837 63.6831 137.104 62.5673 147.232C61.4513 157.361 59.889 166.354 58.3251 175.355L58.3245 175.359L55.1819 195.277H55.1813C53.2367 204.006 51.2854 212.764 50.8546 217.304C50.7483 218.425 50.7338 219.295 50.7764 220.012C50.8425 221.125 51.046 221.858 51.2426 222.567C51.4345 223.26 51.6193 223.928 51.6792 224.935C51.8408 227.653 51.0963 232.81 50.3378 238.032H50.3368C49.1133 239.183 47.8481 240.403 47.4205 242.662C47.0018 244.874 47.3918 248.079 47.7882 251.242H47.7872C45.9778 251.939 44.1445 252.658 42.8646 253.551C41.5928 254.439 40.8744 255.492 40.2077 256.516L15.8496 250.143C15.8253 250.137 15.8004 250.134 15.7757 250.134C15.7257 250.134 15.6761 250.146 15.6322 250.171C15.5667 250.209 15.5195 250.27 15.5014 250.341L15.4993 250.35C10.5958 269.74 5.69146 289.135 2.93632 300.996C0.189041 312.823 -0.443377 317.229 0.271662 319.802C1.00713 322.449 3.14848 323.147 5.12554 323.803L61.5669 342.931H61.5658C58.0455 350.018 54.5256 357.114 51.2727 364.488C50.1414 367.053 49.0425 369.65 47.9815 372.159C45.9504 376.96 44.0604 381.428 42.3384 384.733C39.7791 389.646 37.5929 391.986 35.4025 394.285L33.5798 393.436C33.5413 393.418 33.4993 393.409 33.457 393.409C33.4403 393.409 33.4235 393.41 33.4069 393.413C31.0251 393.827 28.6052 394.246 26.4437 395.118C24.2874 395.988 22.3571 397.321 21.4065 398.884C20.4656 400.432 20.5124 402.166 20.5642 403.812H20.5635L9.63769 422.512C9.56684 422.633 9.60204 422.786 9.71934 422.867L12.3615 424.692C12.4113 424.727 12.4687 424.743 12.5257 424.743C12.6117 424.743 12.6966 424.705 12.752 424.634L21.209 413.723H21.2097C22.2151 413.732 23.205 413.746 24.2042 413.859C24.6526 413.91 25.1006 413.981 25.5516 414.08C26.9374 414.386 28.4598 414.927 29.4392 420.309C29.6361 421.392 29.8102 422.666 30.002 424.071C30.7652 429.661 31.8021 437.304 35.7122 442.511C39.593 447.678 46.2694 450.416 51.597 451.021C52.3607 451.108 53.0988 451.151 53.7992 451.151C54.3847 451.151 54.9437 451.121 55.4692 451.06C57.1003 450.874 58.4085 450.397 59.3983 449.744C61.7839 448.169 62.2927 445.568 60.9797 443.715C60.1545 442.551 58.6194 441.719 57.0872 440.883C55.209 439.857 53.2974 438.805 52.2689 437.127C50.9948 435.048 51.0449 431.95 51.3838 428.556C51.4651 427.742 51.5622 426.915 51.6595 426.087C51.7567 425.261 51.8542 424.431 51.9358 423.614C52.0389 422.582 52.1166 421.569 52.1947 420.551C52.4966 416.616 52.8074 412.569 54.6192 406.777C56.9041 399.473 61.5764 389.393 66.3179 381.88C68.1911 378.912 70.0757 376.344 71.953 373.965C73.403 372.127 74.8477 370.404 76.2811 368.693C77.685 367.018 79.078 365.356 80.4487 363.619C85.0202 357.826 89.3374 351.204 93.6459 344.594L93.6653 344.564L100.412 335.299L102.852 335.003H102.854C99.9936 341.023 97.1902 347.238 96.9669 360.817C96.7393 374.653 99.1908 396.156 101.648 417.657H101.646L99.1351 418.392C99.0842 418.407 99.0387 418.435 99.0039 418.474C96.1292 421.668 93.1726 424.941 92.5894 428.894C92.0093 432.827 93.7864 437.395 95.5243 441.868H95.5229L96.6412 459.109C96.6462 459.184 96.6834 459.255 96.7441 459.303C96.7948 459.343 96.8582 459.364 96.9231 459.364C96.9358 459.364 96.9484 459.364 96.9611 459.362L99.6365 459.011C99.7782 458.993 99.8832 458.875 99.8809 458.737L99.62 443.028C99.6505 442.013 99.6828 441.226 101.121 441.01C101.329 440.979 101.566 440.96 101.83 440.96C102.044 440.96 102.277 440.973 102.526 441.001C104.284 441.201 106.885 442.193 109.918 445.204C111.313 446.589 112.796 448.398 114.361 450.306C117.269 453.853 120.463 457.754 123.805 459.714C125.49 460.702 127.208 461.196 128.932 461.391C129.579 461.465 130.227 461.496 130.874 461.496C131.948 461.496 133.02 461.41 134.082 461.284C134.996 461.177 135.905 461.041 136.803 460.906C137.693 460.773 138.566 460.642 139.434 460.54C142.318 460.2 145.104 460.183 147.435 460.169C149.15 460.159 150.637 460.151 151.716 460.011C154.335 459.67 154.644 458.528 154.883 457.432H154.881C155.722 455.054 156.682 452.414 153.948 450.484C151.356 448.654 145.386 447.478 139.514 446.323H139.512L133.208 437.919H133.208C129.383 432.18 125.592 426.482 124.201 418.068C122.807 409.629 123.824 398.45 124.849 387.22C125.826 378.837 126.804 370.446 127.296 362.973C127.787 355.519 127.795 348.98 127.802 342.453H127.8C128.523 340.686 129.256 338.89 129.547 337.602C129.806 336.46 129.72 335.71 129.589 335.034H129.588L146.408 334.944C146.561 334.943 146.686 334.825 146.689 334.677L148.17 264.899H148.172C149.22 257.223 150.269 249.54 150.93 242.042C151.583 234.622 151.856 227.386 152.125 220.158H152.123L155.166 220.095C155.245 220.094 155.32 220.06 155.372 220.003C155.424 219.945 155.449 219.869 155.441 219.793L154.724 213.436L161.085 228.065C161.13 228.168 161.235 228.232 161.346 228.232C161.374 228.232 161.402 228.228 161.43 228.22L163.15 227.704H163.152C164.19 229.935 165.285 232.222 167.15 233.564C167.784 234.021 168.503 234.364 169.162 234.679C170.562 235.35 171.587 235.869 171.667 236.974C171.686 237.226 171.656 237.518 171.585 237.847C171.372 238.829 170.813 240.034 170.251 241.243C169.729 242.363 169.201 243.495 169.008 244.386C168.511 246.684 170.204 247.413 171.635 248.044L171.641 248.046C171.678 248.063 171.718 248.071 171.758 248.071C171.79 248.071 171.822 248.066 171.852 248.055C175.138 246.934 178.582 245.773 180.079 242.261C181.556 238.797 181.115 233.092 180.03 229.617C178.942 226.132 177.187 224.822 175.464 223.569H175.462L152.335 170.845H152.333C151.491 165.228 150.654 159.634 150.496 154.977C150.339 150.324 150.86 146.609 152.267 141.969C152.472 141.29 152.697 140.591 152.929 139.87C154.281 135.667 155.865 130.754 155.051 125.33C154.101 119.005 149.89 112.01 145.72 105.082H145.718C142.929 98.7986 140.116 92.4498 135.84 88.1817C131.601 83.9502 125.942 81.7795 120.338 79.6519H120.337L119.841 67.2992H119.839C123.188 64.405 126.576 61.4642 128.432 58.017C130.296 54.5576 130.608 50.6083 130.906 46.7234H130.904C131.677 45.832 132.497 44.8729 132.729 43.6684C132.958 42.4747 132.603 41.0681 132.26 39.734H132.258C132.757 38.6589 133.242 37.5282 133.305 34.4439C133.369 31.3068 133 26.0827 131.048 22.0397C129.104 18.0117 125.601 15.1855 122.15 12.4094H122.149C120.972 9.49992 119.77 6.54218 117.672 4.16717C115.765 2.00858 113.098 0.307914 110.716 0.0375167C110.499 0.0127935 110.283 0 110.07 0Z" fill="#0A0A0A"/>
</svg>
