<svg width="176" height="604" viewBox="0 0 176 604" fill="none" xmlns="http://www.w3.org/2000/svg">
<path d="M151.045 0.76905C152.597 1.17879 155.338 1.8448 157.096 2.25463C161.596 3.22806 162.32 3.79156 163.768 6.76299C164.854 9.11968 165.009 10.1443 165.009 15.5236C165.009 22.7984 163.923 26.5895 158.906 36.7334C157.769 38.9875 157.665 39.6023 158.182 40.422C158.493 40.9855 158.803 42.0101 158.803 42.6761C158.803 43.8032 159.113 44.0082 161.234 44.2643C167.336 45.1352 167.336 45.1352 167.181 47.2869C167.078 48.3628 166.354 51.7954 165.578 54.9716C164.751 58.0967 163.665 62.9637 163.199 65.7815C162.682 68.5992 161.958 71.7243 161.544 72.6977C160.717 74.7468 159.475 79.8188 158.751 84.1222C158.493 85.8129 158.131 87.4011 157.924 87.7085C157.717 88.067 157.355 89.3479 157.148 90.6286C156.579 94.1635 155.39 99.4917 155.079 100.363C154.873 100.772 154.614 101.951 154.459 102.924C153.476 108.406 152.752 110.558 151.201 112.3C150.321 113.273 149.494 114.554 149.339 115.066C149.184 115.578 148.666 117.576 148.201 119.574C147.684 121.521 146.184 125.466 144.788 128.335C143.391 131.153 142.253 133.919 142.253 134.483C142.253 134.995 141.891 136.122 141.478 136.942C141.064 137.71 140.702 139.145 140.702 140.016C140.702 142.423 138.943 146.881 136.306 151.184C135.84 151.952 134.754 153.899 132.737 157.486C131.651 159.432 126.324 167.219 125.342 168.244C124.824 168.808 123.221 171.011 121.825 173.111C120.377 175.211 119.084 177.056 118.929 177.21C117.17 178.798 116.446 190.581 117.894 194.116C119.653 198.368 120.222 199.7 122.083 203.337C123.118 205.438 124.514 208 125.083 208.973C125.704 209.946 126.376 211.125 126.583 211.534C126.738 211.944 127.462 213.02 128.134 213.891C128.807 214.762 129.324 215.633 129.324 215.787C129.324 216.299 132.53 220.756 134.237 222.703C135.065 223.676 135.996 224.855 136.306 225.367C136.564 225.879 137.547 227.109 138.478 228.082C139.357 229.055 140.909 230.9 141.891 232.181C142.874 233.41 144.167 234.998 144.788 235.664C145.356 236.279 145.874 237.15 145.874 237.509C145.874 237.919 147.218 240.019 148.873 242.171C150.528 244.322 152.597 247.14 153.424 248.421C154.252 249.702 156.372 252.724 158.131 255.183C159.941 257.643 161.389 259.794 161.389 259.948C161.389 260.153 164.544 264.866 165.009 265.327C165.371 265.686 166.509 267.53 166.923 268.401C167.13 268.811 167.388 269.272 167.543 269.426C167.698 269.58 168.991 271.424 170.44 273.524C171.836 275.625 173.129 277.469 173.336 277.623C173.491 277.776 174.111 278.699 174.732 279.723L175.87 281.568L169.56 287.203C166.044 290.277 162.01 293.658 160.613 294.683C157.303 297.039 155.028 299.908 155.079 301.65C155.079 302.367 155.441 305.185 155.959 307.849C156.424 310.513 156.734 314.253 156.683 316.149C156.372 324.909 156.631 340.381 157.252 350.883C157.614 357.236 157.924 363.691 157.924 365.228C157.924 371.376 156.683 388.846 155.959 394.174C155.545 397.248 154.924 402.217 154.666 405.189C154.407 408.16 153.942 411.234 153.631 412.054C153.373 412.873 153.114 414.41 153.114 415.435C153.114 416.46 152.907 417.997 152.597 418.816C151.976 420.66 151.149 425.579 150.528 431.573C149.287 443.971 147.787 452.68 146.753 453.653C146.546 453.858 146.391 454.627 146.391 455.344C146.391 456.113 145.77 458.981 145.046 461.799C143.65 467.332 143.029 471.533 142.253 481.523C141.943 485.058 141.478 488.593 141.219 489.413C140.909 490.233 140.702 492.179 140.702 493.768C140.702 495.356 140.443 497.507 140.185 498.532C139.305 501.503 138.53 507.498 136.564 525.582C136.306 528.246 135.892 530.808 135.737 531.218C135.582 531.627 135.22 533.369 135.013 535.06C134.754 536.751 134.185 539.978 133.72 542.232C133.203 544.487 132.686 549.251 132.582 552.837L132.324 559.344L133.668 559.702C134.961 560.01 137.288 562.52 138.581 564.928C139.409 566.516 138.892 568.565 137.547 569.077C136.409 569.436 135.013 572.561 135.013 574.61C135.013 575.225 134.754 575.891 134.496 576.045C133.203 576.813 134.806 581.117 136.564 581.578C137.133 581.732 137.599 582.244 137.599 582.807C137.599 583.832 139.874 584.703 143.857 585.318C149.132 586.086 153.269 587.982 154.407 590.134C155.493 592.183 155.441 595.923 154.252 596.896C152.028 598.843 151.356 598.945 133.461 599.611C128.91 599.765 123.842 598.177 121.411 595.871C119.756 594.335 113.809 586.291 113.809 585.574C113.809 585.318 113.447 584.857 113.033 584.498C112.619 584.14 112.257 583.422 112.257 582.91C112.257 582.346 112.05 581.937 111.74 581.937C111.481 581.937 111.119 581.373 110.912 580.656C110.757 579.939 110.395 579.375 110.137 579.375C109.878 579.375 109.671 579.068 109.671 578.658C109.671 577.684 105.12 573.74 104.034 573.74C103.568 573.791 102.638 574.098 101.965 574.457C100.052 575.533 100.155 575.584 92.5009 568.873C88.4669 565.389 86.9154 563.391 86.9154 561.649C86.9154 560.727 89.7599 555.911 90.7942 555.04C91.1046 554.784 91.932 553.759 92.5526 552.888C93.1733 551.966 94.7248 550.019 96.0177 548.534C97.6727 546.587 98.2933 545.46 98.2933 544.23C98.2933 543.206 99.0174 541.515 100.362 539.517C101.5 537.826 102.431 536.085 102.431 535.623C102.431 535.111 101.862 533.984 101.138 533.062C99.5862 531.064 99.5862 530.705 100.827 527.375C102.379 523.123 102.948 521.945 104.137 520.254C105.172 518.82 105.327 517.795 105.689 508.676C106.206 495.919 106.258 488.696 105.792 479.628C105.534 474.658 105.586 471.841 105.999 470.662C106.31 469.791 106.723 465.898 106.878 462.107C107.137 456.42 107.447 454.678 108.378 452.578C109.154 450.836 109.671 448.428 109.93 445.149C110.499 437.925 110.654 407.801 110.137 407.443C109.878 407.289 109.671 405.701 109.671 403.908C109.671 402.115 109.361 399.297 108.947 397.658C108.275 394.891 107.551 391.459 105.999 383.825C105.637 382.083 105.223 380.751 105.068 380.854C104.655 381.315 102.948 386.438 102.948 387.36C102.948 387.873 102.689 388.282 102.431 388.282C102.12 388.282 101.914 388.795 101.914 389.358C101.914 389.973 101.552 391.612 101.086 393.098C98.9656 399.707 99.1725 398.99 97.8278 406.828C97.5693 408.416 97.1555 410.056 96.9486 410.414C96.69 410.773 96.328 412.361 96.1211 413.898C95.9142 415.435 95.3971 418.765 94.9316 421.327C94.4661 423.837 93.8973 427.423 93.6387 429.267C93.3284 431.112 92.9664 432.956 92.8112 433.366C92.6043 433.776 92.294 434.954 92.0354 435.927C91.8286 436.901 90.8976 440.231 90.0185 443.356C89.0875 446.43 88.26 449.914 88.1049 451.041C87.9497 452.168 87.6394 453.346 87.3808 453.653C87.1223 454.012 86.6568 455.703 86.3982 457.496C86.0362 460.365 85.3121 464.719 83.864 473.326C83.6572 474.607 83.1917 477.476 82.8297 479.73C82.4677 481.984 81.9505 484.546 81.6919 485.366C79.9335 491.155 78.6923 506.473 78.3302 526.248C78.0717 539.261 78.1234 544.282 78.6406 546.587C79.3129 549.763 79.2612 550.173 77.2959 554.63C76.8821 555.501 76.5718 556.475 76.5718 556.782C76.5718 557.089 76.3132 557.346 76.0546 557.346C75.7443 557.346 75.5375 557.653 75.5375 558.063C75.5375 558.473 75.2272 559.139 74.9168 559.497C73.8308 560.624 72.4344 563.34 72.4344 564.262C72.4344 564.723 72.7447 565.85 73.1585 566.721C73.5205 567.643 74.2445 569.385 74.7617 570.666C75.2272 571.946 75.8995 573.535 76.1581 574.252C77.3993 577.428 79.8818 581.68 82.7263 585.625C86.6051 591.004 87.9497 594.335 87.9497 598.484C87.898 603.505 87.6394 603.659 79.5198 603.864C72.0206 604.068 60.591 602.89 57.3846 601.558C56.3502 601.097 55.1607 600.175 54.6952 599.406C53.7643 597.818 52.6782 592.951 51.437 585.267C50.9715 582.141 49.8855 577.684 49.058 575.276C47.765 571.434 47.6616 570.461 47.9202 566.977C48.1271 564.518 48.0754 562.776 47.765 562.366C47.4547 562.008 46.7824 560.061 46.2652 558.012C45.3861 554.63 45.3861 553.862 46.0583 548.278C46.8858 541.259 46.8858 536.494 46.1101 527.631C45.7998 524.045 45.5412 509.905 45.5412 495.304C45.5412 474.095 45.6963 468.818 46.3169 466.461C46.7307 464.873 47.0927 462.875 47.0927 462.107C47.0927 461.287 47.4547 459.801 47.8685 458.828C48.2822 457.803 48.6442 456.215 48.6442 455.293C48.6442 453.346 50.0407 446.84 50.7647 445.559C51.0232 445.047 51.2301 444.073 51.2301 443.407C51.2301 442.331 52.5231 439.206 53.2989 438.489C53.4541 438.335 53.8677 437.055 54.2298 435.62C54.6952 433.776 54.747 432.649 54.3332 431.624C53.6092 429.677 53.7126 426.706 54.5918 425.169C55.0056 424.452 55.3158 422.71 55.3675 421.275C55.3675 419.738 55.8848 417.382 56.7122 415.384C58.0051 412.156 58.0051 412.002 58.0051 397.76C57.9535 389.871 57.6949 380.649 57.3846 377.268C57.0742 373.886 56.9191 366.099 57.0225 359.951L57.1777 348.834H54.9021H52.6782L52.9368 344.582C54.3332 323.167 54.4366 322.04 56.6605 315.022C58.0051 310.872 58.4706 309.591 60.0222 306.056C62.4012 300.779 62.5046 298.986 61.3669 283.771C60.1773 268.145 59.505 266.967 43.6794 251.085L36.9043 244.271L36.5423 248.267C36.232 252.058 35.9217 253.493 34.3701 257.796C33.9564 258.821 33.6461 260.819 33.6461 262.151C33.6461 263.483 33.3875 265.379 33.1289 266.352C32.8186 267.325 32.5083 270.45 32.3532 273.268C32.2497 276.086 31.8877 280.697 31.5774 283.514C30.6982 292.48 31.3188 324.192 32.6118 334.49C32.8703 336.59 33.2324 340.381 33.4392 342.84C33.7495 347.144 33.7495 347.349 32.6635 347.656C32.0946 347.81 31.5774 348.117 31.5774 348.373C31.5774 348.629 31.2154 348.834 30.8016 348.834C30.3879 348.834 30.0258 349.244 30.0258 349.705C30.0258 351.601 31.1636 354.521 31.9911 354.828C32.4566 355.033 33.6461 355.955 34.5253 356.878C35.4562 357.8 36.4388 358.568 36.6974 358.568C39.904 358.568 39.1281 368.302 35.87 369.788C34.8873 370.249 34.6805 370.761 34.6805 372.554C34.6805 374.552 33.7495 376.653 32.4049 377.677C32.0946 377.882 30.543 377.934 28.9915 377.78C26.8711 377.575 25.8367 377.677 25.1126 378.241C23.768 379.266 22.0613 379.266 21.2338 378.292C20.8718 377.831 19.734 377.524 18.5445 377.524C17.4067 377.524 16.1656 377.165 15.7518 376.755C15.2863 376.345 14.3554 375.987 13.5796 375.987C12.5452 375.936 11.7178 375.372 10.3731 373.579C8.71817 371.427 8.56299 370.864 8.35613 367.175C8.25274 364.972 8.45956 362.154 8.71816 360.976C9.02846 359.798 9.13185 357.492 8.97677 355.853C8.71815 353.343 8.51125 352.933 7.58037 352.933C6.95974 352.933 5.97714 352.779 5.30478 352.625L4.16699 352.318V336.334C4.16699 327.573 3.96015 316.712 3.64979 312.204C3.39119 307.696 3.02916 301.24 2.92577 297.859C2.82233 294.478 2.66716 291.711 2.61547 291.711C2.40861 291.711 2.09826 285.922 1.9431 279.928C1.83966 274.908 1.52942 272.807 0.908782 271.526C-0.073813 269.58 -0.332427 262.663 0.49501 259.999C0.960485 258.565 1.37426 256.516 2.56373 249.958C2.77066 248.677 3.49471 246.321 4.16699 244.63C5.14962 242.119 5.25306 241.351 4.78763 239.763C4.1153 237.56 3.70153 235.46 3.13268 231.156C2.82232 228.543 2.92576 227.365 3.75322 224.752C4.63243 221.832 4.68419 221.115 4.1153 217.58C3.5981 213.994 3.64977 213.276 4.58076 210.151C6.02883 205.489 7.1149 200.007 7.83897 193.962C8.56301 187.814 10.1145 185.099 13.8899 183.306C19.9926 180.386 29.6639 173.47 30.2845 171.574C30.4396 171.062 31.2154 170.396 31.9911 170.14C34.7839 169.166 37.2146 165.631 39.6454 159.125C40.1626 157.742 40.8866 156.512 41.2486 156.358C42.3864 155.948 45.5412 150.159 45.5412 148.52C45.5412 147.7 45.1792 145.702 44.7654 144.063C44.3516 142.475 43.9896 139.862 43.9896 138.274C43.9896 135.866 43.7828 135.2 42.8001 134.329C41.9209 133.56 41.4555 132.536 41.2486 130.538C40.8866 127.515 41.5072 122.085 42.3864 120.445C42.6967 119.83 42.9553 116.859 42.9553 113.785C42.9553 107.381 43.6794 104.666 46.5755 100.363C49.6786 95.6493 50.8681 94.2149 51.5922 94.2149C52.0059 94.2149 53.3506 93.3951 54.5401 92.3705C56.8156 90.4749 63.7976 87.7597 64.7802 88.3744C65.0905 88.5793 67.2109 88.7331 69.5382 88.7843C73.4171 88.8355 73.8825 88.938 76.0029 90.5262C77.2442 91.3971 79.2094 92.4217 80.2955 92.7291C81.5885 93.0365 83.3986 94.2661 85.157 95.9566C87.536 98.2108 87.9497 98.9281 87.9497 100.465C87.9497 101.49 88.26 102.412 88.6221 102.566C89.3979 102.822 91.208 106.254 92.3457 109.482C93.2767 112.248 93.4318 119.369 92.6043 124.697C91.9837 128.796 89.3461 136.481 88.3635 137.044C87.4326 137.608 83.8123 143.551 83.8123 144.473C83.8123 145.241 84.0709 145.292 85.6225 144.883C88.3118 144.114 91.1562 145.087 92.6043 147.188L93.7939 148.879L97.2072 146.778C101.034 144.473 101.396 144.114 101.396 142.628C101.396 142.065 102.534 140.221 103.879 138.53C105.275 136.839 106.516 135.046 106.723 134.585C106.878 134.073 107.861 132.433 108.792 130.948C109.775 129.411 110.757 127.72 110.912 127.105C111.119 126.491 111.533 125.978 111.792 125.978C112.05 125.978 112.257 125.62 112.257 125.21C112.257 124.749 112.878 123.468 113.654 122.238C115.464 119.523 116.394 117.423 116.394 116.142C116.394 114.964 118.67 110.353 121.204 106.459C122.859 103.898 123.945 101.49 125.6 96.5202C125.911 95.6493 126.531 93.2415 126.997 91.141C127.41 89.0404 128.341 86.1202 129.014 84.737C130.513 81.6632 132.117 77.6159 133.565 73.4662C134.134 71.7756 134.909 69.5726 135.271 68.5992C136.202 65.9865 137.651 60.4534 138.581 55.5352C138.943 53.5371 140.443 50.1558 141.219 49.6435C141.426 49.4899 142.305 45.4427 143.236 40.6781C144.167 35.8624 145.098 31.3541 145.305 30.6368C145.822 28.9461 142.667 20.5955 140.185 17.2142C138.633 15.0625 138.581 14.7551 138.892 11.9374C139.461 7.12167 140.702 4.04772 142.874 1.89605C145.098 -0.306881 146.287 -0.46055 151.045 0.76905ZM135.116 564.825C135.271 566.67 136.616 568.207 137.392 567.438C137.857 567.028 136.047 562.981 135.427 562.981C135.168 562.981 135.013 563.801 135.116 564.825Z" fill="#0A0A0A"/>
</svg>
