<svg width="135" height="463" viewBox="0 0 135 463" fill="none" xmlns="http://www.w3.org/2000/svg">
<path d="M75.8763 0C75.1189 0 74.3047 0.0159269 73.4539 0.0483561C70.5746 0.147658 69.0838 0.544619 66.2045 1.88456C64.1994 2.82749 62.1427 3.62148 61.7314 3.62148C60.4459 3.62148 57.6695 6.5991 55.8701 9.92416L54.2762 12.9513L54.2249 21.2889C54.1735 25.904 54.3791 30.4698 54.6876 31.3631C55.0475 32.6534 55.0475 33.1993 54.5848 33.4474C54.1735 33.6956 54.1221 34.043 54.4819 34.4896C54.7904 34.8368 54.9961 36.4748 54.8932 38.0628C54.8417 40.048 55.0475 41.2389 55.5102 41.7352C55.9215 42.0826 56.23 42.7277 56.23 43.075C56.23 43.4721 56.6927 43.9188 57.2583 44.0676C57.8238 44.2662 58.1837 44.6136 58.0295 44.8616C57.8238 45.1098 58.0809 45.8046 58.4923 46.4001C58.9549 46.9957 59.3149 48.2363 59.3149 49.1297C59.3149 50.0229 59.5206 50.7672 59.829 50.7672C60.0861 50.7672 60.4459 51.3133 60.6517 52.008C60.8059 52.7028 61.1658 53.2486 61.3714 53.2486C61.7828 53.2486 62.5027 54.8367 62.6568 55.9781C62.7082 56.2264 62.9653 57.0699 63.2739 57.7647C63.5823 58.4595 63.9422 60.3453 63.9936 61.8838C64.1478 64.9111 63.6851 65.7547 59.6749 69.9729C59.3411 70.3245 59.0471 70.6201 58.778 70.8687H58.7652L54.9246 72.152H54.9119C53.9648 72.2493 52.9045 72.496 52.271 72.8017C51.7087 73.0845 51.1357 73.3568 50.5769 73.609H50.5641L31.917 79.8398L4.29638 125.511H4.28407C3.97383 125.781 3.67477 126.006 3.37584 126.201C0.9592 127.838 0.136669 130.766 0.0338255 138.359C-0.069053 143.57 -0.0176524 143.917 1.37065 145.903C2.14189 147.093 2.75874 148.136 2.75874 148.285C2.75874 148.582 3.17012 149.078 4.96962 151.014C7.52312 153.746 13.4272 155.288 18.7601 155.288C22.3394 155.288 25.6615 154.593 27.5406 153.098C27.9084 152.794 28.1956 152.645 28.5668 152.645C28.9223 152.645 29.3547 152.782 30.0085 153.049L31.6538 153.744L31.5306 156.207H31.518C29.6632 167.853 28.1019 178.254 26.834 187.409C25.4971 196.976 23.7293 210.9 21.5303 229.182L34.8929 231.942V233.296C34.8929 234.586 35.2015 238.06 35.5613 241.087C35.9211 244.065 36.3839 248.234 36.5382 250.269C36.7439 252.303 37.1552 254.288 37.5665 254.636C37.9265 254.983 38.2349 256.273 38.2349 257.464C38.2349 258.655 38.4921 259.697 38.7491 259.797C39.0575 259.896 39.4174 261.186 39.6231 262.675C39.7774 264.164 40.1372 265.554 40.3943 265.702C40.6514 265.852 40.9598 267.191 41.1656 268.68C41.3198 270.169 41.6797 271.509 41.9367 271.658C42.1938 271.807 42.5537 272.899 42.7079 274.04C42.8622 275.132 43.1707 276.075 43.3764 276.075C43.5821 276.075 44.0448 277.365 44.4046 278.903C44.7645 280.491 45.2787 282.129 45.4843 282.576C45.7414 283.022 46.7184 286.347 47.6952 290.02C49.289 295.975 51.3458 302.327 52.6311 305.107C53.5051 307.042 54.1735 309.672 55.2018 315.528C55.8187 318.804 57.1555 324.163 58.2866 327.439C60.0861 332.848 60.4459 334.883 62.1426 349.771C63.2739 359.25 63.9422 367.041 63.7365 368.381C63.5823 369.622 63.4281 379.2 63.3766 389.671C63.3253 410.812 63.4795 409.919 59.829 413.591C58.8522 414.584 57.2069 416.222 56.1786 417.313C51.5512 422.227 43.0165 427.934 40.3429 427.934C39.9315 427.934 38.9033 428.132 38.0293 428.43C36.0754 428.976 25.9468 430.911 22.9647 431.259C21.7823 431.408 20.5482 431.805 20.1883 432.202C19.263 433.293 20.0341 435.229 21.628 435.626C22.4506 435.775 23.7874 436.271 24.6101 436.668C29.0831 438.653 30.5227 438.852 40.4971 438.852C50.2145 438.852 50.3687 438.802 55.7159 437.164C58.6979 436.271 63.8394 434.484 67.1813 433.194C71.44 431.607 73.5002 430.938 74.545 430.938C74.9381 430.938 75.1876 431.033 75.3563 431.209C75.9732 431.755 72.1686 442.276 70.0091 446.047C68.7237 448.231 67.3357 450.812 66.8215 451.755C66.3588 452.747 65.0734 454.583 63.9422 455.923C61.1144 459.199 61.2172 460.39 64.3022 461.382C65.9339 461.916 69.6542 462.189 73.4556 462.189C77.0803 462.189 80.7786 461.941 82.8114 461.432C92.2202 459.1 98.5443 455.427 99.2127 451.854C99.4184 450.961 99.881 450.067 100.241 449.918C100.652 449.77 100.961 449.224 100.961 448.678C100.961 448.132 101.372 447.09 101.886 446.395C102.4 445.651 103.531 443.814 104.405 442.326C105.896 439.695 105.896 439.398 105.742 434.484C105.537 430.117 105.691 429.075 106.565 427.289C108.107 424.162 109.65 417.016 111.244 405.602C111.449 403.815 112.015 400.49 112.426 398.157C112.838 395.825 113.352 392.599 113.557 390.961C113.711 389.324 114.329 385.651 114.843 382.773C116.488 373.592 116.899 362.773 116.437 341.334C116.025 323.865 115.82 320.987 114.894 317.215C113.917 313.444 113.814 311.608 113.917 301.583C113.969 294.337 113.763 288.581 113.352 285.702C112.94 283.022 112.786 279.846 112.992 278.01C113.197 276.273 113.557 272.7 113.763 270.119C114.02 267.539 114.534 264.164 114.997 262.626C115.408 261.137 115.922 257.464 116.128 254.487C116.334 251.559 116.899 247.886 117.413 246.348C118.545 242.924 119.47 237.762 119.47 234.785C119.47 232.552 119.521 232.552 121.424 232.204C122.452 232.055 123.994 231.906 124.766 231.906C126.205 231.906 126.205 231.857 125.897 229.524C125.691 228.234 124.971 224.909 124.303 222.13C123.635 219.301 123.069 216.671 123.069 216.274C123.069 215.827 122.503 213.098 121.784 210.17C120.138 203.619 119.881 202.527 117.928 194.19C117.054 190.517 115.871 185.703 115.254 183.52C114.226 179.947 114.123 178.259 114.02 165.902C114.02 157.714 113.763 151.51 113.403 150.518C112.169 146.647 112.118 144.563 113.197 143.421C113.763 142.826 115.768 139.848 117.619 136.87C119.47 133.843 121.989 129.873 123.172 127.987C124.406 126.101 125.486 124.315 125.588 124.017C125.691 123.719 126.36 122.23 127.028 120.741C130.318 113.744 131.45 110.369 132.889 103.62C133.712 99.6996 134.843 91.0147 134.997 87.7396C135.083 85.0472 133.163 77.9653 131.958 75.8402H131.945L131.713 74.9874L102.744 61.7013H102.731C102.164 61.2384 101.353 60.6415 99.7782 59.5016C98.6985 58.7077 97.5159 57.4669 97.1561 56.7722C96.4363 55.4818 96.0249 50.7672 96.2306 45.8046C96.3334 43.2239 96.4363 43.0254 97.8758 42.4796C99.8296 41.7848 100.344 40.4945 100.498 35.2835C100.601 31.9585 100.447 30.7675 99.7782 29.775C99.0584 28.7328 98.9042 27.244 98.9042 22.1324C98.9042 15.3831 98.6472 14.4402 96.0249 12.4552C95.4079 11.9588 94.7395 10.8174 94.5853 9.87458C94.3797 8.8821 93.6599 7.69101 92.9915 7.14492C92.2717 6.64878 91.7061 5.95397 91.7061 5.65633C91.7061 5.35846 91.1406 5.01106 90.4207 4.81245C89.7009 4.6637 89.1354 4.31638 89.1354 4.06816C89.1354 3.81997 88.6726 3.62148 88.1071 3.62148C87.5416 3.62148 87.0788 3.27412 87.0788 2.87708C87.0788 2.43039 86.616 2.13258 85.9477 2.13258C84.7652 2.13258 81.3203 1.09048 80.909 0.594206C80.5873 0.206063 78.598 0 75.8763 0Z" fill="#0A0A0A"/>
</svg>
