<svg width="48" height="46" viewBox="0 0 48 46" fill="none" xmlns="http://www.w3.org/2000/svg">
<path d="M48 22.1851C48 33.2751 39.8689 42.4903 29.2894 44.1151C29.3787 43.6229 29.4037 43.1132 29.3436 42.5967C29.3436 42.5967 29.2804 42.0532 29.1977 41.3419C32.9539 40.6982 36.3451 38.9643 39.033 36.4707C38.8717 36.3357 38.711 36.1606 38.5526 35.9282C37.8387 34.8803 38.7722 33.8405 38.7722 32.9241C38.7722 32.0252 36.9708 32.0992 36.9049 31.5039C36.6773 29.4421 38.1625 29.414 38.9544 28.6174C39.7462 27.8208 38.1717 26.0098 37.1547 26.1266C36.1307 26.2366 33.2486 25.6509 33.512 23.4326C33.8329 20.7307 30.0903 20.9691 29.5544 19.708C28.7731 17.8698 30.0718 15.615 31.7658 15.1028C34.1652 14.3773 36.5289 12.4081 36.3442 10.216C36.1351 7.73335 35.018 5.49432 33.1783 4.16426C31.2638 3.38399 29.1994 2.90149 27.0395 2.77975C25.1119 2.85644 23.4172 3.28741 23.4945 4.17522C23.6841 6.35089 29.834 6.91599 28.802 8.94979C28.2639 10.01 24.226 11.5064 24.9801 13.0843C25.4706 14.1104 26.6777 13.231 26.2271 15.2009C26.0197 16.1074 25.2296 17.8105 24.0147 17.9204C22.7722 18.0371 21.7376 14.7259 18.3558 14.6173C16.7571 14.5659 14.5048 17.1267 16.4173 18.9435C17.5754 20.0438 19.7486 17.6212 20.39 19.5136C20.842 20.8472 20.3292 23.6485 22.4387 24.8193C23.2078 25.2461 24.3867 25.6181 25.5526 26.2141C23.822 26.5697 21.6956 27.2331 19.1846 28.2061L17.069 27.6446C17.9547 26.9029 19.3936 26.3808 19.0316 24.7601C18.4998 22.3791 14.3902 23.277 11.557 20.4269C10.6878 19.5527 8.83396 16.6496 8.84157 13.1618C7.42933 15.8604 6.62556 18.9294 6.62556 22.1852C6.62556 23.1873 6.70156 24.172 6.84768 25.1338C6.81435 25.1332 6.78141 25.1274 6.74815 25.1274C5.85592 25.1274 4.98086 25.316 4.16988 25.6725C3.99074 24.5359 3.89513 23.3718 3.89513 22.1853C3.89513 9.95257 13.7879 1.87657e-09 25.9474 1.87657e-09C38.1072 -0.000157804 48 9.95241 48 22.1851ZM31.458 28.6514L26.0721 31.1419L26.1556 29.9613L29.6447 28.3768C29.1471 28.341 28.6315 28.3273 28.1166 28.3273C26.1889 28.3273 22.9318 29.309 19.3295 30.7475L7.776 27.6817C6.69631 27.3951 5.54682 27.5717 4.60117 28.1693L4.03309 28.5283C3.47851 28.8788 3.47262 29.69 4.02203 30.0486L10.9671 34.5815C9.308 35.435 7.73396 36.3019 6.34635 37.1299L2.78258 35.2318C2.20047 34.9218 1.51223 34.885 0.900858 35.1313L0.563525 35.2674C0.0604658 35.4699 -0.150279 36.0718 0.115603 36.5468L2.07882 40.0558L2.07968 40.0555C1.33898 40.6966 0.916858 41.2282 0.916858 41.5962C0.916858 42.6973 2.26384 42.9725 3.45113 42.9725C5.56878 42.9725 33.5348 36.5308 33.5348 30.6949C33.5347 29.5391 32.7489 28.9611 31.458 28.6514ZM19.6667 40.0456L25.8207 37.8648C26.0918 37.7687 26.3814 37.9505 26.4148 38.2377L26.9544 42.8783C27.0892 44.038 26.4692 45.1539 25.4168 45.6461L24.8396 45.9159C24.4791 46.0845 24.0515 45.9941 23.7889 45.6941L19.4792 40.7689C19.2694 40.5291 19.3671 40.1518 19.6667 40.0456Z" fill="#0A0A0A"/>
</svg>
