<svg width="85" height="684" viewBox="0 0 85 684" fill="none" xmlns="http://www.w3.org/2000/svg">
<path d="M20.0669 557.565L20.0686 557.565C21.1878 557.565 22.1964 558.236 22.6281 559.264L57.3323 642.02L58.2412 641.639L57.3323 642.02C57.7717 643.067 57.5245 644.27 56.7357 645.058C56.6737 645.121 56.6006 645.186 56.5157 645.258C55.5551 646.029 54.2056 646.076 53.1969 645.376L53.196 645.376L20.6377 622.839L20.0685 622.445L19.4993 622.839L-13.0552 645.378C-14.0706 646.079 -15.4246 646.028 -16.3817 645.251L-16.3835 645.249C-17.3412 644.476 -17.6724 643.162 -17.1974 642.022C-17.1972 642.022 -17.197 642.021 -17.1968 642.021L17.5055 559.269C17.5058 559.269 17.506 559.268 17.5062 559.268C17.9447 558.234 18.9513 557.563 20.0669 557.565Z" stroke="#13A2B2" stroke-width="2"/>
<path d="M20.0669 444.565L20.0686 444.565C21.1878 444.565 22.1964 445.236 22.6281 446.264L57.3323 529.02L58.2412 528.639L57.3323 529.02C57.7717 530.067 57.5245 531.27 56.7357 532.058C56.6737 532.121 56.6006 532.186 56.5157 532.258C55.5551 533.029 54.2056 533.076 53.1969 532.376L53.196 532.376L20.6377 509.839L20.0685 509.445L19.4993 509.839L-13.0552 532.378C-14.0706 533.079 -15.4246 533.028 -16.3817 532.251L-16.3835 532.249C-17.3412 531.476 -17.6724 530.162 -17.1974 529.022C-17.1972 529.022 -17.197 529.021 -17.1968 529.021L17.5055 446.269C17.5058 446.269 17.506 446.268 17.5062 446.268C17.9447 445.234 18.9513 444.563 20.0669 444.565Z" stroke="#13A2B2" stroke-width="2"/>
<path d="M20.0669 336.565L20.0686 336.565C21.1878 336.565 22.1964 337.236 22.6281 338.264L57.3323 421.02L58.2412 420.639L57.3323 421.02C57.7717 422.067 57.5245 423.27 56.7357 424.058C56.6737 424.121 56.6006 424.186 56.5157 424.258C55.5551 425.029 54.2056 425.076 53.1969 424.376L53.196 424.376L20.6377 401.839L20.0685 401.445L19.4993 401.839L-13.0552 424.378C-14.0706 425.079 -15.4246 425.028 -16.3817 424.251L-16.3835 424.249C-17.3412 423.476 -17.6724 422.162 -17.1974 421.022C-17.1972 421.022 -17.197 421.021 -17.1968 421.021L17.5055 338.269C17.5058 338.269 17.506 338.268 17.5062 338.268C17.9447 337.234 18.9513 336.563 20.0669 336.565Z" stroke="#13A2B2" stroke-width="2"/>
<path d="M20.0669 223.565L20.0686 223.565C21.1878 223.565 22.1964 224.236 22.6281 225.264L57.3323 308.02L58.2412 307.639L57.3323 308.02C57.7717 309.067 57.5245 310.27 56.7357 311.058C56.6737 311.121 56.6006 311.186 56.5157 311.258C55.5551 312.029 54.2056 312.076 53.1969 311.376L53.196 311.376L20.6377 288.839L20.0685 288.445L19.4993 288.839L-13.0552 311.378C-14.0706 312.079 -15.4246 312.028 -16.3817 311.251L-16.3835 311.249C-17.3412 310.476 -17.6724 309.162 -17.1974 308.022C-17.1972 308.022 -17.197 308.021 -17.1968 308.021L17.5055 225.269C17.5058 225.269 17.506 225.268 17.5062 225.268C17.9447 224.234 18.9513 223.563 20.0669 223.565Z" stroke="#13A2B2" stroke-width="2"/>
<path d="M20.0669 115.565L20.0686 115.565C21.1878 115.565 22.1964 116.236 22.6281 117.264L57.3323 200.02L58.2412 199.639L57.3323 200.02C57.7717 201.067 57.5245 202.27 56.7357 203.058C56.6737 203.121 56.6006 203.186 56.5157 203.258C55.5551 204.029 54.2056 204.076 53.1969 203.376L53.196 203.376L20.6377 180.839L20.0685 180.445L19.4993 180.839L-13.0552 203.378C-14.0706 204.079 -15.4246 204.028 -16.3817 203.251L-16.3835 203.249C-17.3412 202.476 -17.6724 201.162 -17.1974 200.022C-17.1972 200.022 -17.197 200.021 -17.1968 200.021L17.5055 117.269C17.5058 117.269 17.506 117.268 17.5062 117.268C17.9447 116.234 18.9513 115.563 20.0669 115.565Z" stroke="#13A2B2" stroke-width="2"/>
<path d="M20.0669 2.56455L20.0686 2.56455C21.1878 2.56455 22.1964 3.23614 22.6281 4.26352L57.3323 87.0198L58.2412 86.6387L57.3323 87.0199C57.7717 88.0674 57.5245 89.2697 56.7357 90.0585C56.6737 90.1205 56.6006 90.1864 56.5157 90.2582C55.5551 91.0285 54.2056 91.0764 53.1969 90.3765L53.196 90.3758L20.6377 67.8393L20.0685 67.4453L19.4993 67.8393L-13.0552 90.378C-14.0706 91.0793 -15.4246 91.0276 -16.3817 90.2509L-16.3835 90.2495C-17.3412 89.4759 -17.6724 88.1624 -17.1974 87.0223C-17.1972 87.0219 -17.197 87.0215 -17.1968 87.0211L17.5055 4.2692C17.5058 4.26865 17.506 4.26809 17.5062 4.26754C17.9447 3.23449 18.9513 2.56263 20.0669 2.56455Z" stroke="#13A2B2" stroke-width="2"/>
</svg>
