<svg width="184" height="573" viewBox="0 0 184 573" fill="none" xmlns="http://www.w3.org/2000/svg">
<path d="M145.382 182.097C145.48 182.097 145.617 182.246 145.845 182.555C147.174 184.357 149.351 186.532 152.13 188.88C153.967 190.408 154.079 190.542 154.088 191.393C154.093 191.886 154.258 192.826 154.465 193.497C154.994 195.307 154.336 196.166 152.183 196.457C150.652 196.652 150.014 197.241 149.388 199.086C148.74 200.931 148.722 201.379 149.298 203.391C149.827 205.202 150.321 205.735 152.06 206.277C154.512 207.059 154.536 207.283 152.634 212.549C152.352 213.291 152.078 214.706 151.999 215.693C151.823 218.094 151.364 221.058 150.955 222.43C150.59 223.644 150.663 224.316 151.368 225.9C152.277 227.909 152.445 229.14 152.305 232.997L152.186 236.63L150.939 238.548C148.707 241.979 148.429 243.08 149.36 245.088C150.451 247.453 150.545 247.946 150.022 249.05C149.544 250.086 148.227 251.713 147.872 251.717C147.738 251.717 147.512 251.294 147.373 250.758C147.098 249.886 145.005 244.998 144.666 244.441C144.575 244.308 144.327 243.951 144.124 243.64C143.899 243.351 143.67 242.68 143.598 242.143C143.526 241.606 143.32 240.958 143.14 240.713C142.599 239.956 142.718 238.52 143.414 237.056C144.416 235.028 145.282 232.755 145.819 230.889C146.076 229.967 146.681 228.235 147.158 227.064C148.611 223.53 149.04 221.978 149.303 219.375C149.525 217.198 149.499 216.75 149.152 215.431C148.921 214.604 148.464 213.331 148.101 212.595C147.149 210.677 146.784 209.761 145.87 207.237C145.161 205.249 145.044 204.623 144.859 201.643C144.729 199.784 144.51 197.925 144.373 197.501C144.097 196.629 143.989 192.483 144.252 192.077C144.339 191.919 144.413 190.483 144.397 188.869C144.394 186.291 144.745 183.642 145.242 182.247C145.282 182.148 145.325 182.097 145.382 182.097ZM100.206 351.35C100.426 351.35 100.781 352.049 101.14 353.255C101.369 353.948 101.737 355.132 101.966 355.869C102.196 356.607 102.519 357.814 102.66 358.552C102.8 359.291 103.38 361.706 103.958 363.942C104.513 366.156 105.119 368.952 105.309 370.138C105.499 371.324 105.709 372.376 105.777 372.487C105.845 372.599 106.011 373.628 106.177 374.77C106.322 375.934 106.534 377.12 106.648 377.41C106.762 377.701 106.974 378.909 107.097 380.096C107.242 381.26 107.547 382.871 107.8 383.676C108.373 385.463 108.38 386.091 107.861 387.576C107.084 389.803 107.105 391.888 107.994 396.43C108.206 397.593 108.479 398.241 108.883 398.662C109.557 399.395 110.191 400.555 110.197 401.092C110.199 401.317 109.983 401.947 109.722 402.51C108.721 404.65 109.011 406.978 110.688 410.189C111.526 411.795 111.572 411.951 111.523 413.678C111.491 415.001 111.301 415.989 110.805 417.474C109.855 420.219 109.585 422.082 109.329 427.532C109.126 431.682 109.156 432.533 109.49 434.749C109.726 436.114 109.901 438.108 109.912 439.184C109.935 441.493 110.529 443.146 111.512 443.651C111.869 443.827 112.295 444.137 112.497 444.336C112.833 444.669 112.79 444.781 111.912 445.867C111.385 446.5 110.683 447.426 110.377 447.922C109.524 449.298 108.708 452.064 108.723 453.611C108.731 454.351 108.589 455.764 108.399 456.73C107.661 460.684 107.397 463.152 107.365 466.56C107.298 475.461 106.672 481.677 105.792 482.583C105.682 482.696 105.585 482.759 105.437 482.759C105.2 482.759 104.833 482.597 104.078 482.219C103.141 481.759 102.521 481.539 102.098 481.539C101.855 481.539 101.676 481.611 101.54 481.752C101.466 481.828 101.395 481.865 101.325 481.865C101.228 481.865 101.132 481.796 101.028 481.667C100.826 481.423 100.842 480.84 101.068 479.044C101.256 477.764 101.476 475.386 101.593 473.793C101.71 472.178 101.95 469.485 102.133 467.779C102.477 464.458 102.338 457.241 101.804 450.476C101.652 448.617 101.441 445.323 101.331 443.15C101.166 439.991 101.046 439.118 100.753 438.784C100.394 438.384 99.9119 436.842 99.2846 434.114C99.1215 433.353 98.9933 431.651 98.9798 430.306C98.9987 427.75 98.5561 425.715 97.488 423.349C96.9198 422.077 96.8603 420.576 97.3358 419.248C97.5301 418.686 97.7858 417.584 97.9109 416.776C98.0361 415.968 98.3327 414.53 98.5675 413.564C99.3349 410.327 99.278 404.656 98.245 385.836C97.5627 373.199 97.3865 368.919 97.3815 363.987L97.3498 358.607L98.0672 357.03C98.4806 356.152 99.0654 354.644 99.3665 353.654C99.6899 352.664 99.9913 351.697 100.056 351.517C100.094 351.405 100.145 351.35 100.206 351.35ZM89.86 0C86.7784 0 85.2581 0.363314 83.5227 1.2233C80.3165 2.78033 78.7696 3.62568 78.042 4.1935C77.3143 4.73902 74.5037 5.86611 73.7705 5.87359C73.5706 5.87567 72.5088 6.33489 71.4477 6.8838C70.3644 7.43284 69.1479 7.98339 68.7495 8.14431C67.8637 8.44469 65.393 10.2185 64.9327 10.851C64.7574 11.0994 64.0332 12.0036 63.2864 12.8629C62.0566 14.3104 61.8825 14.6709 61.0643 17.2797C60.2461 19.8885 60.1617 20.3378 60.1829 22.4449C60.1979 23.9466 60.0772 25.2033 59.8629 25.9903C59.4335 27.4741 59.4078 29.3576 59.7759 30.6092C59.9364 31.1007 60.4801 32.1488 60.9765 32.906C62.0366 34.4645 62.2895 35.3138 62.3325 37.3982C62.3409 38.2276 62.5075 39.3245 62.6904 39.838C63.1704 41.1783 63.1498 41.3355 62.1783 41.9506C60.1253 43.2943 59.8992 45.1124 61.3332 48.5278C61.8341 49.7332 62.2449 50.8052 62.246 50.9173C62.25 51.3208 63.7242 54.3097 64.4008 55.3116C64.8064 55.868 65.3278 56.8938 65.6233 57.5632C66.2334 59.0472 67.4497 59.951 68.8788 59.951C68.8904 59.951 68.9019 59.951 68.9135 59.9509C68.9236 59.9507 68.9338 59.9507 68.9439 59.9507C69.4446 59.9507 69.9395 60.0775 70.0715 60.2081C70.5666 60.8307 71.2405 66.0025 71.4689 71.0442L71.6651 75.0999L70.4084 76.0767C68.5343 77.5306 67.2459 79.7856 66.9142 82.1429C66.7064 83.5799 65.3572 86.4184 64.7596 86.6485C64.4941 86.7634 63.6752 87.0856 62.9447 87.3621C62.2143 87.6385 60.3557 88.4197 58.8072 89.108C57.2588 89.7965 55.8645 90.3487 55.7089 90.3503C55.5534 90.3519 54.0712 90.9947 52.4345 91.7513C50.798 92.5301 48.6082 93.5165 47.5683 93.953C46.5506 94.3894 44.8477 95.1914 43.8089 95.7399C41.8417 96.7689 37.6407 98.8295 37.4629 98.8313C37.4185 98.8318 35.8265 99.6101 33.9472 100.549C32.068 101.487 30.4538 102.266 30.4094 102.266C30.3427 102.267 29.8791 102.563 29.3715 102.904C28.864 103.268 27.893 103.928 27.2085 104.361C25.9285 105.226 23.9287 107.443 23.0551 108.955C21.8762 111.051 20.066 116.652 18.3134 123.575C18.0997 124.429 17.8218 125.508 17.6927 125.935C17.4353 126.857 15.7003 135.528 15.1326 138.739C14.9221 139.907 14.6039 141.413 14.4106 142.087C14.2175 142.762 14.0711 143.682 14.0756 144.13C14.0799 144.556 13.9336 145.477 13.7626 146.151C13.5916 146.826 13.1267 149.207 12.7046 151.43C12.3048 153.654 11.7764 156.372 11.5433 157.495C11.3099 158.596 10.9722 160.37 10.7829 161.426C10.6157 162.481 10.3176 163.785 10.1677 164.347C9.99562 164.909 9.78356 165.92 9.67926 166.593C9.00878 170.636 8.75655 172.073 8.37369 173.781C8.1399 174.837 7.90802 176.094 7.84639 176.588C7.78469 177.082 7.59574 178.183 7.42671 179.059C5.58985 188.65 5.56961 188.852 5.58118 194.434C5.58779 199.523 5.38537 201.498 4.81512 202.243C4.68363 202.424 4.10956 202.789 3.51288 203.108C2.36341 203.703 2.01291 204.2 2.02277 205.186C2.03134 206.038 2.72878 206.905 3.84556 207.477C5.02913 208.07 5.3696 208.784 4.89045 209.752C4.69436 210.136 4.32268 210.745 4.05922 211.061C3.79603 211.4 3.21075 212.863 2.73657 214.325C1.63767 217.744 1.50218 219.741 1.63047 230.321C1.73018 238.054 1.7322 238.256 1.27156 238.843C1.0303 239.16 0.61472 239.814 0.352993 240.31C-0.192087 241.347 -0.166232 241.705 0.859404 246.492C1.25617 248.394 1.68285 251.057 1.80764 252.423C1.93222 253.767 2.12391 255.155 2.26032 255.467C2.39681 255.78 2.60844 256.944 2.75277 258.041C2.89726 259.16 3.17851 260.614 3.40744 261.284C3.95819 263.027 3.96987 266.413 3.45222 267.965C3.10728 269.022 3.0687 269.605 3.23502 272.899C3.32213 274.938 3.32534 277.471 3.24707 278.526C3.02876 281.128 3.32524 284.107 4.03374 286.072C4.53645 287.457 4.60692 287.838 4.41617 288.759C4.12156 290.398 3.91347 300.668 4.10225 303.984C4.287 306.896 4.28699 306.896 5.19035 308.344C6.6349 310.594 7.20269 311.821 8.00506 314.279C9.08368 317.698 10.8881 320.37 13.0802 321.827C13.8185 322.335 15.5138 322.99 18.0995 323.816C20.239 324.466 22.8923 325.381 23.9853 325.796C25.1579 326.248 25.99 326.49 26.6204 326.49C27.5729 326.49 28.0647 325.937 28.5739 324.718C28.8995 323.952 29.1857 323.68 29.9597 323.314C31.5303 322.625 31.8306 321.546 30.8386 320.121C30.5231 319.676 30.2737 319.185 30.2727 319.073C30.2691 318.716 28.1427 317.735 27.3795 317.735C27.3765 317.735 27.3736 317.735 27.3706 317.735C27.3586 317.736 27.3465 317.736 27.3346 317.736C26.4002 317.736 25.8115 317.363 25.8058 316.787C25.8031 316.518 25.7107 316.161 25.5978 315.982C25.2593 315.47 25.5665 315.086 26.5192 314.807C27.6714 314.482 28.3995 313.981 28.77 313.26C29.4015 311.976 29.0251 305.456 28.1787 303.043C27.8587 302.15 27.7597 301.142 27.7282 298.004C27.6909 294.283 27.6661 294.014 27.0967 292.63C26.7554 291.826 26.3221 290.71 26.1164 290.152C25.6139 288.789 24.1002 286.294 22.9992 285.072C22.0776 284.028 22.0081 283.737 22.3784 282.993C22.6833 282.385 23.5752 273.835 23.575 271.593C23.5602 270.113 23.667 269.686 24.3411 268.222C24.9937 266.826 25.1645 266.129 25.3015 264.289C25.4225 263.055 25.6072 261.529 25.7344 260.922C25.8615 260.293 26.0214 258.52 26.0725 256.973L26.1775 254.147L27.5399 252.631C29.1882 250.821 29.7071 249.381 29.4426 247.388C29.1774 245.306 29.2384 242.526 29.6012 241.043C29.7936 240.278 30.4806 237.895 31.1259 235.759C31.7921 233.51 32.3676 231.083 32.4902 230.006C32.6132 228.973 32.8609 227.087 33.0481 225.808C33.3615 223.832 33.357 223.384 33.1043 222.557C32.9209 221.998 32.7247 220.162 32.6591 218.055L32.5346 214.492L33.5696 213.562C35.6396 211.703 36.364 210.821 37.0384 209.38C38.1902 206.812 37.8616 205.067 35.5364 201.414C34.3403 199.565 34.2446 198.894 34.8226 196.713C35.4654 194.33 35.5744 194.128 36.7207 193.219C37.2719 192.788 38.2635 191.971 38.947 191.426C39.614 190.869 39.9611 190.642 40.162 190.642C40.2399 190.642 40.2958 190.676 40.3399 190.739C40.4528 190.917 40.5441 191.163 40.5457 191.32C40.547 191.454 40.798 192.102 41.1157 192.771C41.4332 193.418 41.6862 194.267 41.69 194.648C41.6979 195.433 42.3581 197.018 44.3317 201.055L45.1713 202.795L44.8165 205.085C44.607 206.343 44.3583 208.139 44.2564 209.059C43.8667 212.291 43.1987 216.58 42.9211 217.704C42.5367 219.255 42.3813 223.695 42.664 225.306C42.7824 226.022 43.0811 227.006 43.3524 227.474C44.0093 228.722 46.8635 231.944 47.6897 232.361C48.7842 232.933 49.1227 233.445 49.2919 234.811C49.46 236.065 49.46 236.065 48.4502 237.286C47.9014 237.964 47.3983 238.754 47.3348 239.068C47.2713 239.383 47.0572 240.192 46.842 240.889C46.4334 242.238 46.5135 243.583 47.1309 245.325C47.4284 246.174 47.4925 250.365 47.2019 252.408C47.0788 253.418 46.991 253.531 46.4585 253.604C45.4821 253.726 45.0238 254.56 44.8654 256.49C44.7858 257.41 44.6412 258.51 44.5339 258.892C44.4047 259.297 44.1493 260.42 43.9149 261.409C43.7026 262.398 43.2305 264.061 42.8633 265.119C41.718 268.336 40.9009 271.057 40.9068 271.64C40.9099 271.954 40.7189 272.852 40.4826 273.662C37.8604 282.499 37.649 283.577 37.696 288.262C37.7371 292.364 38.1591 294.557 39.6668 298.667L40.398 300.677L40.3875 306.281C40.3986 309.599 40.4942 312.49 40.6361 313.34C40.7997 314.146 41.0294 317.103 41.1689 319.948C41.4655 325.146 41.5131 325.46 42.9254 331.14C43.1328 331.877 43.366 332.973 43.4834 333.6C43.6006 334.204 44.0395 335.881 44.4314 337.289C45.1215 339.636 45.446 340.978 46.772 346.905C47.0047 347.956 47.305 349.097 47.4416 349.431C47.5783 349.766 47.7904 350.975 47.9352 352.117C48.299 355.162 48.8184 358.205 49.7276 362.456C50.1928 364.536 50.7099 367.355 50.9014 368.721C51.2591 371.161 51.5881 372.951 52.2653 376.217C53.2218 380.758 53.5751 382.749 53.582 383.444C53.5863 383.87 53.7961 384.855 54.0261 385.637C54.2784 386.419 54.6526 388.276 54.8673 389.753C55.9925 397.812 57.9199 406.11 60.2329 412.969C61.2406 415.962 61.287 416.164 61.2188 418.227C61.1314 420.582 61.6716 427.929 62.0469 429.898C62.1647 430.57 62.2907 432.048 62.3022 433.191C62.3143 434.402 62.5811 436.641 62.9111 438.52C63.2638 440.467 63.5078 442.639 63.5211 443.962C63.5333 445.172 63.7552 447.367 64.0144 448.844C64.2736 450.321 64.6579 453.186 64.8561 455.224C65.0543 457.262 65.3194 459.322 65.4576 459.814C65.5736 460.306 65.7915 462.097 65.9197 463.8C66.1715 466.756 66.5527 469.308 67.7301 475.932C68.0362 477.655 68.3684 479.759 68.466 480.632C68.5634 481.483 68.7746 482.602 68.9349 483.071C69.1173 483.54 69.375 484.86 69.4973 485.979C69.6419 487.099 69.901 488.576 70.0858 489.269C70.2705 489.962 70.4357 490.924 70.4404 491.395C70.4454 491.888 70.6552 492.873 70.8848 493.61C71.1144 494.347 71.394 495.645 71.4917 496.518C71.589 497.369 71.9159 498.935 72.2374 499.985C72.7893 501.84 73.0802 504.259 73.7641 512.636C73.8912 514.226 74.1537 516.04 74.36 516.665C74.5439 517.269 74.7066 517.984 74.709 518.231C74.7115 518.477 75.28 519.772 75.9595 521.065C76.707 522.492 77.4129 524.189 77.6908 525.307C77.9454 526.336 78.449 527.81 78.8127 528.613C79.154 529.417 79.5862 530.422 79.746 530.846C79.9058 531.27 80.4689 532.027 81.0071 532.514C81.9267 533.379 81.9499 533.469 81.7573 534.21C81.6283 534.638 81.3096 536.098 81.0345 537.468C80.7374 538.861 80.1786 540.75 79.744 541.719C79.3092 542.687 78.8567 544.082 78.7532 544.845C78.3348 547.427 78.1851 548.012 77.6408 549.138C77.3359 549.746 76.8154 551.03 76.4914 551.952C76.1451 552.875 75.7554 553.887 75.5808 554.203C75.4284 554.519 75.2989 554.901 75.3004 555.058C75.302 555.215 75.1484 555.396 74.9713 555.465C74.3958 555.695 74.0133 557.425 73.9103 560.452C73.8601 562.089 73.6983 563.683 73.5679 563.976C73.4375 564.268 73.3979 564.74 73.4674 565.03C74.0451 567.244 78.4985 570.404 83.0232 571.815C84.7725 572.355 87.2008 572.621 89.7848 572.621C92.6005 572.621 95.6009 572.305 98.1089 571.684C100.968 570.959 102.228 570.364 102.443 569.622C102.53 569.374 102.661 569.171 102.772 569.17C102.883 569.169 103.278 568.694 103.672 568.107C104.307 567.159 104.328 567.047 104.015 566.803C103.478 566.428 103.54 565.956 104.178 565.345C104.464 565.05 104.879 564.396 105.074 563.856C105.398 562.956 105.397 562.866 105.013 562.22C104.629 561.551 104.628 561.484 105.225 558.945C105.821 556.383 105.821 556.316 105.453 555.154C104.88 553.388 104.921 553.074 105.829 552.773C107.047 552.357 107.352 551.682 107.156 549.89C106.811 546.486 106.571 544.763 106.321 544.182C106.047 543.49 105.964 541.787 106.175 540.687C106.261 540.24 106.396 540.02 106.682 540.02C106.957 540.02 107.372 540.223 108.018 540.623C108.578 540.998 109.628 541.548 110.364 541.877C111.211 542.252 111.625 542.383 112.339 542.383C112.585 542.383 112.866 542.367 113.213 542.341C114.478 542.216 114.921 542.077 115.715 541.486C116.244 541.099 116.841 540.779 117.041 540.777C117.241 540.775 117.881 540.365 118.476 539.844C121.031 537.643 125.44 529.707 127.578 523.542C128.204 521.698 128.721 520.033 128.719 519.832C128.717 519.63 128.846 519.225 128.998 518.91C129.979 516.972 131.132 512.342 131.604 508.459C131.768 507.089 132.039 505.271 132.23 504.417C132.696 502.103 132.614 498.383 132.046 497.178C131.456 495.906 131.408 495.548 131.064 490.081C130.853 486.721 130.66 485.198 130.41 484.708C129.934 483.771 130.108 478.882 130.673 477.688C131.044 476.944 132.784 475.447 135.696 473.4C138.3 471.58 139.552 470.11 139.54 468.922C139.536 468.585 139.395 467.802 139.211 467.176C138.727 465.455 138.229 460.035 138.512 459.494C138.861 458.818 139.8 454.93 139.941 453.561C140.063 452.349 141.135 448.527 141.571 447.693C141.854 447.13 144.348 438.788 144.344 438.406C144.341 438.115 144.963 435.889 145.544 434C147.376 428.265 148.449 422.268 148.827 415.673C149.034 411.95 149.032 411.771 148.551 410.341C147.933 408.509 147.932 408.397 148.514 406.665L148.989 405.27L148.485 403.751C148.21 402.901 147.979 402.052 147.977 401.828C147.975 401.604 148.633 400.767 149.447 399.974L150.899 398.525L150.741 396.083C150.558 393.282 149.675 389.436 148.766 387.472L148.153 386.111L148.109 379.498C148.071 373.49 148.107 372.705 148.533 370.863C149.64 366.054 149.69 364.394 149.41 343.055C149.227 329.247 149.224 322.32 149.4 319.964C149.633 316.599 149.611 307.699 149.385 307.321C149.137 306.965 149.152 301.808 149.39 301.245C149.738 300.435 150.233 296.664 150.466 293.276C150.659 290.36 150.659 290.36 151.728 288.443C152.295 287.384 153.277 285.558 153.865 284.386C154.453 283.214 155.347 281.524 155.85 280.667C156.33 279.788 157.181 278.21 157.725 277.128C159.38 273.793 160.717 271.919 161.779 271.437C162.288 271.208 163.016 270.707 163.389 270.3C164.203 269.462 165.749 266.308 167.352 262.167C167.98 260.546 168.934 258.227 169.455 256.989C169.998 255.75 170.604 254.13 170.797 253.388C171.011 252.646 171.401 251.633 171.663 251.138C171.947 250.642 172.751 248.907 173.446 247.308C174.141 245.687 175.493 243.118 176.455 241.561C178.707 237.906 179.557 236.239 180.311 233.9C181.195 231.223 181.139 229.99 180.097 228.095L179.282 226.602L179.943 223.77C180.816 219.973 181.293 216.56 181.309 213.713C181.31 211.628 181.394 211.157 182.022 209.558L182.738 207.758L182.695 203.499C182.677 199.531 182.696 199.172 183.153 198.226C184.067 196.356 184.127 195.66 183.864 191.583C183.603 187.707 183.298 186.141 182.342 183.774C181.475 181.609 180.923 179.731 180.158 176.511C179.786 174.856 179.255 172.933 179.004 172.218C178.752 171.503 178.545 170.766 178.543 170.586C178.541 170.407 178.288 169.535 177.99 168.642C177.692 167.748 177.165 166.094 176.821 164.999C176.476 163.882 175.972 162.34 175.675 161.536C174.99 159.682 174.113 156.463 173.461 153.488C173.204 152.191 172.763 150.334 172.509 149.351C172.254 148.367 171.929 146.958 171.811 146.219C171.692 145.481 171.388 143.959 171.155 142.863C170.921 141.745 170.498 139.395 170.213 137.605C169.5 132.971 169.361 132.367 168.447 129.888C167.693 127.766 165.79 121.935 165.398 120.504C165.121 119.498 162.89 114.14 162.392 113.271C162.144 112.87 161.688 111.687 161.389 110.658C160.653 108.2 160.336 107.643 159.104 106.624C158.544 106.159 157.558 105.317 156.908 104.763C154.487 102.636 152.944 101.665 149.06 99.8665C146.85 98.8356 144.751 97.8482 144.371 97.6504C144.015 97.4531 143.594 97.3009 143.459 97.3009H143.455C143.161 97.3009 141.046 96.4052 139.574 95.6593C139.016 95.3734 136.942 94.61 134.957 93.9353C132.973 93.283 131.1 92.5847 130.832 92.4305C130.541 92.2541 129.916 91.9915 129.426 91.8396C128.267 91.4704 118.318 87.5591 117.469 87.1418C116.643 86.7243 115.148 83.8476 114.411 81.277C113.581 78.3487 112.275 76.5685 109.882 75.0461C108.876 74.4063 108.83 74.2946 108.54 71.8988C108.392 70.4432 108.392 70.4432 109.72 67.7394C111.07 64.9458 111.931 62.2244 112.346 59.306C112.554 57.869 112.684 57.5313 113.431 56.6943C114.2 55.857 114.308 55.5418 114.472 54.1728C114.575 53.2974 114.765 52.3987 114.896 52.1284C115.027 51.8804 115.13 51.0724 115.123 50.3551C115.114 49.436 115.284 48.6945 115.675 47.8161C116.088 46.8703 116.279 45.9718 116.414 43.9975C116.511 42.5842 116.654 41.2826 116.696 41.1027C116.762 40.9451 116.598 40.1622 116.346 39.3577C115.795 37.5923 115.941 36.6716 116.974 35.5851C118.711 33.7514 118.322 30.3702 115.319 21.1422C115.089 20.4046 114.945 19.3752 114.96 18.5679C115.06 15.3385 113.108 11.1887 110.146 8.30457C104.514 2.84737 103.843 2.36072 100.297 1.07438C98.8919 0.550683 97.9348 0.381195 95.7336 0.246664C93.26 0.0874808 91.372 0 89.86 0Z" fill="black"/>
</svg>
