<svg width="149" height="550" viewBox="0 0 149 550" fill="none" xmlns="http://www.w3.org/2000/svg">
<g filter="url(#filter0_f_438_143)">
<path d="M50.7193 520.483C50.7193 520.483 41.4395 531.41 44.8583 538.368C48.2779 545.318 50.2345 545.812 52.1885 544.817C54.1389 543.827 62.4492 539.857 63.914 538.368C65.3824 536.878 72.2182 537.371 73.1982 532.407C74.1783 527.434 77.1079 523.951 77.5962 522.462C78.0827 520.973 79.061 518.493 80.5275 518.493C81.9924 518.493 83.9463 519.983 83.9463 519.983L85.4111 526.445C85.4111 526.445 81.5067 531.907 82.9724 536.878C84.4372 541.837 83.9455 546.311 85.4111 547.31C86.8768 548.299 91.7675 550.285 94.7015 547.799C97.632 545.319 106.92 542.338 109.361 539.858C111.8 537.367 112.777 531.404 112.777 528.925C112.777 526.447 121.087 514.522 121.087 514.522C121.087 514.522 121.08 507.569 119.13 502.602C117.176 497.632 111.801 484.217 110.335 477.266C108.866 470.305 107.401 438.515 103.983 430.071C100.563 421.63 93.7162 398.28 92.7431 395.794C91.7683 393.314 89.3305 392.317 90.3035 389.831C91.2766 387.353 93.7223 383.383 95.188 382.88C96.6528 382.38 101.059 352.582 103.497 346.128C105.936 339.663 112.774 328.243 113.266 317.813C113.758 307.38 116.203 284.526 116.691 282.048C117.176 279.555 119.621 263.164 119.621 261.674C119.621 260.181 119.129 242.798 119.129 242.798L134.28 239.316C134.28 239.316 134.772 226.903 132.815 216.966C130.856 207.032 129.882 196.602 128.415 191.63C126.95 186.671 126.458 178.218 126.458 178.218C126.458 178.218 138.679 152.886 141.609 143.945C144.54 135.001 148.447 128.05 147.958 120.602C147.473 113.147 146.5 103.706 146.009 102.217C145.513 100.727 137.207 93.2764 126.457 93.2764C115.709 93.2764 115.217 85.8291 113.265 85.3345C111.309 84.8346 108.38 81.8528 108.38 81.8528L106.426 68.9437C106.426 68.9437 107.887 62.9828 108.864 61.4919C109.844 59.9992 108.379 57.0201 111.309 54.041C114.244 51.0584 118.637 45.5876 119.127 41.6175C119.619 37.6466 113.264 12.8032 110.332 9.82053C107.398 6.84053 89.3138 -3.08861 79.5457 2.86959C69.7768 8.83047 67.3249 13.3031 66.3519 15.2922C65.3815 17.2723 61.9566 20.2541 61.9566 23.2332C61.9566 26.2167 60.4917 37.6466 60.4917 37.6466L55.119 38.6358C55.119 38.6358 54.6272 45.0939 58.5378 47.0767C58.5378 47.0767 60.0096 53.5384 60.9835 59.0002C61.9574 64.4719 64.3962 68.4411 66.3528 71.4237C68.3129 74.4019 69.7724 74.9019 70.7516 77.3846C71.7316 79.8647 72.2173 79.3745 74.6621 80.3646C77.107 81.3538 77.107 81.3538 77.107 83.3428V91.7846C77.107 94.2763 73.6821 97.7455 73.6821 97.7455L69.2868 100.238L66.8481 90.7972L1.36609 120.603L8.69631 136.994C8.69631 136.994 4.78575 137.983 7.2315 142.453C9.67725 146.924 10.6503 150.406 12.116 151.393C13.5817 152.396 15.5356 151.895 16.5148 154.375C17.4913 156.868 17.9796 159.347 17.9796 159.347C17.9796 159.347 17.0066 159.847 11.6268 162.827C6.25144 165.809 1.36609 169.778 1.36609 175.739C1.36609 181.7 -0.0987206 185.67 2.83179 187.662C5.76493 189.651 9.67022 190.64 11.6268 189.651C13.5869 188.655 29.7122 187.662 31.6653 186.671L33.6157 185.675C33.6157 185.675 35.0876 195.612 34.111 200.578C33.131 205.543 32.1509 207.032 28.7321 214.484C25.3134 221.935 25.3098 220.942 23.3559 224.917C21.4019 228.894 20.4254 229.387 20.4254 232.369C20.4254 235.347 18.957 238.331 18.957 240.813C18.957 243.303 17.4913 246.281 17.4913 246.281C17.4913 246.281 16.0265 257.208 15.5409 263.17C15.0526 269.127 14.0726 274.093 15.5409 283.536C17.0066 292.973 20.4254 311.845 22.8711 320.292C25.3134 328.736 33.6166 364.009 34.5967 367.485C35.5767 370.961 38.5081 373.44 38.5081 378.411C38.5081 383.383 39.0025 387.851 38.5081 393.814C38.0163 399.776 37.5342 399.768 38.5081 405.234C39.482 410.702 44.3717 429.079 44.86 434.052C45.3457 439.017 46.8105 459.877 48.2797 464.35C49.7445 468.821 49.748 474.287 50.2363 478.758C50.721 483.228 47.7844 505.581 48.2797 507.073C48.7688 508.563 50.7193 520.483 50.7193 520.483Z" fill="black"/>
</g>
<defs>
<filter id="filter0_f_438_143" x="0.8" y="0.800488" width="147.4" height="548.4" filterUnits="userSpaceOnUse" color-interpolation-filters="sRGB">
<feFlood flood-opacity="0" result="BackgroundImageFix"/>
<feBlend mode="normal" in="SourceGraphic" in2="BackgroundImageFix" result="shape"/>
<feGaussianBlur stdDeviation="0.1" result="effect1_foregroundBlur_438_143"/>
</filter>
</defs>
</svg>
